<svg version="1.1" viewBox="0.0 0.0 960.0 720.0" fill="none" stroke="none" stroke-linecap="square" stroke-miterlimit="10" xmlns:xlink="http://www.w3.org/1999/xlink" xmlns="http://www.w3.org/2000/svg"><clipPath id="p.0"><path d="m0 0l960.0 0l0 720.0l-960.0 0l0 -720.0z" clip-rule="nonzero"/></clipPath><g clip-path="url(#p.0)"><path fill="#000000" fill-opacity="0.0" d="m0 0l960.0 0l0 720.0l-960.0 0z" fill-rule="evenodd"/><path fill="#cfe2f3" d="m35.010498 460.23883l0 0c0 -27.135864 24.275333 -49.13385 54.220474 -49.13385l0 0c29.945137 0 54.220474 21.997986 54.220474 49.13385l0 0c0 27.135895 -24.275337 49.13388 -54.220474 49.13388l0 0c-29.94514 0 -54.220474 -21.997986 -54.220474 -49.13388z" fill-rule="evenodd"/><path stroke="#000000" stroke-width="1.0" stroke-linejoin="round" stroke-linecap="butt" d="m35.010498 460.23883l0 0c0 -27.135864 24.275333 -49.13385 54.220474 -49.13385l0 0c29.945137 0 54.220474 21.997986 54.220474 49.13385l0 0c0 27.135895 -24.275337 49.13388 -54.220474 49.13388l0 0c-29.94514 0 -54.220474 -21.997986 -54.220474 -49.13388z" fill-rule="evenodd"/><path fill="#000000" d="m70.860054 462.47134l1.765625 0.453125q-0.5625 2.171875 -2.0 3.328125q-1.4375 1.140625 -3.53125 1.140625q-2.15625 0 -3.5156212 -0.875q-1.34375 -0.890625 -2.0625 -2.546875q-0.703125 -1.671875 -0.703125 -3.59375q0 -2.078125 0.796875 -3.625q0.796875 -1.5625 2.265625 -2.359375q1.4843712 -0.8125 3.2499962 -0.8125q2.0 0 3.359375 1.015625q1.375 1.015625 1.90625 2.875l-1.734375 0.40625q-0.46875 -1.453125 -1.359375 -2.109375q-0.875 -0.671875 -2.203125 -0.671875q-1.546875 0 -2.578125 0.734375q-1.0312462 0.734375 -1.4531212 1.984375q-0.421875 1.234375 -0.421875 2.5625q0 1.703125 0.5 2.96875q0.5 1.265625 1.5468712 1.90625q1.046875 0.625 2.265625 0.625q1.484375 0 2.515625 -0.859375q1.03125 -0.859375 1.390625 -2.546875zm3.6916962 4.6875l0 -13.359375l1.640625 0l0 13.359375l-1.640625 0zm4.191696 -11.46875l0 -1.890625l1.640625 0l0 1.890625l-1.640625 0zm0 11.46875l0 -9.671875l1.640625 0l0 9.671875l-1.640625 0zm10.769821 -3.109375l1.6875 0.203125q-0.40625 1.484375 -1.484375 2.3125q-1.078125 0.8125 -2.765625 0.8125q-2.125 0 -3.375 -1.296875q-1.234375 -1.3125 -1.234375 -3.671875q0 -2.453125 1.25 -3.796875q1.265625 -1.34375 3.265625 -1.34375q1.9375 0 3.15625 1.328125q1.234375 1.3125 1.234375 3.703125q0 0.15625 0 0.4375l-7.21875 0q0.09375 1.59375 0.90625 2.453125q0.8125 0.84375 2.015625 0.84375q0.90625 0 1.546875 -0.46875q0.640625 -0.484375 1.015625 -1.515625zm-5.390625 -2.65625l5.40625 0q-0.109375 -1.21875 -0.625 -1.828125q-0.78125 -0.953125 -2.03125 -0.953125q-1.125 0 -1.90625 0.765625q-0.765625 0.75 -0.84375 2.015625zm9.141342 5.765625l0 -9.671875l1.46875 0l0 1.375q1.0625 -1.59375 3.078125 -1.59375q0.875 0 1.609375 0.3125q0.734375 0.3125 1.09375 0.828125q0.375 0.5 0.515625 1.203125q0.09375 0.453125 0.09375 1.59375l0 5.953125l-1.640625 0l0 -5.890625q0 -1.0 -0.203125 -1.484375q-0.1875 -0.5 -0.671875 -0.796875q-0.484375 -0.296875 -1.140625 -0.296875q-1.046875 0 -1.8125 0.671875q-0.75 0.65625 -0.75 2.515625l0 5.28125l-1.640625 0zm13.953842 -1.46875l0.234375 1.453125q-0.6875 0.140625 -1.234375 0.140625q-0.890625 0 -1.390625 -0.28125q-0.484375 -0.28125 -0.6875 -0.734375q-0.203125 -0.46875 -0.203125 -1.9375l0 -5.578125l-1.203125 0l0 -1.265625l1.203125 0l0 -2.390625l1.625 -0.984375l0 3.375l1.65625 0l0 1.265625l-1.65625 0l0 5.671875q0 0.6875 0.078125 0.890625q0.09375 0.203125 0.28125 0.328125q0.203125 0.109375 0.578125 0.109375q0.265625 0 0.71875 -0.0625z" fill-rule="nonzero"/><path fill="#cfe2f3" d="m719.43567 534.77954l0 0c0 -24.63974 21.490356 -44.614197 48.0 -44.614197l0 0c26.509705 0 48.0 19.974457 48.0 44.614197l0 0c0 24.63971 -21.490295 44.614136 -48.0 44.614136l0 0c-26.509644 0 -48.0 -19.974426 -48.0 -44.614136z" fill-rule="evenodd"/><path stroke="#000000" stroke-width="1.0" stroke-linejoin="round" stroke-linecap="butt" d="m719.43567 534.77954l0 0c0 -24.63974 21.490356 -44.614197 48.0 -44.614197l0 0c26.509705 0 48.0 19.974457 48.0 44.614197l0 0c0 24.63971 -21.490295 44.614136 -48.0 44.614136l0 0c-26.509644 0 -48.0 -19.974426 -48.0 -44.614136z" fill-rule="evenodd"/><path fill="#000000" d="m753.4633 537.012l1.765625 0.453125q-0.5625 2.171875 -2.0 3.328125q-1.4375 1.140625 -3.53125 1.140625q-2.15625 0 -3.515625 -0.875q-1.34375 -0.890625 -2.0625 -2.546875q-0.703125 -1.671875 -0.703125 -3.59375q0 -2.078125 0.796875 -3.625q0.796875 -1.5625 2.265625 -2.359375q1.484375 -0.8125 3.25 -0.8125q2.0 0 3.359375 1.015625q1.375 1.015625 1.90625 2.875l-1.734375 0.40625q-0.46875 -1.453125 -1.359375 -2.109375q-0.875 -0.671875 -2.203125 -0.671875q-1.546875 0 -2.578125 0.734375q-1.03125 0.734375 -1.453125 1.984375q-0.421875 1.234375 -0.421875 2.5625q0 1.703125 0.5 2.96875q0.5 1.265625 1.546875 1.90625q1.046875 0.625 2.265625 0.625q1.484375 0 2.515625 -0.859375q1.03125 -0.859375 1.390625 -2.546875zm3.7385864 4.6875l0 -13.359375l1.640625 0l0 4.796875q1.140625 -1.328125 2.890625 -1.328125q1.078125 0 1.859375 0.421875q0.796875 0.421875 1.140625 1.171875q0.34375 0.75 0.34375 2.171875l0 6.125l-1.640625 0l0 -6.125q0 -1.234375 -0.53125 -1.796875q-0.53125 -0.5625 -1.515625 -0.5625q-0.71875 0 -1.359375 0.390625q-0.640625 0.375 -0.921875 1.015625q-0.265625 0.640625 -0.265625 1.78125l0 5.296875l-1.640625 0zm17.000732 -3.109375l1.6875 0.203125q-0.40625 1.484375 -1.484375 2.3125q-1.078125 0.8125 -2.765625 0.8125q-2.125 0 -3.375 -1.296875q-1.234375 -1.3125 -1.234375 -3.671875q0 -2.453125 1.25 -3.796875q1.265625 -1.34375 3.265625 -1.34375q1.9375 0 3.15625 1.328125q1.234375 1.3125 1.234375 3.703125q0 0.15625 0 0.4375l-7.21875 0q0.09375 1.59375 0.90625 2.453125q0.8125 0.84375 2.015625 0.84375q0.90625 0 1.546875 -0.46875q0.640625 -0.484375 1.015625 -1.515625zm-5.390625 -2.65625l5.40625 0q-0.109375 -1.21875 -0.625 -1.828125q-0.78125 -0.953125 -2.03125 -0.953125q-1.125 0 -1.90625 0.765625q-0.765625 0.75 -0.84375 2.015625zm9.531921 5.765625l0 -8.40625l-1.453125 0l0 -1.265625l1.453125 0l0 -1.03125q0 -0.96875 0.171875 -1.453125q0.234375 -0.640625 0.828125 -1.03125q0.59375 -0.390625 1.671875 -0.390625q0.6875 0 1.53125 0.15625l-0.25 1.4375q-0.5 -0.09375 -0.953125 -0.09375q-0.75 0 -1.0625 0.328125q-0.3125 0.3125 -0.3125 1.1875l0 0.890625l1.890625 0l0 1.265625l-1.890625 0l0 8.40625l-1.625 0z" fill-rule="nonzero"/><path fill="#cfe2f3" d="m773.6483 225.87665l0 0c0 -36.79869 30.592651 -66.62993 68.33069 -66.62993l0 0c18.122437 0 35.502625 7.0199127 48.317078 19.515457c12.814514 12.495529 20.01361 29.443115 20.01361 47.11447l0 0c0 36.798676 -30.592651 66.62991 -68.33069 66.62991l0 0c-37.738037 0 -68.33069 -29.831238 -68.33069 -66.62991z" fill-rule="evenodd"/><path stroke="#000000" stroke-width="1.0" stroke-linejoin="round" stroke-linecap="butt" d="m773.6483 225.87665l0 0c0 -36.79869 30.592651 -66.62993 68.33069 -66.62993l0 0c18.122437 0 35.502625 7.0199127 48.317078 19.515457c12.814514 12.495529 20.01361 29.443115 20.01361 47.11447l0 0c0 36.798676 -30.592651 66.62991 -68.33069 66.62991l0 0c-37.738037 0 -68.33069 -29.831238 -68.33069 -66.62991z" fill-rule="evenodd"/><path fill="#000000" d="m804.09937 232.79663l0 -13.359375l4.609375 0q1.546875 0 2.375 0.203125q1.140625 0.25 1.953125 0.953125q1.0625 0.890625 1.578125 2.28125q0.53125 1.390625 0.53125 3.171875q0 1.515625 -0.359375 2.703125q-0.359375 1.171875 -0.921875 1.9375q-0.546875 0.765625 -1.203125 1.21875q-0.65625 0.4375 -1.59375 0.671875q-0.9375 0.21875 -2.140625 0.21875l-4.828125 0zm1.765625 -1.578125l2.859375 0q1.3125 0 2.0625 -0.234375q0.75 -0.25 1.203125 -0.703125q0.625 -0.625 0.96875 -1.6875q0.359375 -1.0625 0.359375 -2.578125q0 -2.09375 -0.6875 -3.21875q-0.6875 -1.125 -1.671875 -1.5q-0.703125 -0.28125 -2.28125 -0.28125l-2.8125 0l0 10.203125zm18.129211 -1.53125l1.6875 0.203125q-0.40625 1.484375 -1.484375 2.3125q-1.078125 0.8125 -2.765625 0.8125q-2.125 0 -3.375 -1.296875q-1.234375 -1.3125 -1.234375 -3.671875q0 -2.453125 1.25 -3.796875q1.265625 -1.34375 3.265625 -1.34375q1.9375 0 3.15625 1.328125q1.234375 1.3125 1.234375 3.703125q0 0.15625 0 0.4375l-7.21875 0q0.09375 1.59375 0.90625 2.453125q0.8125 0.84375 2.015625 0.84375q0.90625 0 1.546875 -0.46875q0.640625 -0.484375 1.015625 -1.515625zm-5.390625 -2.65625l5.40625 0q-0.109375 -1.21875 -0.625 -1.828125q-0.78125 -0.953125 -2.03125 -0.953125q-1.125 0 -1.90625 0.765625q-0.765625 0.75 -0.84375 2.015625zm9.094482 5.765625l0 -13.359375l1.640625 0l0 13.359375l-1.640625 0zm4.1917114 -11.46875l0 -1.890625l1.640625 0l0 1.890625l-1.640625 0zm0 11.46875l0 -9.671875l1.640625 0l0 9.671875l-1.640625 0zm6.8322754 0l-3.6875 -9.671875l1.734375 0l2.078125 5.796875q0.328125 0.9375 0.625 1.9375q0.203125 -0.765625 0.609375 -1.828125l2.140625 -5.90625l1.6875 0l-3.65625 9.671875l-1.53125 0zm13.265625 -3.109375l1.6875 0.203125q-0.40625 1.484375 -1.484375 2.3125q-1.078125 0.8125 -2.765625 0.8125q-2.125 0 -3.375 -1.296875q-1.234375 -1.3125 -1.234375 -3.671875q0 -2.453125 1.25 -3.796875q1.265625 -1.34375 3.265625 -1.34375q1.9375 0 3.15625 1.328125q1.234375 1.3125 1.234375 3.703125q0 0.15625 0 0.4375l-7.21875 0q0.09375 1.59375 0.90625 2.453125q0.8125 0.84375 2.015625 0.84375q0.90625 0 1.546875 -0.46875q0.640625 -0.484375 1.015625 -1.515625zm-5.390625 -2.65625l5.40625 0q-0.109375 -1.21875 -0.625 -1.828125q-0.78125 -0.953125 -2.03125 -0.953125q-1.125 0 -1.90625 0.765625q-0.765625 0.75 -0.84375 2.015625zm9.125732 5.765625l0 -9.671875l1.46875 0l0 1.46875q0.5625 -1.03125 1.03125 -1.359375q0.484375 -0.328125 1.0625 -0.328125q0.828125 0 1.6875 0.53125l-0.5625 1.515625q-0.609375 -0.359375 -1.203125 -0.359375q-0.546875 0 -0.96875 0.328125q-0.421875 0.328125 -0.609375 0.890625q-0.28125 0.875 -0.28125 1.921875l0 5.0625l-1.625 0zm12.8533325 -3.109375l1.6875 0.203125q-0.40625 1.484375 -1.484375 2.3125q-1.078125 0.8125 -2.765625 0.8125q-2.125 0 -3.375 -1.296875q-1.234375 -1.3125 -1.234375 -3.671875q0 -2.453125 1.25 -3.796875q1.265625 -1.34375 3.265625 -1.34375q1.9375 0 3.15625 1.328125q1.234375 1.3125 1.234375 3.703125q0 0.15625 0 0.4375l-7.21875 0q0.09375 1.59375 0.90625 2.453125q0.8125 0.84375 2.015625 0.84375q0.90625 0 1.546875 -0.46875q0.640625 -0.484375 1.015625 -1.515625zm-5.390625 -2.65625l5.40625 0q-0.109375 -1.21875 -0.625 -1.828125q-0.78125 -0.953125 -2.03125 -0.953125q-1.125 0 -1.90625 0.765625q-0.765625 0.75 -0.84375 2.015625zm9.125671 5.765625l0 -9.671875l1.46875 0l0 1.46875q0.5625 -1.03125 1.03125 -1.359375q0.484375 -0.328125 1.0625 -0.328125q0.828125 0 1.6875 0.53125l-0.5625 1.515625q-0.609375 -0.359375 -1.203125 -0.359375q-0.546875 0 -0.96875 0.328125q-0.421875 0.328125 -0.609375 0.890625q-0.28125 0.875 -0.28125 1.921875l0 5.0625l-1.625 0z" fill-rule="nonzero"/><path fill="#cfe2f3" d="m324.14172 460.23883l0 0c0 -27.135864 34.63977 -49.13385 77.37009 -49.13385l0 0c42.730316 0 77.37009 21.997986 77.37009 49.13385l0 0c0 27.135895 -34.63977 49.13388 -77.37009 49.13388l0 0c-42.730316 0 -77.37009 -21.997986 -77.37009 -49.13388z" fill-rule="evenodd"/><path stroke="#000000" stroke-width="1.0" stroke-linejoin="round" stroke-linecap="butt" d="m324.14172 460.23883l0 0c0 -27.135864 34.63977 -49.13385 77.37009 -49.13385l0 0c42.730316 0 77.37009 21.997986 77.37009 49.13385l0 0c0 27.135895 -34.63977 49.13388 -77.37009 49.13388l0 0c-42.730316 0 -77.37009 -21.997986 -77.37009 -49.13388z" fill-rule="evenodd"/><path fill="#000000" d="m356.70917 460.65884q0 -3.328125 1.78125 -5.203125q1.78125 -1.890625 4.609375 -1.890625q1.84375 0 3.328125 0.890625q1.484375 0.875 2.265625 2.46875q0.78125 1.578125 0.78125 3.578125q0 2.03125 -0.828125 3.640625q-0.8125 1.59375 -2.3125 2.421875q-1.5 0.828125 -3.25 0.828125q-1.875 0 -3.359375 -0.90625q-1.484375 -0.921875 -2.25 -2.5q-0.765625 -1.578125 -0.765625 -3.328125zm1.8125 0.015625q0 2.421875 1.296875 3.8125q1.296875 1.390625 3.265625 1.390625q2.0 0 3.28125 -1.40625q1.28125 -1.40625 1.28125 -3.984375q0 -1.625 -0.546875 -2.84375q-0.546875 -1.21875 -1.609375 -1.875q-1.0625 -0.671875 -2.375 -0.671875q-1.890625 0 -3.25 1.296875q-1.34375 1.28125 -1.34375 4.28125zm13.011414 6.484375l0 -9.671875l1.46875 0l0 1.46875q0.5625 -1.03125 1.03125 -1.359375q0.484375 -0.328125 1.0625 -0.328125q0.828125 0 1.6875 0.53125l-0.5625 1.515625q-0.609375 -0.359375 -1.203125 -0.359375q-0.546875 0 -0.96875 0.328125q-0.421875 0.328125 -0.609375 0.890625q-0.28125 0.875 -0.28125 1.921875l0 5.0625l-1.625 0zm12.493927 0l0 -1.21875q-0.90625 1.4375 -2.703125 1.4375q-1.15625 0 -2.125 -0.640625q-0.96875 -0.640625 -1.5 -1.78125q-0.53125 -1.140625 -0.53125 -2.625q0 -1.453125 0.484375 -2.625q0.484375 -1.1875 1.4375 -1.8125q0.96875 -0.625 2.171875 -0.625q0.875 0 1.546875 0.375q0.6875 0.359375 1.109375 0.953125l0 -4.796875l1.640625 0l0 13.359375l-1.53125 0zm-5.171875 -4.828125q0 1.859375 0.78125 2.78125q0.78125 0.921875 1.84375 0.921875q1.078125 0 1.828125 -0.875q0.75 -0.890625 0.75 -2.6875q0 -1.984375 -0.765625 -2.90625q-0.765625 -0.9375 -1.890625 -0.9375q-1.078125 0 -1.8125 0.890625q-0.734375 0.890625 -0.734375 2.8125zm15.906982 1.71875l1.6875 0.203125q-0.40625 1.484375 -1.484375 2.3125q-1.078125 0.8125 -2.765625 0.8125q-2.125 0 -3.375 -1.296875q-1.234375 -1.3125 -1.234375 -3.671875q0 -2.453125 1.25 -3.796875q1.265625 -1.34375 3.265625 -1.34375q1.9375 0 3.15625 1.328125q1.234375 1.3125 1.234375 3.703125q0 0.15625 0 0.4375l-7.21875 0q0.09375 1.59375 0.90625 2.453125q0.8125 0.84375 2.015625 0.84375q0.90625 0 1.546875 -0.46875q0.640625 -0.484375 1.015625 -1.515625zm-5.390625 -2.65625l5.40625 0q-0.109375 -1.21875 -0.625 -1.828125q-0.78125 -0.953125 -2.03125 -0.953125q-1.125 0 -1.90625 0.765625q-0.765625 0.75 -0.84375 2.015625zm9.125702 5.765625l0 -9.671875l1.46875 0l0 1.46875q0.5625 -1.03125 1.03125 -1.359375q0.484375 -0.328125 1.0625 -0.328125q0.828125 0 1.6875 0.53125l-0.5625 1.515625q-0.609375 -0.359375 -1.203125 -0.359375q-0.546875 0 -0.96875 0.328125q-0.421875 0.328125 -0.609375 0.890625q-0.28125 0.875 -0.28125 1.921875l0 5.0625l-1.625 0zm11.802246 0l0 -8.40625l-1.453125 0l0 -1.265625l1.453125 0l0 -1.03125q0 -0.96875 0.171875 -1.453125q0.234375 -0.640625 0.828125 -1.03125q0.59375 -0.390625 1.671875 -0.390625q0.6875 0 1.53125 0.15625l-0.25 1.4375q-0.5 -0.09375 -0.953125 -0.09375q-0.75 0 -1.0625 0.328125q-0.3125 0.3125 -0.3125 1.1875l0 0.890625l1.890625 0l0 1.265625l-1.890625 0l0 8.40625l-1.625 0zm4.1832886 -4.84375q0 -2.6875 1.484375 -3.96875q1.25 -1.078125 3.046875 -1.078125q2.0 0 3.265625 1.3125q1.265625 1.296875 1.265625 3.609375q0 1.859375 -0.5625 2.9375q-0.5625 1.0625 -1.640625 1.65625q-1.0625 0.59375 -2.328125 0.59375q-2.03125 0 -3.28125 -1.296875q-1.25 -1.3125 -1.25 -3.765625zm1.6875 0q0 1.859375 0.796875 2.796875q0.8125 0.921875 2.046875 0.921875q1.21875 0 2.03125 -0.921875q0.8125 -0.9375 0.8125 -2.84375q0 -1.796875 -0.8125 -2.71875q-0.8125 -0.921875 -2.03125 -0.921875q-1.234375 0 -2.046875 0.921875q-0.796875 0.90625 -0.796875 2.765625zm8.688232 0q0 -2.6875 1.484375 -3.96875q1.25 -1.078125 3.046875 -1.078125q2.0 0 3.265625 1.3125q1.265625 1.296875 1.265625 3.609375q0 1.859375 -0.5625 2.9375q-0.5625 1.0625 -1.640625 1.65625q-1.0625 0.59375 -2.328125 0.59375q-2.03125 0 -3.28125 -1.296875q-1.25 -1.3125 -1.25 -3.765625zm1.6875 0q0 1.859375 0.796875 2.796875q0.8125 0.921875 2.046875 0.921875q1.21875 0 2.03125 -0.921875q0.8125 -0.9375 0.8125 -2.84375q0 -1.796875 -0.8125 -2.71875q-0.8125 -0.921875 -2.03125 -0.921875q-1.234375 0 -2.046875 0.921875q-0.796875 0.90625 -0.796875 2.765625zm15.563202 4.84375l0 -1.21875q-0.90625 1.4375 -2.703125 1.4375q-1.15625 0 -2.125 -0.640625q-0.96875 -0.640625 -1.5 -1.78125q-0.53125 -1.140625 -0.53125 -2.625q0 -1.453125 0.484375 -2.625q0.484375 -1.1875 1.4375 -1.8125q0.96875 -0.625 2.171875 -0.625q0.875 0 1.546875 0.375q0.6875 0.359375 1.109375 0.953125l0 -4.796875l1.640625 0l0 13.359375l-1.53125 0zm-5.171875 -4.828125q0 1.859375 0.78125 2.78125q0.78125 0.921875 1.84375 0.921875q1.078125 0 1.828125 -0.875q0.75 -0.890625 0.75 -2.6875q0 -1.984375 -0.765625 -2.90625q-0.765625 -0.9375 -1.890625 -0.9375q-1.078125 0 -1.8125 0.890625q-0.734375 0.890625 -0.734375 2.8125z" fill-rule="nonzero"/><path fill="#cfe2f3" d="m243.95276 310.86615l0 0c0 -27.135895 37.67154 -49.13388 84.14172 -49.13388l0 0c46.470215 0 84.14172 21.997986 84.14172 49.13388l0 0c0 27.135864 -37.67151 49.13385 -84.14172 49.13385l0 0c-46.470184 0 -84.14172 -21.997986 -84.14172 -49.13385z" fill-rule="evenodd"/><path stroke="#000000" stroke-width="1.0" stroke-linejoin="round" stroke-linecap="butt" d="m243.95276 310.86615l0 0c0 -27.135895 37.67154 -49.13388 84.14172 -49.13388l0 0c46.470215 0 84.14172 21.997986 84.14172 49.13388l0 0c0 27.135864 -37.67151 49.13385 -84.14172 49.13385l0 0c-46.470184 0 -84.14172 -21.997986 -84.14172 -49.13385z" fill-rule="evenodd"/><path fill="#000000" d="m279.0348 317.78613l0 -13.359375l5.046875 0q1.328125 0 2.03125 0.125q0.96875 0.171875 1.640625 0.640625q0.671875 0.453125 1.078125 1.28125q0.40625 0.828125 0.40625 1.828125q0 1.703125 -1.09375 2.890625q-1.078125 1.171875 -3.921875 1.171875l-3.421875 0l0 5.421875l-1.765625 0zm1.765625 -7.0l3.453125 0q1.71875 0 2.4375 -0.640625q0.71875 -0.640625 0.71875 -1.796875q0 -0.84375 -0.421875 -1.4375q-0.421875 -0.59375 -1.125 -0.78125q-0.4375 -0.125 -1.640625 -0.125l-3.421875 0l0 4.78125zm16.787323 5.8125q-0.921875 0.765625 -1.765625 1.09375q-0.828125 0.3125 -1.796875 0.3125q-1.59375 0 -2.453125 -0.78125q-0.859375 -0.78125 -0.859375 -1.984375q0 -0.71875 0.328125 -1.296875q0.328125 -0.59375 0.84375 -0.9375q0.53125 -0.359375 1.1875 -0.546875q0.46875 -0.125 1.453125 -0.25q1.984375 -0.234375 2.921875 -0.5625q0.015625 -0.34375 0.015625 -0.421875q0 -1.0 -0.46875 -1.421875q-0.625 -0.546875 -1.875 -0.546875q-1.15625 0 -1.703125 0.40625q-0.546875 0.40625 -0.8125 1.421875l-1.609375 -0.21875q0.21875 -1.015625 0.71875 -1.640625q0.5 -0.640625 1.453125 -0.984375q0.953125 -0.34375 2.1875 -0.34375q1.25 0 2.015625 0.296875q0.78125 0.28125 1.140625 0.734375q0.375 0.4375 0.515625 1.109375q0.078125 0.421875 0.078125 1.515625l0 2.1875q0 2.28125 0.109375 2.890625q0.109375 0.59375 0.40625 1.15625l-1.703125 0q-0.265625 -0.515625 -0.328125 -1.1875zm-0.140625 -3.671875q-0.890625 0.375 -2.671875 0.625q-1.015625 0.140625 -1.4375 0.328125q-0.421875 0.1875 -0.65625 0.53125q-0.21875 0.34375 -0.21875 0.78125q0 0.65625 0.5 1.09375q0.5 0.4375 1.453125 0.4375q0.9375 0 1.671875 -0.40625q0.75 -0.421875 1.09375 -1.140625q0.265625 -0.5625 0.265625 -1.640625l0 -0.609375zm4.1257324 8.578125l-0.1875 -1.53125q0.546875 0.140625 0.9375 0.140625q0.546875 0 0.875 -0.1875q0.328125 -0.171875 0.546875 -0.5q0.15625 -0.25 0.5 -1.21875q0.046875 -0.140625 0.140625 -0.40625l-3.671875 -9.6875l1.765625 0l2.015625 5.59375q0.390625 1.078125 0.703125 2.25q0.28125 -1.125 0.671875 -2.203125l2.078125 -5.640625l1.640625 0l-3.6875 9.828125q-0.59375 1.609375 -0.921875 2.203125q-0.4375 0.8125 -1.0 1.1875q-0.5625 0.375 -1.34375 0.375q-0.484375 0 -1.0625 -0.203125zm14.980164 -3.71875l0 -8.40625l-1.453125 0l0 -1.265625l1.453125 0l0 -1.03125q0 -0.96875 0.171875 -1.453125q0.234375 -0.640625 0.828125 -1.03125q0.59375 -0.390625 1.671875 -0.390625q0.6875 0 1.53125 0.15625l-0.25 1.4375q-0.5 -0.09375 -0.953125 -0.09375q-0.75 0 -1.0625 0.328125q-0.3125 0.3125 -0.3125 1.1875l0 0.890625l1.890625 0l0 1.265625l-1.890625 0l0 8.40625l-1.625 0zm4.183319 -4.84375q0 -2.6875 1.484375 -3.96875q1.25 -1.078125 3.046875 -1.078125q2.0 0 3.265625 1.3125q1.265625 1.296875 1.265625 3.609375q0 1.859375 -0.5625 2.9375q-0.5625 1.0625 -1.640625 1.65625q-1.0625 0.59375 -2.328125 0.59375q-2.03125 0 -3.28125 -1.296875q-1.25 -1.3125 -1.25 -3.765625zm1.6875 0q0 1.859375 0.796875 2.796875q0.8125 0.921875 2.046875 0.921875q1.21875 0 2.03125 -0.921875q0.8125 -0.9375 0.8125 -2.84375q0 -1.796875 -0.8125 -2.71875q-0.8125 -0.921875 -2.03125 -0.921875q-1.234375 0 -2.046875 0.921875q-0.796875 0.90625 -0.796875 2.765625zm9.281952 4.84375l0 -9.671875l1.46875 0l0 1.46875q0.5625 -1.03125 1.03125 -1.359375q0.484375 -0.328125 1.0625 -0.328125q0.828125 0 1.6875 0.53125l-0.5625 1.515625q-0.609375 -0.359375 -1.203125 -0.359375q-0.546875 0 -0.96875 0.328125q-0.421875 0.328125 -0.609375 0.890625q-0.28125 0.875 -0.28125 1.921875l0 5.0625l-1.625 0zm11.802246 0l0 -8.40625l-1.453125 0l0 -1.265625l1.453125 0l0 -1.03125q0 -0.96875 0.171875 -1.453125q0.234375 -0.640625 0.828125 -1.03125q0.59375 -0.390625 1.671875 -0.390625q0.6875 0 1.53125 0.15625l-0.25 1.4375q-0.5 -0.09375 -0.953125 -0.09375q-0.75 0 -1.0625 0.328125q-0.3125 0.3125 -0.3125 1.1875l0 0.890625l1.890625 0l0 1.265625l-1.890625 0l0 8.40625l-1.625 0zm4.1832886 -4.84375q0 -2.6875 1.484375 -3.96875q1.25 -1.078125 3.046875 -1.078125q2.0 0 3.265625 1.3125q1.265625 1.296875 1.265625 3.609375q0 1.859375 -0.5625 2.9375q-0.5625 1.0625 -1.640625 1.65625q-1.0625 0.59375 -2.328125 0.59375q-2.03125 0 -3.28125 -1.296875q-1.25 -1.3125 -1.25 -3.765625zm1.6875 0q0 1.859375 0.796875 2.796875q0.8125 0.921875 2.046875 0.921875q1.21875 0 2.03125 -0.921875q0.8125 -0.9375 0.8125 -2.84375q0 -1.796875 -0.8125 -2.71875q-0.8125 -0.921875 -2.03125 -0.921875q-1.234375 0 -2.046875 0.921875q-0.796875 0.90625 -0.796875 2.765625zm8.688232 0q0 -2.6875 1.484375 -3.96875q1.25 -1.078125 3.046875 -1.078125q2.0 0 3.265625 1.3125q1.265625 1.296875 1.265625 3.609375q0 1.859375 -0.5625 2.9375q-0.5625 1.0625 -1.640625 1.65625q-1.0625 0.59375 -2.328125 0.59375q-2.03125 0 -3.28125 -1.296875q-1.25 -1.3125 -1.25 -3.765625zm1.6875 0q0 1.859375 0.796875 2.796875q0.8125 0.921875 2.046875 0.921875q1.21875 0 2.03125 -0.921875q0.8125 -0.9375 0.8125 -2.84375q0 -1.796875 -0.8125 -2.71875q-0.8125 -0.921875 -2.03125 -0.921875q-1.234375 0 -2.046875 0.921875q-0.796875 0.90625 -0.796875 2.765625zm15.563202 4.84375l0 -1.21875q-0.90625 1.4375 -2.703125 1.4375q-1.15625 0 -2.125 -0.640625q-0.96875 -0.640625 -1.5 -1.78125q-0.53125 -1.140625 -0.53125 -2.625q0 -1.453125 0.484375 -2.625q0.484375 -1.1875 1.4375 -1.8125q0.96875 -0.625 2.171875 -0.625q0.875 0 1.546875 0.375q0.6875 0.359375 1.109375 0.953125l0 -4.796875l1.640625 0l0 13.359375l-1.53125 0zm-5.171875 -4.828125q0 1.859375 0.78125 2.78125q0.78125 0.921875 1.84375 0.921875q1.078125 0 1.828125 -0.875q0.75 -0.890625 0.75 -2.6875q0 -1.984375 -0.765625 -2.90625q-0.765625 -0.9375 -1.890625 -0.9375q-1.078125 0 -1.8125 0.890625q-0.734375 0.890625 -0.734375 2.8125z" fill-rule="nonzero"/><path fill="#000000" fill-opacity="0.0" d="m143.45145 460.23883l180.6929 0" fill-rule="evenodd"/><path stroke="#000000" stroke-width="1.0" stroke-linejoin="round" stroke-linecap="butt" d="m143.45145 460.23883l180.6929 0" fill-rule="evenodd"/><path fill="#000000" fill-opacity="0.0" d="m127.57063 425.49597l141.03938 -79.87402" fill-rule="evenodd"/><path stroke="#000000" stroke-width="1.0" stroke-linejoin="round" stroke-linecap="butt" d="m127.57063 425.49597l141.03938 -79.87402" fill-rule="evenodd"/><path fill="#000000" fill-opacity="0.0" d="m478.8819 460.23883l240.5669 74.55121" fill-rule="evenodd"/><path stroke="#000000" stroke-width="1.0" stroke-linejoin="round" stroke-linecap="butt" d="m478.8819 460.23883l240.5669 74.55121" fill-rule="evenodd"/><path fill="#cfe2f3" d="m608.7533 380.8819l0 0c0 -24.63974 34.63977 -44.614166 77.370056 -44.614166l0 0c42.730347 0 77.370056 19.974426 77.370056 44.614166l0 0c0 24.63971 -34.63971 44.614166 -77.370056 44.614166l0 0c-42.730286 0 -77.370056 -19.974457 -77.370056 -44.614166z" fill-rule="evenodd"/><path stroke="#000000" stroke-width="1.0" stroke-linejoin="round" stroke-linecap="butt" d="m608.7533 380.8819l0 0c0 -24.63974 34.63977 -44.614166 77.370056 -44.614166l0 0c42.730347 0 77.370056 19.974426 77.370056 44.614166l0 0c0 24.63971 -34.63971 44.614166 -77.370056 44.614166l0 0c-42.730286 0 -77.370056 -19.974457 -77.370056 -44.614166z" fill-rule="evenodd"/><path fill="#000000" d="m651.3832 383.11438l1.765625 0.453125q-0.5625 2.171875 -2.0 3.328125q-1.4375 1.140625 -3.53125 1.140625q-2.15625 0 -3.515625 -0.875q-1.34375 -0.890625 -2.0625 -2.546875q-0.703125 -1.671875 -0.703125 -3.59375q0 -2.078125 0.796875 -3.625q0.796875 -1.5625 2.265625 -2.359375q1.484375 -0.8125 3.25 -0.8125q2.0 0 3.359375 1.015625q1.375 1.015625 1.90625 2.875l-1.734375 0.40625q-0.46875 -1.453125 -1.359375 -2.109375q-0.875 -0.671875 -2.203125 -0.671875q-1.546875 0 -2.578125 0.734375q-1.03125 0.734375 -1.453125 1.984375q-0.421875 1.234375 -0.421875 2.5625q0 1.703125 0.5 2.96875q0.5 1.265625 1.546875 1.90625q1.046875 0.625 2.265625 0.625q1.484375 0 2.515625 -0.859375q1.03125 -0.859375 1.390625 -2.546875zm3.1292114 -0.15625q0 -2.6875 1.484375 -3.96875q1.25 -1.078125 3.046875 -1.078125q2.0 0 3.265625 1.3125q1.265625 1.296875 1.265625 3.609375q0 1.859375 -0.5625 2.9375q-0.5625 1.0625 -1.640625 1.65625q-1.0625 0.59375 -2.328125 0.59375q-2.03125 0 -3.28125 -1.296875q-1.25 -1.3125 -1.25 -3.765625zm1.6875 0q0 1.859375 0.796875 2.796875q0.8125 0.921875 2.046875 0.921875q1.21875 0 2.03125 -0.921875q0.8125 -0.9375 0.8125 -2.84375q0 -1.796875 -0.8125 -2.71875q-0.8125 -0.921875 -2.03125 -0.921875q-1.234375 0 -2.046875 0.921875q-0.796875 0.90625 -0.796875 2.765625zm8.688232 0q0 -2.6875 1.484375 -3.96875q1.25 -1.078125 3.046875 -1.078125q2.0 0 3.265625 1.3125q1.265625 1.296875 1.265625 3.609375q0 1.859375 -0.5625 2.9375q-0.5625 1.0625 -1.640625 1.65625q-1.0625 0.59375 -2.328125 0.59375q-2.03125 0 -3.28125 -1.296875q-1.25 -1.3125 -1.25 -3.765625zm1.6875 0q0 1.859375 0.796875 2.796875q0.8125 0.921875 2.046875 0.921875q1.21875 0 2.03125 -0.921875q0.8125 -0.9375 0.8125 -2.84375q0 -1.796875 -0.8125 -2.71875q-0.8125 -0.921875 -2.03125 -0.921875q-1.234375 0 -2.046875 0.921875q-0.796875 0.90625 -0.796875 2.765625zm9.297607 4.84375l0 -13.359375l1.640625 0l0 7.625l3.890625 -3.9375l2.109375 0l-3.6875 3.59375l4.0625 6.078125l-2.015625 0l-3.203125 -4.953125l-1.15625 1.125l0 3.828125l-1.640625 0zm14.902039 0l0 -8.40625l-1.453125 0l0 -1.265625l1.453125 0l0 -1.03125q0 -0.96875 0.171875 -1.453125q0.234375 -0.640625 0.828125 -1.03125q0.59375 -0.390625 1.671875 -0.390625q0.6875 0 1.53125 0.15625l-0.25 1.4375q-0.5 -0.09375 -0.953125 -0.09375q-0.75 0 -1.0625 0.328125q-0.3125 0.3125 -0.3125 1.1875l0 0.890625l1.890625 0l0 1.265625l-1.890625 0l0 8.40625l-1.625 0zm4.1832886 -4.84375q0 -2.6875 1.484375 -3.96875q1.25 -1.078125 3.046875 -1.078125q2.0 0 3.265625 1.3125q1.265625 1.296875 1.265625 3.609375q0 1.859375 -0.5625 2.9375q-0.5625 1.0625 -1.640625 1.65625q-1.0625 0.59375 -2.328125 0.59375q-2.03125 0 -3.28125 -1.296875q-1.25 -1.3125 -1.25 -3.765625zm1.6875 0q0 1.859375 0.796875 2.796875q0.8125 0.921875 2.046875 0.921875q1.21875 0 2.03125 -0.921875q0.8125 -0.9375 0.8125 -2.84375q0 -1.796875 -0.8125 -2.71875q-0.8125 -0.921875 -2.03125 -0.921875q-1.234375 0 -2.046875 0.921875q-0.796875 0.90625 -0.796875 2.765625zm8.688232 0q0 -2.6875 1.484375 -3.96875q1.25 -1.078125 3.046875 -1.078125q2.0 0 3.265625 1.3125q1.265625 1.296875 1.265625 3.609375q0 1.859375 -0.5625 2.9375q-0.5625 1.0625 -1.640625 1.65625q-1.0625 0.59375 -2.328125 0.59375q-2.03125 0 -3.28125 -1.296875q-1.25 -1.3125 -1.25 -3.765625zm1.6875 0q0 1.859375 0.796875 2.796875q0.8125 0.921875 2.046875 0.921875q1.21875 0 2.03125 -0.921875q0.8125 -0.9375 0.8125 -2.84375q0 -1.796875 -0.8125 -2.71875q-0.8125 -0.921875 -2.03125 -0.921875q-1.234375 0 -2.046875 0.921875q-0.796875 0.90625 -0.796875 2.765625zm15.563232 4.84375l0 -1.21875q-0.90625 1.4375 -2.703125 1.4375q-1.15625 0 -2.125 -0.640625q-0.96875 -0.640625 -1.5 -1.78125q-0.53125 -1.140625 -0.53125 -2.625q0 -1.453125 0.484375 -2.625q0.484375 -1.1875 1.4375 -1.8125q0.96875 -0.625 2.171875 -0.625q0.875 0 1.546875 0.375q0.6875 0.359375 1.109375 0.953125l0 -4.796875l1.640625 0l0 13.359375l-1.53125 0zm-5.171875 -4.828125q0 1.859375 0.78125 2.78125q0.78125 0.921875 1.84375 0.921875q1.078125 0 1.828125 -0.875q0.75 -0.890625 0.75 -2.6875q0 -1.984375 -0.765625 -2.90625q-0.765625 -0.9375 -1.890625 -0.9375q-1.078125 0 -1.8125 0.890625q-0.734375 0.890625 -0.734375 2.8125z" fill-rule="nonzero"/><path fill="#000000" fill-opacity="0.0" d="m740.8323 412.42886l26.614136 77.7323" fill-rule="evenodd"/><path stroke="#000000" stroke-width="1.0" stroke-linejoin="round" stroke-linecap="butt" d="m740.8323 412.42886l26.614136 77.7323" fill-rule="evenodd"/><path fill="#cfe2f3" d="m319.3701 79.62205l0 0c0 -32.7457 43.290894 -59.291336 96.6929 -59.291336l0 0c53.40204 0 96.69293 26.545637 96.69293 59.291336l0 0c0 32.745705 -43.290894 59.291344 -96.69293 59.291344l0 0c-53.402008 0 -96.6929 -26.545639 -96.6929 -59.291344z" fill-rule="evenodd"/><path stroke="#000000" stroke-width="1.0" stroke-linejoin="round" stroke-linecap="butt" d="m319.3701 79.62205l0 0c0 -32.7457 43.290894 -59.291336 96.6929 -59.291336l0 0c53.40204 0 96.69293 26.545637 96.69293 59.291336l0 0c0 32.745705 -43.290894 59.291344 -96.69293 59.291344l0 0c-53.402008 0 -96.6929 -26.545639 -96.6929 -59.291344z" fill-rule="evenodd"/><path fill="#000000" d="m358.12827 86.542046l0 -13.359375l4.609375 0q1.546875 0 2.375 0.203125q1.140625 0.25 1.953125 0.953125q1.0625 0.890625 1.578125 2.28125q0.53125 1.390625 0.53125 3.171875q0 1.515625 -0.359375 2.703125q-0.359375 1.171875 -0.921875 1.9375q-0.546875 0.765625 -1.203125 1.21875q-0.65625 0.4375 -1.59375 0.671875q-0.9375 0.21875 -2.140625 0.21875l-4.828125 0zm1.765625 -1.578125l2.859375 0q1.3125 0 2.0625 -0.234375q0.75 -0.25 1.203125 -0.703125q0.625 -0.625 0.96875 -1.6875q0.359375 -1.0625 0.359375 -2.578125q0 -2.09375 -0.6875 -3.21875q-0.6875 -1.125 -1.671875 -1.5q-0.703125 -0.28125 -2.28125 -0.28125l-2.8125 0l0 10.203125zm18.129211 -1.53125l1.6875 0.203125q-0.40625 1.484375 -1.484375 2.3125q-1.078125 0.8125 -2.765625 0.8125q-2.125 0 -3.375 -1.296875q-1.234375 -1.3125 -1.234375 -3.671875q0 -2.453125 1.25 -3.796875q1.265625 -1.34375 3.265625 -1.34375q1.9375 0 3.15625 1.328125q1.234375 1.3125 1.234375 3.703125q0 0.15625 0 0.4375l-7.21875 0q0.09375 1.59375 0.90625 2.453125q0.8125 0.84375 2.015625 0.84375q0.90625 0 1.546875 -0.46875q0.640625 -0.484375 1.015625 -1.515625zm-5.390625 -2.65625l5.40625 0q-0.109375 -1.21875 -0.625 -1.828125q-0.78125 -0.953125 -2.03125 -0.953125q-1.125 0 -1.90625 0.765625q-0.765625 0.75 -0.84375 2.015625zm9.094452 5.765625l0 -13.359375l1.640625 0l0 13.359375l-1.640625 0zm4.1917114 -11.46875l0 -1.890625l1.640625 0l0 1.890625l-1.640625 0zm0 11.46875l0 -9.671875l1.640625 0l0 9.671875l-1.640625 0zm6.832306 0l-3.6875 -9.671875l1.734375 0l2.078125 5.796875q0.328125 0.9375 0.625 1.9375q0.203125 -0.765625 0.609375 -1.828125l2.140625 -5.90625l1.6875 0l-3.65625 9.671875l-1.53125 0zm13.265625 -3.109375l1.6875 0.203125q-0.40625 1.484375 -1.484375 2.3125q-1.078125 0.8125 -2.765625 0.8125q-2.125 0 -3.375 -1.296875q-1.234375 -1.3125 -1.234375 -3.671875q0 -2.453125 1.25 -3.796875q1.265625 -1.34375 3.265625 -1.34375q1.9375 0 3.15625 1.328125q1.234375 1.3125 1.234375 3.703125q0 0.15625 0 0.4375l-7.21875 0q0.09375 1.59375 0.90625 2.453125q0.8125 0.84375 2.015625 0.84375q0.90625 0 1.546875 -0.46875q0.640625 -0.484375 1.015625 -1.515625zm-5.390625 -2.65625l5.40625 0q-0.109375 -1.21875 -0.625 -1.828125q-0.78125 -0.953125 -2.03125 -0.953125q-1.125 0 -1.90625 0.765625q-0.765625 0.75 -0.84375 2.015625zm9.125732 5.765625l0 -9.671875l1.46875 0l0 1.46875q0.5625 -1.03125 1.03125 -1.359375q0.484375 -0.328125 1.0625 -0.328125q0.828125 0 1.6875 0.53125l-0.5625 1.515625q-0.609375 -0.359375 -1.203125 -0.359375q-0.546875 0 -0.96875 0.328125q-0.421875 0.328125 -0.609375 0.890625q-0.28125 0.875 -0.28125 1.921875l0 5.0625l-1.625 0zm11.802216 0l0 -8.40625l-1.453125 0l0 -1.265625l1.453125 0l0 -1.03125q0 -0.96875 0.171875 -1.453125q0.234375 -0.640625 0.828125 -1.03125q0.59375 -0.390625 1.671875 -0.390625q0.6875 0 1.53125 0.15625l-0.25 1.4375q-0.5 -0.09375 -0.953125 -0.09375q-0.75 0 -1.0625 0.328125q-0.3125 0.3125 -0.3125 1.1875l0 0.890625l1.890625 0l0 1.265625l-1.890625 0l0 8.40625l-1.625 0zm4.183319 -4.84375q0 -2.6875 1.484375 -3.96875q1.25 -1.078125 3.046875 -1.078125q2.0 0 3.265625 1.3125q1.265625 1.296875 1.265625 3.609375q0 1.859375 -0.5625 2.9375q-0.5625 1.0625 -1.640625 1.65625q-1.0625 0.59375 -2.328125 0.59375q-2.03125 0 -3.28125 -1.296875q-1.25 -1.3125 -1.25 -3.765625zm1.6875 0q0 1.859375 0.796875 2.796875q0.8125 0.921875 2.046875 0.921875q1.21875 0 2.03125 -0.921875q0.8125 -0.9375 0.8125 -2.84375q0 -1.796875 -0.8125 -2.71875q-0.8125 -0.921875 -2.03125 -0.921875q-1.234375 0 -2.046875 0.921875q-0.796875 0.90625 -0.796875 2.765625zm8.688202 0q0 -2.6875 1.484375 -3.96875q1.25 -1.078125 3.046875 -1.078125q2.0 0 3.265625 1.3125q1.265625 1.296875 1.265625 3.609375q0 1.859375 -0.5625 2.9375q-0.5625 1.0625 -1.640625 1.65625q-1.0625 0.59375 -2.328125 0.59375q-2.03125 0 -3.28125 -1.296875q-1.25 -1.3125 -1.25 -3.765625zm1.6875 0q0 1.859375 0.796875 2.796875q0.8125 0.921875 2.046875 0.921875q1.21875 0 2.03125 -0.921875q0.8125 -0.9375 0.8125 -2.84375q0 -1.796875 -0.8125 -2.71875q-0.8125 -0.921875 -2.03125 -0.921875q-1.234375 0 -2.046875 0.921875q-0.796875 0.90625 -0.796875 2.765625zm15.563232 4.84375l0 -1.21875q-0.90625 1.4375 -2.703125 1.4375q-1.15625 0 -2.125 -0.640625q-0.96875 -0.640625 -1.5 -1.78125q-0.53125 -1.140625 -0.53125 -2.625q0 -1.453125 0.484375 -2.625q0.484375 -1.1875 1.4375 -1.8125q0.96875 -0.625 2.171875 -0.625q0.875 0 1.546875 0.375q0.6875 0.359375 1.109375 0.953125l0 -4.796875l1.640625 0l0 13.359375l-1.53125 0zm-5.171875 -4.828125q0 1.859375 0.78125 2.78125q0.78125 0.921875 1.84375 0.921875q1.078125 0 1.828125 -0.875q0.75 -0.890625 0.75 -2.6875q0 -1.984375 -0.765625 -2.90625q-0.765625 -0.9375 -1.890625 -0.9375q-1.078125 0 -1.8125 0.890625q-0.734375 0.890625 -0.734375 2.8125z" fill-rule="nonzero"/><path fill="#000000" fill-opacity="0.0" d="m484.4352 121.547356l289.22836 104.314964" fill-rule="evenodd"/><path stroke="#000000" stroke-width="1.0" stroke-linejoin="round" stroke-linecap="butt" d="m484.4352 121.547356l289.22836 104.314964" fill-rule="evenodd"/><path fill="#000000" fill-opacity="0.0" d="m347.69077 121.547356l-258.45667 289.5433" fill-rule="evenodd"/><path stroke="#000000" stroke-width="1.0" stroke-linejoin="round" stroke-linecap="butt" d="m347.69077 121.547356l-258.45667 289.5433" fill-rule="evenodd"/><path fill="#000000" fill-opacity="0.0" d="m119.348785 292.6634l118.99213 -118.99214l29.700775 29.70079l-118.99211 118.99213z" fill-rule="evenodd"/><path fill="#000000" d="m145.78662 304.29617l-9.446503 -9.446503l4.187393 -4.1874084q1.2595367 -1.2595215 2.1655273 -1.6572876q0.9170227 -0.40878296 1.9555817 -0.14361572q1.0385742 0.24307251 1.8230133 1.0274963q0.9943695 0.99438477 1.038559 2.3423157q0.03315735 1.336853 -1.1380005 2.883667q0.7402649 -0.25411987 1.237442 -0.28726196q1.038559 -0.04421997 2.276001 0.22094727l4.2205353 0.9281006l-1.5688782 1.5688782l-3.2151337 -0.71813965q-1.4031677 -0.29830933 -2.1986542 -0.38671875q-0.8065491 -0.09942627 -1.2705841 0.011047363q-0.4640503 0.088409424 -0.81759644 0.3093567q-0.26516724 0.1546936 -0.751297 0.6408386l-1.4473572 1.4473572l4.1984406 4.1984253l-1.2484894 1.2485046zm-4.0216675 -6.5186462l2.6847992 -2.684784q0.8617859 -0.8617859 1.1600952 -1.5136719q0.29830933 -0.6739502 0.16572571 -1.3147583q-0.13258362 -0.6408386 -0.5855713 -1.093811q-0.67396545 -0.6739807 -1.5909882 -0.6187134q-0.9170227 0.055236816 -1.9776917 1.1159058l-2.9831085 2.9830933l3.1267395 3.1267395zm15.868683 -9.7256775l1.3368683 -1.0496216q0.76234436 1.3368835 0.5855713 2.684784q-0.18782043 1.3368835 -1.381073 2.5301208q-1.502594 1.5026245 -3.3035126 1.4694519q-1.8009033 -0.055236816 -3.4692383 -1.7235718q-1.7346191 -1.7346191 -1.8009186 -3.5686646q-0.055236816 -1.8451233 1.3589783 -3.2593384q1.3700256 -1.3699951 3.170929 -1.2926636q1.8009186 0.055236816 3.4913483 1.7456665q0.11047363 0.11047363 0.3093567 0.3093567l-5.104431 5.104431q1.1932373 1.060669 2.3754425 1.093811q1.1711426 0.022094727 2.021881 -0.8286438q0.6408081 -0.6408081 0.76234436 -1.4252625q0.11048889 -0.7955017 -0.35354614 -1.789856zm-5.6900024 1.9334717l3.8227997 -3.8227844q-0.9391327 -0.78445435 -1.7346344 -0.8507385q-1.2263794 -0.121520996 -2.11026 0.7623596q-0.7955017 0.7955017 -0.8065491 1.8892822q-0.011047363 1.0717163 0.8286438 2.021881zm12.496414 -9.358612l1.2926788 -0.9833069q0.9833069 1.3589478 0.8838806 2.806305q-0.09944153 1.4252625 -1.2263947 2.5522156q-1.4031677 1.4031677 -3.170929 1.3368835q-1.7677612 -0.06628418 -3.4802856 -1.7788086q-1.1159058 -1.1159058 -1.5799408 -2.309143q-0.4640503 -1.1932373 -0.121536255 -2.3533325q0.33145142 -1.1711731 1.215332 -2.0550537q1.1159058 -1.1159058 2.3864899 -1.2595215q1.2705841 -0.14364624 2.5080109 0.6960449l-0.96121216 1.2926941q-0.8507385 -0.5192871 -1.6020355 -0.45300293q-0.7623596 0.055236816 -1.3368835 0.62979126q-0.87283325 0.87283325 -0.79548645 2.0550232q0.07733154 1.18219 1.4363098 2.5411682q1.3810577 1.3810425 2.541153 1.4804993q1.1490479 0.088378906 1.9997864 -0.7623596q0.6850128 -0.68499756 0.7181549 -1.5578308q0.044204712 -0.8838806 -0.7070923 -1.8782654zm7.126297 -6.507599l1.3368835 -1.0495911q0.76234436 1.336853 0.5855713 2.684784q-0.18782043 1.3368835 -1.381073 2.5301208q-1.502594 1.502594 -3.3035126 1.4694519q-1.8009186 -0.055236816 -3.4692383 -1.7235718q-1.7346191 -1.7346191 -1.8009186 -3.5686646q-0.055236816 -1.8451233 1.3589783 -3.2593384q1.3700104 -1.3700256 3.170929 -1.2926636q1.8009033 0.055236816 3.491333 1.7456665q0.11048889 0.11047363 0.3093567 0.3093567l-5.104416 5.104431q1.1932373 1.0606384 2.3754272 1.0937805q1.1711578 0.022125244 2.0218964 -0.8286133q0.6408081 -0.6408386 0.76234436 -1.4252625q0.11048889 -0.7955017 -0.3535614 -1.7898865zm-5.689987 1.9335022l3.8227844 -3.8227844q-0.93911743 -0.78445435 -1.7346191 -0.8507385q-1.2263794 -0.12155151 -2.1102753 0.7623291q-0.79548645 0.7955017 -0.8065338 1.8893127q-0.011047363 1.0717163 0.8286438 2.021881zm2.4311829 -10.496613l-1.3368835 -1.3368835l1.1601105 -1.1600952l1.3368683 1.3368835l-1.1600952 1.1600952zm8.109634 8.109619l-6.8390503 -6.8390503l1.1600952 -1.1600952l6.8390503 6.8390503l-1.1600952 1.1600952zm4.8311768 -4.8311768l-9.446503 -4.231598l1.2263794 -1.2263794l5.568466 2.629547q0.89494324 0.4309082 1.811966 0.92807007q-0.39775085 -0.68499756 -0.8617859 -1.7235718l-2.6627045 -5.6900024l1.1932526 -1.1932373l4.2536774 9.424408l-1.0827484 1.0827637zm7.181549 -11.578888l1.3368683 -1.0495911q0.7623596 1.336853 0.58558655 2.684784q-0.1878357 1.3368835 -1.381073 2.5301208q-1.5026093 1.502594 -3.3035126 1.4694519q-1.8009186 -0.055236816 -3.4692535 -1.7235718q-1.7346191 -1.7346191 -1.8009033 -3.5686646q-0.055252075 -1.8451233 1.358963 -3.2593384q1.3700256 -1.3700104 3.1709442 -1.2926788q1.8009033 0.055252075 3.491333 1.7456818q0.11048889 0.11047363 0.3093567 0.3093567l-5.104431 5.104431q1.1932526 1.0606384 2.3754425 1.093811q1.1711426 0.022094727 2.021881 -0.8286438q0.64082336 -0.6408386 0.7623596 -1.4252625q0.11047363 -0.7955017 -0.3535614 -1.7898865zm-5.6900024 1.9335022l3.8227997 -3.8227844q-0.9391327 -0.78445435 -1.7346191 -0.8507385q-1.2263947 -0.121536255 -2.1102753 0.76234436q-0.79548645 0.79548645 -0.8065491 1.8892975q-0.011047363 1.0717163 0.8286438 2.021881zm14.482178 -6.328354l-5.944107 -5.944107l-1.0275116 1.0275116l-0.89494324 -0.894928l1.0275269 -1.0275269l-0.7292175 -0.7292023q-0.68499756 -0.68499756 -0.90597534 -1.1490479q-0.28726196 -0.6187134 -0.14363098 -1.3147736q0.14363098 -0.6960602 0.90597534 -1.4584045q0.48614502 -0.48614502 1.1932526 -0.9722748l0.83969116 1.1932373q-0.41984558 0.28726196 -0.74024963 0.6076813q-0.5303345 0.5303192 -0.5192871 0.98332214q0 0.4419403 0.6187134 1.0606537l0.629776 0.62976074l1.3368683 -1.3368683l0.894928 0.894928l-1.3368683 1.3368835l5.944107 5.944107l-1.1490479 1.1490479zm-0.46699524 -6.383087q-1.9003601 -1.9003448 -1.7567291 -3.8559418q0.121536255 -1.646225 1.3921204 -2.916809q1.4142151 -1.4142151 3.2372284 -1.381073q1.811966 0.022094727 3.4471436 1.6572876q1.3147736 1.3147736 1.6793823 2.4748688q0.35354614 1.1490479 0.011047363 2.3312378q-0.33145142 1.1711426 -1.2263947 2.0660858q-1.4363098 1.4363098 -3.2372131 1.4031677q-1.811966 -0.044204712 -3.546585 -1.7788239zm1.1932373 -1.1932373q1.3147736 1.3147736 2.5411682 1.4142151q1.2263794 0.07733154 2.099228 -0.7955017q0.8617859 -0.8617859 0.7844391 -2.0881805q-0.088394165 -1.2374268 -1.4363098 -2.5853577q-1.2705841 -1.2705841 -2.4969635 -1.3479156q-1.2263947 -0.0773468 -2.0881805 0.7844391q-0.87283325 0.8728485 -0.7955017 2.099228q0.0773468 1.2042999 1.3921204 2.5190735zm6.1434937 -6.143509q-1.9003448 -1.9003448 -1.7567139 -3.8559418q0.121536255 -1.646225 1.3921204 -2.916809q1.4142151 -1.4142151 3.2372131 -1.381073q1.811966 0.022109985 3.4471588 1.6572876q1.3147736 1.3147736 1.6793671 2.4748688q0.3535614 1.1490479 0.011047363 2.331253q-0.33145142 1.1711426 -1.2263794 2.0660706q-1.4363098 1.4363098 -3.2372284 1.4031677q-1.811966 -0.044189453 -3.546585 -1.7788239zm1.1932526 -1.1932373q1.3147736 1.3147736 2.541153 1.4142151q1.2263947 0.0773468 2.099228 -0.7955017q0.8617859 -0.8617859 0.78445435 -2.0881653q-0.088394165 -1.237442 -1.4363098 -2.5853577q-1.2705841 -1.2705841 -2.4969788 -1.3479309q-1.2263794 -0.07733154 -2.0881653 0.78445435q-0.8728485 0.87283325 -0.7955017 2.0992126q0.07733154 1.2042999 1.3921204 2.5190735zm14.429901 -7.5798035l-0.8617859 -0.8617859q0.37565613 1.6572723 -0.894928 2.9278564q-0.81759644 0.81759644 -1.9555969 1.0496216q-1.1380005 0.23200989 -2.3201904 -0.19888306q-1.1822052 -0.43089294 -2.2318115 -1.4804993q-1.0275116 -1.0275116 -1.5136566 -2.1986542q-0.49717712 -1.1822052 -0.26515198 -2.298111q0.24305725 -1.1269379 1.0937958 -1.9776764q0.61872864 -0.61872864 1.3589783 -0.8286438q0.74024963 -0.23202515 1.4584045 -0.11048889l-3.3919067 -3.3919067l1.1600952 -1.1600952l9.446518 9.446503l-1.0827637 1.0827637zm-7.0710754 0.24307251q1.3147888 1.3147736 2.5190735 1.4141998q1.2042999 0.09944153 1.9555969 -0.65185547q0.76234436 -0.76234436 0.6739502 -1.9114075q-0.09942627 -1.1600952 -1.3700104 -2.4306793q-1.4031677 -1.4031525 -2.596405 -1.5136414q-1.2042999 -0.121536255 -1.9997864 0.67396545q-0.7623596 0.76234436 -0.6518707 1.9113922q0.11048889 1.1490479 1.4694519 2.5080261z" fill-rule="nonzero"/><path fill="#000000" fill-opacity="0.0" d="m539.63635 426.68784l173.10236 67.87399l-15.338623 39.118103l-173.10236 -67.87399z" fill-rule="evenodd"/><path fill="#000000" d="m539.5555 455.5716l4.876831 -12.437439l5.5132446 2.1617432q1.6583252 0.65023804 2.385376 1.3213501q0.7416382 0.67678833 0.9142456 1.7346802q0.19281006 1.0490417 -0.2121582 2.0818787q-0.5133667 1.3091736 -1.730957 1.8890991q-1.211853 0.56536865 -3.0980835 0.1111145q0.52911377 0.5766907 0.75842285 1.019043q0.45611572 0.93411255 0.708313 2.1742554l0.83843994 4.2392273l-2.0656128 -0.8099365l-0.628479 -3.2338257q-0.28814697 -1.405304 -0.52545166 -2.1696777q-0.23168945 -0.7789612 -0.5186157 -1.1600037q-0.26672363 -0.38989258 -0.6107178 -0.62545776q-0.24786377 -0.18112183 -0.8878784 -0.43206787l-1.9056396 -0.7471924l-2.1674805 5.5277405l-1.6437988 -0.64453125zm4.364563 -6.2942505l3.534851 1.3860168q1.1346436 0.44491577 1.8514404 0.45742798q0.7369995 0.0036621094 1.2711792 -0.37426758q0.5342407 -0.3779602 0.7680664 -0.97436523q0.34796143 -0.8873596 -0.06964111 -1.7056274q-0.41760254 -0.81829834 -1.8140869 -1.3658752l-3.9276123 -1.5400391l-1.6141968 4.1167297zm15.263306 10.650543l1.4968872 0.80511475q-0.92004395 1.2336426 -2.2260742 1.6110535q-1.300354 0.362854 -2.871399 -0.25317383q-1.9783325 -0.7756958 -2.6686401 -2.439392q-0.670105 -1.6725159 0.19122314 -3.8690796q0.8955078 -2.2838135 2.5497437 -3.0785217q1.6688232 -0.78900146 3.5308228 -0.058929443q1.803772 0.7072754 2.4536133 2.3886414q0.67004395 1.6725159 -0.20263672 3.8981628q-0.05706787 0.1454773 -0.159729 0.40731812l-6.720581 -2.6351624q-0.49450684 1.5179749 -0.051818848 2.6146545q0.4484253 1.0821228 1.5685425 1.5213013q0.84368896 0.33081055 1.6112671 0.12826538q0.77319336 -0.21707153 1.4987793 -1.0402527zm-4.04895 -4.4407654l5.033203 1.9735107q0.34301758 -1.1745605 0.08544922 -1.9301147q-0.37939453 -1.1725464 -1.5431519 -1.6288452q-1.0473633 -0.41067505 -2.0541382 0.016937256q-0.9866333 0.4187317 -1.5213623 1.568512zm13.577454 7.70697l1.418457 0.7911377q-0.8519287 1.4449768 -2.2181396 1.933075q-1.3459473 0.47921753 -2.829712 -0.10256958q-1.8474731 -0.72436523 -2.4941406 -2.3709412q-0.6466675 -1.6465759 0.23742676 -3.9013062q0.57611084 -1.4692078 1.4839478 -2.3719788q0.9078369 -0.9028015 2.1080322 -1.0531616q1.2059326 -0.16491699 2.36969 0.29138184q1.4692383 0.57611084 2.109314 1.6830139q0.6400757 1.1069336 0.3657837 2.5769958l-1.5693359 -0.36358643q0.13543701 -0.9874573 -0.22595215 -1.6494446q-0.3557129 -0.6765442 -1.1121826 -0.97314453q-1.1491699 -0.45059204 -2.2015991 0.09338379q-1.0524902 0.54397583 -1.7540894 2.3332214q-0.71295166 1.8183289 -0.33984375 2.9212646q0.3788452 1.0884094 1.4989014 1.5275879q0.9019165 0.3536377 1.7150879 0.034729004q0.82769775 -0.3132019 1.4383545 -1.3996582zm8.815613 3.9265442l1.4968872 0.80514526q-0.920105 1.2336121 -2.2261353 1.611023q-1.300293 0.36288452 -2.871338 -0.2531433q-1.9783936 -0.7757263 -2.6687012 -2.439392q-0.67004395 -1.6725159 0.19122314 -3.8690796q0.8955078 -2.2838135 2.5498047 -3.0785217q1.6688232 -0.789032 3.5307617 -0.058929443q1.803833 0.7072754 2.4536133 2.3886414q0.670105 1.6725159 -0.20263672 3.8981628q-0.057006836 0.1454773 -0.15966797 0.40731812l-6.720581 -2.6351624q-0.49450684 1.5179749 -0.051818848 2.6146545q0.4484253 1.0820923 1.5685425 1.5213013q0.84368896 0.33081055 1.611206 0.12826538q0.7732544 -0.21707153 1.4988403 -1.0402832zm-4.04895 -4.440735l5.033142 1.9735107q0.3430786 -1.1745605 0.085510254 -1.9301147q-0.37939453 -1.1725464 -1.5431519 -1.6288452q-1.0473633 -0.41067505 -2.0541992 0.016937256q-0.98657227 0.4187317 -1.5213013 1.568512zm10.592407 -1.9725647l0.69018555 -1.7601318l1.5274048 0.5989075l-0.69018555 1.7601318l-1.5274048 -0.5989075zm-4.1866455 10.677277l3.5307007 -9.004395l1.5274048 0.5989075l-3.5307007 9.004395l-1.5274048 -0.5989075zm6.360779 2.49411l0.097717285 -10.350494l1.614685 0.6331177l-0.18145752 6.155426q-0.036743164 0.9925842 -0.12542725 2.031952q0.46862793 -0.63864136 1.2346802 -1.4795227l4.148987 -4.717224l1.5710449 0.6159973l-6.9346313 7.6697083l-1.4255981 -0.55895996zm13.485291 1.9477539l1.4968872 0.80511475q-0.920105 1.2336426 -2.2261353 1.6110535q-1.300354 0.362854 -2.871399 -0.2531433q-1.9783325 -0.7757263 -2.6686401 -2.4394226q-0.67004395 -1.6725159 0.19122314 -3.8690796q0.8955078 -2.2838135 2.5498047 -3.0785217q1.6688232 -0.78900146 3.5307617 -0.058929443q1.803833 0.7072754 2.4536133 2.3886414q0.67004395 1.6725159 -0.20263672 3.8981628q-0.057006836 0.1454773 -0.15966797 0.40731812l-6.720642 -2.6351624q-0.49450684 1.5179749 -0.051757812 2.6146545q0.4484253 1.0821228 1.5684814 1.5213013q0.84375 0.33084106 1.6112671 0.1282959q0.7732544 -0.21710205 1.4988403 -1.0402832zm-4.049011 -4.4407654l5.033203 1.9735107q0.3430786 -1.1745605 0.08544922 -1.9301147q-0.37939453 -1.1725159 -1.5430908 -1.6288452q-1.0473633 -0.41067505 -2.0541992 0.016937256q-0.98657227 0.4187622 -1.5213623 1.568512zm12.432251 5.864929q0.9810791 -2.5020142 2.8307495 -3.1529846q1.557312 -0.5474243 3.2301636 0.10852051q1.8619995 0.73010254 2.5611572 2.414032q0.704834 1.6693726 -0.13934326 3.8222961q-0.67871094 1.7310486 -1.5960083 2.529419q-0.911499 0.783844 -2.132019 0.9430542q-1.2058716 0.16491699 -2.3842163 -0.29708862q-1.8910522 -0.7414856 -2.5813599 -2.405182q-0.68463135 -1.6782227 0.21087646 -3.9620667zm1.5710449 0.61602783q-0.67871094 1.7310486 -0.27911377 2.8947449q0.41992188 1.1548462 1.5690918 1.6054688q1.1346436 0.44488525 2.2276 -0.116760254q1.0986938 -0.5762024 1.7945557 -2.3509216q0.6559448 -1.6728516 0.23608398 -2.8276978q-0.41992188 -1.1548767 -1.5545654 -1.599762q-1.1491699 -0.45059204 -2.2421265 0.11105347q-1.0727539 0.5528259 -1.7515259 2.2838745zm6.87323 7.8977966l3.5307007 -9.004395l1.3674316 0.53616333l-0.53619385 1.3673706q0.9001465 -0.7547302 1.4563599 -0.8890991q0.5706787 -0.12866211 1.1089478 0.08236694q0.77093506 0.30230713 1.3770752 1.1105957l-1.0769653 1.205719q-0.4360962 -0.55703735 -0.9888916 -0.7737732q-0.5091553 -0.199646 -1.0216675 -0.04815674q-0.51257324 0.15145874 -0.89245605 0.60672q-0.5812378 0.7119446 -0.96343994 1.686554l-1.8480225 4.713135l-1.5128784 -0.5932007zm11.631714 4.560852l0.4449463 -1.1346436q-1.3684692 1.0074768 -3.0413818 0.35153198q-1.076416 -0.42208862 -1.7445068 -1.3721313q-0.6680298 -0.95007324 -0.7462158 -2.205902q-0.078186035 -1.2558289 0.46368408 -2.6377563q0.53045654 -1.3528442 1.4091797 -2.2670288q0.88446045 -0.92874146 1.999939 -1.1626892q1.1300659 -0.22821045 2.250183 0.21096802q0.8145752 0.3194275 1.3032227 0.91381836q0.5088501 0.5855408 0.6848755 1.2922974l1.7510986 -4.4658203l1.5274048 0.5989075l-4.876831 12.437408l-1.4255981 -0.55895996zm-3.0524292 -6.382904q-0.678772 1.7310486 -0.28796387 2.8745117q0.3908081 1.1434326 1.3800049 1.531311q1.0037231 0.3935547 2.0213623 -0.14727783q1.0233765 -0.5553894 1.6793213 -2.228241q0.72436523 -1.8474426 0.34814453 -2.9851685q-0.37060547 -1.1523132 -1.4179688 -1.5629883q-1.0037231 -0.3935547 -2.0125122 0.1675415q-1.0088501 0.5610657 -1.7103882 2.3503113zm14.181763 7.406891l1.4969482 0.80511475q-0.920105 1.2336426 -2.2261353 1.6110535q-1.300354 0.362854 -2.871399 -0.2531433q-1.9783325 -0.7757263 -2.6686401 -2.4394226q-0.67004395 -1.6725159 0.19122314 -3.869049q0.8955078 -2.283844 2.5498047 -3.0785522q1.6687622 -0.78900146 3.5307617 -0.058929443q1.803833 0.7072754 2.4536133 2.3886414q0.67004395 1.6725464 -0.20263672 3.8981628q-0.057006836 0.1454773 -0.159729 0.40731812l-6.720581 -2.6351624q-0.49450684 1.5179749 -0.051757812 2.6146545q0.4484253 1.0821228 1.5684814 1.5213013q0.84375 0.33084106 1.6112671 0.1282959q0.7732544 -0.21710205 1.4987793 -1.0402832zm-4.04895 -4.4407654l5.033203 1.9735413q0.3430786 -1.1745911 0.08544922 -1.9301453q-0.37939453 -1.1725159 -1.5430908 -1.6288147q-1.0473633 -0.41067505 -2.0541992 0.016906738q-0.98657227 0.4187622 -1.5213623 1.568512zm6.3912354 8.699036l3.5307007 -9.004425l1.3674316 0.53616333l-0.53619385 1.3674011q0.9001465 -0.75476074 1.4562988 -0.8890991q0.57073975 -0.12866211 1.1090088 0.08236694q0.77093506 0.30230713 1.3770752 1.1105957l-1.0769653 1.2056885q-0.4360962 -0.55700684 -0.9888916 -0.7737732q-0.5091553 -0.19961548 -1.0216675 -0.04815674q-0.51257324 0.15148926 -0.89245605 0.60672q-0.5812378 0.7119446 -0.96343994 1.6865845l-1.8480225 4.713135l-1.5128784 -0.5932007z" fill-rule="nonzero"/><path fill="#cfe2f3" d="m201.03412 621.64307c0 -21.46521 49.051254 -38.86615 109.55905 -38.86615l0 0c60.507812 0 109.55905 17.40094 109.55905 38.86615l0 0c0 21.465149 -49.05124 38.86615 -109.55905 38.86615l0 0c-60.507797 0 -109.55905 -17.401001 -109.55905 -38.86615z" fill-rule="evenodd"/><path stroke="#000000" stroke-width="1.0" stroke-linejoin="round" stroke-linecap="butt" d="m201.03412 621.64307c0 -21.46521 49.051254 -38.86615 109.55905 -38.86615l0 0c60.507812 0 109.55905 17.40094 109.55905 38.86615l0 0c0 21.465149 -49.05124 38.86615 -109.55905 38.86615l0 0c-60.507797 0 -109.55905 -17.401001 -109.55905 -38.86615z" fill-rule="evenodd"/><path fill="#000000" d="m253.09198 623.87555l1.765625 0.453125q-0.5625 2.171875 -2.0 3.328125q-1.4375 1.140625 -3.53125 1.140625q-2.15625 0 -3.515625 -0.875q-1.34375 -0.890625 -2.0625 -2.546875q-0.703125 -1.671875 -0.703125 -3.59375q0 -2.078125 0.796875 -3.625q0.796875 -1.5625 2.265625 -2.359375q1.484375 -0.8125 3.25 -0.8125q2.0 0 3.359375 1.015625q1.375 1.015625 1.90625 2.875l-1.734375 0.40625q-0.46875 -1.453125 -1.359375 -2.109375q-0.875 -0.671875 -2.203125 -0.671875q-1.546875 0 -2.578125 0.734375q-1.03125 0.734375 -1.453125 1.984375q-0.421875 1.234375 -0.421875 2.5625q0 1.703125 0.5 2.96875q0.5 1.265625 1.546875 1.90625q1.046875 0.625 2.265625 0.625q1.484375 0 2.515625 -0.859375q1.03125 -0.859375 1.390625 -2.546875zm3.738556 4.6875l0 -13.359375l1.640625 0l0 4.796875q1.140625 -1.328125 2.890625 -1.328125q1.078125 0 1.859375 0.421875q0.796875 0.421875 1.140625 1.171875q0.34375 0.75 0.34375 2.171875l0 6.125l-1.640625 0l0 -6.125q0 -1.234375 -0.53125 -1.796875q-0.53125 -0.5625 -1.515625 -0.5625q-0.71875 0 -1.359375 0.390625q-0.640625 0.375 -0.921875 1.015625q-0.265625 0.640625 -0.265625 1.78125l0 5.296875l-1.640625 0zm9.766357 -4.84375q0 -2.6875 1.484375 -3.96875q1.25 -1.078125 3.046875 -1.078125q2.0 0 3.265625 1.3125q1.265625 1.296875 1.265625 3.609375q0 1.859375 -0.5625 2.9375q-0.5625 1.0625 -1.640625 1.65625q-1.0625 0.59375 -2.328125 0.59375q-2.03125 0 -3.28125 -1.296875q-1.25 -1.3125 -1.25 -3.765625zm1.6875 0q0 1.859375 0.796875 2.796875q0.8125 0.921875 2.046875 0.921875q1.21875 0 2.03125 -0.921875q0.8125 -0.9375 0.8125 -2.84375q0 -1.796875 -0.8125 -2.71875q-0.8125 -0.921875 -2.03125 -0.921875q-1.234375 0 -2.046875 0.921875q-0.796875 0.90625 -0.796875 2.765625zm8.688202 0q0 -2.6875 1.484375 -3.96875q1.25 -1.078125 3.046875 -1.078125q2.0 0 3.265625 1.3125q1.265625 1.296875 1.265625 3.609375q0 1.859375 -0.5625 2.9375q-0.5625 1.0625 -1.640625 1.65625q-1.0625 0.59375 -2.328125 0.59375q-2.03125 0 -3.28125 -1.296875q-1.25 -1.3125 -1.25 -3.765625zm1.6875 0q0 1.859375 0.796875 2.796875q0.8125 0.921875 2.046875 0.921875q1.21875 0 2.03125 -0.921875q0.8125 -0.9375 0.8125 -2.84375q0 -1.796875 -0.8125 -2.71875q-0.8125 -0.921875 -2.03125 -0.921875q-1.234375 0 -2.046875 0.921875q-0.796875 0.90625 -0.796875 2.765625zm8.641357 1.953125l1.625 -0.25q0.125 0.96875 0.75 1.5q0.625 0.515625 1.75 0.515625q1.125 0 1.671875 -0.453125q0.546875 -0.46875 0.546875 -1.09375q0 -0.546875 -0.484375 -0.875q-0.328125 -0.21875 -1.671875 -0.546875q-1.8125 -0.46875 -2.515625 -0.796875q-0.6875 -0.328125 -1.046875 -0.90625q-0.359375 -0.59375 -0.359375 -1.3125q0 -0.640625 0.296875 -1.1875q0.296875 -0.5625 0.8125 -0.921875q0.375 -0.28125 1.03125 -0.46875q0.671875 -0.203125 1.421875 -0.203125q1.140625 0 2.0 0.328125q0.859375 0.328125 1.265625 0.890625q0.421875 0.5625 0.578125 1.5l-1.609375 0.21875q-0.109375 -0.75 -0.640625 -1.171875q-0.515625 -0.421875 -1.46875 -0.421875q-1.140625 0 -1.625 0.375q-0.46875 0.375 -0.46875 0.875q0 0.3125 0.1875 0.578125q0.203125 0.265625 0.640625 0.4375q0.234375 0.09375 1.4375 0.421875q1.75 0.453125 2.4375 0.75q0.6875 0.296875 1.078125 0.859375q0.390625 0.5625 0.390625 1.40625q0 0.828125 -0.484375 1.546875q-0.46875 0.71875 -1.375 1.125q-0.90625 0.390625 -2.046875 0.390625q-1.875 0 -2.875 -0.78125q-0.984375 -0.78125 -1.25 -2.328125zm16.609375 -0.21875l1.6875 0.203125q-0.40625 1.484375 -1.484375 2.3125q-1.078125 0.8125 -2.765625 0.8125q-2.125 0 -3.375 -1.296875q-1.234375 -1.3125 -1.234375 -3.671875q0 -2.453125 1.25 -3.796875q1.265625 -1.34375 3.265625 -1.34375q1.9375 0 3.15625 1.328125q1.234375 1.3125 1.234375 3.703125q0 0.15625 0 0.4375l-7.21875 0q0.09375 1.59375 0.90625 2.453125q0.8125 0.84375 2.015625 0.84375q0.90625 0 1.546875 -0.46875q0.640625 -0.484375 1.015625 -1.515625zm-5.390625 -2.65625l5.40625 0q-0.109375 -1.21875 -0.625 -1.828125q-0.78125 -0.953125 -2.03125 -0.953125q-1.125 0 -1.90625 0.765625q-0.765625 0.75 -0.84375 2.015625zm14.277771 5.765625l0 -13.359375l1.640625 0l0 13.359375l-1.640625 0zm3.582306 -4.84375q0 -2.6875 1.484375 -3.96875q1.25 -1.078125 3.046875 -1.078125q2.0 0 3.265625 1.3125q1.265625 1.296875 1.265625 3.609375q0 1.859375 -0.5625 2.9375q-0.5625 1.0625 -1.640625 1.65625q-1.0625 0.59375 -2.328125 0.59375q-2.03125 0 -3.28125 -1.296875q-1.25 -1.3125 -1.25 -3.765625zm1.6875 0q0 1.859375 0.796875 2.796875q0.8125 0.921875 2.046875 0.921875q1.21875 0 2.03125 -0.921875q0.8125 -0.9375 0.8125 -2.84375q0 -1.796875 -0.8125 -2.71875q-0.8125 -0.921875 -2.03125 -0.921875q-1.234375 0 -2.046875 0.921875q-0.796875 0.90625 -0.796875 2.765625zm15.610107 1.296875l1.609375 0.21875q-0.265625 1.65625 -1.359375 2.609375q-1.078125 0.9375 -2.671875 0.9375q-1.984375 0 -3.1875 -1.296875q-1.203125 -1.296875 -1.203125 -3.71875q0 -1.578125 0.515625 -2.75q0.515625 -1.171875 1.578125 -1.75q1.0625 -0.59375 2.3125 -0.59375q1.578125 0 2.578125 0.796875q1.0 0.796875 1.28125 2.265625l-1.59375 0.234375q-0.234375 -0.96875 -0.8125 -1.453125q-0.578125 -0.5 -1.390625 -0.5q-1.234375 0 -2.015625 0.890625q-0.78125 0.890625 -0.78125 2.8125q0 1.953125 0.75 2.84375q0.75 0.875 1.953125 0.875q0.96875 0 1.609375 -0.59375q0.65625 -0.59375 0.828125 -1.828125zm9.328125 2.359375q-0.921875 0.765625 -1.765625 1.09375q-0.828125 0.3125 -1.796875 0.3125q-1.59375 0 -2.453125 -0.78125q-0.859375 -0.78125 -0.859375 -1.984375q0 -0.71875 0.328125 -1.296875q0.328125 -0.59375 0.84375 -0.9375q0.53125 -0.359375 1.1875 -0.546875q0.46875 -0.125 1.453125 -0.25q1.984375 -0.234375 2.921875 -0.5625q0.015625 -0.34375 0.015625 -0.421875q0 -1.0 -0.46875 -1.421875q-0.625 -0.546875 -1.875 -0.546875q-1.15625 0 -1.703125 0.40625q-0.546875 0.40625 -0.8125 1.421875l-1.609375 -0.21875q0.21875 -1.015625 0.71875 -1.640625q0.5 -0.640625 1.453125 -0.984375q0.953125 -0.34375 2.1875 -0.34375q1.25 0 2.015625 0.296875q0.78125 0.28125 1.140625 0.734375q0.375 0.4375 0.515625 1.109375q0.078125 0.421875 0.078125 1.515625l0 2.1875q0 2.28125 0.109375 2.890625q0.109375 0.59375 0.40625 1.15625l-1.703125 0q-0.265625 -0.515625 -0.328125 -1.1875zm-0.140625 -3.671875q-0.890625 0.375 -2.671875 0.625q-1.015625 0.140625 -1.4375 0.328125q-0.421875 0.1875 -0.65625 0.53125q-0.21875 0.34375 -0.21875 0.78125q0 0.65625 0.5 1.09375q0.5 0.4375 1.453125 0.4375q0.9375 0 1.671875 -0.40625q0.75 -0.421875 1.09375 -1.140625q0.265625 -0.5625 0.265625 -1.640625l0 -0.609375zm7.781952 3.390625l0.234375 1.453125q-0.6875 0.140625 -1.234375 0.140625q-0.890625 0 -1.390625 -0.28125q-0.484375 -0.28125 -0.6875 -0.734375q-0.203125 -0.46875 -0.203125 -1.9375l0 -5.578125l-1.203125 0l0 -1.265625l1.203125 0l0 -2.390625l1.625 -0.984375l0 3.375l1.65625 0l0 1.265625l-1.65625 0l0 5.671875q0 0.6875 0.078125 0.890625q0.09375 0.203125 0.28125 0.328125q0.203125 0.109375 0.578125 0.109375q0.265625 0 0.71875 -0.0625zm1.6051941 -10.0l0 -1.890625l1.640625 0l0 1.890625l-1.640625 0zm0 11.46875l0 -9.671875l1.640625 0l0 9.671875l-1.640625 0zm3.535431 -4.84375q0 -2.6875 1.484375 -3.96875q1.25 -1.078125 3.046875 -1.078125q2.0 0 3.265625 1.3125q1.265625 1.296875 1.265625 3.609375q0 1.859375 -0.5625 2.9375q-0.5625 1.0625 -1.640625 1.65625q-1.0625 0.59375 -2.328125 0.59375q-2.03125 0 -3.28125 -1.296875q-1.25 -1.3125 -1.25 -3.765625zm1.6875 0q0 1.859375 0.796875 2.796875q0.8125 0.921875 2.046875 0.921875q1.21875 0 2.03125 -0.921875q0.8125 -0.9375 0.8125 -2.84375q0 -1.796875 -0.8125 -2.71875q-0.8125 -0.921875 -2.03125 -0.921875q-1.234375 0 -2.046875 0.921875q-0.796875 0.90625 -0.796875 2.765625zm9.297607 4.84375l0 -9.671875l1.46875 0l0 1.375q1.0625 -1.59375 3.078125 -1.59375q0.875 0 1.609375 0.3125q0.734375 0.3125 1.09375 0.828125q0.375 0.5 0.515625 1.203125q0.09375 0.453125 0.09375 1.59375l0 5.953125l-1.640625 0l0 -5.890625q0 -1.0 -0.203125 -1.484375q-0.1875 -0.5 -0.671875 -0.796875q-0.484375 -0.296875 -1.140625 -0.296875q-1.046875 0 -1.8125 0.671875q-0.75 0.65625 -0.75 2.515625l0 5.28125l-1.640625 0z" fill-rule="nonzero"/><path fill="#000000" fill-opacity="0.0" d="m127.57063 494.98172l105.543304 99.18112" fill-rule="evenodd"/><path stroke="#000000" stroke-width="1.0" stroke-linejoin="round" stroke-linecap="butt" d="m127.57063 494.98172l105.543304 99.18112" fill-rule="evenodd"/></g></svg>