<svg width="3392" height="2351" xmlns="http://www.w3.org/2000/svg" xmlns:xlink="http://www.w3.org/1999/xlink" xml:space="preserve" overflow="hidden"><defs><clipPath id="clip0"><rect x="500" y="47" width="3392" height="2351"/></clipPath><clipPath id="clip1"><rect x="666" y="416" width="489" height="490"/></clipPath><clipPath id="clip2"><rect x="666" y="416" width="489" height="490"/></clipPath><clipPath id="clip3"><rect x="666" y="416" width="489" height="490"/></clipPath><clipPath id="clip4"><rect x="3245" y="416" width="489" height="490"/></clipPath><clipPath id="clip5"><rect x="3245" y="416" width="489" height="490"/></clipPath><clipPath id="clip6"><rect x="3245" y="416" width="489" height="490"/></clipPath><clipPath id="clip7"><rect x="680" y="1640" width="490" height="489"/></clipPath><clipPath id="clip8"><rect x="680" y="1640" width="490" height="489"/></clipPath><clipPath id="clip9"><rect x="680" y="1640" width="490" height="489"/></clipPath><clipPath id="clip10"><rect x="3217" y="1457" width="489" height="488"/></clipPath><clipPath id="clip11"><rect x="3217" y="1457" width="489" height="488"/></clipPath><clipPath id="clip12"><rect x="3217" y="1457" width="489" height="488"/></clipPath></defs><g clip-path="url(#clip0)" transform="translate(-500 -47)"><rect x="512.5" y="50.5" width="3376" height="2344" stroke="#000000" stroke-width="6.875" stroke-miterlimit="8" fill="#FFFFFF"/><rect x="1371.5" y="127.5" width="1680" height="2206" stroke="#AFABAB" stroke-width="4.58333" stroke-miterlimit="8" fill="none"/><text font-family="Calibri,Calibri_MSFontService,sans-serif" font-weight="400" font-size="83" transform="matrix(1 0 0 1 1909.11 295)">System Boundary</text><g clip-path="url(#clip1)"><g clip-path="url(#clip2)"><g clip-path="url(#clip3)"><path d="M955.637 589.833 955.637 589.833C952.829 589.833 950.553 592.109 950.553 594.917L951.667 879.583 916.083 879.583 916.083 706.75 905.917 706.75 905.917 879.583 870.333 879.583 870.333 594.917C870.333 592.109 868.057 589.833 865.25 589.833 862.442 589.833 860.167 592.109 860.167 594.917L860.167 889.75 961.833 889.75 960.7 594.917C960.7 592.117 958.436 589.845 955.637 589.833Z"/><path d="M911 513.583C933.46 513.583 951.667 495.376 951.667 472.917 951.667 450.457 933.46 432.25 911 432.25 888.54 432.25 870.333 450.457 870.333 472.917 870.359 495.366 888.551 513.558 911 513.583ZM911 442.417C927.845 442.417 941.5 456.072 941.5 472.917 941.5 489.761 927.845 503.417 911 503.417 894.155 503.417 880.5 489.761 880.5 472.917 880.517 456.079 894.162 442.433 911 442.417Z"/><path d="M1007.36 685.115 991.388 571.843C990.931 568.018 989.78 564.307 987.992 560.894 986.862 558.836 985.527 556.898 984.007 555.109 972.838 543.211 958.891 534.269 943.416 529.088 933.157 525.524 922.369 523.719 911.508 523.75 911.174 523.892 910.796 523.892 910.461 523.75 899.632 523.713 888.875 525.51 878.645 529.062 863.057 534.287 849.019 543.316 837.8 555.333 836.36 557.059 835.092 558.922 834.013 560.894 832.224 564.308 831.073 568.021 830.617 571.849L814.61 685.349C813.085 701.672 820.852 708.539 827.638 711.427 828.266 711.696 828.943 711.834 829.626 711.833 832.433 711.833 834.709 709.558 834.71 706.751 834.71 704.713 833.493 702.872 831.619 702.073 828.167 700.604 823.694 697.371 824.705 686.534L840.677 573.272C840.969 570.66 841.73 568.121 842.924 565.779 843.639 564.468 844.47 563.224 845.41 562.063 855.461 551.359 868.018 543.323 881.949 538.68 890.946 535.521 900.412 533.911 909.948 533.917 910.115 533.917 910.283 533.917 910.456 533.917 910.639 533.89 910.821 533.852 911 533.805 911.181 533.852 911.364 533.89 911.549 533.917L911.579 533.917C921.3 533.87 930.956 535.491 940.127 538.71 953.939 543.313 966.398 551.258 976.397 561.839 977.414 563.063 978.311 564.383 979.076 565.779 980.269 568.119 981.03 570.656 981.323 573.267L997.269 686.3C998.286 697.371 993.833 700.604 990.381 702.058 987.79 703.138 986.565 706.115 987.645 708.706 988.439 710.612 990.309 711.848 992.374 711.833 993.057 711.834 993.734 711.696 994.362 711.427 1001.15 708.539 1008.92 701.667 1007.36 685.115Z"/></g></g></g><g clip-path="url(#clip4)"><g clip-path="url(#clip5)"><g clip-path="url(#clip6)"><path d="M3533.64 589.833 3533.64 589.833C3530.83 589.833 3528.55 592.109 3528.55 594.917L3529.67 879.583 3494.08 879.583 3494.08 706.75 3483.92 706.75 3483.92 879.583 3448.33 879.583 3448.33 594.917C3448.33 592.109 3446.06 589.833 3443.25 589.833 3440.44 589.833 3438.17 592.109 3438.17 594.917L3438.17 889.75 3539.83 889.75 3538.7 594.917C3538.7 592.117 3536.44 589.845 3533.64 589.833Z"/><path d="M3489 513.583C3511.46 513.583 3529.67 495.376 3529.67 472.917 3529.67 450.457 3511.46 432.25 3489 432.25 3466.54 432.25 3448.33 450.457 3448.33 472.917 3448.36 495.366 3466.55 513.558 3489 513.583ZM3489 442.417C3505.84 442.417 3519.5 456.072 3519.5 472.917 3519.5 489.761 3505.84 503.417 3489 503.417 3472.16 503.417 3458.5 489.761 3458.5 472.917 3458.52 456.079 3472.16 442.433 3489 442.417Z"/><path d="M3585.36 685.115 3569.39 571.843C3568.93 568.018 3567.78 564.307 3565.99 560.894 3564.86 558.836 3563.53 556.898 3562.01 555.109 3550.84 543.211 3536.89 534.269 3521.42 529.088 3511.16 525.524 3500.37 523.719 3489.51 523.75 3489.17 523.892 3488.8 523.892 3488.46 523.75 3477.63 523.713 3466.87 525.51 3456.64 529.062 3441.06 534.287 3427.02 543.316 3415.8 555.333 3414.36 557.059 3413.09 558.922 3412.01 560.894 3410.22 564.308 3409.07 568.021 3408.62 571.849L3392.61 685.349C3391.08 701.672 3398.85 708.539 3405.64 711.427 3406.27 711.696 3406.94 711.834 3407.63 711.833 3410.43 711.833 3412.71 709.558 3412.71 706.751 3412.71 704.713 3411.49 702.872 3409.62 702.073 3406.17 700.604 3401.69 697.371 3402.71 686.534L3418.68 573.272C3418.97 570.66 3419.73 568.121 3420.92 565.779 3421.64 564.468 3422.47 563.224 3423.41 562.063 3433.46 551.359 3446.02 543.323 3459.95 538.68 3468.95 535.521 3478.41 533.911 3487.95 533.917 3488.12 533.917 3488.28 533.917 3488.46 533.917 3488.64 533.89 3488.82 533.852 3489 533.805 3489.18 533.852 3489.36 533.89 3489.55 533.917L3489.58 533.917C3499.3 533.87 3508.96 535.491 3518.13 538.71 3531.94 543.313 3544.4 551.258 3554.4 561.839 3555.41 563.063 3556.31 564.383 3557.08 565.779 3558.27 568.119 3559.03 570.656 3559.32 573.267L3575.27 686.3C3576.29 697.371 3571.83 700.604 3568.38 702.058 3565.79 703.138 3564.56 706.115 3565.65 708.706 3566.44 710.612 3568.31 711.848 3570.37 711.833 3571.06 711.834 3571.73 711.696 3572.36 711.427 3579.15 708.539 3586.92 701.667 3585.36 685.115Z"/></g></g></g><g clip-path="url(#clip7)"><g clip-path="url(#clip8)"><g clip-path="url(#clip9)"><path d="M969.637 1812.83 969.637 1812.83C966.829 1812.83 964.553 1815.11 964.553 1817.92L965.667 2102.58 930.083 2102.58 930.083 1929.75 919.917 1929.75 919.917 2102.58 884.333 2102.58 884.333 1817.92C884.333 1815.11 882.057 1812.83 879.25 1812.83 876.443 1812.83 874.167 1815.11 874.167 1817.92L874.167 2112.75 975.833 2112.75 974.7 1817.92C974.7 1815.12 972.436 1812.84 969.637 1812.83Z"/><path d="M925 1736.58C947.46 1736.58 965.667 1718.38 965.667 1695.92 965.667 1673.46 947.46 1655.25 925 1655.25 902.54 1655.25 884.333 1673.46 884.333 1695.92 884.359 1718.37 902.551 1736.56 925 1736.58ZM925 1665.42C941.845 1665.42 955.5 1679.07 955.5 1695.92 955.5 1712.76 941.845 1726.42 925 1726.42 908.155 1726.42 894.5 1712.76 894.5 1695.92 894.517 1679.08 908.162 1665.43 925 1665.42Z"/><path d="M1021.36 1908.12 1005.39 1794.84C1004.93 1791.02 1003.78 1787.31 1001.99 1783.89 1000.86 1781.84 999.527 1779.9 998.007 1778.11 986.838 1766.21 972.891 1757.27 957.416 1752.09 947.157 1748.52 936.369 1746.72 925.508 1746.75 925.174 1746.89 924.796 1746.89 924.461 1746.75 913.632 1746.71 902.875 1748.51 892.645 1752.06 877.057 1757.29 863.019 1766.32 851.8 1778.33 850.36 1780.06 849.092 1781.92 848.013 1783.89 846.224 1787.31 845.073 1791.02 844.617 1794.85L828.61 1908.35C827.085 1924.67 834.852 1931.54 841.638 1934.43 842.266 1934.7 842.943 1934.83 843.626 1934.83 846.434 1934.83 848.709 1932.56 848.71 1929.75 848.71 1927.71 847.493 1925.87 845.619 1925.07 842.167 1923.6 837.694 1920.37 838.705 1909.53L854.677 1796.27C854.969 1793.66 855.73 1791.12 856.924 1788.78 857.639 1787.47 858.47 1786.22 859.41 1785.06 869.462 1774.36 882.018 1766.32 895.949 1761.68 904.946 1758.52 914.412 1756.91 923.948 1756.92 924.115 1756.92 924.283 1756.92 924.456 1756.92 924.639 1756.89 924.821 1756.85 925 1756.8 925.181 1756.85 925.364 1756.89 925.549 1756.92L925.58 1756.92C935.3 1756.87 944.956 1758.49 954.128 1761.71 967.939 1766.31 980.398 1774.26 990.397 1784.84 991.414 1786.06 992.312 1787.38 993.076 1788.78 994.269 1791.12 995.03 1793.66 995.323 1796.27L1011.27 1909.3C1012.29 1920.37 1007.83 1923.6 1004.38 1925.06 1001.79 1926.14 1000.56 1929.11 1001.65 1931.71 1002.44 1933.61 1004.31 1934.85 1006.37 1934.83 1007.06 1934.83 1007.73 1934.7 1008.36 1934.43 1015.15 1931.54 1022.92 1924.67 1021.36 1908.12Z"/></g></g></g><g clip-path="url(#clip10)"><g clip-path="url(#clip11)"><g clip-path="url(#clip12)"><path d="M288.045 172.479 288.045 172.479C285.244 172.479 282.972 174.75 282.972 177.552L284.083 461.635 248.573 461.635 248.573 289.156 238.427 289.156 238.427 461.635 202.917 461.635 202.917 177.552C202.917 174.75 200.646 172.479 197.844 172.479 195.042 172.479 192.771 174.75 192.771 177.552L192.771 471.781 294.229 471.781 293.098 177.552C293.098 174.758 290.839 172.49 288.045 172.479Z" transform="matrix(1.00205 0 0 1 3218 1458)"/><path d="M243.5 96.3854C265.914 96.3854 284.083 78.2158 284.083 55.8021 284.083 33.3885 265.914 15.2188 243.5 15.2188 221.086 15.2188 202.917 33.3885 202.917 55.8021 202.942 78.2051 221.097 96.3601 243.5 96.3854ZM243.5 25.3646C260.31 25.3646 273.938 38.9919 273.938 55.8021 273.938 72.6122 260.31 86.2396 243.5 86.2396 226.69 86.2396 213.063 72.6122 213.063 55.8021 213.079 38.9989 226.697 25.3814 243.5 25.3646Z" transform="matrix(1.00205 0 0 1 3218 1458)"/><path d="M339.667 267.566 323.723 154.526C323.268 150.708 322.119 147.005 320.334 143.599 319.207 141.546 317.875 139.611 316.357 137.826 305.212 125.952 291.293 117.029 275.85 111.858 265.611 108.301 254.846 106.5 244.007 106.531 243.674 106.673 243.296 106.673 242.962 106.531 232.155 106.495 221.42 108.288 211.211 111.832 195.655 117.046 181.646 126.057 170.45 138.049 169.013 139.772 167.747 141.631 166.671 143.599 164.886 147.007 163.737 150.711 163.282 154.531L147.307 267.799C145.786 284.088 153.537 290.942 160.309 293.823 160.936 294.092 161.611 294.23 162.293 294.229 165.095 294.229 167.366 291.959 167.366 289.157 167.366 287.123 166.152 285.286 164.281 284.489 160.837 283.023 156.373 279.797 157.382 268.981L173.321 155.952C173.613 153.345 174.372 150.812 175.564 148.474 176.277 147.165 177.107 145.924 178.044 144.766 188.075 134.084 200.607 126.065 214.508 121.43 223.487 118.279 232.934 116.672 242.45 116.677 242.617 116.677 242.785 116.677 242.957 116.677 243.14 116.65 243.321 116.613 243.5 116.565 243.681 116.613 243.863 116.65 244.048 116.677L244.078 116.677C253.779 116.63 263.415 118.248 272.568 121.461 286.351 126.054 298.785 133.983 308.763 144.543 309.778 145.764 310.674 147.081 311.437 148.474 312.627 150.81 313.387 153.341 313.679 155.947L329.593 268.748C330.607 279.797 326.163 283.023 322.719 284.474 320.133 285.552 318.91 288.522 319.988 291.108 320.781 293.011 322.646 294.244 324.707 294.229 325.389 294.23 326.064 294.092 326.691 293.823 333.463 290.942 341.22 284.083 339.667 267.566Z" transform="matrix(1.00205 0 0 1 3218 1458)"/></g></g></g><path d="M0 0 495.994 126.45" stroke="#000000" stroke-width="10.3125" stroke-miterlimit="8" fill="none" fill-rule="evenodd" transform="matrix(1 0 0 -1 1118 676.45)"/><text font-family="Calibri,Calibri_MSFontService,sans-serif" font-weight="400" font-size="83" transform="matrix(1 0 0 1 767.212 1018)">Student</text><text font-family="Calibri,Calibri_MSFontService,sans-serif" font-weight="400" font-size="83" transform="matrix(1 0 0 1 3216.89 2039)">Delivery Worker</text><text font-family="Calibri,Calibri_MSFontService,sans-serif" font-weight="400" font-size="83" transform="matrix(1 0 0 1 3404.66 1018)">Cook</text><text font-family="Calibri,Calibri_MSFontService,sans-serif" font-weight="400" font-size="83" transform="matrix(1 0 0 1 632.156 2221)">Payment Services</text><path d="M1614.5 550.5C1614.5 489.196 1760.01 439.5 1939.5 439.5 2118.99 439.5 2264.5 489.196 2264.5 550.5 2264.5 611.804 2118.99 661.5 1939.5 661.5 1760.01 661.5 1614.5 611.804 1614.5 550.5Z" stroke="#2F528F" stroke-width="4.58333" stroke-miterlimit="8" fill="#DAE3F3" fill-rule="evenodd"/><text font-family="Arial,Arial_MSFontService,sans-serif" font-weight="400" font-size="83" transform="matrix(1 0 0 1 1838.14 580)">Login</text><path d="M1602.5 814C1602.5 752.973 1748.01 703.5 1927.5 703.5 2106.99 703.5 2252.5 752.973 2252.5 814 2252.5 875.027 2106.99 924.5 1927.5 924.5 1748.01 924.5 1602.5 875.027 1602.5 814Z" stroke="#2F528F" stroke-width="4.58333" stroke-miterlimit="8" fill="#DAE3F3" fill-rule="evenodd"/><text font-family="Arial,Arial_MSFontService,sans-serif" font-weight="400" font-size="83" transform="matrix(1 0 0 1 1723.26 843)">View Menu</text><path d="M1614.5 1084C1614.5 1022.97 1760.01 973.5 1939.5 973.5 2118.99 973.5 2264.5 1022.97 2264.5 1084 2264.5 1145.03 2118.99 1194.5 1939.5 1194.5 1760.01 1194.5 1614.5 1145.03 1614.5 1084Z" stroke="#2F528F" stroke-width="4.58333" stroke-miterlimit="8" fill="#DAE3F3" fill-rule="evenodd"/><text font-family="Arial,Arial_MSFontService,sans-serif" font-weight="400" font-size="83" transform="matrix(1 0 0 1 1718.97 1113)">Place Order</text><path d="M1110 747 1602.02 813.645" stroke="#000000" stroke-width="10.3125" stroke-miterlimit="8" fill="none" fill-rule="evenodd"/><path d="M1110 813 1613.77 1083.19" stroke="#000000" stroke-width="10.3125" stroke-miterlimit="8" fill="none" fill-rule="evenodd"/><path d="M1508.5 2008.5C1508.5 1947.2 1653.78 1897.5 1833 1897.5 2012.22 1897.5 2157.5 1947.2 2157.5 2008.5 2157.5 2069.8 2012.22 2119.5 1833 2119.5 1653.78 2119.5 1508.5 2069.8 1508.5 2008.5Z" stroke="#2F528F" stroke-width="4.58333" stroke-miterlimit="8" fill="#DAE3F3" fill-rule="evenodd"/><text font-family="Arial,Arial_MSFontService,sans-serif" font-weight="400" font-size="83" transform="matrix(1 0 0 1 1596.42 2038)">Pay</text><text font-family="Arial,Arial_MSFontService,sans-serif" font-weight="400" font-size="83" transform="matrix(1 0 0 1 1761.42 2038)">For Food</text><path d="M2368.5 1230C2368.5 1168.97 2514.01 1119.5 2693.5 1119.5 2872.99 1119.5 3018.5 1168.97 3018.5 1230 3018.5 1291.03 2872.99 1340.5 2693.5 1340.5 2514.01 1340.5 2368.5 1291.03 2368.5 1230Z" stroke="#2F528F" stroke-width="4.58333" stroke-miterlimit="8" fill="#DAE3F3" fill-rule="evenodd"/><text font-family="Arial,Arial_MSFontService,sans-serif" font-weight="400" font-size="83" transform="matrix(1 0 0 1 2490.93 1260)">Cook Food</text><path d="M2306.5 1902C2306.5 1840.97 2452.01 1791.5 2631.5 1791.5 2810.99 1791.5 2956.5 1840.97 2956.5 1902 2956.5 1963.03 2810.99 2012.5 2631.5 2012.5 2452.01 2012.5 2306.5 1963.03 2306.5 1902Z" stroke="#2F528F" stroke-width="4.58333" stroke-miterlimit="8" fill="#DAE3F3" fill-rule="evenodd"/><text font-family="Arial,Arial_MSFontService,sans-serif" font-weight="400" font-size="83" transform="matrix(1 0 0 1 2411.4 1931)">Deliver Food</text><path d="M1083 2008 1507.82 2008" stroke="#000000" stroke-width="10.3125" stroke-miterlimit="8" fill="none" fill-rule="evenodd"/><path d="M1109 1025 1832.1 1896.79" stroke="#000000" stroke-width="10.3125" stroke-miterlimit="8" fill="none" fill-rule="evenodd"/><path d="M1110 924 2401.43 1823.02" stroke="#000000" stroke-width="10.3125" stroke-miterlimit="8" fill="none" fill-rule="evenodd"/><path d="M0 0 1048.41 330.059" stroke="#000000" stroke-width="10.3125" stroke-miterlimit="8" fill="none" fill-rule="evenodd" transform="matrix(1 0 0 -1 2264 1083.06)"/><path d="M0 0 367.382 302.71" stroke="#000000" stroke-width="10.3125" stroke-miterlimit="8" fill="none" fill-rule="evenodd" transform="matrix(1 0 0 -1 2922 1151.71)"/><path d="M2922 1308 3217.75 1701.52" stroke="#000000" stroke-width="10.3125" stroke-miterlimit="8" fill="none" fill-rule="evenodd"/><text font-family="Calibri,Calibri_MSFontService,sans-serif" font-weight="400" font-size="83" transform="matrix(1 0 0 1 1185.48 1972)">accept</text><text font-family="Calibri,Calibri_MSFontService,sans-serif" font-weight="400" font-size="83" transform="matrix(1 0 0 1 1148.06 2071)">payment</text><text font-family="Calibri,Calibri_MSFontService,sans-serif" font-weight="400" font-size="83" transform="matrix(1 0 0 1 1392.74 1706)">pa</text><text font-family="Calibri,Calibri_MSFontService,sans-serif" font-weight="400" font-size="83" transform="matrix(1 0 0 1 1474.28 1706)">y</text><path d="M0 0 261.715 117.208" stroke="#000000" stroke-width="10.3125" stroke-miterlimit="8" fill="none" fill-rule="evenodd" transform="matrix(1 0 0 -1 2956 1901.21)"/><text font-family="Calibri,Calibri_MSFontService,sans-serif" font-weight="400" font-size="83" transform="matrix(1 0 0 1 2511.28 805)">receive </text><text font-family="Calibri,Calibri_MSFontService,sans-serif" font-weight="400" font-size="83" transform="matrix(1 0 0 1 2539.83 904)">order</text><text font-family="Calibri,Calibri_MSFontService,sans-serif" font-weight="400" font-size="83" transform="matrix(1 0 0 1 1983.83 1490)">deliver order</text><text font-family="Calibri,Calibri_MSFontService,sans-serif" font-weight="400" font-size="83" transform="matrix(1 0 0 1 3070.38 1386)">transfer </text><text font-family="Calibri,Calibri_MSFontService,sans-serif" font-weight="400" font-size="83" transform="matrix(1 0 0 1 3109.09 1485)">order</text></g></svg>