<svg width="4252" height="2378" xmlns="http://www.w3.org/2000/svg" xmlns:xlink="http://www.w3.org/1999/xlink" xml:space="preserve" overflow="hidden"><defs><clipPath id="clip0"><rect x="74" y="49" width="4252" height="2378"/></clipPath></defs><g clip-path="url(#clip0)" transform="translate(-74 -49)"><rect x="77.4998" y="52.5001" width="4245" height="2371" stroke="#000000" stroke-width="6.875" stroke-miterlimit="8" fill="#FFFFFF"/><rect x="107" y="518" width="4186" height="568" fill="#E7E6E6"/><rect x="107" y="1389" width="4186" height="568" fill="#D6DCE5"/><path d="M779.5 802.5C779.5 739.54 830.54 688.5 893.5 688.5 956.461 688.5 1007.5 739.54 1007.5 802.5 1007.5 865.46 956.461 916.5 893.5 916.5 830.54 916.5 779.5 865.46 779.5 802.5Z" stroke="#2F528F" stroke-width="4.58333" stroke-miterlimit="8" fill="#8FAADC" fill-rule="evenodd"/><path d="M1551.5 802.5C1551.5 739.54 1602.76 688.5 1666 688.5 1729.24 688.5 1780.5 739.54 1780.5 802.5 1780.5 865.46 1729.24 916.5 1666 916.5 1602.76 916.5 1551.5 865.46 1551.5 802.5Z" stroke="#2F528F" stroke-width="4.58333" stroke-miterlimit="8" fill="#8FAADC" fill-rule="evenodd"/><path d="M3943.5 802.5C3943.5 739.54 3994.76 688.5 4058 688.5 4121.24 688.5 4172.5 739.54 4172.5 802.5 4172.5 865.46 4121.24 916.5 4058 916.5 3994.76 916.5 3943.5 865.46 3943.5 802.5Z" stroke="#2F528F" stroke-width="4.58333" stroke-miterlimit="8" fill="#8FAADC" fill-rule="evenodd"/><path d="M3191.5 1676.5C3191.5 1613.54 3242.76 1562.5 3306 1562.5 3369.24 1562.5 3420.5 1613.54 3420.5 1676.5 3420.5 1739.46 3369.24 1790.5 3306 1790.5 3242.76 1790.5 3191.5 1739.46 3191.5 1676.5Z" stroke="#2F528F" stroke-width="4.58333" stroke-miterlimit="8" fill="#8FAADC" fill-rule="evenodd"/><path d="M2344.5 1676.5C2344.5 1613.54 2395.76 1562.5 2459 1562.5 2522.24 1562.5 2573.5 1613.54 2573.5 1676.5 2573.5 1739.46 2522.24 1790.5 2459 1790.5 2395.76 1790.5 2344.5 1739.46 2344.5 1676.5Z" stroke="#2F528F" stroke-width="4.58333" stroke-miterlimit="8" fill="#8FAADC" fill-rule="evenodd"/><path d="M1780.65 788.265 1794.54 788.921 1808.97 790.971 1823.31 794.303 1837.45 798.902 1851.41 804.674 1865.07 811.538 1878.52 819.425 1891.81 828.412 1904.67 838.323 1917.33 849.153 1929.66 860.833 1941.62 873.443 1953.18 886.746 1964.47 900.813 1975.32 915.595 1985.75 931.112 1995.69 947.217 2005.25 963.897 2014.3 981.215 2022.81 998.957 2030.82 1017.27 2038.24 1035.96 2045.08 1055.08 2051.35 1074.59 2056.92 1094.36 2061.91 1114.51 2066.13 1134.86 2069.72 1155.41 2072.47 1176.17 2074.52 1196.99 2075.74 1217.95 2076.18 1238.71 2076.62 1259.21 2076.6 1258.7 2077.79 1279.14 2077.75 1278.59 2079.75 1298.9 2079.69 1298.44 2082.38 1318.69 2082.3 1318.14 2085.8 1338.2 2085.71 1337.77 2089.84 1357.64 2089.72 1357.13 2094.6 1376.82 2094.49 1376.4 2099.92 1395.71 2099.78 1395.23 2105.9 1414.29 2105.76 1413.87 2112.45 1432.55 2112.28 1432.11 2119.53 1450.36 2119.34 1449.91 2127.15 1467.73 2126.97 1467.32 2135.28 1484.69 2135.05 1484.24 2143.87 1501.05 2143.65 1500.66 2152.9 1516.97 2152.62 1516.49 2162.37 1532.18 2162.08 1531.74 2172.21 1546.74 2171.92 1546.33 2182.42 1560.7 2182.06 1560.23 2192.93 1573.86 2192.54 1573.39 2203.79 1586.27 2203.39 1585.82 2214.89 1597.89 2214.42 1597.42 2226.23 1608.67 2225.68 1608.17 2237.75 1618.49 2237.18 1618.02 2249.49 1627.46 2248.86 1627 2261.36 1635.5 2258.98 1634.21 2283.93 1644.77 2273.21 1670.09 2247.02 1659.01 2233.07 1649.53 2220.16 1639.63 2207.53 1628.84 2195.21 1617.1 2183.28 1604.58 2171.63 1591.25 2160.38 1577.16 2149.56 1562.34 2139.15 1546.92 2129.11 1530.77 2119.61 1514.02 2110.58 1496.79 2102.06 1478.98 2094.06 1460.74 2086.63 1442.04 2079.79 1422.92 2073.52 1403.41 2067.96 1383.64 2062.97 1363.49 2058.74 1343.14 2055.16 1322.59 2052.4 1301.83 2050.35 1281.01 2049.13 1260.05 2048.69 1239.29 2048.25 1218.79 2048.27 1219.3 2047.09 1198.86 2047.13 1199.41 2045.13 1179.1 2045.18 1179.56 2042.49 1159.31 2042.58 1159.86 2039.08 1139.8 2039.16 1140.23 2035.04 1120.36 2035.15 1120.87 2030.28 1101.18 2030.39 1101.6 2024.95 1082.29 2025.1 1082.77 2018.97 1063.71 2019.12 1064.13 2012.43 1045.45 2012.6 1045.89 2005.35 1027.64 2005.53 1028.07 1997.71 1010.19 1997.92 1010.64 1989.6 993.326 1989.81 993.74 1981 976.865 1981.26 977.337 1971.95 961.087 1972.18 961.474 1962.49 945.787 1962.78 946.233 1952.65 931.171 1952.98 931.633 1942.48 917.321 1942.84 917.795 1931.9 904.17 1932.25 904.581 1921.06 891.706 1921.46 892.15 1909.96 880.025 1910.48 880.546 1898.67 869.358 1899.19 869.822 1887.06 859.447 1887.61 859.892 1875.36 850.455 1876.04 850.951 1863.48 842.451 1864.23 842.925 1851.55 835.487 1852.33 835.911 1839.51 829.474 1840.43 829.894 1827.43 824.519 1828.43 824.888 1815.37 820.638 1816.51 820.956 1803.33 817.894 1804.5 818.113 1791.31 816.238 1792.6 816.36 1779.35 815.735ZM2276.42 1614 2344.78 1675.92 2254.23 1693.46Z" fill="#4472C4"/><path d="M0.700619-13.7321 13.644-13.0718 27.2217-10.9935 40.6453-7.62044 53.8934-2.97677 66.9451 2.83899 79.7612 9.7503 92.321 17.7004 104.579 26.7119 116.621 36.6475 128.347 47.522 139.768 59.2041 150.891 71.8234 161.626 85.1449 172.08 99.2128 182.149 113.993 191.804 129.506 201.039 145.604 209.897 162.292 218.222 179.582 226.15 197.293 233.58 215.612 240.415 234.266 246.806 253.372 252.56 272.873 257.731 292.599 262.333 312.734 266.229 333.042 269.552 353.558 272.11 374.275 274.028 395.052 275.181 415.996 275.56 436.749 275.935 457.248 275.917 456.744 277.042 477.182 277.004 476.674 278.879 496.986 278.834 496.565 281.334 516.815 281.267 516.342 284.455 536.405 284.371 535.931 288.246 555.806 288.154 555.374 292.654 575.061 292.551 574.638 297.613 593.951 297.489 593.506 303.176 612.569 303.053 612.178 309.241 630.866 309.084 630.418 315.834 648.668 315.689 648.292 322.876 666.105 322.682 665.649 330.432 683.024 330.255 682.642 338.38 699.455 338.155 699.01 346.78 715.323 346.552 714.908 355.552 730.595 355.263 730.115 364.701 745.115 364.442 744.719 374.192 759.094 373.873 758.644 383.936 772.269 383.581 771.81 393.956 784.685 393.542 784.194 404.229 796.256 403.769 795.762 414.769 807.012 414.257 806.515 425.444 816.827 424.905 816.355 436.28 825.793 435.616 825.276 447.241 833.776 444.44 832.194 463.467 840.168 452.838 865.531 432.316 856.93 419.044 847.226 407.069 837.291 395.356 826.493 383.87 814.746 372.745 802.19 361.987 788.839 351.588 774.759 341.55 759.96 331.838 744.523 322.58 728.387 313.728 711.645 305.403 694.418 297.467 676.625 290.111 658.396 283.209 639.735 276.883 620.628 271.07 601.147 265.894 581.401 261.296 561.286 257.333 540.958 254.07 520.422 251.515 499.725 249.597 478.948 248.444 458.004 248.065 437.251 247.69 416.751 247.708 417.256 246.583 396.818 246.621 397.326 244.746 377.014 244.791 377.435 242.291 357.185 242.364 357.699 239.114 337.636 239.184 338.028 235.371 318.153 235.471 318.626 230.971 298.939 231.074 299.362 226.012 280.049 226.125 280.454 220.5 261.391 220.647 261.861 214.397 243.174 214.527 243.543 207.84 225.293 208.008 225.731 200.758 207.856 200.95 208.306 193.2 190.993 193.361 191.34 185.236 174.465 185.48 174.946 176.855 158.696 177.073 159.092 168.073 143.405 168.326 143.828 158.951 128.766 159.261 129.241 149.511 114.929 149.839 115.389 139.714 101.764 140.044 102.19 129.669 89.315 130.06 89.7795 119.373 77.6545 119.856 78.1747 108.918 66.9872 109.4 67.4569 98.2128 57.0819 98.8114 57.6057 87.3739 48.1682 87.9808 48.641 76.4183 40.141 77.2085 40.6806 65.4585 33.2431 66.2861 33.7274 54.3486 27.2899 55.2785 27.747 43.216 22.372 44.2642 22.7885 32.1392 18.5385 33.3365 18.8979 21.149 15.8354 22.4196 16.0917 10.1696 14.2167 11.5494 14.3571-0.700619 13.7321ZM457.709 809.37 523.592 873.925 432.419 887.898Z" fill="#4472C4" transform="matrix(1 0 0 -1 3420 1675.92)"/><path d="M1007.04 787.25 1482.21 788.507 1482.14 816.007 1006.96 814.75ZM1468.53 760.971 1550.92 802.439 1468.32 843.47Z" fill="#4472C4"/><path d="M1776.02 785.25 3874.8 788.037 3874.76 815.537 1775.98 812.75ZM3861.08 760.518 3943.53 801.878 3860.97 843.018Z" fill="#4472C4"/><path d="M2578 1662.25 3122.93 1662.25 3122.93 1689.75 2578 1689.75ZM3109.18 1634.75 3191.68 1676 3109.18 1717.25Z" fill="#4472C4"/><text font-family="Calibri,Calibri_MSFontService,sans-serif" font-weight="700" font-size="110" transform="matrix(1 0 0 1 357.393 838)">Main</text><text font-family="Calibri,Calibri_MSFontService,sans-serif" font-weight="700" font-size="110" transform="matrix(1 0 0 1 365.643 1709)">Feature</text><text font-family="Calibri,Calibri_MSFontService,sans-serif" font-weight="700" font-size="110" transform="matrix(1 0 0 1 714.114 1709)">-</text><text font-family="Calibri,Calibri_MSFontService,sans-serif" font-weight="700" font-size="110" transform="matrix(1 0 0 1 747.916 1709)">Branch</text><text font-family="Calibri,Calibri_MSFontService,sans-serif" font-weight="700" font-size="83" transform="matrix(1 0 0 1 1729.65 1264)">Branch</text><text font-family="Calibri,Calibri_MSFontService,sans-serif" font-weight="700" font-size="83" transform="matrix(1 0 0 1 3784.77 1264)">Merge</text></g></svg>