<svg width="4251" height="2379" xmlns="http://www.w3.org/2000/svg" xmlns:xlink="http://www.w3.org/1999/xlink" xml:space="preserve" overflow="hidden"><defs><clipPath id="clip0"><rect x="104" y="62" width="4251" height="2379"/></clipPath><clipPath id="clip1"><rect x="1702" y="1228" width="1175" height="1176"/></clipPath><clipPath id="clip2"><rect x="1702" y="1228" width="1175" height="1176"/></clipPath><clipPath id="clip3"><rect x="1702" y="1228" width="1175" height="1176"/></clipPath></defs><g clip-path="url(#clip0)" transform="translate(-104 -62)"><rect x="107.5" y="65.5002" width="4244" height="2372" stroke="#000000" stroke-width="6.875" stroke-miterlimit="8" fill="#FFFFFF"/><path d="M206.5 298.838C206.5 215.257 274.256 147.5 357.838 147.5L4043.16 147.5C4126.74 147.5 4194.5 215.257 4194.5 298.838L4194.5 904.162C4194.5 987.744 4126.74 1055.5 4043.16 1055.5L357.838 1055.5C274.256 1055.5 206.5 987.744 206.5 904.162Z" stroke="#000000" stroke-width="4.58333" stroke-miterlimit="8" stroke-dasharray="18.3333 13.75" fill="#E7E6E6" fill-rule="evenodd"/><path d="M252.5 1423.34C252.5 1321.25 335.255 1238.5 437.338 1238.5L4055.66 1238.5C4157.75 1238.5 4240.5 1321.25 4240.5 1423.34L4240.5 2162.66C4240.5 2264.75 4157.75 2347.5 4055.66 2347.5L437.338 2347.5C335.255 2347.5 252.5 2264.75 252.5 2162.66Z" stroke="#000000" stroke-width="4.58333" stroke-miterlimit="8" stroke-dasharray="18.3333 13.75" fill="#DAE3F3" fill-rule="evenodd"/><text font-family="Calibri,Calibri_MSFontService,sans-serif" font-weight="700" font-size="110" transform="matrix(1 0 0 1 404.25 362)">GitHub</text><text font-family="Calibri,Calibri_MSFontService,sans-serif" font-weight="700" font-size="110" transform="matrix(1 0 0 1 404.25 1527)">Local Machine</text><g clip-path="url(#clip1)"><g clip-path="url(#clip2)"><g clip-path="url(#clip3)"><path d="M929.417 733.75 244.583 733.75 244.583 317.958 929.417 317.958 929.417 733.75ZM1002.79 293.5C1002.79 266.596 980.779 244.583 953.875 244.583L220.125 244.583C193.221 244.583 171.208 266.596 171.208 293.5L171.208 807.125 1002.79 807.125 1002.79 293.5Z" transform="matrix(1 0 0 1 1703 1229)"/><path d="M660.375 856.042 660.375 868.271C660.375 875.608 655.483 880.5 648.146 880.5L525.854 880.5C518.517 880.5 513.625 875.608 513.625 868.271L513.625 856.042 24.4583 856.042 24.4583 880.5C24.4583 907.404 46.4708 929.417 73.375 929.417L1100.62 929.417C1127.53 929.417 1149.54 907.404 1149.54 880.5L1149.54 856.042 660.375 856.042Z" transform="matrix(1 0 0 1 1703 1229)"/></g></g></g><path d="M788.5 517.168C788.5 469.855 826.855 431.5 874.168 431.5L1889.83 431.5C1937.15 431.5 1975.5 469.855 1975.5 517.168L1975.5 859.832C1975.5 907.145 1937.15 945.5 1889.83 945.5L874.168 945.5C826.855 945.5 788.5 907.145 788.5 859.832Z" stroke="#2F528F" stroke-width="4.58333" stroke-miterlimit="8" stroke-dasharray="36.6667 13.75 4.58333 13.75" fill="#DEEBF7" fill-rule="evenodd"/><text font-family="Calibri,Calibri_MSFontService,sans-serif" font-weight="700" font-size="83" transform="matrix(1 0 0 1 875.818 715)">tangollama</text><text font-family="Calibri,Calibri_MSFontService,sans-serif" font-weight="700" font-size="83" transform="matrix(1 0 0 1 1278.12 715)">/ cis411_lab0_req</text><path d="M2604.5 517.169C2604.5 469.855 2642.86 431.5 2690.17 431.5L3706.83 431.5C3754.14 431.5 3792.5 469.855 3792.5 517.169L3792.5 859.831C3792.5 907.145 3754.14 945.5 3706.83 945.5L2690.17 945.5C2642.86 945.5 2604.5 907.145 2604.5 859.831Z" stroke="#2F528F" stroke-width="4.58333" stroke-miterlimit="8" stroke-dasharray="36.6667 13.75 4.58333 13.75" fill="#DEEBF7" fill-rule="evenodd"/><text font-family="Calibri,Calibri_MSFontService,sans-serif" font-weight="700" font-size="83" transform="matrix(1 0 0 1 2735.56 715)">m</text><text font-family="Calibri,Calibri_MSFontService,sans-serif" font-weight="700" font-size="83" transform="matrix(1 0 0 1 2802.59 715)">-</text><text font-family="Calibri,Calibri_MSFontService,sans-serif" font-weight="700" font-size="83" transform="matrix(1 0 0 1 2827.8 715)">shoul</text><text font-family="Calibri,Calibri_MSFontService,sans-serif" font-weight="700" font-size="83" transform="matrix(1 0 0 1 3050.67 715)">/ cis411_lab0_req</text><path d="M1975 608.25 2535.31 608.25 2535.31 635.75 1975 635.75ZM2521.56 580.75 2604.06 622 2521.56 663.25Z" fill="#4472C4"/><path d="M11.2171-7.95234 343.851 461.24 321.417 477.145-11.2171 7.95234ZM358.333 434.119 372.396 525.278 291.031 481.833Z" fill="#4472C4" transform="matrix(-1 0 0 1 3122.4 948)"/><path d="M11.2512-7.90396 306.315 412.116 283.812 427.924-11.2512 7.90396ZM320.913 385.057 334.583 476.276 253.406 432.481Z" fill="#4472C4" transform="matrix(1 0 0 -1 2472 1455.28)"/><path d="M1329.44 969.005 1783.63 1398.07 1764.75 1418.06 1310.56 988.995ZM1792.52 1368.64 1824.17 1455.28 1735.87 1428.61Z" fill="#4472C4"/><path d="M7.88836e-06-13.75 560.312-13.7497 560.312 13.7503-7.88836e-06 13.75ZM546.562-41.2497 629.062 0.000360892 546.562 41.2503Z" fill="#4472C4" transform="matrix(-1 0 0 1 2604.06 755)"/><text font-family="Calibri,Calibri_MSFontService,sans-serif" font-weight="700" font-size="83" transform="matrix(1 0 0 1 2215.11 549)">Fork</text><text font-family="Calibri,Calibri_MSFontService,sans-serif" font-weight="700" font-size="83" transform="matrix(1 0 0 1 2078.17 881)">Pull Request</text><text font-family="Calibri,Calibri_MSFontService,sans-serif" font-weight="700" font-size="83" transform="matrix(1 0 0 1 2045.27 1776)">Local Machine</text><text font-family="Calibri,Calibri_MSFontService,sans-serif" font-weight="700" font-size="83" transform="matrix(1 0 0 1 3090.03 1189)">Clone</text><text font-family="Calibri,Calibri_MSFontService,sans-serif" font-weight="700" font-size="83" transform="matrix(1 0 0 1 2405.68 1168)">Push</text><text font-family="Calibri,Calibri_MSFontService,sans-serif" font-weight="700" font-size="83" transform="matrix(1 0 0 1 1447.47 1366)">Pull</text></g></svg>