<?xml version="1.0" standalone="no"?>
<!DOCTYPE svg PUBLIC "-//W3C//DTD SVG 20010904//EN"
 "http://www.w3.org/TR/2001/REC-SVG-20010904/DTD/svg10.dtd">
<svg version="1.0" xmlns="http://www.w3.org/2000/svg"
 width="2216.000000pt" height="1340.000000pt" viewBox="0 0 2216.000000 1340.000000"
 preserveAspectRatio="xMidYMid meet">

<g transform="translate(0.000000,1340.000000) scale(0.100000,-0.100000)"
fill="#000000" stroke="none">
<path d="M4670 10831 c0 -424 -3 -772 -7 -774 -14 -7 -918 142 -950 157 -27
13 -33 13 -43 1 -14 -17 -5 -35 19 -35 10 0 25 -8 34 -17 8 -10 224 -364 479
-788 l463 -770 3 -1996 2 -1996 -665 -389 c-558 -326 -698 -414 -661 -414 3 0
301 173 663 385 l658 384 3 -536 c1 -295 0 -538 -2 -541 -3 -2 -318 44 -701
103 -383 59 -699 104 -703 101 -3 -4 -1 -10 4 -15 5 -4 313 -54 684 -110 371
-57 685 -105 698 -108 l22 -5 0 -459 c0 -252 -2 -459 -6 -459 -3 0 -309 234
-680 520 -371 286 -676 520 -679 520 -32 0 94 -103 680 -554 l685 -528 0 -909
0 -909 6290 0 6290 0 0 2568 0 2568 575 190 c352 116 575 194 575 202 0 6 -3
12 -8 12 -4 0 -257 -83 -562 -185 -305 -102 -560 -185 -567 -185 -10 0 -13 63
-13 290 l0 290 23 -5 c64 -14 1119 -146 1124 -141 4 4 2 10 -3 15 -5 4 -264
41 -576 82 l-568 73 0 194 c0 180 1 194 18 190 9 -3 247 -98 529 -212 281
-113 514 -206 517 -206 3 0 6 6 6 13 0 7 -230 104 -535 227 l-535 214 0 2358
0 2358 -6290 0 -6290 0 0 -769z m12558 -1595 c2 -2224 1 -2338 -15 -2333 -10
2 -742 296 -1628 652 -1576 635 -2380 958 -4541 1827 l-1071 430 -6 48 c-17
142 -166 300 -396 419 -265 136 -567 220 -985 273 -147 19 -222 22 -526 22
-304 0 -379 -3 -526 -22 -414 -52 -715 -135 -977 -269 -233 -119 -384 -276
-404 -418 -3 -25 -8 -45 -10 -45 -5 0 -980 155 -1261 200 -100 17 -185 30
-187 30 -3 0 -5 344 -5 765 l0 765 6268 -2 6267 -3 3 -2339z m-8668 1289 c569
-67 1019 -226 1233 -433 111 -108 148 -182 148 -296 0 -363 -665 -671 -1591
-736 -624 -43 -1306 59 -1728 260 -158 76 -245 134 -322 217 -84 90 -122 170
-122 260 0 112 38 187 149 295 241 233 806 411 1438 452 142 9 665 -3 795 -19z
m-4325 -430 c231 -37 423 -70 428 -74 4 -4 6 -155 5 -336 l-3 -328 -440 393
c-523 466 -478 424 -440 417 17 -3 219 -35 450 -72z m29 -415 l406 -363 0
-335 c0 -184 -2 -333 -4 -331 -2 2 -198 327 -435 723 -274 456 -421 709 -402
693 16 -13 212 -188 435 -387z m1122 230 c379 -60 705 -112 725 -116 35 -5 37
-8 42 -50 12 -106 122 -249 266 -345 264 -177 669 -299 1181 -356 216 -23 704
-23 920 0 513 57 917 179 1181 356 142 94 252 236 266 341 4 25 10 39 17 36
24 -10 3470 -1396 5786 -2326 641 -258 1230 -495 1310 -528 l145 -58 3 -197
c1 -108 0 -197 -2 -197 -8 0 -1527 199 -1568 206 -33 5 -37 9 -43 45 -12 69
-70 170 -137 239 -223 230 -714 403 -1323 466 -219 23 -682 23 -900 0 -502
-52 -910 -173 -1187 -351 -99 -65 -199 -169 -240 -253 -30 -60 -33 -75 -33
-157 0 -82 3 -96 33 -152 129 -249 533 -455 1092 -557 277 -50 409 -60 785
-61 367 0 493 10 755 56 464 82 853 245 1024 430 69 74 112 147 127 217 7 28
13 52 14 52 1 0 360 -47 799 -105 438 -58 799 -105 802 -105 2 0 3 -134 2
-297 l-3 -297 -355 -117 c-195 -65 -942 -312 -1660 -549 -718 -237 -1555 -514
-1860 -616 -3110 -1030 -3725 -1231 -3732 -1221 -4 7 -8 21 -8 32 0 44 -60
145 -130 219 -225 236 -692 404 -1320 473 -218 24 -705 23 -925 -1 -473 -52
-844 -159 -1125 -323 -163 -96 -297 -253 -316 -371 -4 -23 -9 -42 -13 -42 -3
-1 -250 36 -548 82 l-543 83 0 546 c0 425 3 549 13 557 14 11 1076 632 1081
632 2 0 7 -17 11 -37 12 -65 57 -142 123 -214 211 -228 669 -398 1270 -471
239 -29 766 -32 997 -4 401 47 709 126 961 246 237 112 361 215 431 358 34 67
38 84 38 151 0 64 -5 86 -31 141 -64 136 -188 245 -394 348 -266 134 -603 223
-1015 268 -246 28 -738 25 -984 -5 -292 -35 -599 -103 -772 -171 -28 -12 -53
-19 -54 -18 -2 2 -379 630 -839 1397 l-836 1393 2 340 3 341 680 -608 c374
-334 701 -627 726 -652 40 -39 47 -52 51 -94 12 -117 126 -276 283 -392 99
-73 358 -202 520 -257 314 -107 683 -178 1094 -210 74 -5 259 -10 411 -10 484
0 871 45 1255 145 269 70 550 186 725 300 113 73 240 206 287 301 34 70 38 87
41 169 3 71 0 103 -16 147 -90 255 -432 484 -946 632 -976 283 -2338 215
-3105 -155 -79 -38 -183 -95 -230 -126 -160 -106 -285 -260 -312 -383 -7 -30
-14 -56 -15 -58 -1 -2 -240 209 -531 469 -290 260 -617 552 -725 648 l-197
176 -1 343 c0 188 2 342 4 342 1 0 313 -49 692 -110z m3409 -1010 c544 -36
1013 -137 1368 -296 281 -125 458 -267 540 -434 27 -55 32 -77 35 -155 3 -74
0 -100 -18 -145 -96 -242 -420 -455 -916 -600 -262 -77 -603 -135 -929 -159
-180 -14 -650 -14 -830 0 -787 58 -1452 281 -1725 576 -181 198 -191 398 -29
598 257 317 967 558 1809 614 184 12 513 12 695 1z m-3276 -1729 c446 -744
811 -1356 811 -1360 0 -3 -44 -27 -98 -52 -249 -119 -403 -273 -437 -438 l-11
-55 -510 -298 c-280 -165 -526 -308 -546 -319 l-38 -19 0 1957 c0 1181 4 1953
9 1948 5 -6 374 -619 820 -1364z m8646 224 c267 -27 538 -83 755 -155 115 -38
336 -143 417 -198 85 -58 189 -170 221 -239 40 -86 39 -184 -4 -273 -61 -129
-186 -234 -406 -340 -249 -120 -551 -199 -948 -247 -208 -25 -784 -25 -990 0
-716 87 -1219 304 -1356 584 -25 50 -29 69 -29 143 1 96 19 143 94 237 206
262 842 469 1556 507 138 7 543 -4 690 -19z m-5985 -1410 c492 -56 883 -174
1140 -342 94 -62 199 -173 236 -249 23 -48 28 -73 28 -134 1 -66 -4 -85 -32
-142 -138 -282 -649 -500 -1367 -584 -217 -26 -749 -26 -965 0 -501 59 -886
176 -1151 352 -82 54 -180 157 -216 227 -24 45 -28 64 -28 142 0 79 3 97 29
148 148 302 750 537 1526 597 165 12 639 4 800 -15z m9048 -2722 l-3 -2548
-6267 -3 -6268 -2 0 890 0 891 108 -83 c59 -46 306 -236 549 -423 l441 -340 5
-48 c13 -104 116 -242 251 -336 89 -61 284 -157 411 -201 724 -252 1816 -247
2525 12 221 80 396 184 502 297 155 164 175 326 62 494 -79 116 -186 198 -379
292 -251 121 -565 204 -955 250 -183 22 -643 31 -840 16 -665 -51 -1201 -228
-1441 -478 -76 -79 -113 -138 -131 -209 l-13 -50 -547 421 -547 420 0 468 c-1
367 2 467 12 467 6 0 253 -37 548 -82 l537 -82 6 -46 c9 -71 52 -146 129 -227
76 -80 136 -123 271 -194 245 -129 584 -222 986 -271 240 -30 787 -32 1015 -4
417 50 722 131 983 262 81 40 177 96 215 124 113 87 195 202 218 309 l10 50
497 165 c273 91 1397 462 2497 826 2462 814 3288 1088 4015 1330 311 104 573
189 583 189 16 1 17 -125 15 -2546z m-9014 767 c397 -46 706 -129 967 -260
140 -71 202 -114 280 -198 91 -95 123 -164 123 -262 1 -66 -4 -85 -32 -142
-138 -281 -644 -498 -1357 -584 -228 -28 -775 -26 -1015 4 -473 58 -855 176
-1102 342 -90 59 -188 161 -225 233 -24 45 -28 64 -28 142 0 78 4 97 27 146
150 305 747 537 1538 599 187 14 619 4 824 -20z m-4 -1654 c482 -57 886 -184
1136 -357 186 -129 272 -296 229 -445 -92 -316 -637 -565 -1425 -650 -216 -24
-666 -24 -895 0 -397 41 -746 128 -1000 251 -148 71 -227 124 -306 205 -89 90
-123 160 -128 263 -3 74 -1 83 32 150 124 249 540 452 1127 551 80 14 197 29
260 35 63 6 133 13 155 15 103 10 688 -3 815 -18z"/>
<path d="M12733 8882 c-37 -100 -39 -112 -19 -112 8 0 20 16 26 35 21 62 68
37 85 -45 7 -33 20 -49 38 -50 9 0 -1 67 -15 93 -7 13 -5 17 10 17 28 0 54 34
50 67 -2 22 -13 33 -48 50 -92 45 -91 45 -127 -55z m115 28 c35 -22 39 -32 18
-49 -11 -10 -24 -9 -55 0 -43 13 -47 19 -31 50 13 24 27 24 68 -1z"/>
<path d="M12921 8804 c-30 -38 -28 -87 5 -113 31 -25 63 -27 90 -6 16 12 17
16 5 24 -9 6 -21 5 -33 -2 -23 -15 -52 1 -56 32 l-3 21 52 -20 c53 -21 68 -17
69 18 0 17 -20 55 -34 64 -26 18 -75 8 -95 -18z m83 -10 c32 -31 17 -43 -29
-22 -27 12 -32 24 -12 31 20 9 25 8 41 -9z"/>
<path d="M13086 8758 c-37 -32 -45 -89 -17 -117 11 -11 34 -21 49 -21 32 0 73
35 50 43 -7 2 -20 -2 -29 -10 -38 -32 -70 17 -44 67 19 37 52 40 65 5 12 -32
30 -32 30 -1 0 49 -63 70 -104 34z"/>
<path d="M13396 8733 c-11 -12 -6 -33 8 -33 19 0 28 27 11 33 -7 3 -16 3 -19
0z"/>
<path d="M13235 8718 c-32 -18 -44 -40 -45 -79 0 -59 59 -95 107 -64 23 15 24
19 10 27 -11 5 -23 4 -36 -4 -23 -14 -51 3 -51 33 0 17 3 17 41 4 54 -19 67
-19 71 3 7 29 -12 69 -38 81 -30 13 -34 13 -59 -1z m49 -24 c9 -3 16 -14 16
-25 0 -16 -4 -17 -30 -8 -30 11 -36 20 -23 32 8 9 17 9 37 1z"/>
<path d="M13353 8616 c-27 -75 -28 -86 -10 -86 7 0 23 28 35 63 26 73 27 81
10 85 -8 1 -22 -22 -35 -62z"/>
<path d="M13420 8586 c0 -107 13 -113 83 -34 39 44 53 65 44 70 -8 6 -27 -8
-54 -39 l-43 -47 0 62 c0 48 -3 62 -15 62 -12 0 -15 -15 -15 -74z"/>
<path d="M13582 8590 c-50 -20 -60 -104 -18 -140 34 -27 118 -8 89 21 -8 8
-16 7 -31 -2 -25 -15 -52 2 -52 32 0 18 1 18 49 0 28 -10 52 -16 55 -13 4 3 6
20 6 38 0 23 -8 38 -26 53 -29 23 -38 24 -72 11z m56 -32 c25 -25 14 -38 -20
-26 -43 14 -45 17 -28 28 20 13 34 12 48 -2z"/>
<path d="M13721 8531 c-28 -28 -27 -34 15 -70 34 -30 38 -51 9 -51 -7 0 -22
12 -33 27 -23 32 -37 26 -28 -10 8 -33 58 -54 91 -39 36 16 33 55 -5 84 -16
12 -30 28 -30 35 0 20 28 15 42 -7 15 -23 38 -27 38 -7 0 17 -28 43 -57 51
-15 5 -28 1 -42 -13z"/>
<path d="M13968 8494 c-15 -8 -35 -28 -43 -44 -40 -78 4 -160 85 -160 110 0
146 164 46 205 -43 18 -54 18 -88 -1z m104 -47 c29 -45 -12 -127 -63 -127 -34
0 -69 31 -69 60 0 32 29 80 53 89 24 9 67 -3 79 -22z"/>
<path d="M14140 8374 c-6 -16 -18 -48 -27 -72 -12 -31 -13 -46 -5 -54 8 -8 18
5 36 47 23 51 28 57 50 51 16 -4 26 -1 30 9 3 10 -3 17 -22 21 -15 4 -33 11
-39 16 -9 7 -16 2 -23 -18z"/>
<path d="M14336 8349 c-11 -26 -14 -28 -26 -15 -37 46 -110 -6 -110 -78 0 -39
21 -59 76 -70 l31 -7 33 88 c18 48 35 94 38 101 10 27 -30 10 -42 -19z m-30
-54 c9 -35 -20 -77 -49 -73 -28 4 -34 41 -13 74 22 32 54 32 62 -1z"/>
<path d="M14371 8264 c-30 -38 -28 -87 5 -113 31 -25 63 -27 90 -6 16 12 17
16 5 24 -9 6 -21 5 -33 -2 -21 -14 -51 0 -56 27 -4 20 15 20 63 0 39 -16 54
-9 55 24 0 17 -20 55 -34 64 -26 18 -75 8 -95 -18z m93 -21 c9 -24 0 -27 -34
-13 -34 14 -39 27 -12 32 24 6 39 -1 46 -19z"/>
<path d="M14515 8179 c-15 -38 -25 -73 -22 -76 12 -12 35 7 41 34 10 39 35 75
47 67 5 -3 17 -3 26 0 12 5 13 9 3 22 -7 8 -19 13 -26 10 -7 -3 -16 -1 -19 4
-13 21 -24 7 -50 -61z"/>
<path d="M7015 9898 c-72 -62 -37 -225 48 -229 70 -4 100 9 122 51 14 28 14
31 -1 37 -11 4 -24 -4 -41 -26 -29 -37 -68 -41 -101 -11 -33 31 -33 111 1 148
28 30 70 29 95 -3 22 -28 52 -33 52 -10 0 9 -11 27 -25 40 -33 34 -112 35
-150 3z"/>
<path d="M7610 9795 c0 -118 1 -125 20 -125 17 0 20 7 20 40 0 22 4 40 9 40 4
0 20 -18 35 -40 16 -24 34 -40 46 -40 26 0 26 2 -15 63 l-35 51 32 33 c32 33
32 33 8 33 -13 0 -37 -12 -52 -27 l-28 -27 0 62 c0 55 -2 62 -20 62 -19 0 -20
-7 -20 -125z"/>
<path d="M8470 9880 c0 -38 -1 -39 -23 -29 -31 14 -75 -4 -87 -36 -25 -65 6
-147 55 -146 11 1 37 1 58 1 l37 1 0 124 c0 118 -1 125 -20 125 -17 0 -20 -7
-20 -40z m-11 -74 c17 -21 10 -87 -11 -100 -28 -17 -52 5 -56 48 -4 41 11 66
38 66 10 0 23 -6 29 -14z"/>
<path d="M7269 9849 c-51 -19 -66 -108 -26 -154 17 -21 32 -27 62 -27 52 0 85
36 85 92 0 68 -60 112 -121 89z m69 -41 c7 -7 12 -28 12 -48 0 -41 -14 -60
-45 -60 -31 0 -45 19 -45 60 0 41 14 60 45 60 12 0 26 -5 33 -12z"/>
<path d="M7459 9849 c-51 -19 -66 -108 -26 -154 17 -21 32 -27 62 -27 52 0 85
36 85 92 0 68 -60 112 -121 89z m69 -41 c7 -7 12 -28 12 -48 0 -41 -14 -60
-45 -60 -31 0 -45 19 -45 60 0 41 14 60 45 60 12 0 26 -5 33 -12z"/>
<path d="M7803 9850 c-26 -11 -38 -43 -24 -69 6 -10 30 -26 53 -33 24 -8 43
-21 43 -29 0 -20 -54 -24 -61 -5 -7 19 -44 21 -44 3 0 -25 40 -51 76 -50 41 1
74 27 74 58 0 28 -15 40 -65 57 -49 16 -58 38 -16 38 17 0 31 -4 31 -10 0 -5
9 -10 20 -10 23 0 27 22 7 39 -20 16 -69 22 -94 11z"/>
<path d="M8089 9849 c-51 -19 -66 -108 -26 -154 17 -21 32 -27 62 -27 52 0 85
36 85 92 0 68 -60 112 -121 89z m69 -41 c7 -7 12 -28 12 -48 0 -41 -14 -60
-45 -60 -31 0 -45 19 -45 60 0 41 14 60 45 60 12 0 26 -5 33 -12z"/>
<path d="M8291 9851 c-7 -5 -22 -6 -32 -4 -18 5 -19 -1 -19 -86 0 -84 1 -91
20 -91 18 0 20 7 20 64 0 64 16 96 40 81 5 -3 13 1 17 10 3 10 0 21 -8 26 -17
11 -21 11 -38 0z"/>
<path d="M8594 9850 c-55 -22 -72 -108 -31 -154 21 -24 38 -30 84 -27 21 1 63
36 63 53 0 14 -37 9 -50 -7 -24 -29 -80 -9 -80 29 0 3 29 6 65 6 62 0 65 1 65
24 0 52 -68 96 -116 76z m64 -42 c21 -21 13 -28 -33 -28 -25 0 -45 4 -45 8 0
15 24 32 45 32 12 0 26 -5 33 -12z"/>
<path d="M8791 9851 c-7 -5 -22 -6 -32 -4 -18 5 -19 -1 -19 -86 0 -84 1 -91
20 -91 18 0 20 7 20 64 0 64 16 96 40 81 5 -3 13 1 17 10 3 10 0 21 -8 26 -17
11 -21 11 -38 0z"/>
<path d="M5205 8258 c-47 -25 -75 -62 -75 -96 0 -18 5 -42 10 -53 14 -26 67
-51 91 -44 29 9 18 28 -21 36 -56 12 -68 63 -25 103 36 33 72 40 102 21 21
-14 24 -23 21 -57 -3 -47 17 -64 31 -26 28 75 -64 155 -134 116z"/>
<path d="M5257 8050 c-35 -28 -41 -53 -22 -89 18 -37 54 -48 96 -31 35 15 49
37 49 78 0 58 -71 82 -123 42z m93 -30 c9 -17 6 -25 -14 -45 -14 -14 -34 -25
-45 -25 -27 0 -45 34 -31 59 18 35 73 42 90 11z"/>
<path d="M5355 7914 c-73 -44 -71 -42 -59 -54 7 -7 28 -1 61 17 43 23 53 25
67 14 26 -22 19 -36 -35 -70 -36 -22 -49 -35 -42 -42 12 -12 38 -1 91 38 37
28 42 61 12 88 -11 10 -20 24 -20 32 0 19 -9 17 -75 -23z"/>
<path d="M5482 7810 c-6 -14 -30 -36 -56 -50 -25 -13 -46 -30 -46 -37 0 -20
19 -16 73 18 31 19 53 27 55 20 6 -19 22 -12 22 9 0 11 5 20 11 20 14 0 40
-26 33 -33 -4 -3 -3 -11 1 -17 5 -8 10 -8 20 0 11 9 11 16 -1 39 -22 44 -39
55 -65 41 -17 -10 -23 -9 -30 1 -6 10 -10 7 -17 -11z"/>
<path d="M5487 7711 c-61 -35 -74 -48 -61 -60 11 -12 137 66 129 79 -9 14 -15
13 -68 -19z"/>
<path d="M5513 7652 c-35 -20 -63 -43 -63 -49 0 -19 17 -16 66 13 40 24 47 25
62 11 9 -8 24 -16 31 -19 9 -3 -8 -17 -42 -37 -60 -34 -72 -45 -63 -60 3 -5
30 4 60 20 50 27 55 28 70 13 20 -20 15 -28 -40 -60 -24 -14 -44 -32 -44 -40
0 -20 15 -17 61 12 44 28 72 28 77 1 2 -11 -13 -27 -47 -48 -28 -18 -51 -36
-51 -40 0 -20 20 -16 71 15 64 38 76 71 36 102 -13 11 -22 25 -20 31 3 7 -7
24 -20 37 -14 14 -23 27 -20 29 3 4 -55 108 -60 107 -1 -1 -30 -18 -64 -38z"/>
<path d="M5712 7381 c-16 -9 -18 -34 -8 -78 6 -26 4 -33 -7 -33 -23 0 -38 26
-31 54 7 31 -10 35 -26 7 -19 -37 17 -91 60 -91 34 0 43 19 34 77 -4 26 -2 43
4 43 17 0 31 -25 26 -47 -8 -29 14 -39 25 -11 19 52 -33 107 -77 79z"/>
<path d="M5853 7199 c-43 -13 -83 -62 -83 -103 0 -38 31 -83 66 -96 53 -20
135 25 149 83 10 38 -22 97 -61 113 -19 8 -35 14 -36 13 -2 0 -17 -5 -35 -10z
m86 -55 c28 -36 26 -50 -8 -85 -53 -53 -131 -31 -131 37 0 30 54 74 90 74 19
0 36 -9 49 -26z"/>
<path d="M5918 6974 c-32 -20 -58 -42 -58 -50 0 -19 8 -17 55 11 46 28 70 32
79 10 3 -8 10 -15 16 -15 15 0 12 38 -4 47 -8 4 -15 12 -15 18 1 19 -17 14
-73 -21z"/>
<path d="M5983 6905 c-34 -14 -63 -50 -63 -77 0 -10 9 -27 20 -38 11 -11 20
-24 20 -30 0 -19 22 -10 106 40 57 35 81 55 78 65 -5 13 -10 13 -32 1 -25 -13
-28 -12 -43 14 -21 34 -47 41 -86 25z m65 -52 c4 -27 -36 -56 -70 -51 -32 4
-36 41 -6 62 32 23 72 17 76 -11z"/>
<path d="M6070 6768 c-40 -15 -60 -39 -60 -73 0 -38 32 -75 65 -75 31 0 24 26
-10 34 -28 7 -38 31 -24 58 11 20 13 18 40 -26 16 -25 32 -46 37 -46 16 0 31
17 42 45 9 24 8 33 -7 53 -24 32 -52 42 -83 30z m65 -48 c6 -20 0 -40 -13 -40
-4 0 -15 14 -24 30 -17 30 -17 30 7 30 15 0 26 -7 30 -20z"/>
<path d="M6130 6614 c-30 -18 -55 -39 -55 -46 0 -18 13 -16 68 12 47 24 49 24
62 6 8 -10 18 -15 24 -11 16 9 13 35 -4 41 -8 4 -15 12 -15 20 0 21 -19 16
-80 -22z"/>
<path d="M14805 5430 c-3 -11 -4 -24 0 -29 3 -5 0 -13 -6 -17 -9 -5 -7 -10 4
-19 9 -6 25 -32 36 -57 11 -25 24 -49 30 -53 17 -10 51 4 45 20 -3 8 -12 11
-19 9 -17 -7 -50 87 -34 97 6 4 8 12 5 18 -4 6 -12 9 -17 6 -5 -4 -13 5 -19
19 -11 31 -17 32 -25 6z"/>
<path d="M14701 5346 c-7 -8 -19 -12 -27 -9 -20 7 -18 -12 8 -84 13 -35 28
-63 35 -63 17 0 16 18 -2 70 -11 32 -12 46 -4 56 24 29 46 16 65 -38 12 -32
25 -53 34 -53 19 0 15 26 -13 85 -18 37 -27 46 -53 48 -18 2 -36 -3 -43 -12z"/>
<path d="M14565 5300 c-64 -24 -63 -126 1 -150 27 -11 94 10 94 29 0 5 3 16 6
25 10 26 -18 18 -42 -11 -18 -23 -26 -26 -40 -17 -27 16 -27 31 0 38 68 17 77
24 65 50 -14 29 -55 47 -84 36z m44 -34 c9 -11 8 -15 -6 -19 -10 -2 -26 -8
-35 -12 -21 -8 -25 14 -6 33 16 16 33 15 47 -2z"/>
<path d="M14407 5236 c-9 -9 -29 -16 -46 -16 -16 0 -33 -4 -36 -10 -3 -5 -15
-10 -26 -10 -24 0 -24 -3 1 -76 22 -64 33 -80 49 -70 6 4 5 19 -5 42 -20 47
-15 89 10 89 13 0 24 -15 39 -52 11 -29 26 -53 33 -53 18 0 18 5 -2 61 -33 91
17 111 51 22 11 -29 26 -53 34 -53 17 0 10 41 -16 97 -20 43 -59 56 -86 29z"/>
<path d="M14230 5123 l-1 -58 -37 42 c-26 30 -41 40 -51 34 -11 -7 -3 -22 37
-68 53 -60 64 -89 38 -99 -8 -3 -12 -12 -9 -20 7 -18 18 -18 37 2 23 22 24
224 1 224 -12 0 -15 -13 -15 -57z"/>
<path d="M14050 5113 c-27 -10 -50 -36 -50 -55 0 -25 23 -23 35 5 6 12 20 23
33 25 35 5 27 -23 -13 -47 -24 -14 -35 -28 -35 -44 0 -45 46 -62 86 -32 10 8
27 15 37 15 23 0 21 15 -11 80 -27 54 -46 67 -82 53z m50 -118 c-16 -19 -50
-19 -50 0 0 8 12 21 28 29 24 13 27 13 30 0 2 -8 -2 -21 -8 -29z"/>
<path d="M13832 5092 c-48 -18 -48 -9 0 -134 19 -51 35 -78 45 -78 11 0 14 6
9 23 -18 66 -19 64 15 76 66 23 86 63 53 109 -18 27 -59 28 -122 4z m97 -30
c11 -21 4 -35 -26 -51 -35 -18 -50 -13 -61 18 -10 27 -8 31 16 40 41 15 60 13
71 -7z"/>
<path d="M13519 4963 c0 -5 -2 -22 -3 -40 -2 -19 2 -34 9 -37 7 -2 19 -22 25
-43 17 -50 29 -65 53 -61 25 4 35 28 12 28 -19 0 -57 80 -44 95 13 14 11 25
-5 25 -8 0 -18 9 -21 20 -6 19 -24 28 -26 13z"/>
<path d="M13635 4958 c-56 -32 -37 -91 29 -88 46 3 56 1 56 -10 0 -16 -43 -29
-57 -18 -7 6 -20 7 -30 4 -14 -6 -15 -9 -2 -21 14 -14 31 -18 62 -16 21 1 57
36 57 55 0 25 -31 47 -64 46 -56 -3 -60 -2 -46 15 9 11 22 14 41 10 33 -7 47
10 20 24 -25 14 -41 13 -66 -1z"/>
<path d="M13422 4874 c-32 -22 -31 -86 3 -119 27 -28 45 -31 78 -14 27 14 37
28 37 52 0 24 -26 22 -33 -3 -3 -11 -13 -23 -23 -27 -23 -9 -56 32 -52 66 3
22 8 26 38 27 51 1 54 2 40 19 -16 19 -60 19 -88 -1z"/>
<path d="M13163 4843 c-9 -3 -2 -32 23 -101 39 -108 40 -110 55 -95 8 8 2 36
-22 100 -36 97 -39 102 -56 96z"/>
<path d="M13283 4828 c-43 -21 -47 -106 -6 -135 30 -23 79 -16 102 13 26 33
26 44 1 44 -11 0 -20 -7 -20 -15 0 -21 -31 -35 -52 -24 -28 15 -22 24 31 43
47 16 49 19 39 41 -5 12 -21 28 -35 34 -28 13 -31 13 -60 -1z m54 -34 c2 -7
-10 -17 -27 -22 -26 -10 -30 -9 -30 8 0 28 48 40 57 14z"/>
<path d="M13103 4822 c-16 -10 53 -202 73 -202 19 0 18 6 -18 106 -35 101 -39
106 -55 96z"/>
<path d="M13008 4724 c-38 -20 -46 -59 -22 -102 25 -46 52 -55 95 -34 25 12
35 25 37 46 5 39 -15 81 -44 95 -31 14 -33 14 -66 -5z m66 -36 c22 -31 20 -65
-3 -78 -27 -14 -47 -4 -61 30 -23 56 30 96 64 48z"/>
<path d="M12801 4704 c-25 -21 -31 -33 -31 -65 0 -98 73 -154 149 -114 33 17
60 70 43 87 -14 14 -32 1 -32 -22 0 -21 -35 -50 -60 -50 -25 0 -60 43 -67 82
-9 58 39 94 88 68 29 -16 44 -2 23 21 -25 28 -76 24 -113 -7z"/>
<path d="M8782 8119 c-44 -9 -70 -34 -82 -81 -28 -100 34 -179 130 -169 67 8
100 51 100 130 0 41 -5 56 -27 81 -33 36 -75 49 -121 39z m83 -54 c19 -18 25
-35 25 -70 0 -83 -68 -121 -126 -72 -23 20 -27 31 -26 73 0 40 5 53 27 71 34
30 70 29 100 -2z"/>
<path d="M7100 7995 c0 -118 1 -125 20 -125 17 0 20 7 20 50 l0 50 54 0 c70 0
100 22 100 75 0 57 -28 75 -120 75 l-74 0 0 -125z m149 66 c17 -30 -9 -54 -60
-55 -44 -1 -44 -1 -47 37 l-3 37 50 0 c39 0 53 -4 60 -19z"/>
<path d="M7690 7995 c0 -118 1 -125 20 -125 17 0 20 7 20 40 0 22 4 40 9 40 4
0 20 -18 35 -40 16 -24 34 -40 46 -40 26 0 26 2 -15 63 l-35 51 32 33 c32 33
32 33 8 33 -13 0 -37 -12 -52 -27 l-28 -27 0 62 c0 55 -2 62 -20 62 -19 0 -20
-7 -20 -125z"/>
<path d="M9190 8080 c0 -38 -1 -39 -23 -29 -31 14 -75 -4 -87 -36 -25 -65 6
-147 55 -146 11 1 37 1 58 1 l37 1 0 124 c0 118 -1 125 -20 125 -17 0 -20 -7
-20 -40z m-11 -74 c17 -21 10 -87 -11 -100 -28 -17 -52 5 -56 48 -4 41 11 66
38 66 10 0 23 -6 29 -14z"/>
<path d="M7363 8045 c-22 -9 -33 -21 -33 -35 0 -24 25 -27 38 -4 11 20 67 15
67 -6 0 -8 -9 -16 -20 -18 -70 -10 -95 -28 -95 -66 0 -33 23 -48 67 -46 21 1
53 1 72 1 26 -1 32 2 27 15 -3 8 -6 41 -6 73 0 31 -6 65 -12 74 -18 24 -67 30
-105 12z m77 -108 c0 -21 -22 -37 -52 -37 -32 0 -38 23 -10 39 24 15 62 13 62
-2z"/>
<path d="M7540 8032 c-23 -24 -30 -39 -30 -71 0 -62 38 -96 103 -92 21 1 57
36 57 56 0 22 -37 18 -43 -5 -3 -13 -14 -20 -29 -20 -34 0 -48 18 -48 60 0 20
5 41 12 48 17 17 57 15 64 -3 6 -16 44 -21 44 -6 0 20 -37 51 -67 57 -27 5
-37 1 -63 -24z"/>
<path d="M7905 8053 c-29 -8 -45 -23 -45 -44 0 -23 26 -25 38 -3 11 20 67 15
67 -6 0 -8 -9 -16 -20 -18 -70 -10 -95 -28 -95 -66 0 -33 23 -48 67 -46 21 1
53 1 72 1 26 -1 32 2 27 15 -3 8 -6 41 -6 73 0 31 -6 65 -12 74 -14 18 -61 28
-93 20z m65 -116 c0 -21 -22 -37 -52 -37 -32 0 -38 23 -10 39 24 15 62 13 62
-2z"/>
<path d="M8090 8053 c-51 -19 -67 -109 -29 -158 18 -22 28 -26 60 -23 40 4 50
-7 27 -30 -17 -17 -55 -15 -62 3 -8 22 -36 18 -36 -5 0 -41 94 -56 130 -20 17
17 20 33 20 125 0 102 -1 105 -22 103 -13 0 -34 2 -48 5 -14 3 -32 3 -40 0z
m66 -61 c23 -47 -16 -110 -53 -86 -22 13 -29 79 -12 100 17 21 51 13 65 -14z"/>
<path d="M8294 8050 c-55 -22 -72 -108 -31 -154 21 -24 38 -30 84 -27 21 1 63
36 63 53 0 14 -37 9 -50 -7 -23 -28 -80 -13 -80 22 0 9 18 13 65 13 62 0 65 1
65 24 0 52 -68 96 -116 76z m64 -42 c21 -21 13 -28 -33 -28 -25 0 -45 4 -45 8
0 15 24 32 45 32 12 0 26 -5 33 -12z"/>
<path d="M8463 8050 c-26 -11 -38 -43 -24 -69 6 -10 30 -26 53 -33 24 -8 43
-21 43 -29 0 -20 -54 -24 -61 -5 -7 19 -44 21 -44 3 0 -25 40 -51 76 -50 41 1
74 27 74 58 0 28 -15 40 -65 57 -49 16 -58 38 -16 38 17 0 31 -4 31 -10 0 -5
9 -10 20 -10 23 0 27 22 7 39 -20 16 -69 22 -94 11z"/>
<path d="M9021 8051 c-7 -5 -22 -6 -32 -4 -18 5 -19 -1 -19 -86 0 -84 1 -91
20 -91 18 0 20 7 20 64 0 64 16 96 40 81 5 -3 13 1 17 10 3 10 0 21 -8 26 -17
11 -21 11 -38 0z"/>
<path d="M9314 8050 c-77 -32 -68 -167 13 -183 43 -8 101 23 103 56 0 13 -37
7 -50 -8 -23 -28 -80 -13 -80 22 0 9 18 13 65 13 62 0 65 1 65 24 0 52 -68 96
-116 76z m64 -42 c21 -21 13 -28 -33 -28 -25 0 -45 4 -45 8 0 15 24 32 45 32
12 0 26 -5 33 -12z"/>
<path d="M9511 8051 c-7 -5 -22 -6 -32 -4 -18 5 -19 -1 -19 -86 0 -84 1 -91
20 -91 18 0 20 7 20 64 0 64 16 96 40 81 5 -3 13 1 17 10 3 10 0 21 -8 26 -17
11 -21 11 -38 0z"/>
<path d="M12630 6665 l0 -125 64 0 c36 0 76 4 90 10 33 12 56 59 56 114 0 93
-38 126 -145 126 l-65 0 0 -125z m154 63 c22 -30 20 -100 -1 -127 -13 -16 -31
-22 -63 -24 l-45 -2 -3 88 -3 87 50 0 c40 0 53 -4 65 -22z"/>
<path d="M13070 6665 c0 -118 1 -125 20 -125 19 0 20 7 20 125 0 118 -1 125
-20 125 -19 0 -20 -7 -20 -125z"/>
<path d="M13140 6770 c0 -13 7 -20 20 -20 13 0 20 7 20 20 0 13 -7 20 -20 20
-13 0 -20 -7 -20 -20z"/>
<path d="M13960 6665 c0 -118 1 -125 20 -125 18 0 20 7 20 55 l0 55 61 0 c52
0 60 2 57 18 -2 13 -15 18 -61 20 -56 3 -57 4 -57 32 0 29 0 29 67 32 55 2 68
6 71 21 3 15 -6 17 -87 17 l-91 0 0 -125z"/>
<path d="M14660 6750 c0 -38 -1 -39 -23 -29 -31 14 -75 -4 -87 -36 -25 -65 6
-147 55 -146 11 1 37 1 58 1 l37 1 0 124 c0 118 -1 125 -20 125 -17 0 -20 -7
-20 -40z m-11 -74 c17 -21 10 -87 -11 -100 -28 -17 -52 5 -56 48 -4 41 11 66
38 66 10 0 23 -6 29 -14z"/>
<path d="M12924 6720 c-55 -22 -72 -108 -31 -154 21 -24 38 -30 84 -27 21 1
63 36 63 53 0 14 -37 9 -50 -7 -23 -28 -80 -13 -80 22 0 9 18 13 65 13 62 0
65 1 65 24 0 52 -68 96 -116 76z m64 -42 c21 -21 13 -28 -33 -28 -25 0 -45 4
-45 8 0 15 24 32 45 32 12 0 26 -5 33 -12z"/>
<path d="M13434 6720 c-55 -22 -72 -108 -31 -154 21 -24 38 -30 84 -27 21 1
63 36 63 53 0 14 -37 9 -50 -7 -23 -28 -80 -13 -80 22 0 9 18 13 65 13 62 0
65 1 65 24 0 52 -68 96 -116 76z m64 -42 c21 -21 13 -28 -33 -28 -25 0 -45 4
-45 8 0 15 24 32 45 32 12 0 26 -5 33 -12z"/>
<path d="M13631 6721 c-7 -5 -22 -6 -32 -4 -18 5 -19 -1 -19 -86 0 -84 1 -91
20 -91 18 0 20 7 20 64 0 64 16 96 40 81 5 -3 13 1 17 10 3 10 0 21 -8 26 -17
11 -21 11 -38 0z"/>
<path d="M13723 6720 c-26 -11 -38 -43 -24 -69 6 -10 30 -26 53 -33 24 -8 43
-21 43 -29 0 -20 -54 -24 -61 -5 -7 19 -44 21 -44 3 0 -25 40 -51 76 -50 41 1
74 27 74 58 0 28 -15 40 -65 57 -49 16 -58 38 -16 38 17 0 31 -4 31 -10 0 -5
9 -10 20 -10 23 0 27 22 7 39 -20 16 -69 22 -94 11z"/>
<path d="M14214 6720 c-55 -22 -72 -108 -31 -155 17 -21 32 -27 62 -27 52 0
85 36 85 92 0 66 -61 113 -116 90z m64 -42 c7 -7 12 -28 12 -48 0 -41 -14 -60
-45 -60 -31 0 -45 19 -45 60 0 41 14 60 45 60 12 0 26 -5 33 -12z"/>
<path d="M14399 6719 c-51 -19 -66 -108 -26 -154 17 -21 32 -27 62 -27 52 0
85 36 85 92 0 68 -60 112 -121 89z m69 -41 c7 -7 12 -28 12 -48 0 -41 -14 -60
-45 -60 -31 0 -45 19 -45 60 0 41 14 60 45 60 12 0 26 -5 33 -12z"/>
<path d="M13140 6630 c0 -83 1 -90 20 -90 19 0 20 7 20 90 0 83 -1 90 -20 90
-19 0 -20 -7 -20 -90z"/>
<path d="M13224 6658 c13 -35 29 -75 35 -90 20 -52 44 -35 76 54 17 45 32 86
33 90 2 4 -5 8 -16 8 -15 0 -25 -15 -42 -60 -13 -34 -24 -59 -26 -57 -2 2 -12
28 -22 58 -14 41 -24 55 -41 57 l-21 3 24 -63z"/>
<path d="M6710 5379 c-89 -19 -117 -150 -48 -220 24 -23 38 -29 74 -29 87 0
124 39 124 130 0 40 -5 56 -27 80 -33 36 -75 49 -123 39z m85 -54 c19 -18 25
-35 25 -70 0 -83 -68 -121 -126 -72 -23 20 -27 31 -26 73 0 40 5 53 27 71 34
30 70 29 100 -2z"/>
<path d="M7120 5340 c0 -38 -1 -39 -23 -29 -31 14 -75 -4 -87 -36 -25 -65 6
-147 55 -146 11 1 37 1 58 1 l37 1 0 124 c0 118 -1 125 -20 125 -17 0 -20 -7
-20 -40z m-11 -74 c17 -21 10 -87 -11 -100 -28 -17 -52 5 -56 48 -4 41 11 66
38 66 10 0 23 -6 29 -14z"/>
<path d="M7772 5258 c3 -108 5 -123 21 -126 14 -3 17 5 17 52 l0 56 61 0 c52
0 60 2 57 18 -2 13 -15 18 -61 20 -56 3 -57 4 -57 32 0 29 0 29 67 32 55 2 68
6 71 21 3 15 -6 17 -88 17 l-91 0 3 -122z"/>
<path d="M8470 5340 c0 -38 -1 -39 -23 -29 -31 14 -75 -4 -87 -36 -25 -65 6
-147 55 -146 11 1 37 1 58 1 l37 1 0 124 c0 118 -1 125 -20 125 -17 0 -20 -7
-20 -40z m-11 -74 c17 -21 10 -87 -11 -100 -28 -17 -52 5 -56 48 -4 41 11 66
38 66 10 0 23 -6 29 -14z"/>
<path d="M6941 5311 c-7 -5 -22 -6 -32 -4 -18 5 -19 -1 -19 -86 0 -84 1 -91
20 -91 18 0 20 7 20 64 0 64 16 96 40 81 5 -3 13 1 17 10 3 10 0 21 -8 26 -17
11 -21 11 -38 0z"/>
<path d="M7244 5310 c-77 -32 -68 -167 13 -183 43 -8 101 23 103 56 0 13 -37
7 -50 -8 -23 -28 -80 -13 -80 22 0 9 18 13 65 13 62 0 65 1 65 24 0 52 -68 96
-116 76z m64 -42 c21 -21 13 -28 -33 -28 -25 0 -45 4 -45 8 0 15 24 32 45 32
12 0 26 -5 33 -12z"/>
<path d="M7441 5311 c-7 -5 -22 -6 -32 -4 -18 5 -19 -1 -19 -86 0 -84 1 -91
20 -91 18 0 20 7 20 64 0 64 16 96 40 81 5 -3 13 1 17 10 3 10 0 21 -8 26 -17
11 -21 11 -38 0z"/>
<path d="M7523 5310 c-26 -11 -38 -43 -24 -69 6 -10 30 -26 53 -33 24 -8 43
-21 43 -29 0 -20 -54 -24 -61 -5 -7 19 -44 21 -44 3 0 -25 40 -51 76 -50 41 1
74 27 74 58 0 28 -15 40 -65 57 -49 16 -58 38 -16 38 17 0 31 -4 31 -10 0 -5
9 -10 20 -10 23 0 27 22 7 39 -20 16 -69 22 -94 11z"/>
<path d="M8019 5309 c-51 -19 -66 -108 -26 -154 17 -21 32 -27 62 -27 52 0 85
36 85 92 0 68 -60 112 -121 89z m69 -41 c7 -7 12 -28 12 -48 0 -41 -14 -60
-45 -60 -31 0 -45 19 -45 60 0 41 14 60 45 60 12 0 26 -5 33 -12z"/>
<path d="M8209 5309 c-51 -19 -66 -108 -26 -154 17 -21 32 -27 62 -27 52 0 85
36 85 92 0 68 -60 112 -121 89z m69 -41 c7 -7 12 -28 12 -48 0 -41 -14 -60
-45 -60 -31 0 -45 19 -45 60 0 41 14 60 45 60 12 0 26 -5 33 -12z"/>
<path d="M7517 3432 c-10 -2 -20 -16 -24 -34 -3 -16 -12 -32 -19 -35 -19 -7
-18 -33 1 -33 12 0 15 -15 15 -75 0 -60 3 -75 15 -75 12 0 15 15 15 75 0 68 2
75 20 75 11 0 20 7 20 15 0 9 -9 15 -21 15 -28 0 -21 34 9 38 12 2 22 9 22 17
0 14 -26 23 -53 17z"/>
<path d="M6630 3305 c0 -118 1 -125 20 -125 17 0 20 7 20 50 l0 50 54 0 c70 0
100 22 100 75 0 57 -28 75 -120 75 l-74 0 0 -125z m149 66 c16 -29 -8 -52 -62
-58 l-47 -6 0 42 0 41 50 0 c38 0 52 -4 59 -19z"/>
<path d="M8390 3390 c0 -37 -2 -40 -20 -30 -49 26 -100 -22 -100 -94 0 -41 35
-87 65 -87 11 1 37 1 58 1 l37 1 0 124 c0 118 -1 125 -20 125 -17 0 -20 -7
-20 -40z m-11 -74 c17 -21 10 -87 -11 -100 -28 -17 -52 5 -56 48 -4 41 11 66
38 66 10 0 23 -6 29 -14z"/>
<path d="M6893 3355 c-22 -9 -33 -21 -33 -35 0 -24 25 -27 38 -4 11 20 67 15
67 -6 0 -8 -9 -16 -20 -18 -70 -10 -95 -28 -95 -66 0 -33 23 -48 67 -46 21 1
53 1 72 1 26 -1 32 2 27 15 -3 8 -6 41 -6 73 0 31 -6 65 -12 74 -18 24 -67 30
-105 12z m77 -108 c0 -20 -21 -37 -46 -37 -31 0 -41 20 -19 37 24 17 65 17 65
0z"/>
<path d="M7243 3360 c-26 -11 -38 -43 -24 -69 6 -10 30 -26 53 -33 24 -8 43
-21 43 -29 0 -20 -54 -24 -61 -5 -7 19 -44 21 -44 3 0 -25 40 -51 76 -50 41 1
74 27 74 58 0 28 -15 40 -65 57 -49 16 -58 38 -16 38 17 0 31 -4 31 -10 0 -5
9 -10 20 -10 23 0 27 22 7 39 -20 16 -69 22 -94 11z"/>
<path d="M7619 3359 c-51 -19 -66 -108 -26 -154 32 -38 92 -38 124 0 64 74 -9
188 -98 154z m69 -41 c7 -7 12 -28 12 -48 0 -41 -14 -60 -45 -60 -31 0 -45 19
-45 60 0 41 14 60 45 60 12 0 26 -5 33 -12z"/>
<path d="M7821 3361 c-7 -5 -22 -6 -32 -4 -18 5 -19 -1 -19 -86 0 -84 1 -91
20 -91 18 0 20 7 20 64 0 64 16 96 40 81 5 -3 13 1 17 10 3 10 0 21 -8 26 -17
11 -21 11 -38 0z"/>
<path d="M8019 3359 c-51 -19 -66 -108 -26 -154 32 -38 92 -38 124 0 64 74 -9
188 -98 154z m69 -41 c7 -7 12 -28 12 -48 0 -41 -14 -60 -45 -60 -31 0 -45 19
-45 60 0 41 14 60 45 60 12 0 26 -5 33 -12z"/>
<path d="M8221 3361 c-7 -5 -22 -6 -32 -4 -18 5 -19 -1 -19 -86 0 -84 1 -91
20 -91 18 0 20 7 20 64 0 64 16 96 40 81 5 -3 13 1 17 10 3 10 0 21 -8 26 -17
11 -21 11 -38 0z"/>
<path d="M8514 3360 c-55 -22 -72 -108 -31 -154 21 -24 38 -30 84 -27 21 1 63
36 63 53 0 14 -37 9 -50 -7 -23 -28 -80 -13 -80 22 0 9 18 13 65 13 62 0 65 1
65 24 0 52 -68 96 -116 76z m64 -42 c21 -21 13 -28 -33 -28 -25 0 -45 4 -45 8
0 15 24 32 45 32 12 0 26 -5 33 -12z"/>
<path d="M8721 3361 c-7 -5 -22 -6 -32 -4 -18 5 -19 -1 -19 -86 0 -84 1 -91
20 -91 18 0 20 7 20 64 0 64 16 96 40 81 5 -3 13 1 17 10 3 10 0 21 -8 26 -17
11 -21 11 -38 0z"/>
<path d="M7054 3298 c13 -35 29 -75 35 -90 13 -35 5 -57 -24 -64 -15 -4 -22
-11 -18 -20 6 -17 47 -18 61 -1 9 10 92 222 92 233 0 2 -9 4 -19 4 -15 0 -24
-13 -37 -52 -24 -76 -25 -77 -49 -12 -16 44 -27 60 -43 62 l-22 3 24 -63z"/>
<path d="M6630 1645 l0 -125 95 0 c77 0 95 3 95 15 0 11 -17 15 -72 17 l-73 3
-3 38 -3 37 70 0 c64 0 71 2 71 20 0 18 -7 20 -70 20 l-70 0 0 30 0 29 72 3
c60 2 73 6 76 21 3 15 -6 17 -92 17 l-96 0 0 -125z"/>
<path d="M7410 1645 c0 -118 1 -125 20 -125 18 0 20 7 20 55 l0 55 60 0 c53 0
60 2 60 20 0 18 -7 20 -60 20 -60 0 -60 0 -60 30 0 29 0 29 67 32 55 2 68 6
71 21 3 15 -6 17 -87 17 l-91 0 0 -125z"/>
<path d="M8110 1730 c0 -37 -2 -40 -20 -30 -49 26 -100 -22 -100 -94 0 -41 35
-87 65 -87 11 1 37 1 58 1 l37 1 0 124 c0 118 -1 125 -20 125 -17 0 -20 -7
-20 -40z m-11 -74 c7 -8 11 -31 9 -52 -6 -72 -70 -72 -76 0 -4 41 11 66 38 66
10 0 23 -6 29 -14z"/>
<path d="M7062 1748 c-7 -7 -12 -20 -12 -30 0 -10 -4 -18 -10 -18 -5 0 -10 -7
-10 -15 0 -8 4 -15 9 -15 5 0 11 -29 13 -65 5 -74 14 -88 54 -83 l29 3 -22 20
c-18 16 -23 30 -23 72 0 40 4 53 15 53 8 0 15 7 15 15 0 8 -7 15 -15 15 -10 0
-15 10 -15 30 0 32 -9 37 -28 18z"/>
<path d="M6905 1703 c-29 -8 -45 -23 -45 -44 0 -23 26 -25 38 -3 11 20 67 15
67 -6 0 -8 -9 -16 -20 -18 -70 -10 -95 -28 -95 -66 0 -33 23 -48 67 -46 21 1
53 1 72 1 26 -1 32 2 27 15 -3 8 -6 41 -6 73 0 31 -6 65 -12 74 -14 18 -61 28
-93 20z m65 -116 c0 -21 -22 -37 -52 -37 -32 0 -38 23 -10 39 24 15 62 13 62
-2z"/>
<path d="M7163 1700 c-26 -11 -38 -43 -24 -69 6 -10 30 -26 53 -33 24 -8 43
-21 43 -29 0 -20 -54 -24 -61 -5 -7 19 -44 21 -44 3 0 -25 40 -51 76 -50 41 1
74 27 74 58 0 28 -15 40 -65 57 -49 16 -58 38 -16 38 17 0 31 -4 31 -10 0 -5
9 -10 20 -10 23 0 27 22 7 39 -20 16 -69 22 -94 11z"/>
<path d="M7659 1699 c-51 -19 -66 -108 -26 -154 17 -21 32 -27 62 -27 52 0 85
36 85 92 0 68 -60 112 -121 89z m69 -41 c7 -7 12 -28 12 -48 0 -41 -14 -60
-45 -60 -31 0 -45 19 -45 60 0 41 14 60 45 60 12 0 26 -5 33 -12z"/>
<path d="M7849 1699 c-51 -19 -66 -108 -26 -154 17 -21 32 -27 62 -27 52 0 85
36 85 92 0 68 -60 112 -121 89z m69 -41 c7 -7 12 -28 12 -48 0 -41 -14 -60
-45 -60 -31 0 -45 19 -45 60 0 41 14 60 45 60 12 0 26 -5 33 -12z"/>
<path d="M2569 11285 c-109 -40 -190 -113 -237 -213 -24 -51 -27 -69 -27 -162
0 -87 4 -113 23 -154 51 -113 151 -195 273 -224 l69 -17 0 -152 0 -153 -250 0
c-160 0 -250 -4 -250 -10 0 -6 90 -10 250 -10 l250 0 0 -410 0 -410 -27 -24
c-28 -24 -56 -48 -316 -270 -75 -64 -135 -122 -131 -127 3 -6 12 -5 22 3 21
17 420 355 449 381 l22 20 256 -187 c260 -190 285 -206 285 -187 0 10 -56 53
-364 276 l-166 120 0 407 0 408 265 0 c170 0 265 4 265 10 0 6 -6 10 -12 10
-7 0 -125 2 -263 3 l-250 2 -3 151 -3 152 48 7 c101 14 195 71 253 153 87 121
103 266 43 393 -50 107 -119 171 -227 210 -60 22 -192 25 -247 4z m279 -51
c247 -123 272 -460 46 -620 -128 -91 -321 -82 -443 22 -53 44 -100 126 -117
204 -15 64 -15 76 0 142 20 89 51 143 115 200 70 63 135 87 242 87 80 1 92 -2
157 -35z"/>
<path d="M1450 8615 c0 -87 3 -105 15 -105 11 0 15 12 15 45 0 43 1 45 30 45
23 0 35 -9 60 -45 20 -29 38 -45 51 -45 19 0 18 5 -15 50 -20 28 -32 50 -27
50 18 0 41 31 41 54 0 40 -30 56 -103 56 l-67 0 0 -105z m136 60 c10 -26 -16
-45 -62 -45 -42 0 -44 1 -44 30 0 29 1 30 50 30 36 0 52 -4 56 -15z"/>
<path d="M2950 8615 l0 -105 80 0 c64 0 80 3 80 15 0 12 -14 15 -66 15 l-65 0
3 33 c3 32 4 32 61 35 76 4 74 22 -3 22 l-60 0 0 30 0 30 60 0 c47 0 60 3 60
15 0 12 -15 15 -75 15 l-75 0 0 -105z"/>
<path d="M3540 8615 c0 -87 3 -105 15 -105 12 0 15 18 15 105 0 87 -3 105 -15
105 -12 0 -15 -18 -15 -105z"/>
<path d="M1970 8692 c0 -10 -6 -24 -12 -30 -10 -10 -10 -15 -1 -20 7 -4 13
-34 15 -67 3 -53 5 -60 26 -63 15 -2 22 2 22 12 0 9 -4 16 -10 16 -15 0 -12
97 3 104 10 5 10 7 0 12 -7 3 -13 17 -13 30 0 15 -6 24 -15 24 -8 0 -15 -8
-15 -18z"/>
<path d="M2797 8703 c-4 -3 -7 -14 -7 -24 0 -9 -6 -20 -12 -23 -10 -5 -10 -7
0 -12 7 -3 12 -25 12 -54 0 -64 7 -80 36 -80 27 0 32 17 9 26 -11 4 -15 21
-15 55 0 37 4 49 15 49 8 0 15 5 15 10 0 6 -7 10 -15 10 -9 0 -15 9 -15 25 0
24 -10 32 -23 18z"/>
<path d="M1693 8660 c-45 -18 -58 -95 -23 -130 26 -26 81 -26 105 0 25 28 11
38 -24 17 -35 -21 -36 -21 -55 -1 -27 26 -18 34 39 34 49 0 55 2 55 20 0 23
-42 70 -62 69 -7 0 -23 -4 -35 -9z m55 -32 c21 -21 13 -28 -28 -28 -22 0 -40
4 -40 8 0 14 23 32 40 32 9 0 21 -5 28 -12z"/>
<path d="M1831 8652 c-34 -27 -21 -58 30 -73 27 -9 39 -17 37 -28 -4 -22 -32
-25 -51 -6 -19 18 -37 20 -37 2 0 -41 88 -53 114 -15 13 19 14 25 2 42 -7 11
-27 24 -44 28 -17 5 -34 13 -37 18 -10 17 25 23 51 10 28 -16 44 -6 23 15 -25
25 -63 28 -88 7z"/>
<path d="M2074 8660 c-24 -10 -39 -28 -30 -37 3 -4 17 -1 30 6 27 15 57 12 63
-6 3 -7 -8 -15 -24 -19 -56 -12 -63 -16 -73 -35 -8 -13 -7 -25 0 -39 9 -17 20
-19 70 -18 l60 2 0 62 c0 54 -3 65 -22 78 -25 18 -42 19 -74 6z m66 -89 c0
-17 -32 -42 -49 -39 -23 5 -26 35 -4 41 32 8 53 7 53 -2z"/>
<path d="M2411 8661 c-8 -5 -20 -7 -28 -4 -10 4 -13 -11 -13 -71 0 -61 3 -76
15 -76 12 0 15 13 15 60 0 33 5 61 10 61 6 1 16 2 23 3 14 1 16 28 2 33 -5 1
-16 -1 -24 -6z"/>
<path d="M2494 8660 c-24 -10 -39 -28 -30 -37 3 -4 17 -1 30 6 27 15 57 12 63
-6 3 -7 -8 -15 -24 -19 -56 -12 -63 -16 -73 -35 -8 -13 -7 -25 0 -39 9 -17 20
-19 70 -18 l60 2 0 62 c0 54 -3 65 -22 78 -25 18 -42 19 -74 6z m66 -89 c0
-17 -32 -42 -49 -39 -23 5 -26 35 -4 41 32 8 53 7 53 -2z"/>
<path d="M2675 8661 c-11 -5 -26 -6 -32 -4 -10 4 -13 -14 -13 -71 0 -60 3 -76
15 -76 10 0 15 16 17 63 3 59 4 62 28 62 24 0 25 -3 28 -62 2 -47 7 -63 17
-63 12 0 15 15 15 70 0 66 -1 71 -26 80 -14 6 -26 10 -27 9 -1 0 -11 -4 -22
-8z"/>
<path d="M3191 8661 c-7 -5 -22 -6 -32 -4 -17 5 -19 -1 -19 -71 0 -61 3 -76
15 -76 11 0 15 13 15 54 0 56 17 83 45 72 11 -4 15 -21 15 -66 0 -47 3 -60 15
-60 11 0 15 13 15 54 0 56 17 83 45 72 11 -4 15 -21 15 -66 0 -47 3 -60 15
-60 12 0 15 14 15 64 0 73 -18 102 -54 91 -29 -9 -47 -10 -71 -2 -11 4 -26 3
-34 -2z"/>
<path d="M3431 8661 c-7 -5 -22 -6 -32 -4 -18 5 -19 -2 -19 -101 0 -88 3 -106
15 -106 10 0 15 10 15 33 0 31 2 33 33 29 45 -5 72 26 71 81 -2 56 -45 92 -83
68z m50 -48 c19 -51 -28 -107 -57 -68 -8 10 -14 31 -14 45 0 53 53 70 71 23z"/>
<path d="M3627 8650 c-34 -27 -38 -89 -7 -120 28 -28 84 -27 104 2 53 76 -27
173 -97 118z m72 -24 c17 -20 10 -77 -11 -90 -26 -16 -52 4 -56 43 -4 36 12
61 38 61 10 0 23 -6 29 -14z"/>
<path d="M3953 8660 c-45 -18 -58 -95 -23 -130 26 -26 81 -26 105 0 25 28 11
38 -24 17 -35 -21 -36 -21 -55 -1 -27 26 -18 34 39 34 47 0 55 3 55 19 0 43
-55 77 -97 61z m55 -32 c21 -21 13 -28 -28 -28 -22 0 -40 4 -40 8 0 14 23 32
40 32 9 0 21 -5 28 -12z"/>
<path d="M4113 8660 c-45 -18 -58 -95 -23 -130 26 -26 81 -26 105 0 25 28 11
38 -24 17 -35 -21 -36 -21 -55 -1 -27 26 -18 34 39 34 47 0 55 3 55 19 0 43
-55 77 -97 61z m55 -32 c21 -21 13 -28 -28 -28 -22 0 -40 4 -40 8 0 14 23 32
40 32 9 0 21 -5 28 -12z"/>
<path d="M2210 8596 c0 -76 9 -86 73 -84 l47 2 0 73 c0 58 -3 73 -15 73 -12 0
-15 -13 -15 -55 0 -42 -4 -56 -17 -63 -33 -17 -43 -3 -43 59 0 46 -3 59 -15
59 -12 0 -15 -14 -15 -64z"/>
<path d="M3760 8658 c0 -2 11 -33 25 -68 30 -77 31 -100 5 -107 -28 -7 -26
-35 3 -31 24 3 40 31 81 141 20 55 22 67 10 67 -8 0 -17 -8 -21 -17 -3 -10
-13 -34 -21 -53 l-14 -35 -17 50 c-11 29 -25 51 -34 53 -10 2 -17 2 -17 0z"/>
<path d="M18950 8023 c-70 -25 -148 -81 -190 -137 -57 -77 -75 -135 -75 -241
0 -77 5 -99 28 -148 56 -122 142 -194 269 -226 l73 -19 0 -148 0 -149 -247 -3
c-151 -1 -248 -6 -248 -12 0 -6 97 -11 248 -12 l247 -3 3 -405 2 -406 -217
-186 c-120 -102 -229 -195 -242 -205 -13 -11 -22 -25 -20 -32 5 -13 23 0 144
104 289 246 348 294 358 288 7 -4 77 -55 157 -113 388 -284 370 -272 370 -250
0 12 -16 24 -280 216 -118 85 -223 163 -232 171 -17 15 -18 47 -18 404 0 213
3 394 6 403 5 14 38 16 265 16 163 0 259 4 259 10 0 6 -99 11 -262 12 l-263 3
0 149 0 149 70 17 c39 9 85 24 104 34 56 29 140 121 169 183 23 51 27 70 27
163 0 93 -3 111 -27 162 -37 80 -107 152 -186 190 -56 28 -77 33 -156 35 -64
2 -104 -2 -136 -14z m275 -43 c63 -31 143 -110 174 -175 29 -59 40 -178 22
-252 -26 -107 -131 -215 -241 -248 -172 -52 -363 32 -438 193 -23 49 -27 70
-27 152 0 82 4 103 27 152 34 74 104 143 181 179 57 27 70 29 157 26 76 -2
105 -8 145 -27z"/>
<path d="M18010 5375 l0 -105 59 0 c41 0 65 5 80 18 46 36 45 144 -2 177 -13
9 -44 15 -79 15 l-58 0 0 -105z m124 59 c21 -21 21 -92 -1 -116 -10 -11 -30
-18 -55 -18 l-38 0 0 75 0 75 39 0 c23 0 46 -7 55 -16z"/>
<path d="M18380 5375 c0 -87 3 -105 15 -105 12 0 15 18 15 105 0 87 -3 105
-15 105 -12 0 -15 -18 -15 -105z"/>
<path d="M18440 5465 c0 -8 7 -15 15 -15 8 0 15 7 15 15 0 8 -7 15 -15 15 -8
0 -15 -7 -15 -15z"/>
<path d="M19140 5375 l0 -105 75 0 c60 0 75 3 75 15 0 12 -13 15 -60 15 l-60
0 0 35 0 35 55 0 c30 0 55 5 55 10 0 6 -25 10 -55 10 -54 0 -55 0 -55 30 l0
30 60 0 c47 0 60 3 60 15 0 12 -15 15 -75 15 l-75 0 0 -105z"/>
<path d="M19730 5375 c0 -87 3 -105 15 -105 12 0 15 18 15 105 0 87 -3 105
-15 105 -12 0 -15 -18 -15 -105z"/>
<path d="M18253 5420 c-45 -18 -58 -95 -23 -130 26 -26 81 -26 105 0 25 28 11
38 -24 17 -35 -21 -36 -21 -55 -1 -27 26 -18 34 39 34 47 0 55 3 55 19 0 43
-55 77 -97 61z m55 -32 c21 -21 13 -28 -28 -28 -22 0 -40 4 -40 8 0 14 23 32
40 32 9 0 21 -5 28 -12z"/>
<path d="M18683 5418 c-39 -19 -48 -94 -17 -129 19 -21 64 -25 95 -9 23 13 26
40 4 40 -8 0 -15 -4 -15 -9 0 -16 -40 -23 -55 -11 -31 26 -17 40 40 40 30 0
55 2 55 4 0 23 -26 66 -46 75 -29 13 -32 13 -61 -1z m65 -40 c3 -15 -4 -18
-32 -18 -34 0 -47 15 -29 34 13 13 58 1 61 -16z"/>
<path d="M18838 5423 c-28 -4 -28 -5 -28 -79 0 -59 3 -74 15 -74 11 0 15 13
15 54 0 51 17 86 34 69 4 -4 11 -2 15 6 10 16 63 -122 55 -144 -4 -8 -15 -15
-26 -15 -11 0 -18 -5 -15 -12 2 -7 15 -13 28 -13 21 0 28 11 55 80 46 117 48
125 30 125 -9 0 -21 -21 -32 -52 l-17 -53 -18 40 c-10 22 -18 46 -18 53 -1 6
-10 12 -20 12 -11 0 -25 2 -33 3 -7 2 -25 2 -40 0z"/>
<path d="M19375 5421 c-11 -5 -26 -6 -32 -4 -10 4 -13 -14 -13 -71 0 -60 3
-76 15 -76 10 0 15 16 17 62 2 52 6 63 22 66 26 5 36 -15 36 -75 0 -40 4 -53
15 -53 10 0 15 16 17 62 2 52 6 63 22 66 26 5 36 -15 36 -75 0 -29 5 -53 10
-53 6 0 10 30 10 70 0 58 -3 71 -19 80 -13 7 -28 7 -46 0 -18 -7 -33 -7 -45 0
-21 11 -18 11 -45 1z"/>
<path d="M19611 5421 c-8 -5 -20 -7 -28 -4 -10 4 -13 -16 -13 -102 0 -81 3
-106 13 -103 6 3 13 18 15 34 3 27 6 30 36 26 26 -3 37 1 50 19 24 35 20 85
-9 114 -26 27 -41 30 -64 16z m47 -33 c24 -24 7 -98 -22 -98 -31 0 -51 67 -31
100 8 14 38 13 53 -2z"/>
<path d="M19822 5420 c-44 -18 -52 -99 -12 -135 27 -24 79 -16 103 17 18 24
19 32 8 68 -8 28 -20 44 -37 50 -30 12 -32 12 -62 0z m70 -46 c15 -32 -7 -79
-37 -79 -29 0 -49 43 -36 78 14 37 57 38 73 1z"/>
<path d="M20133 5418 c-39 -19 -48 -94 -17 -129 19 -21 64 -25 95 -9 23 13 26
40 4 40 -8 0 -15 -4 -15 -9 0 -16 -40 -23 -55 -11 -31 26 -17 40 40 40 30 0
55 2 55 4 0 23 -26 66 -46 75 -29 13 -32 13 -61 -1z m65 -40 c3 -15 -4 -18
-32 -18 -34 0 -47 15 -29 34 13 13 58 1 61 -16z"/>
<path d="M20293 5418 c-39 -19 -48 -94 -17 -129 19 -21 64 -25 95 -9 23 13 26
40 4 40 -8 0 -15 -4 -15 -9 0 -16 -40 -23 -55 -11 -31 26 -17 40 40 40 30 0
55 2 55 4 0 23 -26 66 -46 75 -29 13 -32 13 -61 -1z m65 -40 c3 -15 -4 -18
-32 -18 -34 0 -47 15 -29 34 13 13 58 1 61 -16z"/>
<path d="M18440 5345 c0 -60 3 -75 15 -75 12 0 15 15 15 75 0 60 -3 75 -15 75
-12 0 -15 -15 -15 -75z"/>
<path d="M18520 5348 c15 -40 34 -74 42 -76 10 -2 22 17 38 60 12 35 25 69 27
76 3 6 -2 12 -10 12 -10 0 -22 -19 -32 -50 -9 -28 -20 -48 -24 -45 -5 2 -14
25 -21 50 -9 32 -18 45 -30 45 -17 0 -16 -7 10 -72z"/>
<path d="M19950 5411 c0 -5 11 -38 25 -75 26 -70 25 -96 -7 -96 -11 0 -18 -5
-15 -12 2 -7 15 -13 28 -13 21 0 28 11 55 80 46 117 48 125 30 125 -9 0 -21
-21 -32 -52 l-17 -53 -18 40 c-10 22 -18 46 -18 53 -1 13 -31 17 -31 3z"/>
<path d="M2597 5360 c-108 -28 -218 -118 -265 -218 -24 -50 -27 -69 -27 -162
0 -93 3 -112 27 -162 29 -63 95 -139 148 -173 44 -27 125 -55 162 -55 l28 0 0
-155 0 -155 -250 0 c-160 0 -250 -4 -250 -10 0 -6 90 -10 250 -10 l250 0 0
-413 0 -413 -235 -199 c-201 -171 -256 -225 -230 -225 3 0 111 90 240 200 129
110 240 200 245 200 6 0 125 -83 265 -185 140 -102 259 -185 264 -185 27 0 0
23 -146 130 -87 63 -206 150 -266 193 l-107 79 2 406 3 407 263 3 c163 1 262
6 262 12 0 6 -98 10 -265 10 l-266 0 3 152 3 153 48 7 c61 8 149 51 198 95
206 186 154 526 -97 645 -68 32 -189 45 -257 28z m188 -34 c97 -25 186 -100
233 -196 24 -48 27 -67 27 -150 0 -88 -3 -101 -33 -162 -107 -217 -390 -270
-567 -107 -61 57 -91 110 -111 197 -15 66 -15 78 0 143 47 209 245 330 451
275z"/>
<path d="M2463 2645 c-33 -23 -48 -79 -34 -126 14 -46 44 -69 89 -69 41 0 68
14 83 42 19 36 -10 41 -42 6 -48 -50 -99 -19 -99 59 0 72 56 107 101 62 11
-11 28 -19 37 -17 14 3 13 8 -10 31 -31 31 -89 37 -125 12z"/>
<path d="M2640 2555 c0 -87 3 -105 15 -105 12 0 15 18 15 105 0 87 -3 105 -15
105 -12 0 -15 -18 -15 -105z"/>
<path d="M2700 2645 c0 -8 7 -15 15 -15 8 0 15 7 15 15 0 8 -7 15 -15 15 -8 0
-15 -7 -15 -15z"/>
<path d="M3097 2643 c-4 -3 -7 -14 -7 -24 0 -9 -6 -20 -12 -23 -10 -5 -10 -7
0 -12 7 -3 12 -25 12 -54 0 -64 7 -80 36 -80 27 0 32 17 9 26 -11 4 -15 21
-15 55 0 37 4 49 15 49 8 0 15 5 15 10 0 6 -7 10 -15 10 -9 0 -15 9 -15 25 0
24 -10 32 -23 18z"/>
<path d="M2803 2600 c-45 -18 -58 -95 -23 -130 26 -26 81 -26 105 0 25 28 11
38 -24 17 -35 -21 -36 -21 -55 -1 -27 26 -18 34 39 34 47 0 55 3 55 19 0 43
-55 77 -97 61z m55 -32 c21 -21 13 -28 -28 -28 -22 0 -40 4 -40 8 0 14 23 32
40 32 9 0 21 -5 28 -12z"/>
<path d="M2975 2601 c-11 -5 -26 -6 -32 -4 -10 4 -13 -14 -13 -71 0 -60 3 -76
15 -76 10 0 15 16 17 63 3 59 4 62 28 62 24 0 25 -3 28 -62 2 -47 7 -63 17
-63 12 0 15 15 15 70 0 66 -1 71 -26 80 -14 6 -26 10 -27 9 -1 0 -11 -4 -22
-8z"/>
<path d="M2700 2525 c0 -60 3 -75 15 -75 12 0 15 15 15 75 0 60 -3 75 -15 75
-12 0 -15 -15 -15 -75z"/>
</g>
</svg>
