<svg id="Layer_1" data-name="Layer 1" xmlns="http://www.w3.org/2000/svg" xmlns:xlink="http://www.w3.org/1999/xlink" viewBox="0 0 612 567.6"><defs><style>.cls-1,.cls-2{fill:#fff;}.cls-2,.cls-3{stroke:#231f20;}.cls-10,.cls-11,.cls-2,.cls-3,.cls-4,.cls-6,.cls-8,.cls-9{stroke-miterlimit:10;}.cls-3{fill:none;}.cls-10,.cls-11,.cls-4,.cls-6,.cls-8,.cls-9{stroke:#414042;}.cls-4{fill:url(#Orange_Yellow);}.cls-5{font-size:18px;}.cls-11,.cls-12,.cls-5,.cls-7{fill:#231f20;}.cls-12,.cls-5{font-family:ArialMT, Arial;}.cls-6{fill:url(#Orange_Yellow-2);}.cls-8{fill:url(#Orange_Yellow-3);}.cls-9{fill:url(#Orange_Yellow-4);}.cls-10{fill:url(#Orange_Yellow-5);}.cls-12{font-size:14px;}</style><linearGradient id="Orange_Yellow" x1="143.82" y1="316.48" x2="266.76" y2="316.48" gradientUnits="userSpaceOnUse"><stop offset="0" stop-color="#fff33b"/><stop offset="0.04" stop-color="#fee72e"/><stop offset="0.12" stop-color="#fed51b"/><stop offset="0.2" stop-color="#fdca10"/><stop offset="0.28" stop-color="#fdc70c"/><stop offset="0.67" stop-color="#f3903f"/><stop offset="0.89" stop-color="#ed683c"/><stop offset="1" stop-color="#e93e3a"/></linearGradient><linearGradient id="Orange_Yellow-2" x1="267.49" y1="192.01" x2="390.43" y2="192.01" xlink:href="#Orange_Yellow"/><linearGradient id="Orange_Yellow-3" x1="325.75" y1="87.55" x2="448.69" y2="87.55" xlink:href="#Orange_Yellow"/><linearGradient id="Orange_Yellow-4" x1="143.82" y1="87.25" x2="266.76" y2="87.25" xlink:href="#Orange_Yellow"/><linearGradient id="Orange_Yellow-5" x1="236.04" y1="426.7" x2="358.98" y2="426.7" xlink:href="#Orange_Yellow"/></defs><rect class="cls-1" width="612" height="567.6"/><circle class="cls-2" cx="50.66" cy="167.5" r="12.09"/><line class="cls-2" x1="50.66" y1="231.64" x2="50.66" y2="179.59"/><polyline class="cls-3" points="29.37 214.33 50.66 183.72 71.96 214.33"/><polyline class="cls-3" points="29.37 262.25 50.66 231.64 71.96 262.25"/><circle class="cls-2" cx="542.97" cy="173.01" r="12.09"/><line class="cls-2" x1="542.97" y1="237.14" x2="542.97" y2="185.1"/><polyline class="cls-3" points="521.68 219.84 542.97 189.23 564.27 219.84"/><polyline class="cls-3" points="521.68 267.75 542.97 237.14 564.27 267.75"/><ellipse class="cls-4" cx="205.29" cy="316.48" rx="61.47" ry="42.42"/><text class="cls-5" transform="translate(159.74 322.06)">Order Food</text><ellipse class="cls-6" cx="328.96" cy="192.01" rx="61.47" ry="42.42"/><path class="cls-7" d="M300.64,287.39V274.51h4.86a12,12,0,0,1,2,.12,3.77,3.77,0,0,1,1.59.6,3.17,3.17,0,0,1,1,1.24,4,4,0,0,1,.4,1.76,3.94,3.94,0,0,1-1.05,2.78q-1.05,1.14-3.78,1.14h-3.3v5.24Zm1.71-6.76h3.33A3.51,3.51,0,0,0,308,280a2.18,2.18,0,0,0,.7-1.74,2.34,2.34,0,0,0-.41-1.38,1.9,1.9,0,0,0-1.08-.76,7,7,0,0,0-1.59-.11h-3.29Z" transform="translate(0 -95.68)"/><path class="cls-7" d="M312.45,276.32v-1.81H314v1.81Zm0,11.07v-9.33H314v9.33Z" transform="translate(0 -95.68)"/><path class="cls-7" d="M322.53,284l1.56.2a4,4,0,0,1-1.31,2.52,3.78,3.78,0,0,1-2.57.91,4,4,0,0,1-3.09-1.25,5.12,5.12,0,0,1-1.16-3.59,6.59,6.59,0,0,1,.5-2.65,3.48,3.48,0,0,1,1.53-1.7,4.47,4.47,0,0,1,2.22-.56,3.87,3.87,0,0,1,2.49.76,3.51,3.51,0,0,1,1.24,2.19l-1.54.24a2.49,2.49,0,0,0-.78-1.42,2,2,0,0,0-1.34-.47,2.47,2.47,0,0,0-1.95.85,4.06,4.06,0,0,0-.74,2.71,4.22,4.22,0,0,0,.72,2.74,2.33,2.33,0,0,0,1.88.85,2.2,2.2,0,0,0,1.55-.57A2.81,2.81,0,0,0,322.53,284Z" transform="translate(0 -95.68)"/><path class="cls-7" d="M325.45,287.39V274.51H327v7.34l3.75-3.79h2.05l-3.57,3.46,3.93,5.87h-1.95l-3.09-4.77L327,283.69v3.7Z" transform="translate(0 -95.68)"/><path class="cls-7" d="M348.1,274.51h1.71V282a8.86,8.86,0,0,1-.44,3.08,3.77,3.77,0,0,1-1.59,1.86,5.59,5.59,0,0,1-3,.72,6.25,6.25,0,0,1-3-.62,3.53,3.53,0,0,1-1.64-1.81,8.58,8.58,0,0,1-.5-3.23v-7.44h1.71v7.43a7.28,7.28,0,0,0,.31,2.48,2.36,2.36,0,0,0,1.07,1.22,3.71,3.71,0,0,0,1.86.43,3.53,3.53,0,0,0,2.68-.85,4.93,4.93,0,0,0,.8-3.28Z" transform="translate(0 -95.68)"/><path class="cls-7" d="M352.44,291V278.06h1.44v1.21A3.53,3.53,0,0,1,355,278.2a3.09,3.09,0,0,1,1.55-.35,3.68,3.68,0,0,1,2.11.61,3.76,3.76,0,0,1,1.38,1.74,6.29,6.29,0,0,1,.47,2.45,6.1,6.1,0,0,1-.52,2.58,3.89,3.89,0,0,1-3.55,2.37,3,3,0,0,1-1.42-.33,3.22,3.22,0,0,1-1-.85V291Zm1.44-8.19a4,4,0,0,0,.73,2.66,2.23,2.23,0,0,0,1.76.86,2.3,2.3,0,0,0,1.81-.89,4.26,4.26,0,0,0,.75-2.77,4.17,4.17,0,0,0-.73-2.67,2.23,2.23,0,0,0-1.76-.89,2.29,2.29,0,0,0-1.79.95A4.21,4.21,0,0,0,353.88,282.78Z" transform="translate(0 -95.68)"/><path class="cls-7" d="M300.73,305.39V292.51h8.69V294h-7v4h6.05v1.52h-6.05v5.85Z" transform="translate(0 -95.68)"/><path class="cls-7" d="M310.84,300.72a4.81,4.81,0,0,1,1.45-3.84,4.33,4.33,0,0,1,2.93-1,4.21,4.21,0,0,1,3.15,1.26,4.81,4.81,0,0,1,1.22,3.48,6.21,6.21,0,0,1-.54,2.84,3.9,3.9,0,0,1-1.57,1.6,4.6,4.6,0,0,1-2.26.57,4.21,4.21,0,0,1-3.17-1.26A5,5,0,0,1,310.84,300.72Zm1.63,0a4,4,0,0,0,.78,2.69,2.52,2.52,0,0,0,2,.89,2.48,2.48,0,0,0,2-.9,4,4,0,0,0,.78-2.73,3.87,3.87,0,0,0-.78-2.62,2.6,2.6,0,0,0-3.93,0A4,4,0,0,0,312.47,300.72Z" transform="translate(0 -95.68)"/><path class="cls-7" d="M320.86,300.72a4.81,4.81,0,0,1,1.44-3.84,4.33,4.33,0,0,1,2.93-1,4.2,4.2,0,0,1,3.15,1.26,4.81,4.81,0,0,1,1.22,3.48,6.21,6.21,0,0,1-.54,2.84,3.9,3.9,0,0,1-1.57,1.6,4.6,4.6,0,0,1-2.26.57,4.21,4.21,0,0,1-3.17-1.26A5,5,0,0,1,320.86,300.72Zm1.62,0a4,4,0,0,0,.78,2.69,2.54,2.54,0,0,0,2,.89,2.48,2.48,0,0,0,2-.9,4,4,0,0,0,.78-2.73,3.87,3.87,0,0,0-.78-2.62,2.51,2.51,0,0,0-2-.9,2.54,2.54,0,0,0-2,.89A4,4,0,0,0,322.48,300.72Z" transform="translate(0 -95.68)"/><path class="cls-7" d="M337.51,305.39v-1.18a2.89,2.89,0,0,1-2.61,1.39,3.65,3.65,0,0,1-2-.61,4,4,0,0,1-1.45-1.72,5.85,5.85,0,0,1-.52-2.54,6.63,6.63,0,0,1,.47-2.53,3.64,3.64,0,0,1,3.48-2.35,3.08,3.08,0,0,1,1.5.35,3.26,3.26,0,0,1,1.08.93v-4.62H339v12.88Zm-5-4.66a4,4,0,0,0,.76,2.68,2.27,2.27,0,0,0,1.78.89,2.22,2.22,0,0,0,1.76-.85,3.92,3.92,0,0,0,.73-2.59,4.41,4.41,0,0,0-.74-2.81,2.27,2.27,0,0,0-1.82-.9,2.18,2.18,0,0,0-1.76.87A4.25,4.25,0,0,0,332.51,300.73Z" transform="translate(0 -95.68)"/><ellipse class="cls-8" cx="387.22" cy="87.55" rx="61.47" ry="42.42"/><text class="cls-5" transform="translate(358.98 87.25)">Deliver<tspan x="0" y="18">Food</tspan></text><ellipse class="cls-9" cx="205.29" cy="87.25" rx="61.47" ry="42.42"/><text class="cls-5" transform="translate(177.06 86.94)">Pay for<tspan x="0" y="18">Food</tspan></text><circle class="cls-2" cx="50.66" cy="167.5" r="12.09"/><line class="cls-2" x1="50.66" y1="231.64" x2="50.66" y2="179.59"/><polyline class="cls-3" points="29.37 214.33 50.66 183.72 71.96 214.33"/><polyline class="cls-3" points="29.37 262.25 50.66 231.64 71.96 262.25"/><text class="cls-5" transform="translate(26.01 290.38)">Client</text><text class="cls-5" transform="translate(26.01 290.38)">Client</text><circle class="cls-2" cx="50.66" cy="167.5" r="12.09"/><line class="cls-2" x1="50.66" y1="231.64" x2="50.66" y2="179.59"/><polyline class="cls-3" points="29.37 214.33 50.66 183.72 71.96 214.33"/><polyline class="cls-3" points="29.37 262.25 50.66 231.64 71.96 262.25"/><text class="cls-5" transform="translate(26.01 290.38)">Client</text><circle class="cls-2" cx="50.66" cy="167.5" r="12.09"/><line class="cls-2" x1="50.66" y1="231.64" x2="50.66" y2="179.59"/><polyline class="cls-3" points="29.37 214.33 50.66 183.72 71.96 214.33"/><polyline class="cls-3" points="29.37 262.25 50.66 231.64 71.96 262.25"/><text class="cls-5" transform="translate(26.01 290.38)">Client</text><text class="cls-5" transform="translate(508.04 297.15)">Deliverer</text><ellipse class="cls-10" cx="297.51" cy="426.7" rx="61.47" ry="42.42"/><path class="cls-7" d="M273.52,519.59V506.71h2.56l3.05,9.12c.29.85.49,1.49.62,1.91.15-.47.37-1.16.69-2.07l3.08-9h2.29v12.88h-1.64V508.81l-3.74,10.78h-1.54l-3.73-11v11Z" transform="translate(0 -95.68)"/><path class="cls-7" d="M294.45,518.44a5.92,5.92,0,0,1-1.69,1.06,5,5,0,0,1-1.74.3,3.4,3.4,0,0,1-2.37-.75,2.47,2.47,0,0,1-.82-1.92,2.52,2.52,0,0,1,.31-1.25A2.58,2.58,0,0,1,289,515a3.77,3.77,0,0,1,1.13-.52,12.36,12.36,0,0,1,1.41-.24,14.31,14.31,0,0,0,2.82-.54c0-.22,0-.36,0-.41a1.76,1.76,0,0,0-.45-1.37,2.67,2.67,0,0,0-1.8-.53,2.83,2.83,0,0,0-1.65.39,2.4,2.4,0,0,0-.78,1.38l-1.55-.21a3.8,3.8,0,0,1,.69-1.6,3.07,3.07,0,0,1,1.4-.94,6.25,6.25,0,0,1,2.12-.33,5.53,5.53,0,0,1,1.94.28,2.5,2.5,0,0,1,1.1.71,2.46,2.46,0,0,1,.49,1.07,8.15,8.15,0,0,1,.08,1.46v2.11a24.15,24.15,0,0,0,.1,2.79,3.5,3.5,0,0,0,.4,1.12h-1.65A3.52,3.52,0,0,1,294.45,518.44Zm-.13-3.53a12.06,12.06,0,0,1-2.58.6,6.26,6.26,0,0,0-1.38.31,1.41,1.41,0,0,0-.63.52,1.37,1.37,0,0,0-.22.75,1.34,1.34,0,0,0,.48,1,2.08,2.08,0,0,0,1.41.42,3.22,3.22,0,0,0,1.62-.4,2.45,2.45,0,0,0,1.05-1.09,3.82,3.82,0,0,0,.25-1.58Z" transform="translate(0 -95.68)"/><path class="cls-7" d="M298.38,519.59V506.71H300v7.35l3.75-3.8h2.05l-3.57,3.46,3.93,5.87h-1.95l-3.09-4.77L300,515.89v3.7Z" transform="translate(0 -95.68)"/><path class="cls-7" d="M313.76,516.59l1.64.2A4,4,0,0,1,314,519a4.84,4.84,0,0,1-5.91-.47,4.93,4.93,0,0,1-1.2-3.54,5.14,5.14,0,0,1,1.21-3.65,4.1,4.1,0,0,1,3.15-1.3,4,4,0,0,1,3.05,1.27,5.08,5.08,0,0,1,1.19,3.59c0,.09,0,.23,0,.42h-7a3.62,3.62,0,0,0,.87,2.36,2.6,2.6,0,0,0,1.95.81,2.46,2.46,0,0,0,1.49-.45A3.1,3.1,0,0,0,313.76,516.59ZM308.57,514h5.21a3.16,3.16,0,0,0-.6-1.77,2.4,2.4,0,0,0-2-.91,2.51,2.51,0,0,0-1.83.73A2.87,2.87,0,0,0,308.57,514Z" transform="translate(0 -95.68)"/><path class="cls-7" d="M273.66,537.59V524.71h8.69v1.52h-7v4h6.05v1.52h-6.05v5.85Z" transform="translate(0 -95.68)"/><path class="cls-7" d="M283.77,532.93a4.85,4.85,0,0,1,1.45-3.85,4.33,4.33,0,0,1,2.93-1,4.2,4.2,0,0,1,3.15,1.26,4.81,4.81,0,0,1,1.22,3.48,6.18,6.18,0,0,1-.54,2.84,3.84,3.84,0,0,1-1.57,1.6,4.6,4.6,0,0,1-2.26.57,4.24,4.24,0,0,1-3.17-1.25A5.06,5.06,0,0,1,283.77,532.93Zm1.63,0a4,4,0,0,0,.78,2.68,2.61,2.61,0,0,0,3.93,0,4.09,4.09,0,0,0,.78-2.74,3.87,3.87,0,0,0-.78-2.62,2.61,2.61,0,0,0-3.93,0A4,4,0,0,0,285.4,532.93Z" transform="translate(0 -95.68)"/><path class="cls-7" d="M293.79,532.93a4.84,4.84,0,0,1,1.44-3.85,4.33,4.33,0,0,1,2.93-1,4.2,4.2,0,0,1,3.15,1.26,4.81,4.81,0,0,1,1.22,3.48,6.18,6.18,0,0,1-.54,2.84,3.79,3.79,0,0,1-1.57,1.6,4.6,4.6,0,0,1-2.26.57,4.24,4.24,0,0,1-3.17-1.25A5.05,5.05,0,0,1,293.79,532.93Zm1.62,0a4,4,0,0,0,.78,2.68,2.61,2.61,0,0,0,3.93,0,4.09,4.09,0,0,0,.78-2.74,3.87,3.87,0,0,0-.78-2.62,2.61,2.61,0,0,0-3.93,0A4,4,0,0,0,295.41,532.93Z" transform="translate(0 -95.68)"/><path class="cls-7" d="M310.44,537.59v-1.17a2.9,2.9,0,0,1-2.61,1.38,3.65,3.65,0,0,1-2.05-.61,4,4,0,0,1-1.45-1.72,6,6,0,0,1-.52-2.54,6.63,6.63,0,0,1,.47-2.53,3.64,3.64,0,0,1,3.48-2.35,3.19,3.19,0,0,1,1.5.35,3.12,3.12,0,0,1,1.07.93v-4.62h1.58v12.88Zm-5-4.66a4.05,4.05,0,0,0,.76,2.69,2.26,2.26,0,0,0,1.78.88,2.22,2.22,0,0,0,1.76-.85,3.84,3.84,0,0,0,.73-2.58,4.43,4.43,0,0,0-.74-2.82,2.29,2.29,0,0,0-1.82-.89,2.17,2.17,0,0,0-1.76.86A4.25,4.25,0,0,0,305.44,532.93Z" transform="translate(0 -95.68)"/><circle class="cls-2" cx="544.65" cy="377.7" r="12.09"/><line class="cls-2" x1="544.65" y1="441.83" x2="544.65" y2="389.79"/><polyline class="cls-3" points="523.36 424.53 544.65 393.92 565.95 424.53"/><polyline class="cls-3" points="523.36 472.44 544.65 441.83 565.95 472.44"/><circle class="cls-2" cx="50.66" cy="167.5" r="12.09"/><line class="cls-2" x1="50.66" y1="231.64" x2="50.66" y2="179.59"/><polyline class="cls-3" points="29.37 214.33 50.66 183.72 71.96 214.33"/><polyline class="cls-3" points="29.37 262.25 50.66 231.64 71.96 262.25"/><text class="cls-5" transform="translate(26.01 290.38)">Client</text><circle class="cls-2" cx="50.66" cy="167.5" r="12.09"/><line class="cls-2" x1="50.66" y1="231.64" x2="50.66" y2="179.59"/><polyline class="cls-3" points="29.37 214.33 50.66 183.72 71.96 214.33"/><polyline class="cls-3" points="29.37 262.25 50.66 231.64 71.96 262.25"/><circle class="cls-2" cx="50.66" cy="167.5" r="12.09"/><line class="cls-2" x1="50.66" y1="231.64" x2="50.66" y2="179.59"/><polyline class="cls-3" points="29.37 214.33 50.66 183.72 71.96 214.33"/><polyline class="cls-3" points="29.37 262.25 50.66 231.64 71.96 262.25"/><text class="cls-5" transform="translate(26.01 290.38)">Client</text><text class="cls-5" transform="translate(26.01 290.38)">Client</text><path class="cls-7" d="M521.39,596.26V583.38h4.44a11,11,0,0,1,2.29.18,4.4,4.4,0,0,1,1.89.92,5.33,5.33,0,0,1,1.53,2.2,8.63,8.63,0,0,1,.5,3.07,9,9,0,0,1-.34,2.6,6.32,6.32,0,0,1-.88,1.88,4.27,4.27,0,0,1-2.71,1.81,8.59,8.59,0,0,1-2.07.22Zm1.71-1.52h2.75a6.64,6.64,0,0,0,2-.24,2.87,2.87,0,0,0,1.15-.67,4,4,0,0,0,1-1.63,8.12,8.12,0,0,0,.34-2.48,6,6,0,0,0-.67-3.11,3.36,3.36,0,0,0-1.61-1.45,6.59,6.59,0,0,0-2.21-.26h-2.7Z" transform="translate(0 -95.68)"/><path class="cls-7" d="M534.2,585.2v-1.82h1.58v1.82Zm0,11.06v-9.33h1.58v9.33Z" transform="translate(0 -95.68)"/><path class="cls-7" d="M538.19,596.26v-9.33h1.42v1.32a3.37,3.37,0,0,1,3-1.53,3.93,3.93,0,0,1,1.55.3,2.46,2.46,0,0,1,1.06.79,2.94,2.94,0,0,1,.49,1.17,9,9,0,0,1,.09,1.54v5.74h-1.58v-5.68a4.05,4.05,0,0,0-.19-1.44,1.52,1.52,0,0,0-.65-.77,2.07,2.07,0,0,0-1.1-.28,2.55,2.55,0,0,0-1.75.64,3.16,3.16,0,0,0-.73,2.43v5.1Z" transform="translate(0 -95.68)"/><path class="cls-7" d="M548.21,585.2v-1.82h1.58v1.82Zm0,11.06v-9.33h1.58v9.33Z" transform="translate(0 -95.68)"/><path class="cls-7" d="M552.2,596.26v-9.33h1.42v1.32a3.37,3.37,0,0,1,3-1.53,3.93,3.93,0,0,1,1.55.3,2.46,2.46,0,0,1,1.06.79,2.94,2.94,0,0,1,.49,1.17,9,9,0,0,1,.09,1.54v5.74H558.2v-5.68a4.05,4.05,0,0,0-.19-1.44,1.52,1.52,0,0,0-.65-.77,2.07,2.07,0,0,0-1.1-.28,2.55,2.55,0,0,0-1.75.64,3.16,3.16,0,0,0-.73,2.43v5.1Z" transform="translate(0 -95.68)"/><path class="cls-7" d="M561.92,597l1.54.23a1.46,1.46,0,0,0,.53,1,2.65,2.65,0,0,0,1.61.44,2.87,2.87,0,0,0,1.7-.44,2.17,2.17,0,0,0,.8-1.23,9.79,9.79,0,0,0,.12-2,3.26,3.26,0,0,1-2.59,1.22,3.5,3.5,0,0,1-3-1.39,5.28,5.28,0,0,1-1.06-3.33,6.2,6.2,0,0,1,.48-2.46,3.86,3.86,0,0,1,1.41-1.75,3.77,3.77,0,0,1,2.15-.61,3.35,3.35,0,0,1,2.73,1.33v-1.12h1.46V595a7.49,7.49,0,0,1-.45,3.08,3.19,3.19,0,0,1-1.4,1.44,4.89,4.89,0,0,1-2.37.53,4.49,4.49,0,0,1-2.7-.75A2.52,2.52,0,0,1,561.92,597Zm1.31-5.6a4,4,0,0,0,.73,2.68,2.3,2.3,0,0,0,1.82.84,2.33,2.33,0,0,0,1.83-.84,3.93,3.93,0,0,0,.74-2.63,3.8,3.8,0,0,0-.76-2.58,2.36,2.36,0,0,0-1.83-.87,2.3,2.3,0,0,0-1.8.85A3.82,3.82,0,0,0,563.23,591.43Z" transform="translate(0 -95.68)"/><path class="cls-7" d="M521.44,614.26V601.38h1.71v5.29h6.7v-5.29h1.7v12.88h-1.7v-6.07h-6.7v6.07Z" transform="translate(0 -95.68)"/><path class="cls-7" d="M540.28,613.11a5.79,5.79,0,0,1-1.69,1,4.85,4.85,0,0,1-1.75.31,3.39,3.39,0,0,1-2.36-.75,2.48,2.48,0,0,1-.83-1.92,2.59,2.59,0,0,1,1.13-2.16,4,4,0,0,1,1.14-.52,12.36,12.36,0,0,1,1.41-.24,14.63,14.63,0,0,0,2.82-.54c0-.22,0-.36,0-.42a1.75,1.75,0,0,0-.45-1.36,2.65,2.65,0,0,0-1.8-.53,2.79,2.79,0,0,0-1.65.39,2.36,2.36,0,0,0-.79,1.38l-1.55-.21a3.81,3.81,0,0,1,.7-1.6,2.94,2.94,0,0,1,1.4-.94,6.15,6.15,0,0,1,2.11-.33,5.59,5.59,0,0,1,2,.28,2.51,2.51,0,0,1,1.09.7,2.57,2.57,0,0,1,.5,1.08,9.25,9.25,0,0,1,.08,1.46v2.11a21.94,21.94,0,0,0,.1,2.79,3.58,3.58,0,0,0,.4,1.12h-1.66A3.52,3.52,0,0,1,540.28,613.11Zm-.13-3.53a11.83,11.83,0,0,1-2.59.59,6.13,6.13,0,0,0-1.38.32,1.43,1.43,0,0,0-.62.51,1.4,1.4,0,0,0,.26,1.81,2.05,2.05,0,0,0,1.4.42,3.26,3.26,0,0,0,1.63-.4,2.43,2.43,0,0,0,1-1.09,3.83,3.83,0,0,0,.26-1.58Z" transform="translate(0 -95.68)"/><path class="cls-7" d="M544.16,614.26V601.38h1.59v12.88Z" transform="translate(0 -95.68)"/><path class="cls-7" d="M548.16,614.26V601.38h1.58v12.88Z" transform="translate(0 -95.68)"/><path class="cls-7" d="M530.58,627.74l1.71.43a5.78,5.78,0,0,1-1.93,3.21,5.34,5.34,0,0,1-3.41,1.1,6.07,6.07,0,0,1-3.38-.85,5.25,5.25,0,0,1-2-2.45,8.9,8.9,0,0,1-.68-3.46,7.63,7.63,0,0,1,.77-3.51,5.25,5.25,0,0,1,2.19-2.28,6.44,6.44,0,0,1,3.12-.77,5.25,5.25,0,0,1,3.25,1,5.15,5.15,0,0,1,1.84,2.77l-1.68.39a4,4,0,0,0-1.3-2,3.44,3.44,0,0,0-2.14-.64,4.16,4.16,0,0,0-2.49.71,3.76,3.76,0,0,0-1.4,1.91,7.65,7.65,0,0,0-.4,2.47,7.84,7.84,0,0,0,.48,2.87,3.6,3.6,0,0,0,1.48,1.84,4.25,4.25,0,0,0,2.19.6,3.67,3.67,0,0,0,2.43-.82A4.24,4.24,0,0,0,530.58,627.74Z" transform="translate(0 -95.68)"/><path class="cls-7" d="M534.19,632.26V619.38h1.58V624a3.52,3.52,0,0,1,2.79-1.28,3.81,3.81,0,0,1,1.81.4,2.43,2.43,0,0,1,1.09,1.13,5.22,5.22,0,0,1,.33,2.1v5.91h-1.58v-5.91a2.4,2.4,0,0,0-.52-1.73,1.89,1.89,0,0,0-1.45-.54,2.57,2.57,0,0,0-1.32.36,2.12,2.12,0,0,0-.89,1,4.68,4.68,0,0,0-.26,1.72v5.11Z" transform="translate(0 -95.68)"/><path class="cls-7" d="M550.59,629.25l1.63.21a4,4,0,0,1-1.43,2.22,4.86,4.86,0,0,1-5.92-.47,4.93,4.93,0,0,1-1.2-3.54,5.17,5.17,0,0,1,1.21-3.65,4.1,4.1,0,0,1,3.15-1.3,4,4,0,0,1,3.06,1.27,5.08,5.08,0,0,1,1.19,3.59c0,.09,0,.23,0,.42h-7a3.49,3.49,0,0,0,.87,2.35,2.57,2.57,0,0,0,2,.82,2.37,2.37,0,0,0,1.48-.46A3,3,0,0,0,550.59,629.25Zm-5.2-2.55h5.22a3.14,3.14,0,0,0-.6-1.77,2.43,2.43,0,0,0-2-.91,2.48,2.48,0,0,0-1.83.73A2.88,2.88,0,0,0,545.39,626.7Z" transform="translate(0 -95.68)"/><path class="cls-7" d="M554.59,632.26v-8.1h-1.4v-1.23h1.4v-1a4.38,4.38,0,0,1,.16-1.39,2,2,0,0,1,.81-1,2.84,2.84,0,0,1,1.61-.38,8.15,8.15,0,0,1,1.48.15l-.24,1.38a6.26,6.26,0,0,0-.93-.08,1.41,1.41,0,0,0-1,.3,1.68,1.68,0,0,0-.3,1.16v.86H558v1.23h-1.82v8.1Z" transform="translate(0 -95.68)"/><line class="cls-11" x1="84.1" y1="189.23" x2="158.78" y2="114.55"/><line class="cls-11" x1="87.2" y1="204.53" x2="167.97" y2="282.78"/><line class="cls-11" x1="266.76" y1="316.48" x2="509.43" y2="237.14"/><line class="cls-11" x1="385.8" y1="208.72" x2="509.43" y2="218.5"/><line class="cls-11" x1="442.96" y1="105.45" x2="509.43" y2="194.01"/><line class="cls-11" x1="263" y1="331.12" x2="514.83" y2="399.8"/><line class="cls-11" x1="358.98" y1="426.7" x2="509.43" y2="415.81"/><line class="cls-11" x1="514.83" y1="377.7" x2="375.36" y2="219.84"/><text class="cls-12" transform="translate(105.15 141.15)">pay</text><text class="cls-12" transform="translate(127.58 231.64)">place order</text><text class="cls-12" transform="translate(267.67 262.25)">receive order<tspan x="0" y="18">(time and items)</tspan></text><text class="cls-12" transform="translate(360.46 353.18)">receive order</text><text class="cls-12" transform="translate(393.63 441.83)">cook the food</text><text class="cls-12" transform="translate(405.03 189.23)">pick up when<tspan x="0" y="18">done</tspan></text><text class="cls-12" transform="translate(476.19 121.51)">deliver food<tspan x="0" y="18">to room</tspan></text><text class="cls-12" transform="translate(482.2 316.48)">place on counter<tspan x="0" y="18">for deliverer</tspan></text><line class="cls-11" x1="328.96" y1="101.13" x2="99.57" y2="195.29"/><text class="cls-12" transform="translate(193.93 167.5)">notify when<tspan x="0" y="18">food is here</tspan></text></svg>