<svg version="1.1" viewBox="0.0 0.0 960.0 720.0" fill="none" stroke="none" stroke-linecap="square" stroke-miterlimit="10" xmlns:xlink="http://www.w3.org/1999/xlink" xmlns="http://www.w3.org/2000/svg"><clipPath id="p.0"><path d="m0 0l960.0 0l0 720.0l-960.0 0l0 -720.0z" clip-rule="nonzero"/></clipPath><g clip-path="url(#p.0)"><path fill="#000000" fill-opacity="0.0" d="m0 0l960.0 0l0 720.0l-960.0 0z" fill-rule="evenodd"/><path fill="#cfe2f3" d="m36.632545 71.3727l0 0c0 -15.698803 13.572472 -28.425198 30.314964 -28.425198c16.742485 0 30.314957 12.726395 30.314957 28.425198c0 15.698799 -13.572472 28.425194 -30.314957 28.425194c-16.742493 0 -30.314964 -12.726395 -30.314964 -28.425194z" fill-rule="evenodd"/><path fill="#a5b4c2" d="m54.077682 62.871464c0 -1.635292 1.4137993 -2.9609566 3.1578102 -2.9609566c1.7440071 0 3.1578064 1.3256645 3.1578064 2.9609566c0 1.6352959 -1.4137993 2.9609566 -3.1578064 2.9609566c-1.7440109 0 -3.1578102 -1.3256607 -3.1578102 -2.9609566m19.424034 0c0 -1.635292 1.4137955 -2.9609566 3.1578064 -2.9609566c1.7440109 0 3.1578064 1.3256645 3.1578064 2.9609566c0 1.6352959 -1.4137955 2.9609566 -3.1578064 2.9609566c-1.7440109 0 -3.1578064 -1.3256607 -3.1578064 -2.9609566" fill-rule="evenodd"/><path fill="#000000" fill-opacity="0.0" d="m50.516598 83.76912q16.430912 10.580994 32.823444 0" fill-rule="evenodd"/><path fill="#000000" fill-opacity="0.0" d="m36.632545 71.3727l0 0c0 -15.698803 13.572472 -28.425198 30.314964 -28.425198c16.742485 0 30.314957 12.726395 30.314957 28.425198c0 15.698799 -13.572472 28.425194 -30.314957 28.425194c-16.742493 0 -30.314964 -12.726395 -30.314964 -28.425194z" fill-rule="evenodd"/><path stroke="#000000" stroke-width="1.0" stroke-linejoin="round" stroke-linecap="butt" d="m54.077682 62.871464c0 -1.635292 1.4137993 -2.9609566 3.1578102 -2.9609566c1.7440071 0 3.1578064 1.3256645 3.1578064 2.9609566c0 1.6352959 -1.4137993 2.9609566 -3.1578064 2.9609566c-1.7440109 0 -3.1578102 -1.3256607 -3.1578102 -2.9609566m19.424034 0c0 -1.635292 1.4137955 -2.9609566 3.1578064 -2.9609566c1.7440109 0 3.1578064 1.3256645 3.1578064 2.9609566c0 1.6352959 -1.4137955 2.9609566 -3.1578064 2.9609566c-1.7440109 0 -3.1578064 -1.3256607 -3.1578064 -2.9609566" fill-rule="evenodd"/><path stroke="#000000" stroke-width="1.0" stroke-linejoin="round" stroke-linecap="butt" d="m50.516598 83.76912q16.430912 10.580994 32.823444 0" fill-rule="evenodd"/><path stroke="#000000" stroke-width="1.0" stroke-linejoin="round" stroke-linecap="butt" d="m36.632545 71.3727l0 0c0 -15.698803 13.572472 -28.425198 30.314964 -28.425198c16.742485 0 30.314957 12.726395 30.314957 28.425198c0 15.698799 -13.572472 28.425194 -30.314957 28.425194c-16.742493 0 -30.314964 -12.726395 -30.314964 -28.425194z" fill-rule="evenodd"/><path fill="#000000" fill-opacity="0.0" d="m36.632545 11.370079l83.37008 0l0 42.015747l-83.37008 0z" fill-rule="evenodd"/><path fill="#000000" d="m56.601295 33.602577l1.765625 0.453125q-0.5625 2.171875 -2.0 3.328125q-1.4375 1.140625 -3.53125 1.140625q-2.15625 0 -3.515625 -0.875q-1.34375 -0.890625 -2.0625 -2.546875q-0.703125 -1.671875 -0.703125 -3.59375q0 -2.078125 0.796875 -3.625q0.796875 -1.5625 2.265625 -2.359375q1.484375 -0.8125 3.25 -0.8125q2.0 0 3.359375 1.015625q1.375 1.015625 1.90625 2.875l-1.734375 0.40625q-0.46875 -1.453125 -1.359375 -2.109375q-0.875 -0.671875 -2.203125 -0.671875q-1.546875 0 -2.578125 0.734375q-1.03125 0.734375 -1.453125 1.984375q-0.421875 1.234375 -0.421875 2.5625q0 1.703125 0.5 2.96875q0.5 1.265625 1.546875 1.90625q1.046875 0.625 2.265625 0.625q1.484375 0 2.515625 -0.859375q1.03125 -0.859375 1.390625 -2.546875zm3.6916962 4.6875l0 -13.359375l1.640625 0l0 13.359375l-1.640625 0zm4.191696 -11.46875l0 -1.890625l1.640625 0l0 1.890625l-1.640625 0zm0 11.46875l0 -9.671875l1.640625 0l0 9.671875l-1.640625 0zm10.769821 -3.109375l1.6875 0.203125q-0.40625 1.484375 -1.484375 2.3125q-1.078125 0.8125 -2.765625 0.8125q-2.125 0 -3.375 -1.296875q-1.234375 -1.3125 -1.234375 -3.671875q0 -2.453125 1.25 -3.796875q1.265625 -1.34375 3.265625 -1.34375q1.9375 0 3.15625 1.328125q1.234375 1.3125 1.234375 3.703125q0 0.15625 0 0.4375l-7.21875 0q0.09375 1.59375 0.90625 2.453125q0.8125 0.84375 2.015625 0.84375q0.90625 0 1.546875 -0.46875q0.640625 -0.484375 1.015625 -1.515625zm-5.390625 -2.65625l5.40625 0q-0.109375 -1.21875 -0.625 -1.828125q-0.78125 -0.953125 -2.03125 -0.953125q-1.125 0 -1.90625 0.765625q-0.765625 0.75 -0.84375 2.015625zm9.141342 5.765625l0 -9.671875l1.46875 0l0 1.375q1.0625 -1.59375 3.078125 -1.59375q0.875 0 1.609375 0.3125q0.734375 0.3125 1.09375 0.828125q0.375 0.5 0.515625 1.203125q0.09375 0.453125 0.09375 1.59375l0 5.953125l-1.640625 0l0 -5.890625q0 -1.0 -0.203125 -1.484375q-0.1875 -0.5 -0.671875 -0.796875q-0.484375 -0.296875 -1.140625 -0.296875q-1.046875 0 -1.8125 0.671875q-0.75 0.65625 -0.75 2.515625l0 5.28125l-1.640625 0zm13.953842 -1.46875l0.234375 1.453125q-0.6875 0.140625 -1.234375 0.140625q-0.890625 0 -1.390625 -0.28125q-0.484375 -0.28125 -0.6875 -0.734375q-0.203125 -0.46875 -0.203125 -1.9375l0 -5.578125l-1.203125 0l0 -1.265625l1.203125 0l0 -2.390625l1.625 -0.984375l0 3.375l1.65625 0l0 1.265625l-1.65625 0l0 5.671875q0 0.6875 0.078125 0.890625q0.09375 0.203125 0.28125 0.328125q0.203125 0.109375 0.578125 0.109375q0.265625 0 0.71875 -0.0625z" fill-rule="nonzero"/><path fill="#cfe2f3" d="m136.42258 233.05249l0 0c0 -22.674118 31.530426 -41.055115 70.425186 -41.055115l0 0c38.894775 0 70.42522 18.380997 70.42522 41.055115l0 0c0 22.674118 -31.530441 41.055115 -70.42522 41.055115l0 0c-38.89476 0 -70.425186 -18.380997 -70.425186 -41.055115z" fill-rule="evenodd"/><path stroke="#000000" stroke-width="1.0" stroke-linejoin="round" stroke-linecap="butt" d="m136.42258 233.05249l0 0c0 -22.674118 31.530426 -41.055115 70.425186 -41.055115l0 0c38.894775 0 70.42522 18.380997 70.42522 41.055115l0 0c0 22.674118 -31.530441 41.055115 -70.42522 41.055115l0 0c-38.89476 0 -70.425186 -18.380997 -70.425186 -41.055115z" fill-rule="evenodd"/><path fill="#000000" fill-opacity="0.0" d="m148.73753 206.9895l116.220474 0l0 42.015747l-116.220474 0z" fill-rule="evenodd"/><path fill="#000000" d="m168.70628 229.222l1.765625 0.453125q-0.5625 2.171875 -2.0 3.328125q-1.4375 1.140625 -3.53125 1.140625q-2.15625 0 -3.515625 -0.875q-1.34375 -0.890625 -2.0625 -2.546875q-0.703125 -1.671875 -0.703125 -3.59375q0 -2.078125 0.796875 -3.625q0.796875 -1.5625 2.265625 -2.359375q1.484375 -0.8125 3.25 -0.8125q2.0 0 3.359375 1.015625q1.375 1.015625 1.90625 2.875l-1.734375 0.40625q-0.46875 -1.453125 -1.359375 -2.109375q-0.875 -0.671875 -2.203125 -0.671875q-1.546875 0 -2.578125 0.734375q-1.03125 0.734375 -1.453125 1.984375q-0.421875 1.234375 -0.421875 2.5625q0 1.703125 0.5 2.96875q0.5 1.265625 1.546875 1.90625q1.046875 0.625 2.265625 0.625q1.484375 0 2.515625 -0.859375q1.03125 -0.859375 1.390625 -2.546875zm3.6916962 4.6875l0 -13.359375l1.640625 0l0 13.359375l-1.640625 0zm10.504196 -1.1875q-0.921875 0.765625 -1.765625 1.09375q-0.828125 0.3125 -1.796875 0.3125q-1.59375 0 -2.453125 -0.78125q-0.859375 -0.78125 -0.859375 -1.984375q0 -0.71875 0.328125 -1.296875q0.328125 -0.59375 0.84375 -0.9375q0.53125 -0.359375 1.1875 -0.546875q0.46875 -0.125 1.453125 -0.25q1.984375 -0.234375 2.921875 -0.5625q0.015625 -0.34375 0.015625 -0.421875q0 -1.0 -0.46875 -1.421875q-0.625 -0.546875 -1.875 -0.546875q-1.15625 0 -1.703125 0.40625q-0.546875 0.40625 -0.8125 1.421875l-1.609375 -0.21875q0.21875 -1.015625 0.71875 -1.640625q0.5 -0.640625 1.453125 -0.984375q0.953125 -0.34375 2.1875 -0.34375q1.25 0 2.015625 0.296875q0.78125 0.28125 1.140625 0.734375q0.375 0.4375 0.515625 1.109375q0.078125 0.421875 0.078125 1.515625l0 2.1875q0 2.28125 0.109375 2.890625q0.109375 0.59375 0.40625 1.15625l-1.703125 0q-0.265625 -0.515625 -0.328125 -1.1875zm-0.140625 -3.671875q-0.890625 0.375 -2.671875 0.625q-1.015625 0.140625 -1.4375 0.328125q-0.421875 0.1875 -0.65625 0.53125q-0.21875 0.34375 -0.21875 0.78125q0 0.65625 0.5 1.09375q0.5 0.4375 1.453125 0.4375q0.9375 0 1.671875 -0.40625q0.75 -0.421875 1.09375 -1.140625q0.265625 -0.5625 0.265625 -1.640625l0 -0.609375zm3.5475922 1.96875l1.625 -0.25q0.125 0.96875 0.75 1.5q0.625 0.515625 1.75 0.515625q1.125 0 1.671875 -0.453125q0.546875 -0.46875 0.546875 -1.09375q0 -0.546875 -0.484375 -0.875q-0.328125 -0.21875 -1.671875 -0.546875q-1.8125 -0.46875 -2.515625 -0.796875q-0.6875 -0.328125 -1.046875 -0.90625q-0.359375 -0.59375 -0.359375 -1.3125q0 -0.640625 0.296875 -1.1875q0.296875 -0.5625 0.8125 -0.921875q0.375 -0.28125 1.03125 -0.46875q0.671875 -0.203125 1.421875 -0.203125q1.140625 0 2.0 0.328125q0.859375 0.328125 1.265625 0.890625q0.421875 0.5625 0.578125 1.5l-1.609375 0.21875q-0.109375 -0.75 -0.640625 -1.171875q-0.515625 -0.421875 -1.46875 -0.421875q-1.140625 0 -1.625 0.375q-0.46875 0.375 -0.46875 0.875q0 0.3125 0.1875 0.578125q0.203125 0.265625 0.640625 0.4375q0.234375 0.09375 1.4375 0.421875q1.75 0.453125 2.4375 0.75q0.6875 0.296875 1.078125 0.859375q0.390625 0.5625 0.390625 1.40625q0 0.828125 -0.484375 1.546875q-0.46875 0.71875 -1.375 1.125q-0.90625 0.390625 -2.046875 0.390625q-1.875 0 -2.875 -0.78125q-0.984375 -0.78125 -1.25 -2.328125zm9.328125 0l1.625 -0.25q0.125 0.96875 0.75 1.5q0.625 0.515625 1.75 0.515625q1.125 0 1.671875 -0.453125q0.546875 -0.46875 0.546875 -1.09375q0 -0.546875 -0.484375 -0.875q-0.328125 -0.21875 -1.671875 -0.546875q-1.8125 -0.46875 -2.515625 -0.796875q-0.6875 -0.328125 -1.046875 -0.90625q-0.359375 -0.59375 -0.359375 -1.3125q0 -0.640625 0.296875 -1.1875q0.296875 -0.5625 0.8125 -0.921875q0.375 -0.28125 1.03125 -0.46875q0.671875 -0.203125 1.421875 -0.203125q1.140625 0 2.0 0.328125q0.859375 0.328125 1.265625 0.890625q0.421875 0.5625 0.578125 1.5l-1.609375 0.21875q-0.109375 -0.75 -0.640625 -1.171875q-0.515625 -0.421875 -1.46875 -0.421875q-1.140625 0 -1.625 0.375q-0.46875 0.375 -0.46875 0.875q0 0.3125 0.1875 0.578125q0.203125 0.265625 0.640625 0.4375q0.234375 0.09375 1.4375 0.421875q1.75 0.453125 2.4375 0.75q0.6875 0.296875 1.078125 0.859375q0.390625 0.5625 0.390625 1.40625q0 0.828125 -0.484375 1.546875q-0.46875 0.71875 -1.375 1.125q-0.90625 0.390625 -2.046875 0.390625q-1.875 0 -2.875 -0.78125q-0.984375 -0.78125 -1.25 -2.328125zm9.96875 2.890625l0 -9.671875l1.46875 0l0 1.46875q0.5625 -1.03125 1.03125 -1.359375q0.484375 -0.328125 1.0625 -0.328125q0.828125 0 1.6875 0.53125l-0.5625 1.515625q-0.609375 -0.359375 -1.203125 -0.359375q-0.546875 0 -0.96875 0.328125q-0.421875 0.328125 -0.609375 0.890625q-0.28125 0.875 -0.28125 1.921875l0 5.0625l-1.625 0zm5.618927 -4.84375q0 -2.6875 1.484375 -3.96875q1.25 -1.078125 3.046875 -1.078125q2.0 0 3.265625 1.3125q1.265625 1.296875 1.265625 3.609375q0 1.859375 -0.5625 2.9375q-0.5625 1.0625 -1.640625 1.65625q-1.0625 0.59375 -2.328125 0.59375q-2.03125 0 -3.28125 -1.296875q-1.25 -1.3125 -1.25 -3.765625zm1.6875 0q0 1.859375 0.796875 2.796875q0.8125 0.921875 2.046875 0.921875q1.21875 0 2.03125 -0.921875q0.8125 -0.9375 0.8125 -2.84375q0 -1.796875 -0.8125 -2.71875q-0.8125 -0.921875 -2.03125 -0.921875q-1.234375 0 -2.046875 0.921875q-0.796875 0.90625 -0.796875 2.765625zm8.688217 0q0 -2.6875 1.484375 -3.96875q1.25 -1.078125 3.046875 -1.078125q2.0 0 3.265625 1.3125q1.265625 1.296875 1.265625 3.609375q0 1.859375 -0.5625 2.9375q-0.5625 1.0625 -1.640625 1.65625q-1.0625 0.59375 -2.328125 0.59375q-2.03125 0 -3.28125 -1.296875q-1.25 -1.3125 -1.25 -3.765625zm1.6875 0q0 1.859375 0.796875 2.796875q0.8125 0.921875 2.046875 0.921875q1.21875 0 2.03125 -0.921875q0.8125 -0.9375 0.8125 -2.84375q0 -1.796875 -0.8125 -2.71875q-0.8125 -0.921875 -2.03125 -0.921875q-1.234375 0 -2.046875 0.921875q-0.796875 0.90625 -0.796875 2.765625zm9.297592 4.84375l0 -9.671875l1.46875 0l0 1.359375q0.453125 -0.71875 1.203125 -1.140625q0.765625 -0.4375 1.71875 -0.4375q1.078125 0 1.765625 0.453125q0.6875 0.4375 0.96875 1.234375q1.15625 -1.6875 2.984375 -1.6875q1.453125 0 2.21875 0.796875q0.78125 0.796875 0.78125 2.453125l0 6.640625l-1.640625 0l0 -6.09375q0 -0.984375 -0.15625 -1.40625q-0.15625 -0.4375 -0.578125 -0.703125q-0.421875 -0.265625 -0.984375 -0.265625q-1.015625 0 -1.6875 0.6875q-0.671875 0.671875 -0.671875 2.15625l0 5.625l-1.640625 0l0 -6.28125q0 -1.09375 -0.40625 -1.640625q-0.40625 -0.546875 -1.3125 -0.546875q-0.6875 0 -1.28125 0.359375q-0.59375 0.359375 -0.859375 1.0625q-0.25 0.703125 -0.25 2.03125l0 5.015625l-1.640625 0z" fill-rule="nonzero"/><path fill="#000000" fill-opacity="0.0" d="m88.38342 91.47235l79.62204 109.38583" fill-rule="evenodd"/><path stroke="#000000" stroke-width="1.0" stroke-linejoin="round" stroke-linecap="butt" d="m88.38342 91.47235l79.62204 109.38583" fill-rule="evenodd"/><path fill="#000000" fill-opacity="0.0" d="m101.767334 97.28213l61.228348 98.77166l-35.716537 22.141724l-61.22834 -98.771645z" fill-rule="evenodd"/><path fill="#000000" d="m83.61266 119.089096l14.054771 -2.6830597l1.0043564 1.6202011l-8.473167 11.687126l-1.0619812 -1.7131653l2.6245422 -3.4470367l-2.9472198 -4.754364l-4.2134094 0.883934l-0.98789215 -1.5936356zm6.694748 0.39054108l2.387413 3.8512955l2.4064713 -3.1463928q1.1049576 -1.4203491 1.8566437 -2.254013q-1.2289276 0.44931793 -2.5433578 0.73104095l-4.10717 0.81806946zm0.52008057 11.248192l8.220413 -5.096077l0.7738495 1.248352l-1.2483368 0.77388q1.1728592 -0.06526947 1.6987152 0.16025543q0.53409576 0.23880005 0.8386917 0.73017883q0.43632507 0.7038574 0.43758392 1.7141876l-1.584549 0.32048035q-0.015617371 -0.70729065 -0.32845306 -1.2119446q-0.2881317 -0.46481323 -0.7892914 -0.6504822q-0.50115967 -0.1856842 -1.0780334 -0.048675537q-0.8918762 0.22198486 -1.7816467 0.7735901l-4.302765 2.6674042l-0.8561783 -1.3811493zm3.2733154 5.280411l8.220413 -5.0960693l0.7738495 1.248352l-1.2483292 0.77388q1.1728516 -0.0652771 1.6987152 0.1602478q0.53408813 0.23880005 0.8386841 0.73017883q0.43632507 0.7038574 0.43758392 1.7141876l-1.5845413 0.32048035q-0.015625 -0.70729065 -0.3284607 -1.2119446q-0.2881317 -0.46479797 -0.7892914 -0.6504822q-0.50115967 -0.1856842 -1.0780334 -0.048675537q-0.8918762 0.22200012 -1.7816467 0.7735901l-4.302765 2.6674042l-0.8561783 -1.3811493zm13.029182 -0.7491455l1.6068954 -0.99617004l0.8644104 1.3944397l-1.6069031 0.9961548l-0.8644028 -1.3944244zm-9.747635 6.0428467l8.220413 -5.0960846l0.8644104 1.3944397l-8.220413 5.0960693l-0.8644104 -1.3944244zm3.5998 5.807068l6.2775497 -8.23024l0.9138031 1.4741211l-3.8320236 4.820633q-0.62392426 0.77285767 -1.3174362 1.5520782q0.75775146 -0.23075867 1.8748398 -0.44529724l6.147743 -1.292572l0.88910675 1.4342651l-10.146805 1.9884796l-0.80677795 -1.3014679zm9.632095 9.636688l0.7164688 1.5413055q-1.4756622 0.43681335 -2.747551 -0.04319763q-1.258606 -0.48823547 -2.147705 -1.9225159q-1.1196136 -1.8061218 -0.67596436 -3.5518646q0.4651718 -1.7406921 2.4704742 -2.983841q2.0849838 -1.2925415 3.8856735 -0.93814087q1.8089218 0.36769104 2.8626785 2.0675812q1.0208206 1.646759 0.53414154 3.3824158q-0.4651718 1.7406921 -2.4970322 3.0003052q-0.13280487 0.08232117 -0.37184906 0.23051453l-3.8033905 -6.1355133q-1.3051834 0.91941833 -1.6074982 2.0628052q-0.2890396 1.1351471 0.34485626 2.15773q0.47748566 0.7702637 1.213417 1.0677643q0.7492142 0.28927612 1.8232803 0.06465149zm-0.5825653 -5.9812927l2.8484268 4.595001q0.9782257 -0.7351227 1.2244797 -1.4944458q0.39846802 -1.166214 -0.26013184 -2.2286377q-0.5927353 -0.956192 -1.6550827 -1.2167969q-1.0408401 -0.25556946 -2.157692 0.34487915zm2.0270538 8.726669l1.0686569 1.2494202q-0.75751495 0.61668396 -0.87973785 1.4278107q-0.108947754 0.80288696 0.48378754 1.759079q0.5927353 0.95617676 1.2659988 1.1822357q0.6865387 0.21783447 1.2177429 -0.11148071q0.4648056 -0.28814697 0.48848724 -0.87272644q0.013038635 -0.39413452 -0.41606903 -1.709137q-0.55656433 -1.7875061 -0.64813995 -2.5579987q-0.083343506 -0.75723267 0.2186737 -1.367279q0.3153 -0.6183014 0.9261856 -0.9970093q0.544487 -0.33753967 1.1657104 -0.3733673q0.6344986 -0.044052124 1.2116165 0.20484924q0.43662262 0.17054749 0.9417496 0.6295166q0.5266342 0.46403503 0.9217911 1.1014862q0.6009674 0.96946716 0.7748718 1.8727722q0.17390442 0.90330505 -0.0901413 1.5449829q-0.25580597 0.65493774 -0.97029114 1.2817078l-1.0338669 -1.2526093q0.5798187 -0.48814392 0.6584854 -1.1619568q0.086891174 -0.6605377 -0.41529083 -1.4706268q-0.6009674 -0.96946716 -1.1748962 -1.1835785q-0.5656967 -0.20082092 -0.9906616 0.06262207q-0.2656021 0.1646576 -0.39257812 0.463974q-0.1187439 0.3126068 -0.034317017 0.7750244q0.043807983 0.24859619 0.3988266 1.4440765q0.536911 1.7261353 0.64681244 2.4669037q0.10990906 0.7407532 -0.16236877 1.3691406q-0.2722702 0.62838745 -0.9894028 1.0729523q-0.70384216 0.43634033 -1.5699387 0.40335083q-0.85785675 -0.019699097 -1.6806259 -0.5759125q-0.8094864 -0.56443787 -1.4104538 -1.533905q-0.9878998 -1.5936279 -0.85076904 -2.8552094q0.14536285 -1.2483063 1.3201523 -2.2891083zm9.869873 19.154266q-1.1364441 -0.3801422 -1.8598785 -0.9243927q-0.70191956 -0.5391998 -1.2123337 -1.3625793q-0.83971405 -1.354599 -0.62848663 -2.4966583q0.21121979 -1.1420441 1.2337952 -1.7759705q0.6108856 -0.3787079 1.2751312 -0.4044342q0.6775284 -0.033950806 1.2413635 0.22317505q0.5853424 0.2621765 1.0904694 0.7211609q0.35321808 0.33255005 0.97810364 1.1033478q1.2447205 1.5631104 2.0175476 2.1870422q0.30039978 -0.16784668 0.3667984 -0.20899963q0.8499298 -0.52690125 0.96152496 -1.1475983q0.13550568 -0.81936646 -0.5230942 -1.8817902q-0.6091995 -0.9827423 -1.2426224 -1.2335052q-0.6334152 -0.25076294 -1.6365814 0.05860901l-0.6620178 -1.483139q0.9784622 -0.3491974 1.7731094 -0.25354004q0.80792236 0.08743286 1.6022644 0.7164154q0.79434204 0.6289673 1.4447021 1.6781158q0.65859985 1.0624237 0.8096771 1.8695831q0.1725769 0.8122101 -0.023208618 1.3564148q-0.17425537 0.5492401 -0.6712189 1.0227661q-0.31739807 0.2886963 -1.2470093 0.86499023l-1.8592224 1.1525879q-1.9388962 1.2019806 -2.3992004 1.6160126q-0.44701385 0.4058075 -0.7686844 0.95451355l-0.89733887 -1.4475555q0.29829407 -0.49745178 0.8364105 -0.90457153zm3.0467453 -2.0542297q-0.7879791 -0.5593872 -1.9389572 -1.9416199q-0.65463257 -0.78912354 -1.0362701 -1.0489044q-0.38163757 -0.25978088 -0.797287 -0.27786255q-0.4074173 -0.0048065186 -0.7792587 0.22570801q-0.5577698 0.34577942 -0.66617584 1.0012665q-0.10840607 0.65548706 0.39377594 1.4655914q0.49394226 0.79681396 1.2261581 1.2069397q0.7537155 0.4151764 1.545723 0.3286438q0.61803436 -0.070617676 1.5343628 -0.63868713l0.5179291 -0.32107544zm1.2183456 8.400726l-1.1115646 0.964859q-0.4817505 -0.51023865 -0.76988983 -0.9750519q-0.4692459 -0.7569885 -0.4936447 -1.3301392q-0.016159058 -0.55989075 0.26194 -0.97128296q0.29138184 -0.4196167 1.5397186 -1.1934967l4.741005 -2.9391022l-0.6338959 -1.022583l1.0756989 -0.66685486l0.6338959 1.022583l2.0318604 -1.259613l1.6928253 0.86250305l-2.868515 1.7782745l0.87265015 1.4077148l-1.0756989 0.66685486l-0.8726349 -1.4077148l-4.8207016 2.9884796q-0.5843277 0.36224365 -0.71580505 0.53567505q-0.12324524 0.18670654 -0.13069916 0.41192627q0.014060974 0.23028564 0.2116394 0.54901123q0.13995361 0.22576904 0.4318161 0.57795715z" fill-rule="nonzero"/><path fill="#cfe2f3" d="m36.632545 504.62466l0 0c0 -17.786163 15.835724 -32.204712 35.37008 -32.204712c19.534355 0 35.37008 14.418549 35.37008 32.204712c0 17.786163 -15.835724 32.204742 -35.37008 32.204742c-19.534355 0 -35.37008 -14.418579 -35.37008 -32.204742z" fill-rule="evenodd"/><path fill="#a5b4c2" d="m56.986717 494.99307c0 -1.8527222 1.6495552 -3.3546448 3.6843834 -3.3546448c2.0348282 0 3.6843834 1.5019226 3.6843834 3.3546448c0 1.8527222 -1.6495552 3.3546753 -3.6843834 3.3546753c-2.0348282 0 -3.6843834 -1.5019531 -3.6843834 -3.3546753m22.663048 0c0 -1.8527222 1.649559 -3.3546448 3.6843872 -3.3546448c2.0348282 0 3.6843796 1.5019226 3.6843796 3.3546448c0 1.8527222 -1.6495514 3.3546753 -3.6843796 3.3546753c-2.0348282 0 -3.6843872 -1.5019531 -3.6843872 -3.3546753" fill-rule="evenodd"/><path fill="#000000" fill-opacity="0.0" d="m52.83181 518.6694q19.170815 11.987854 38.29686 0" fill-rule="evenodd"/><path fill="#000000" fill-opacity="0.0" d="m36.632545 504.62466l0 0c0 -17.786163 15.835724 -32.204712 35.37008 -32.204712c19.534355 0 35.37008 14.418549 35.37008 32.204712c0 17.786163 -15.835724 32.204742 -35.37008 32.204742c-19.534355 0 -35.37008 -14.418579 -35.37008 -32.204742z" fill-rule="evenodd"/><path stroke="#000000" stroke-width="1.0" stroke-linejoin="round" stroke-linecap="butt" d="m56.986717 494.99307c0 -1.8527222 1.6495552 -3.3546448 3.6843834 -3.3546448c2.0348282 0 3.6843834 1.5019226 3.6843834 3.3546448c0 1.8527222 -1.6495552 3.3546753 -3.6843834 3.3546753c-2.0348282 0 -3.6843834 -1.5019531 -3.6843834 -3.3546753m22.663048 0c0 -1.8527222 1.649559 -3.3546448 3.6843872 -3.3546448c2.0348282 0 3.6843796 1.5019226 3.6843796 3.3546448c0 1.8527222 -1.6495514 3.3546753 -3.6843796 3.3546753c-2.0348282 0 -3.6843872 -1.5019531 -3.6843872 -3.3546753" fill-rule="evenodd"/><path stroke="#000000" stroke-width="1.0" stroke-linejoin="round" stroke-linecap="butt" d="m52.83181 518.6694q19.170815 11.987854 38.29686 0" fill-rule="evenodd"/><path stroke="#000000" stroke-width="1.0" stroke-linejoin="round" stroke-linecap="butt" d="m36.632545 504.62466l0 0c0 -17.786163 15.835724 -32.204712 35.37008 -32.204712c19.534355 0 35.37008 14.418549 35.37008 32.204712c0 17.786163 -15.835724 32.204742 -35.37008 32.204742c-19.534355 0 -35.37008 -14.418579 -35.37008 -32.204742z" fill-rule="evenodd"/><path fill="#000000" fill-opacity="0.0" d="m21.467192 536.8294l113.70079 0l0 42.015747l-113.70079 0z" fill-rule="evenodd"/><path fill="#000000" d="m31.935942 563.7494l0 -13.359375l9.656248 0l0 1.578125l-7.875 0l0 4.09375l7.375 0l0 1.5625l-7.375 0l0 4.546875l8.1875 0l0 1.578125l-9.968748 0zm12.209196 0l0 -9.671875l1.46875 0l0 1.359375q0.453125 -0.71875 1.203125 -1.140625q0.765625 -0.4375 1.71875 -0.4375q1.078125 0 1.765625 0.453125q0.6875 0.4375 0.96875 1.234375q1.15625 -1.6875 2.984375 -1.6875q1.453125 0 2.21875 0.796875q0.78125 0.796875 0.78125 2.453125l0 6.640625l-1.640625 0l0 -6.09375q0 -0.984375 -0.15625 -1.40625q-0.15625 -0.4375 -0.578125 -0.703125q-0.421875 -0.265625 -0.984375 -0.265625q-1.015625 0 -1.6875 0.6875q-0.671875 0.671875 -0.671875 2.15625l0 5.625l-1.640625 0l0 -6.28125q0 -1.09375 -0.40625 -1.640625q-0.40625 -0.546875 -1.3125 -0.546875q-0.6875 0 -1.28125 0.359375q-0.59375 0.359375 -0.859375 1.0625q-0.25 0.703125 -0.25 2.03125l0 5.015625l-1.640625 0zm15.540802 3.703125l0 -13.375l1.484375 0l0 1.25q0.53125 -0.734375 1.1875 -1.09375q0.671875 -0.375 1.625 -0.375q1.2343788 0 2.1718788 0.640625q0.953125 0.625 1.4375 1.796875q0.484375 1.15625 0.484375 2.546875q0 1.484375 -0.53125 2.671875q-0.53125 1.1875 -1.546875 1.828125q-1.015625 0.625 -2.1406288 0.625q-0.8125 0 -1.46875 -0.34375q-0.65625 -0.34375 -1.0625 -0.875l0 4.703125l-1.640625 0zm1.484375 -8.484375q0 1.859375 0.75 2.765625q0.765625 0.890625 1.828125 0.890625q1.0937538 0 1.8750038 -0.921875q0.78125 -0.9375 0.78125 -2.875q0 -1.84375 -0.765625 -2.765625q-0.75 -0.921875 -1.8125038 -0.921875q-1.046875 0 -1.859375 0.984375q-0.796875 0.96875 -0.796875 2.84375zm8.844471 4.78125l0 -13.359375l1.640625 0l0 13.359375l-1.640625 0zm3.5823212 -4.84375q0 -2.6875 1.484375 -3.96875q1.25 -1.078125 3.046875 -1.078125q2.0 0 3.265625 1.3125q1.265625 1.296875 1.265625 3.609375q0 1.859375 -0.5625 2.9375q-0.5625 1.0625 -1.640625 1.65625q-1.0625 0.59375 -2.328125 0.59375q-2.03125 0 -3.28125 -1.296875q-1.25 -1.3125 -1.25 -3.765625zm1.6875 0q0 1.859375 0.796875 2.796875q0.8125 0.921875 2.046875 0.921875q1.21875 0 2.03125 -0.921875q0.8125 -0.9375 0.8125 -2.84375q0 -1.796875 -0.8125 -2.71875q-0.8125 -0.921875 -2.03125 -0.921875q-1.234375 0 -2.046875 0.921875q-0.796875 0.90625 -0.796875 2.765625zm9.219467 8.5625l-0.1875 -1.53125q0.546875 0.140625 0.9375 0.140625q0.546875 0 0.875 -0.1875q0.328125 -0.171875 0.546875 -0.5q0.15625 -0.25 0.5 -1.21875q0.046875 -0.140625 0.140625 -0.40625l-3.671875 -9.6875l1.765625 0l2.015625 5.59375q0.390625 1.078125 0.703125 2.25q0.28125 -1.125 0.671875 -2.203125l2.078125 -5.640625l1.640625 0l-3.6875 9.828125q-0.59375 1.609375 -0.921875 2.203125q-0.4375 0.8125 -1.0 1.1875q-0.5625 0.375 -1.34375 0.375q-0.484375 0 -1.0625 -0.203125zm16.03125 -6.828125l1.6875 0.203125q-0.40625 1.484375 -1.484375 2.3125q-1.078125 0.8125 -2.765625 0.8125q-2.125 0 -3.375 -1.296875q-1.234375 -1.3125 -1.234375 -3.671875q0 -2.453125 1.25 -3.796875q1.265625 -1.34375 3.265625 -1.34375q1.9375 0 3.15625 1.328125q1.234375 1.3125 1.234375 3.703125q0 0.15625 0 0.4375l-7.21875 0q0.09375 1.59375 0.90625 2.453125q0.8125 0.84375 2.015625 0.84375q0.90625 0 1.546875 -0.46875q0.640625 -0.484375 1.015625 -1.515625zm-5.390625 -2.65625l5.40625 0q-0.109375 -1.21875 -0.625 -1.828125q-0.78125 -0.953125 -2.03125 -0.953125q-1.125 0 -1.90625 0.765625q-0.765625 0.75 -0.84375 2.015625zm15.766342 2.65625l1.6875 0.203125q-0.40625 1.484375 -1.484375 2.3125q-1.078125 0.8125 -2.765625 0.8125q-2.125 0 -3.375 -1.296875q-1.234375 -1.3125 -1.234375 -3.671875q0 -2.453125 1.25 -3.796875q1.265625 -1.34375 3.265625 -1.34375q1.9375 0 3.15625 1.328125q1.234375 1.3125 1.234375 3.703125q0 0.15625 0 0.4375l-7.21875 0q0.09375 1.59375 0.90625 2.453125q0.8125 0.84375 2.015625 0.84375q0.90625 0 1.546875 -0.46875q0.640625 -0.484375 1.015625 -1.515625zm-5.390625 -2.65625l5.40625 0q-0.109375 -1.21875 -0.625 -1.828125q-0.78125 -0.953125 -2.03125 -0.953125q-1.125 0 -1.90625 0.765625q-0.765625 0.75 -0.84375 2.015625z" fill-rule="nonzero"/><path fill="#000000" fill-opacity="0.0" d="m72.002625 472.41995l85.03937 -210.33072" fill-rule="evenodd"/><path stroke="#000000" stroke-width="1.0" stroke-linejoin="round" stroke-linecap="butt" d="m72.002625 472.41995l85.03937 -210.33072" fill-rule="evenodd"/><path fill="#000000" fill-opacity="0.0" d="m97.26274 418.74402l40.944885 -106.078735l39.2126 15.118103l-40.944885 106.078735z" fill-rule="evenodd"/><path fill="#000000" d="m126.13906 418.6907l-12.465042 -4.8058167l1.6598053 -4.3001404q0.55701447 -1.4431152 1.0447464 -2.1426086q0.64398956 -0.9741821 1.5926208 -1.479248q1.2136002 -0.6708374 2.6968079 -0.6516113q1.4888306 0.004638672 3.1508331 0.64541626q1.4141617 0.54522705 2.3927612 1.3076782q0.96401215 0.7568054 1.4758301 1.5570068q0.5174408 0.785614 0.7039337 1.5608215q0.17189026 0.7696228 0.052993774 1.7285461q-0.13348389 0.9533081 -0.56671906 2.075714l-1.7385712 4.504242zm-0.8366928 -2.2148743l1.0296402 -2.667572q0.47262573 -1.2244568 0.5240097 -2.0084534q0.0368042 -0.7896118 -0.22281647 -1.3753357q-0.35810852 -0.80792236 -1.2256927 -1.5108337q-0.861969 -0.71746826 -2.2761307 -1.2626953q-1.9535828 -0.7531738 -3.2508316 -0.51651q-1.2972565 0.23669434 -2.0016174 1.0201111q-0.51560974 0.5548096 -1.0838776 2.027069l-1.012764 2.6238098l9.520081 3.6704102zm5.099457 -17.463867l0.7971802 -1.5012512q1.2387085 0.9129944 1.623169 2.2167053q0.3698883 1.2980652 -0.23776245 2.8723755q-0.76519775 1.9824524 -2.4253693 2.6820679q-1.6691284 0.67941284 -3.8705597 -0.16934204q-2.2889023 -0.8824768 -3.092575 -2.532013q-0.79805756 -1.664093 -0.0778656 -3.5299377q0.6976776 -1.8075256 2.3757553 -2.4667358q1.6691208 -0.67941284 3.8997116 0.18057251q0.14578247 0.05618286 0.40820312 0.15737915l-2.599411 6.7344666q1.520813 0.48587036 2.6152344 0.037017822q1.079834 -0.45446777 1.5130768 -1.5768738q0.32633972 -0.845459 0.119644165 -1.6117249q-0.22125244 -0.7719116 -1.0484314 -1.4927063zm-4.4195633 4.073456l1.9467545 -5.043579q-1.1765442 -0.33639526 -1.9308014 -0.07455444q-1.170639 0.3859558 -1.620758 1.5520935q-0.4051056 1.04953 0.027946472 2.0538025q0.42409515 0.9840698 1.5768585 1.5122375zm8.654503 -6.410309l-12.465042 -4.805786l0.59077454 -1.5305786l12.465042 4.8058167l-0.59077454 1.5305481zm-9.191582 -8.036163l-1.764061 -0.68014526l0.59077454 -1.5305481l1.764061 0.68011475l-0.59077454 1.5305786zm10.700981 4.1256714l-9.024399 -3.4792786l0.59077454 -1.5305786l9.024399 3.4792786l-0.59077454 1.5305786zm2.460266 -6.373993l-10.352234 -0.039154053l0.624527 -1.618042l6.157135 0.14660645q0.9928894 0.031158447 2.0328522 0.11392212q-0.64123535 -0.4649048 -1.4863129 -1.2261353l-4.740036 -4.121704l0.60765076 -1.5742798l7.7078094 6.890259l-0.5513916 1.4285278zm1.8756256 -13.494263l0.79719543 -1.5012207q1.2387085 0.91296387 1.623169 2.2166748q0.3698883 1.2980957 -0.23776245 2.8723755q-0.76519775 1.9824524 -2.4253693 2.6820679q-1.6691284 0.67941284 -3.8705597 -0.16931152q-2.2888947 -0.8824768 -3.092575 -2.532013q-0.7980499 -1.6641235 -0.0778656 -3.5299377q0.6976776 -1.8075256 2.3757477 -2.4667664q1.6691284 -0.67941284 3.8997192 0.18057251q0.14578247 0.05621338 0.40820312 0.15737915l-2.599411 6.734497q1.520813 0.48587036 2.6152344 0.037017822q1.079834 -0.45446777 1.5130768 -1.5769043q0.32633972 -0.845459 0.119644165 -1.6117249q-0.2212677 -0.7718811 -1.0484467 -1.4927063zm-4.4195404 4.073456l1.9467468 -5.043579q-1.1765442 -0.33636475 -1.9308014 -0.07455444q-1.170639 0.3859558 -1.620758 1.552124q-0.4051056 1.04953 0.027938843 2.053772q0.42410278 0.9840698 1.5768738 1.5122375zm8.665741 -6.439453l-9.024399 -3.4792786l0.5288849 -1.3702087l1.3704376 0.52835083q-0.7596741 -0.89575195 -0.8970337 -1.4510803q-0.13174438 -0.5699158 0.07644653 -1.1092529q0.2982025 -0.772583 1.1033325 -1.3832092l1.2116089 1.0700073q-0.55474854 0.43920898 -0.7685547 0.99313354q-0.19691467 0.51016235 -0.042678833 1.0217896q0.1542511 0.5115967 0.61157227 0.8888855q0.7151489 0.57714844 1.6919403 0.95373535l4.7236023 1.8211365l-0.5851593 1.5159912zm-0.69065857 -6.238098l0.35188293 -1.6059265q0.9489136 0.23187256 1.6696625 -0.16009521q0.7061615 -0.397583 1.1112671 -1.447113q0.4051056 -1.04953 0.179245 -1.7227173q-0.240448 -0.6788025 -0.8236084 -0.903656q-0.51026917 -0.19671631 -0.9908447 0.13711548q-0.32226562 0.22741699 -1.1122894 1.3630066q-1.0900421 1.5222778 -1.6493988 2.0602112q-0.55371094 0.52334595 -1.2225494 0.65063477q-0.68341064 0.121673584 -1.3540497 -0.13690186q-0.59773254 -0.23043823 -1.0010986 -0.7041321q-0.41793823 -0.47930908 -0.5675812 -1.0896301q-0.12738037 -0.4510193 -0.06602478 -1.1306763q0.05241394 -0.69989014 0.32247925 -1.3995667q0.41073608 -1.0641174 1.0263519 -1.7478027q0.6156006 -0.6836853 1.2867432 -0.86032104q0.6767578 -0.19122314 1.6077576 2.4414062E-4l-0.375412 1.5801086q-0.7391815 -0.16775513 -1.3241119 0.17608643q-0.5793152 0.32928467 -0.92251587 1.2184448q-0.41073608 1.0641174 -0.23526001 1.6509094q0.18110657 0.5722046 0.6476288 0.7520752q0.2915802 0.11239624 0.6069336 0.033050537q0.32099915 -0.09396362 0.63890076 -0.4402771q0.171875 -0.18493652 0.91127014 -1.1893005q1.052948 -1.4696045 1.5775146 -2.004181q0.52456665 -0.53460693 1.1900635 -0.6966553q0.6655121 -0.16207886 1.452774 0.14144897q0.7726898 0.29788208 1.2689056 1.0083313q0.50183105 0.6958618 0.5545654 1.6874695q0.038131714 0.9859619 -0.3725891 2.0500793q-0.67518616 1.7492065 -1.7642212 2.4010925q-1.0834198 0.6372986 -2.6223907 0.3286438zm8.07692 -16.976776l1.4402313 0.30407715q-0.11634827 0.6919861 -0.3132782 1.2021484q-0.32069397 0.8309021 -0.76316833 1.196167q-0.43684387 0.350708 -0.9327698 0.37719727q-0.5105133 0.020874023 -1.8809509 -0.5074768l-5.2046967 -2.0066223l-0.43322754 1.122406l-1.1809082 -0.45529175l0.4332428 -1.122406l-2.2305908 -0.85998535l-0.33332825 -1.8700867l3.149063 1.2140808l0.596405 -1.5451355l1.180893 0.45529175l-0.596405 1.5451355l5.2921753 2.0403442q0.6414795 0.24731445 0.8591461 0.24749756q0.22328186 -0.014373779 0.40742493 -0.14431763q0.17520142 -0.150177 0.3102417 -0.5q0.09564209 -0.24780273 0.20050049 -0.6930237zm-2.7904816 -2.143097q-2.5075836 -0.9667969 -3.1685638 -2.8125q-0.5558319 -1.5539856 0.09121704 -3.2303162q0.7201843 -1.8658142 2.4005585 -2.5744019q1.665802 -0.7142029 3.8234863 0.11767578q1.734909 0.6688843 2.5382996 1.5814819q0.78881836 0.9069824 0.9546051 2.1263733q0.17140198 1.204834 -0.28434753 2.385559q-0.73143005 1.894989 -2.3916016 2.5946045q-1.6747589 0.69400024 -3.9636536 -0.18847656zm0.60765076 -1.5743103q1.734909 0.6688843 2.8965912 0.26272583q1.1527405 -0.42636108 1.597229 -1.5779419q0.43885803 -1.1369934 -0.12872314 -2.2266235q-0.5821686 -1.0952454 -2.3608093 -1.7809753q-1.6765747 -0.6463928 -2.8293152 -0.22003174q-1.1527405 0.42636108 -1.5915985 1.5633545q-0.44448853 1.1515808 0.12309265 2.241211q0.5586395 1.0694275 2.2935333 1.7382812z" fill-rule="nonzero"/><path fill="#cfe2f3" d="m312.65222 125.05249l0 0c0 -22.67411 35.062805 -41.055115 78.31497 -41.055115l0 0c43.252167 0 78.31497 18.381004 78.31497 41.055115l0 0c0 22.674118 -35.062805 41.055115 -78.31497 41.055115l0 0c-43.252167 0 -78.31497 -18.380997 -78.31497 -41.055115z" fill-rule="evenodd"/><path stroke="#000000" stroke-width="1.0" stroke-linejoin="round" stroke-linecap="butt" d="m312.65222 125.05249l0 0c0 -22.67411 35.062805 -41.055115 78.31497 -41.055115l0 0c43.252167 0 78.31497 18.381004 78.31497 41.055115l0 0c0 22.674118 -35.062805 41.055115 -78.31497 41.055115l0 0c-43.252167 0 -78.31497 -18.380997 -78.31497 -41.055115z" fill-rule="evenodd"/><path fill="#000000" fill-opacity="0.0" d="m358.98163 104.04462l85.03937 0l0 42.015747l-85.03937 0z" fill-rule="evenodd"/><path fill="#000000" d="m368.88788 124.464615q0 -3.328125 1.78125 -5.203125q1.78125 -1.890625 4.609375 -1.890625q1.84375 0 3.328125 0.890625q1.484375 0.875 2.265625 2.46875q0.78125 1.578125 0.78125 3.578125q0 2.03125 -0.828125 3.640625q-0.8125 1.59375 -2.3125 2.421875q-1.5 0.828125 -3.25 0.828125q-1.875 0 -3.359375 -0.90625q-1.484375 -0.921875 -2.25 -2.5q-0.765625 -1.578125 -0.765625 -3.328125zm1.8125 0.015625q0 2.421875 1.296875 3.8125q1.296875 1.390625 3.265625 1.390625q2.0 0 3.28125 -1.40625q1.28125 -1.40625 1.28125 -3.984375q0 -1.625 -0.546875 -2.84375q-0.546875 -1.21875 -1.609375 -1.875q-1.0625 -0.671875 -2.375 -0.671875q-1.890625 0 -3.25 1.296875q-1.34375 1.28125 -1.34375 4.28125zm13.011414 6.484375l0 -9.671875l1.46875 0l0 1.46875q0.5625 -1.03125 1.03125 -1.359375q0.484375 -0.328125 1.0625 -0.328125q0.828125 0 1.6875 0.53125l-0.5625 1.515625q-0.609375 -0.359375 -1.203125 -0.359375q-0.546875 0 -0.96875 0.328125q-0.421875 0.328125 -0.609375 0.890625q-0.28125 0.875 -0.28125 1.921875l0 5.0625l-1.625 0zm12.493927 0l0 -1.21875q-0.90625 1.4375 -2.703125 1.4375q-1.15625 0 -2.125 -0.640625q-0.96875 -0.640625 -1.5 -1.78125q-0.53125 -1.140625 -0.53125 -2.625q0 -1.453125 0.484375 -2.625q0.484375 -1.1875 1.4375 -1.8125q0.96875 -0.625 2.171875 -0.625q0.875 0 1.546875 0.375q0.6875 0.359375 1.109375 0.953125l0 -4.796875l1.640625 0l0 13.359375l-1.53125 0zm-5.171875 -4.828125q0 1.859375 0.78125 2.78125q0.78125 0.921875 1.84375 0.921875q1.078125 0 1.828125 -0.875q0.75 -0.890625 0.75 -2.6875q0 -1.984375 -0.765625 -2.90625q-0.765625 -0.9375 -1.890625 -0.9375q-1.078125 0 -1.8125 0.890625q-0.734375 0.890625 -0.734375 2.8125zm15.906982 1.71875l1.6875 0.203125q-0.40625 1.484375 -1.484375 2.3125q-1.078125 0.8125 -2.765625 0.8125q-2.125 0 -3.375 -1.296875q-1.234375 -1.3125 -1.234375 -3.671875q0 -2.453125 1.25 -3.796875q1.265625 -1.34375 3.265625 -1.34375q1.9375 0 3.15625 1.328125q1.234375 1.3125 1.234375 3.703125q0 0.15625 0 0.4375l-7.21875 0q0.09375 1.59375 0.90625 2.453125q0.8125 0.84375 2.015625 0.84375q0.90625 0 1.546875 -0.46875q0.640625 -0.484375 1.015625 -1.515625zm-5.390625 -2.65625l5.40625 0q-0.109375 -1.21875 -0.625 -1.828125q-0.78125 -0.953125 -2.03125 -0.953125q-1.125 0 -1.90625 0.765625q-0.765625 0.75 -0.84375 2.015625zm9.125702 5.765625l0 -9.671875l1.46875 0l0 1.46875q0.5625 -1.03125 1.03125 -1.359375q0.484375 -0.328125 1.0625 -0.328125q0.828125 0 1.6875 0.53125l-0.5625 1.515625q-0.609375 -0.359375 -1.203125 -0.359375q-0.546875 0 -0.96875 0.328125q-0.421875 0.328125 -0.609375 0.890625q-0.28125 0.875 -0.28125 1.921875l0 5.0625l-1.625 0z" fill-rule="nonzero"/><path fill="#000000" fill-opacity="0.0" d="m97.26247 71.3727l215.40157 53.66929" fill-rule="evenodd"/><path stroke="#000000" stroke-width="1.0" stroke-linejoin="round" stroke-linecap="butt" d="m97.26247 71.3727l215.40157 53.66929" fill-rule="evenodd"/><path fill="#000000" fill-opacity="0.0" d="m193.14528 50.38012l104.69292 26.519684l-10.330719 40.72441l-104.6929 -26.519684z" fill-rule="evenodd"/><path fill="#000000" d="m197.12494 74.72585l1.6401215 0.27039337q-0.12471008 0.9999924 0.12672424 1.7245407q0.2665863 0.72839355 1.0451965 1.3447037q0.7976074 0.60500336 1.903305 0.88508606q0.96939087 0.24555206 1.7997131 0.14962769q0.83032227 -0.09591675 1.3206329 -0.5036316q0.49414062 -0.4228592 0.64782715 -1.0286713q0.15367126 -0.6058121 -0.09458923 -1.1522522q-0.23310852 -0.54260254 -0.9552002 -1.064003q-0.48017883 -0.33117676 -2.159912 -1.2079849q-1.6607361 -0.8881149 -2.2765808 -1.4470749q-0.81614685 -0.7225342 -1.0899658 -1.5494614q-0.269989 -0.84207916 -0.043304443 -1.7356491q0.24588013 -0.9692993 1.0214539 -1.6754761q0.77941895 -0.7213211 1.9510956 -0.89196014q1.1868286 -0.16680145 2.489441 0.1631546q1.4389191 0.36449432 2.4103851 1.1102524q0.99043274 0.73444366 1.3506317 1.7927933q0.3640442 1.0432053 0.12133789 2.1906128l-1.666565 -0.2932129q0.17488098 -1.2612991 -0.44007874 -2.0779266q-0.5959625 -0.8279419 -2.0803375 -1.203949q-1.5601044 -0.39518738 -2.417984 7.6293945E-6q-0.85787964 0.395195 -1.0615082 1.1978912q-0.1767273 0.6966858 0.22683716 1.2663498q0.36943054 0.5771332 2.3367157 1.5912552q1.9711304 0.9989853 2.655243 1.5429993q1.0053711 0.8026962 1.3318787 1.739685q0.34165955 0.9408264 0.076553345 1.9858551q-0.26124573 1.0298767 -1.086319 1.8041077q-0.8212433 0.759079 -2.0575714 0.99393463q-1.2324829 0.2197113 -2.6259766 -0.13327026q-1.7570038 -0.44506836 -2.8229523 -1.2631149q-1.0508118 -0.814209 -1.4711609 -2.016739q-0.40519714 -1.1987 -0.10508728 -2.508873zm17.519104 8.870338l0.34960938 -1.3782196q-1.4939575 1.314003 -3.3721313 0.8382492q-0.83306885 -0.21102905 -1.4794312 -0.7132416q-0.6312103 -0.49838257 -0.8566284 -1.0712738q-0.22543335 -0.57289886 -0.18502808 -1.3041153q0.009231567 -0.4812088 0.27049255 -1.5110931l1.4714661 -5.8006516l1.5903931 0.40286255l-1.3177948 5.1948395q-0.31503296 1.2419128 -0.3204193 1.7079849q-0.0060577393 0.65932465 0.38642883 1.1455917q0.3924713 0.48625946 1.1043701 0.6665878q0.71188354 0.18032837 1.4251099 -0.025848389q0.73220825 -0.21749115 1.1472168 -0.7732239q0.41885376 -0.5708771 0.72236633 -1.7673492l1.275528 -5.028244l1.5904083 0.40286255l-2.3781738 9.374939l-1.4237823 -0.36065674zm5.3777313 1.362236l-1.469223 -0.3721695l3.2848816 -12.949226l1.5903931 0.40286255l-1.1717987 4.6193085q1.3337097 -0.9999924 2.893814 -0.604805q0.86335754 0.2186966 1.5474701 0.7627106q0.68411255 0.5440216 1.022583 1.3067398q0.34231567 0.7475662 0.38827515 1.7102051q0.06111145 0.9664688 -0.19630432 1.9812012q-0.61087036 2.408104 -2.141693 3.422638q-1.515686 1.0183716 -3.1969604 0.59249115q-1.6509857 -0.41820526 -2.2517548 -2.0532913l-0.29968262 1.1813354zm1.1912384 -4.7594604q-0.4264679 1.6811218 -0.14901733 2.5573273q0.4309845 1.414772 1.7184448 1.7408981q1.0451202 0.26474 2.0329742 -0.4521408q0.98783875 -0.7168808 1.4411926 -2.5040207q0.46487427 -1.8325806 -0.0393219 -2.895172q-0.5042114 -1.0625992 -1.5493164 -1.3273315q-1.0299835 -0.2609024 -2.0329742 0.4521408q-0.98783875 0.7168808 -1.4219818 2.428299zm7.412735 6.938919l2.3781738 -9.374931l1.4237823 0.36065674l-0.33425903 1.3176346q0.61598206 -0.5854111 1.4467621 -0.81017303q0.84976196 -0.23606873 1.7736969 -0.0020217896q1.0451202 0.26474 1.6001587 0.8727722q0.5588684 0.59288025 0.63557434 1.4343567q1.5357819 -1.3517685 3.3079224 -0.9028702q1.4086456 0.35681915 1.9548798 1.3172302q0.56140137 0.96424866 0.15414429 2.5696564l-1.6328278 6.4367447l-1.5903931 -0.40285492l1.4983673 -5.9066696q0.24203491 -0.95415497 0.19430542 -1.4014435q-0.043899536 -0.46243286 -0.38754272 -0.8235016q-0.3436432 -0.3610611 -0.888916 -0.49918365q-0.9845276 -0.24938965 -1.8048859 0.2520218q-0.8164978 0.4862671 -1.181488 1.9250717l-1.3831024 5.452301l-1.5903931 -0.40286255l1.5444641 -6.0884094q0.26893616 -1.0601654 0.009597778 -1.6900101q-0.25935364 -0.62983704 -1.1378479 -0.8523712q-0.66645813 -0.16882324 -1.3303986 0.033721924q-0.6639252 0.20254517 -1.0943146 0.8188629q-0.41523743 0.6201477 -0.7417908 1.9074936l-1.2332764 4.861641l-1.5903931 -0.40286255zm17.884995 -7.3005447l0.46487427 -1.8325806l1.5903931 0.40286255l-0.46487427 1.8325806l-1.5903931 -0.40286255zm-2.8200073 11.116646l2.3781738 -9.374931l1.5903931 0.40285492l-2.3781738 9.374939l-1.5903931 -0.40286255zm7.847641 0.47274017l-0.1301117 1.4660645q-0.7010193 -0.03250885 -1.2311554 -0.16679382q-0.86335754 -0.2186966 -1.2788849 -0.61408997q-0.40039062 -0.3915558 -0.48588562 -0.88064575q-0.08164978 -0.5042343 0.27949524 -1.9278946l1.371582 -5.406868l-1.1662903 -0.29543304l0.311203 -1.2267685l1.1662903 0.29543304l0.58781433 -2.3172379l1.8172913 -0.5551224l-0.8298645 3.2713776l1.605545 0.40670013l-0.311203 1.2267685l-1.605545 -0.4066925l-1.3946228 5.4977417q-0.16905212 0.66638947 -0.14326477 0.88246155q0.04093933 0.21990967 0.19195557 0.38711548q0.17001343 0.15589142 0.5335388 0.24797821q0.25749207 0.065223694 0.7121124 0.11590576zm1.2694855 -1.1452026l1.6367188 0.15670013q-0.11701965 0.96969604 0.35821533 1.6381073q0.4790802 0.6532669 1.5696411 0.92951965q1.0905457 0.27624512 1.7320862 -0.028678894q0.64541626 -0.320076 0.79907227 -0.92588806q0.13449097 -0.5300827 -0.25439453 -0.96707153q-0.26428223 -0.29261017 -1.486206 -0.9406204q-1.6417542 -0.8994293 -2.2426758 -1.3901367q-0.58576965 -0.4868698 -0.7919769 -1.1354904q-0.20237732 -0.66376495 -0.025650024 -1.3604507q0.15751648 -0.6209564 0.57977295 -1.0781403q0.42610168 -0.47233582 1.0142975 -0.6940613q0.43266296 -0.18053436 1.1149445 -0.20113373q0.7012329 -0.031906128 1.4282837 0.15225983q1.1057129 0.2800827 1.8580933 0.8091583q0.7523804 0.5290756 1.0078735 1.1740646q0.27062988 0.64881897 0.19158936 1.5959091l-1.6138916 -0.18315887q0.07839966 -0.75382996 -0.33285522 -1.2932053q-0.39611816 -0.5355377 -1.3200378 -0.769577q-1.1057129 -0.2800827 -1.6674805 -0.03553772q-0.5465851 0.24838257 -0.6695404 0.7330322q-0.076828 0.30290222 0.039611816 0.6064148q0.1315918 0.30735016 0.513443 0.5813751q0.20413208 0.14842987 1.2897644 0.7619095q1.5849915 0.86893463 2.1784363 1.3255081q0.5934448 0.45658112 0.83380127 1.0977325q0.24035645 0.6411514 0.03289795 1.458992q-0.20361328 0.80270386 -0.84988403 1.3804474q-0.63113403 0.5815811 -1.6095276 0.7528229q-0.97454834 0.15610504 -2.0802612 -0.12398529q-1.8175964 -0.46041107 -2.5948792 -1.4632263q-0.76213074 -0.9989853 -0.6392822 -2.563591z" fill-rule="nonzero"/><path fill="#cfe2f3" d="m706.105 84.002625l0 0c0 -22.674114 19.036743 -41.05512 42.519714 -41.05512c23.482971 0 42.519653 18.381004 42.519653 41.05512c0 22.674118 -19.036682 41.055115 -42.519653 41.055115c-23.482971 0 -42.519714 -18.380997 -42.519714 -41.055115z" fill-rule="evenodd"/><path fill="#a5b4c2" d="m730.5735 71.724106c0 -2.3618927 1.9829712 -4.276581 4.429138 -4.276581c2.446167 0 4.429138 1.9146881 4.429138 4.276581c0 2.361885 -1.9829712 4.276573 -4.429138 4.276573c-2.446167 0 -4.429138 -1.9146881 -4.429138 -4.276573m27.24408 0c0 -2.3618927 1.9830322 -4.276581 4.429138 -4.276581c2.446167 0 4.429138 1.9146881 4.429138 4.276581c0 2.361885 -1.9829712 4.276573 -4.429138 4.276573c-2.446106 0 -4.429138 -1.9146881 -4.429138 -4.276573" fill-rule="evenodd"/><path fill="#000000" fill-opacity="0.0" d="m725.57874 101.907036q23.04596 15.282356 46.038086 0" fill-rule="evenodd"/><path fill="#000000" fill-opacity="0.0" d="m706.105 84.002625l0 0c0 -22.674114 19.036743 -41.05512 42.519714 -41.05512c23.482971 0 42.519653 18.381004 42.519653 41.05512c0 22.674118 -19.036682 41.055115 -42.519653 41.055115c-23.482971 0 -42.519714 -18.380997 -42.519714 -41.055115z" fill-rule="evenodd"/><path stroke="#000000" stroke-width="1.0" stroke-linejoin="round" stroke-linecap="butt" d="m730.5735 71.724106c0 -2.3618927 1.9829712 -4.276581 4.429138 -4.276581c2.446167 0 4.429138 1.9146881 4.429138 4.276581c0 2.361885 -1.9829712 4.276573 -4.429138 4.276573c-2.446167 0 -4.429138 -1.9146881 -4.429138 -4.276573m27.24408 0c0 -2.3618927 1.9830322 -4.276581 4.429138 -4.276581c2.446167 0 4.429138 1.9146881 4.429138 4.276581c0 2.361885 -1.9829712 4.276573 -4.429138 4.276573c-2.446106 0 -4.429138 -1.9146881 -4.429138 -4.276573" fill-rule="evenodd"/><path stroke="#000000" stroke-width="1.0" stroke-linejoin="round" stroke-linecap="butt" d="m725.57874 101.907036q23.04596 15.282356 46.038086 0" fill-rule="evenodd"/><path stroke="#000000" stroke-width="1.0" stroke-linejoin="round" stroke-linecap="butt" d="m706.105 84.002625l0 0c0 -22.674114 19.036743 -41.05512 42.519714 -41.05512c23.482971 0 42.519653 18.381004 42.519653 41.05512c0 22.674118 -19.036682 41.055115 -42.519653 41.055115c-23.482971 0 -42.519714 -18.380997 -42.519714 -41.055115z" fill-rule="evenodd"/><path fill="#000000" fill-opacity="0.0" d="m721.2651 11.370079l113.700806 0l0 42.015747l-113.700806 0z" fill-rule="evenodd"/><path fill="#000000" d="m741.2338 33.602577l1.765625 0.453125q-0.5625 2.171875 -2.0 3.328125q-1.4375 1.140625 -3.53125 1.140625q-2.15625 0 -3.515625 -0.875q-1.34375 -0.890625 -2.0625 -2.546875q-0.703125 -1.671875 -0.703125 -3.59375q0 -2.078125 0.796875 -3.625q0.796875 -1.5625 2.265625 -2.359375q1.484375 -0.8125 3.25 -0.8125q2.0 0 3.359375 1.015625q1.375 1.015625 1.90625 2.875l-1.734375 0.40625q-0.46875 -1.453125 -1.359375 -2.109375q-0.875 -0.671875 -2.203125 -0.671875q-1.546875 0 -2.578125 0.734375q-1.03125 0.734375 -1.453125 1.984375q-0.421875 1.234375 -0.421875 2.5625q0 1.703125 0.5 2.96875q0.5 1.265625 1.546875 1.90625q1.046875 0.625 2.265625 0.625q1.484375 0 2.515625 -0.859375q1.03125 -0.859375 1.390625 -2.546875zm3.1292114 -0.15625q0 -2.6875 1.484375 -3.96875q1.25 -1.078125 3.046875 -1.078125q2.0 0 3.265625 1.3125q1.265625 1.296875 1.265625 3.609375q0 1.859375 -0.5625 2.9375q-0.5625 1.0625 -1.640625 1.65625q-1.0625 0.59375 -2.328125 0.59375q-2.03125 0 -3.28125 -1.296875q-1.25 -1.3125 -1.25 -3.765625zm1.6875 0q0 1.859375 0.796875 2.796875q0.8125 0.921875 2.046875 0.921875q1.21875 0 2.03125 -0.921875q0.8125 -0.9375 0.8125 -2.84375q0 -1.796875 -0.8125 -2.71875q-0.8125 -0.921875 -2.03125 -0.921875q-1.234375 0 -2.046875 0.921875q-0.796875 0.90625 -0.796875 2.765625zm8.688232 0q0 -2.6875 1.484375 -3.96875q1.25 -1.078125 3.046875 -1.078125q2.0 0 3.265625 1.3125q1.265625 1.296875 1.265625 3.609375q0 1.859375 -0.5625 2.9375q-0.5625 1.0625 -1.640625 1.65625q-1.0625 0.59375 -2.328125 0.59375q-2.03125 0 -3.28125 -1.296875q-1.25 -1.3125 -1.25 -3.765625zm1.6875 0q0 1.859375 0.796875 2.796875q0.8125 0.921875 2.046875 0.921875q1.21875 0 2.03125 -0.921875q0.8125 -0.9375 0.8125 -2.84375q0 -1.796875 -0.8125 -2.71875q-0.8125 -0.921875 -2.03125 -0.921875q-1.234375 0 -2.046875 0.921875q-0.796875 0.90625 -0.796875 2.765625zm9.297607 4.84375l0 -13.359375l1.640625 0l0 7.625l3.890625 -3.9375l2.109375 0l-3.6875 3.59375l4.0625 6.078125l-2.015625 0l-3.203125 -4.953125l-1.15625 1.125l0 3.828125l-1.640625 0z" fill-rule="nonzero"/><path fill="#000000" fill-opacity="0.0" d="m469.28217 125.05249l236.81891 -41.039368" fill-rule="evenodd"/><path stroke="#000000" stroke-width="1.0" stroke-linejoin="round" stroke-linecap="butt" d="m469.28217 125.05249l236.81891 -41.039368" fill-rule="evenodd"/><path fill="#000000" fill-opacity="0.0" d="m526.3972 76.16295l113.44879 -25.322838l9.165405 41.007874l-113.44885 25.322838z" fill-rule="evenodd"/><path fill="#000000" d="m542.4863 100.15416l-2.9139404 -13.037704l5.779663 -1.2900696q1.7384644 -0.38804626 2.7165527 -0.23815155q0.9934082 0.14648438 1.7282104 0.9270325q0.74664307 0.7618866 0.98864746 1.8445511q0.30670166 1.3723907 -0.3782959 2.5338898q-0.6884155 1.1462555 -2.5062256 1.8241577q0.76123047 0.18230438 1.1987915 0.42082977q0.90063477 0.5194092 1.8033447 1.4065552l3.0662842 3.045784l-2.1654663 0.48335266l-2.329834 -2.3296432q-1.0249023 -1.0039597 -1.649231 -1.5049896q-0.6277466 -0.5162735 -1.0787354 -0.6717529q-0.43920898 -0.1741333 -0.85614014 -0.17712402q-0.3067627 -0.0115737915 -0.9777832 0.13819885l-1.9976807 0.4459076l1.295044 5.7945404l-1.7232056 0.38463593zm0.09753418 -7.65831l3.7056885 -0.8271408q1.1895142 -0.26550293 1.7907104 -0.65584564q0.6130371 -0.4090042 0.8444824 -1.0210037q0.23144531 -0.6119919 0.09173584 -1.2371902q-0.20788574 -0.9301758 -1.0117798 -1.3751068q-0.8039551 -0.44493103 -2.2678833 -0.11816406l-4.1174316 0.9190521l0.96447754 4.315399zm18.610779 0.29655457l1.6912842 -0.16938782q-0.072753906 1.5371399 -0.94433594 2.5801926q-0.875 1.0278015 -2.5219727 1.3954239q-2.0739746 0.46292877 -3.5768433 -0.53041077q-1.4910278 -1.0119934 -2.0056152 -3.31456q-0.5350952 -2.3940582 0.39178467 -3.9777603q0.9421387 -1.5871124 2.894104 -2.0228043q1.8909302 -0.422081 3.3701172 0.60855865q1.4910278 1.0119934 2.0124512 3.3450546q0.034118652 0.15248871 0.095458984 0.4269638l-7.04541 1.5725937q0.43914795 1.5349503 1.4195557 2.1966324q0.9770508 0.64643097 2.1513062 0.38433838q0.88446045 -0.19742584 1.4074707 -0.79444885q0.5195923 -0.61227417 0.66064453 -1.700386zm-5.840576 -1.4179535l5.276428 -1.177742q-0.37261963 -1.1655807 -1.008728 -1.6479492q-0.97039795 -0.7599869 -2.1903687 -0.4876709q-1.0980225 0.24507904 -1.6934814 1.1624603q-0.58361816 0.89873505 -0.3838501 2.1509018zm15.56665 -1.201271l1.6184082 -0.13711548q0.10205078 1.6742401 -0.75756836 2.842682q-0.8477173 1.1497955 -2.4031982 1.496994q-1.9367065 0.43228912 -3.3937988 -0.57125854q-1.4570923 -1.0035477 -1.9853516 -3.3671112q-0.34423828 -1.540123 -0.09661865 -2.796112q0.24761963 -1.2559814 1.1585083 -2.051651q0.9074707 -0.8109207 2.1274414 -1.0832291q1.5402222 -0.34379578 2.6900635 0.21604156q1.1497803 0.559845 1.7446289 1.931961l-1.5043335 0.57592773q-0.44006348 -0.89437103 -1.1099854 -1.2411346q-0.6732788 -0.3620224 -1.4662476 -0.18502045q-1.2047119 0.26890564 -1.7729492 1.308281q-0.5682373 1.0393753 -0.14904785 2.914978q0.4260254 1.9060974 1.3522949 2.6118927q0.92285156 0.6905441 2.097046 0.4284439q0.9454956 -0.21104431 1.4412231 -0.9300537q0.5109863 -0.72241974 0.40948486 -1.9645157zm9.504517 -1.6732254l1.6912842 -0.16938782q-0.072753906 1.5371399 -0.94433594 2.5801926q-0.875 1.0278015 -2.5219727 1.3954239q-2.0739746 0.46292114 -3.5768433 -0.53041077q-1.4909668 -1.0119934 -2.0056152 -3.31456q-0.5350952 -2.3940582 0.39178467 -3.9777603q0.9421387 -1.5871124 2.894104 -2.022812q1.8909912 -0.422081 3.3701172 0.6085663q1.4910278 1.0119934 2.0124512 3.3450546q0.034118652 0.15248871 0.095458984 0.4269638l-7.045349 1.5725937q0.4390869 1.5349503 1.4195557 2.1966324q0.97698975 0.64643097 2.151245 0.38433075q0.88446045 -0.19741821 1.4074707 -0.7944412q0.5195923 -0.61227417 0.66064453 -1.700386zm-5.840515 -1.4179535l5.276367 -1.177742q-0.3725586 -1.1655807 -1.008728 -1.6479568q-0.97039795 -0.75997925 -2.1903687 -0.4876709q-1.0979614 0.24508667 -1.6934814 1.162468q-0.58361816 0.8987274 -0.38378906 2.1509018zm7.6777954 -7.557228l-0.41241455 -1.845108l1.6012573 -0.35740662l0.41235352 1.8451004l-1.6011963 0.35741425zm2.501587 11.192596l-2.1096802 -9.438988l1.6012573 -0.35740662l2.1096191 9.438988l-1.6011963 0.35740662zm6.668213 -1.4884033l-5.708557 -8.635681l1.692688 -0.3778305l3.2926636 5.204582q0.52471924 0.8434448 1.0325928 1.7546921q0.03125 -0.7914429 0.19598389 -1.9168625l0.8009033 -6.2303696l1.6469727 -0.36761475l-1.4588013 10.2354965l-1.4944458 0.33358765zm12.268799 -5.924408l1.6912842 -0.16938019q-0.072753906 1.5371323 -0.94433594 2.580185q-0.875 1.0278015 -2.5219727 1.3954239q-2.0739746 0.46292877 -3.5768433 -0.53041077q-1.4909668 -1.0119934 -2.0056152 -3.3145523q-0.5350952 -2.3940582 0.39178467 -3.977768q0.9421387 -1.5871124 2.894104 -2.0228043q1.8909912 -0.422081 3.3701172 0.60855865q1.4910278 1.0119934 2.0125122 3.3450546q0.034057617 0.15248871 0.09539795 0.4269638l-7.045349 1.5725937q0.4390869 1.5349579 1.4195557 2.1966324q0.97698975 0.6464386 2.151245 0.38433838q0.88446045 -0.19742584 1.4074707 -0.79444885q0.5195923 -0.61227417 0.66064453 -1.700386zm-5.840515 -1.4179535l5.276367 -1.177742q-0.3725586 -1.1655731 -1.008728 -1.6479492q-0.97039795 -0.75997925 -2.1903687 -0.4876709q-1.0979614 0.24507904 -1.6934814 1.1624603q-0.58361816 0.89873505 -0.38378906 2.1509018zm8.908386 0.95731354l1.5314331 -0.5979843q0.333313 0.91819 1.0591431 1.300499q0.72247314 0.36705017 1.8204346 0.12197113q1.0980225 -0.24507904 1.532898 -0.806427q0.43151855 -0.5765991 0.29516602 -1.186554q-0.119262695 -0.53370667 -0.6635742 -0.74840546q-0.36798096 -0.14200592 -1.7510376 -0.16949463q-1.8712158 -0.06261444 -2.6289673 -0.22966003q-0.74261475 -0.17045593 -1.2194214 -0.6563721q-0.48028564 -0.5011673 -0.6370239 -1.2026062q-0.13977051 -0.625206 0.030700684 -1.223587q0.16705322 -0.6136246 0.59191895 -1.0766754q0.30462646 -0.35617065 0.90423584 -0.6821213q0.6114502 -0.34459686 1.3434448 -0.507988q1.1132202 -0.24848175 2.0234985 -0.115470886q0.91033936 0.13301086 1.4295044 0.5934677q0.5344238 0.4570465 0.89141846 1.3379364l-1.5230103 0.5640869q-0.2703247 -0.7081146 -0.8808594 -1.0041046q-0.5952759 -0.29938507 -1.5254517 -0.0917511q-1.1132812 0.24848175 -1.5042114 0.71997833q-0.3756714 0.46808624 -0.26660156 0.95604706q0.068115234 0.3049698 0.30908203 0.5233536q0.25616455 0.21498108 0.7206421 0.28740692q0.24920654 0.04043579 1.4949951 0.09856415q1.8068237 0.06097412 2.5425415 0.20093536q0.7357788 0.13995361 1.239685 0.6038132q0.5039673 0.46385956 0.6879883 1.2872925q0.18060303 0.8081894 -0.13531494 1.6151505q-0.3007202 0.80355835 -1.0966187 1.3974533q-0.7992554 0.5786438 -1.9124756 0.82712555q-1.8300171 0.40847015 -2.9763794 -0.13612366q-1.1311646 -0.5479965 -1.7277832 -1.9997559z" fill-rule="nonzero"/><path fill="#cfe2f3" d="m370.10498 387.1942l0 0c0 -21.995697 31.530426 -39.82675 70.4252 -39.82675l0 0c38.894775 0 70.4252 17.831055 70.4252 39.82675l0 0c0 21.995728 -31.530426 39.826782 -70.4252 39.826782l0 0c-38.894775 0 -70.4252 -17.831055 -70.4252 -39.826782z" fill-rule="evenodd"/><path stroke="#000000" stroke-width="1.0" stroke-linejoin="round" stroke-linecap="butt" d="m370.10498 387.1942l0 0c0 -21.995697 31.530426 -39.82675 70.4252 -39.82675l0 0c38.894775 0 70.4252 17.831055 70.4252 39.82675l0 0c0 21.995728 -31.530426 39.826782 -70.4252 39.826782l0 0c-38.894775 0 -70.4252 -17.831055 -70.4252 -39.826782z" fill-rule="evenodd"/><path fill="#000000" fill-opacity="0.0" d="m405.1601 366.18634l70.74017 0l0 42.015747l-70.74017 0z" fill-rule="evenodd"/><path fill="#000000" d="m415.69135 393.10635l0 -13.359375l9.015625 0l0 1.578125l-7.25 0l0 4.140625l6.265625 0l0 1.578125l-6.265625 0l0 6.0625l-1.765625 0zm10.489746 -4.84375q0 -2.6875 1.484375 -3.96875q1.25 -1.078125 3.046875 -1.078125q2.0 0 3.265625 1.3125q1.265625 1.296875 1.265625 3.609375q0 1.859375 -0.5625 2.9375q-0.5625 1.0625 -1.640625 1.65625q-1.0625 0.59375 -2.328125 0.59375q-2.03125 0 -3.28125 -1.296875q-1.25 -1.3125 -1.25 -3.765625zm1.6875 0q0 1.859375 0.796875 2.796875q0.8125 0.921875 2.046875 0.921875q1.21875 0 2.03125 -0.921875q0.8125 -0.9375 0.8125 -2.84375q0 -1.796875 -0.8125 -2.71875q-0.8125 -0.921875 -2.03125 -0.921875q-1.234375 0 -2.046875 0.921875q-0.796875 0.90625 -0.796875 2.765625zm8.688202 0q0 -2.6875 1.484375 -3.96875q1.25 -1.078125 3.046875 -1.078125q2.0 0 3.265625 1.3125q1.265625 1.296875 1.265625 3.609375q0 1.859375 -0.5625 2.9375q-0.5625 1.0625 -1.640625 1.65625q-1.0625 0.59375 -2.328125 0.59375q-2.03125 0 -3.28125 -1.296875q-1.25 -1.3125 -1.25 -3.765625zm1.6875 0q0 1.859375 0.796875 2.796875q0.8125 0.921875 2.046875 0.921875q1.21875 0 2.03125 -0.921875q0.8125 -0.9375 0.8125 -2.84375q0 -1.796875 -0.8125 -2.71875q-0.8125 -0.921875 -2.03125 -0.921875q-1.234375 0 -2.046875 0.921875q-0.796875 0.90625 -0.796875 2.765625zm15.563232 4.84375l0 -1.21875q-0.90625 1.4375 -2.703125 1.4375q-1.15625 0 -2.125 -0.640625q-0.96875 -0.640625 -1.5 -1.78125q-0.53125 -1.140625 -0.53125 -2.625q0 -1.453125 0.484375 -2.625q0.484375 -1.1875 1.4375 -1.8125q0.96875 -0.625 2.171875 -0.625q0.875 0 1.546875 0.375q0.6875 0.359375 1.109375 0.953125l0 -4.796875l1.640625 0l0 13.359375l-1.53125 0zm-5.171875 -4.828125q0 1.859375 0.78125 2.78125q0.78125 0.921875 1.84375 0.921875q1.078125 0 1.828125 -0.875q0.75 -0.890625 0.75 -2.6875q0 -1.984375 -0.765625 -2.90625q-0.765625 -0.9375 -1.890625 -0.9375q-1.078125 0 -1.8125 0.890625q-0.734375 0.890625 -0.734375 2.8125z" fill-rule="nonzero"/><path fill="#cfe2f3" d="m713.6798 507.78217l0 0c0 -19.882263 19.036682 -36.0 42.519653 -36.0c23.482971 0 42.519714 16.117737 42.519714 36.0c0 19.882263 -19.036743 36.0 -42.519714 36.0c-23.482971 0 -42.519653 -16.117737 -42.519653 -36.0z" fill-rule="evenodd"/><path fill="#a5b4c2" d="m738.1483 497.01547c0 -2.071045 1.9829712 -3.75 4.429138 -3.75c2.446106 0 4.429138 1.6789551 4.429138 3.75c0 2.0710754 -1.9830322 3.75 -4.429138 3.75c-2.446167 0 -4.429138 -1.6789246 -4.429138 -3.75m27.24408 0c0 -2.071045 1.9829712 -3.75 4.429138 -3.75c2.446106 0 4.429138 1.6789551 4.429138 3.75c0 2.0710754 -1.9830322 3.75 -4.429138 3.75c-2.446167 0 -4.429138 -1.6789246 -4.429138 -3.75" fill-rule="evenodd"/><path fill="#000000" fill-opacity="0.0" d="m733.1535 523.482q23.04596 13.400635 46.038086 0" fill-rule="evenodd"/><path fill="#000000" fill-opacity="0.0" d="m713.6798 507.78217l0 0c0 -19.882263 19.036682 -36.0 42.519653 -36.0c23.482971 0 42.519714 16.117737 42.519714 36.0c0 19.882263 -19.036743 36.0 -42.519714 36.0c-23.482971 0 -42.519653 -16.117737 -42.519653 -36.0z" fill-rule="evenodd"/><path stroke="#000000" stroke-width="1.0" stroke-linejoin="round" stroke-linecap="butt" d="m738.1483 497.01547c0 -2.071045 1.9829712 -3.75 4.429138 -3.75c2.446106 0 4.429138 1.6789551 4.429138 3.75c0 2.0710754 -1.9830322 3.75 -4.429138 3.75c-2.446167 0 -4.429138 -1.6789246 -4.429138 -3.75m27.24408 0c0 -2.071045 1.9829712 -3.75 4.429138 -3.75c2.446106 0 4.429138 1.6789551 4.429138 3.75c0 2.0710754 -1.9830322 3.75 -4.429138 3.75c-2.446167 0 -4.429138 -1.6789246 -4.429138 -3.75" fill-rule="evenodd"/><path stroke="#000000" stroke-width="1.0" stroke-linejoin="round" stroke-linecap="butt" d="m733.1535 523.482q23.04596 13.400635 46.038086 0" fill-rule="evenodd"/><path stroke="#000000" stroke-width="1.0" stroke-linejoin="round" stroke-linecap="butt" d="m713.6798 507.78217l0 0c0 -19.882263 19.036682 -36.0 42.519653 -36.0c23.482971 0 42.519714 16.117737 42.519714 36.0c0 19.882263 -19.036743 36.0 -42.519714 36.0c-23.482971 0 -42.519653 -16.117737 -42.519653 -36.0z" fill-rule="evenodd"/><path fill="#000000" fill-opacity="0.0" d="m748.6247 125.05774l7.590515 346.74017" fill-rule="evenodd"/><path stroke="#000000" stroke-width="1.0" stroke-linejoin="round" stroke-linecap="butt" d="m748.6247 125.05774l7.590515 346.74017" fill-rule="evenodd"/><path fill="#000000" fill-opacity="0.0" d="m713.6798 507.78217l-606.29926 -3.1496277" fill-rule="evenodd"/><path stroke="#000000" stroke-width="1.0" stroke-linejoin="round" stroke-linecap="butt" d="m713.6798 507.78217l-606.29926 -3.1496277" fill-rule="evenodd"/><path fill="#000000" fill-opacity="0.0" d="m757.1076 385.25723l0 -193.25986l42.015747 0l0 193.25986z" fill-rule="evenodd"/><path fill="#000000" d="m784.0276 374.8666l-13.359375 0l0 -2.65625l9.453125 -3.15625q1.328125 -0.4375 1.984375 -0.640625q-0.734375 -0.234375 -2.140625 -0.703125l-9.296875 -3.203125l0 -2.375l13.359375 0l0 1.703125l-11.171875 0l11.171875 3.875l0 1.59375l-11.375 3.859375l11.375 0l0 1.703125zm-1.1875 -21.697052q0.765625 0.921875 1.09375 1.765625q0.3125 0.828125 0.3125 1.796875q0 1.59375 -0.78125 2.453125q-0.78125 0.859375 -1.984375 0.859375q-0.71875 0 -1.296875 -0.328125q-0.59375 -0.328125 -0.9375 -0.84375q-0.359375 -0.53125 -0.546875 -1.1875q-0.125 -0.46875 -0.25 -1.453125q-0.234375 -1.984375 -0.5625 -2.921875q-0.34375 -0.015625 -0.421875 -0.015625q-1.0 0 -1.421875 0.46875q-0.546875 0.625 -0.546875 1.875q0 1.15625 0.40625 1.703125q0.40625 0.546875 1.421875 0.8125l-0.21875 1.609375q-1.015625 -0.21875 -1.640625 -0.71875q-0.640625 -0.5 -0.984375 -1.453125q-0.34375 -0.953125 -0.34375 -2.1875q0 -1.25 0.296875 -2.015625q0.28125 -0.78125 0.734375 -1.140625q0.4375 -0.375 1.109375 -0.515625q0.421875 -0.078125 1.515625 -0.078125l2.1875 0q2.28125 0 2.890625 -0.109375q0.59375 -0.109375 1.15625 -0.40625l0 1.703125q-0.515625 0.265625 -1.1875 0.328125zm-3.671875 0.140625q0.375 0.890625 0.625 2.671875q0.140625 1.015625 0.328125 1.4375q0.1875 0.421875 0.53125 0.65625q0.34375 0.21875 0.78125 0.21875q0.65625 0 1.09375 -0.5q0.4375 -0.5 0.4375 -1.453125q0 -0.9375 -0.40625 -1.671875q-0.421875 -0.75 -1.140625 -1.09375q-0.5625 -0.265625 -1.640625 -0.265625l-0.609375 0zm4.859375 -4.2038574l-9.671875 0l0 -1.46875l1.375 0q-1.59375 -1.0625 -1.59375 -3.078125q0 -0.875 0.3125 -1.609375q0.3125 -0.734375 0.828125 -1.09375q0.5 -0.375 1.203125 -0.515625q0.453125 -0.09375 1.59375 -0.09375l5.953125 0l0 1.640625l-5.890625 0q-1.0 0 -1.484375 0.203125q-0.5 0.1875 -0.796875 0.671875q-0.296875 0.484375 -0.296875 1.140625q0 1.046875 0.671875 1.8125q0.65625 0.75 2.515625 0.75l5.28125 0l0 1.640625zm-1.1875 -16.688202q0.765625 0.921875 1.09375 1.765625q0.3125 0.828125 0.3125 1.796875q0 1.59375 -0.78125 2.453125q-0.78125 0.859375 -1.984375 0.859375q-0.71875 0 -1.296875 -0.328125q-0.59375 -0.328125 -0.9375 -0.84375q-0.359375 -0.53125 -0.546875 -1.1875q-0.125 -0.46875 -0.25 -1.453125q-0.234375 -1.984375 -0.5625 -2.921875q-0.34375 -0.015625 -0.421875 -0.015625q-1.0 0 -1.421875 0.46875q-0.546875 0.625 -0.546875 1.875q0 1.15625 0.40625 1.703125q0.40625 0.546875 1.421875 0.8125l-0.21875 1.609375q-1.015625 -0.21875 -1.640625 -0.71875q-0.640625 -0.5 -0.984375 -1.453125q-0.34375 -0.953125 -0.34375 -2.1875q0 -1.25 0.296875 -2.015625q0.28125 -0.78125 0.734375 -1.140625q0.4375 -0.375 1.109375 -0.515625q0.421875 -0.078125 1.515625 -0.078125l2.1875 0q2.28125 0 2.890625 -0.109375q0.59375 -0.109375 1.15625 -0.40625l0 1.703125q-0.515625 0.265625 -1.1875 0.328125zm-3.671875 0.140625q0.375 0.890625 0.625 2.671875q0.140625 1.015625 0.328125 1.4375q0.1875 0.421875 0.53125 0.65625q0.34375 0.21875 0.78125 0.21875q0.65625 0 1.09375 -0.5q0.4375 -0.5 0.4375 -1.453125q0 -0.9375 -0.40625 -1.671875q-0.421875 -0.75 -1.140625 -1.09375q-0.5625 -0.265625 -1.640625 -0.265625l-0.609375 0zm5.65625 -3.8913574l0.234375 -1.59375q0.75 -0.109375 1.078125 -0.5625q0.453125 -0.609375 0.453125 -1.671875q0 -1.140625 -0.453125 -1.75q-0.453125 -0.625 -1.265625 -0.84375q-0.5 -0.125 -2.109375 -0.109375q1.265625 1.0625 1.265625 2.671875q0 2.0 -1.4375 3.09375q-1.4375 1.09375 -3.453125 1.09375q-1.390625 0 -2.5625 -0.5q-1.171875 -0.515625 -1.796875 -1.453125q-0.640625 -0.953125 -0.640625 -2.25q0 -1.703125 1.375 -2.8125l-1.15625 0l0 -1.515625l8.359375 0q2.265625 0 3.203125 0.46875q0.9375 0.453125 1.484375 1.453125q0.546875 0.984375 0.546875 2.453125q0 1.71875 -0.78125 2.796875q-0.765625 1.0625 -2.34375 1.03125zm-5.8125 -1.359375q1.90625 0 2.78125 -0.75q0.875 -0.765625 0.875 -1.90625q0 -1.125 -0.859375 -1.890625q-0.875 -0.765625 -2.734375 -0.765625q-1.78125 0 -2.671875 0.796875q-0.90625 0.78125 -0.90625 1.890625q0 1.09375 0.890625 1.859375q0.875 0.765625 2.625 0.765625zm1.90625 -15.953827l0.203125 -1.6875q1.484375 0.40625 2.3125 1.484375q0.8125 1.078125 0.8125 2.765625q0 2.125 -1.296875 3.375q-1.3125 1.234375 -3.671875 1.234375q-2.453125 0 -3.796875 -1.25q-1.34375 -1.265625 -1.34375 -3.265625q0 -1.9375 1.328125 -3.15625q1.3125 -1.234375 3.703125 -1.234375q0.15625 0 0.4375 0l0 7.21875q1.59375 -0.09375 2.453125 -0.90625q0.84375 -0.8125 0.84375 -2.015625q0 -0.90625 -0.46875 -1.546875q-0.484375 -0.640625 -1.515625 -1.015625zm-2.65625 5.390625l0 -5.40625q-1.21875 0.109375 -1.828125 0.625q-0.953125 0.78125 -0.953125 2.03125q0 1.125 0.765625 1.90625q0.75 0.765625 2.015625 0.84375zm2.875 -8.485107l-0.25 -1.625q0.96875 -0.125 1.5 -0.75q0.515625 -0.625 0.515625 -1.75q0 -1.125 -0.453125 -1.671875q-0.46875 -0.546875 -1.09375 -0.546875q-0.546875 0 -0.875 0.484375q-0.21875 0.328125 -0.546875 1.671875q-0.46875 1.8125 -0.796875 2.515625q-0.328125 0.6875 -0.90625 1.046875q-0.59375 0.359375 -1.3125 0.359375q-0.640625 0 -1.1875 -0.296875q-0.5625 -0.296875 -0.921875 -0.8125q-0.28125 -0.375 -0.46875 -1.03125q-0.203125 -0.671875 -0.203125 -1.421875q0 -1.140625 0.328125 -2.0q0.328125 -0.859375 0.890625 -1.265625q0.5625 -0.421875 1.5 -0.578125l0.21875 1.609375q-0.75 0.109375 -1.171875 0.640625q-0.421875 0.515625 -0.421875 1.46875q0 1.140625 0.375 1.625q0.375 0.46875 0.875 0.46875q0.3125 0 0.578125 -0.1875q0.265625 -0.203125 0.4375 -0.640625q0.09375 -0.234375 0.421875 -1.4375q0.453125 -1.75 0.75 -2.4375q0.296875 -0.6875 0.859375 -1.078125q0.5625 -0.390625 1.40625 -0.390625q0.828125 0 1.546875 0.484375q0.71875 0.46875 1.125 1.375q0.390625 0.90625 0.390625 2.046875q0 1.875 -0.78125 2.875q-0.78125 0.984375 -2.328125 1.25zm-0.21875 -21.792664l0.203125 -1.6875q1.484375 0.40625 2.3125 1.484375q0.8125 1.078125 0.8125 2.765625q0 2.125 -1.296875 3.375q-1.3125 1.234375 -3.671875 1.234375q-2.453125 0 -3.796875 -1.25q-1.34375 -1.265625 -1.34375 -3.265625q0 -1.9375 1.328125 -3.15625q1.3125 -1.234375 3.703125 -1.234375q0.15625 0 0.4375 0l0 7.21875q1.59375 -0.09375 2.453125 -0.90625q0.84375 -0.8125 0.84375 -2.015625q0 -0.90625 -0.46875 -1.546875q-0.484375 -0.640625 -1.515625 -1.015625zm-2.65625 5.390625l0 -5.40625q-1.21875 0.109375 -1.828125 0.625q-0.953125 0.78125 -0.953125 2.03125q0 1.125 0.765625 1.90625q0.75 0.765625 2.015625 0.84375zm5.765625 -9.141357l-9.671875 0l0 -1.46875l1.359375 0q-0.71875 -0.453125 -1.140625 -1.203125q-0.4375 -0.765625 -0.4375 -1.71875q0 -1.078125 0.453125 -1.765625q0.4375 -0.6875 1.234375 -0.96875q-1.6875 -1.15625 -1.6875 -2.984375q0 -1.453125 0.796875 -2.21875q0.796875 -0.78125 2.453125 -0.78125l6.640625 0l0 1.640625l-6.09375 0q-0.984375 0 -1.40625 0.15625q-0.4375 0.15625 -0.703125 0.578125q-0.265625 0.421875 -0.265625 0.984375q0 1.015625 0.6875 1.6875q0.671875 0.671875 2.15625 0.671875l5.625 0l0 1.640625l-6.28125 0q-1.09375 0 -1.640625 0.40625q-0.546875 0.40625 -0.546875 1.3125q0 0.6875 0.359375 1.28125q0.359375 0.59375 1.0625 0.859375q0.703125 0.25 2.03125 0.25l5.015625 0l0 1.640625zm3.703125 -15.540802l-13.375 0l0 -1.484375l1.25 0q-0.734375 -0.53125 -1.09375 -1.1875q-0.375 -0.671875 -0.375 -1.625q0 -1.234375 0.640625 -2.171875q0.625 -0.953125 1.796875 -1.4375q1.15625 -0.484375 2.546875 -0.484375q1.484375 0 2.671875 0.53125q1.1875 0.53125 1.828125 1.546875q0.625 1.015625 0.625 2.140625q0 0.8125 -0.34375 1.46875q-0.34375 0.65625 -0.875 1.0625l4.703125 0l0 1.640625zm-8.484375 -1.484375q1.859375 0 2.765625 -0.75q0.890625 -0.765625 0.890625 -1.828125q0 -1.09375 -0.921875 -1.875q-0.9375 -0.78125 -2.875 -0.78125q-1.84375 0 -2.765625 0.765625q-0.921875 0.75 -0.921875 1.8125q0 1.046875 0.984375 1.859375q0.96875 0.796875 2.84375 0.796875zm4.78125 -8.844452l-13.359375 0l0 -1.6406403l13.359375 0l0 1.6406403zm-4.84375 -3.5823364q-2.6875 0 -3.96875 -1.484375q-1.078125 -1.25 -1.078125 -3.046875q0 -2.0 1.3125 -3.265625q1.296875 -1.265625 3.609375 -1.265625q1.859375 0 2.9375 0.5625q1.0625 0.5625 1.65625 1.640625q0.59375 1.0625 0.59375 2.328125q0 2.03125 -1.296875 3.28125q-1.3125 1.25 -3.765625 1.25zm0 -1.6875q1.859375 0 2.796875 -0.796875q0.921875 -0.8125 0.921875 -2.046875q0 -1.21875 -0.921875 -2.03125q-0.9375 -0.8125 -2.84375 -0.8125q-1.796875 0 -2.71875 0.8125q-0.921875 0.8125 -0.921875 2.03125q0 1.234375 0.921875 2.046875q0.90625 0.796875 2.765625 0.796875zm8.5625 -9.219467l-1.53125 0.1875q0.140625 -0.546875 0.140625 -0.9375q0 -0.546875 -0.1875 -0.875q-0.171875 -0.328125 -0.5 -0.546875q-0.25 -0.15625 -1.21875 -0.5q-0.140625 -0.046875 -0.40625 -0.140625l-9.6875 3.671875l0 -1.765625l5.59375 -2.015625q1.078125 -0.390625 2.25 -0.703125q-1.125 -0.28125 -2.203125 -0.671875l-5.640625 -2.078125l0 -1.640625l9.828125 3.6875q1.609375 0.59375 2.203125 0.921875q0.8125 0.4375 1.1875 1.0q0.375 0.5625 0.375 1.34375q0 0.484375 -0.203125 1.0625zm-6.828125 -16.03125l0.203125 -1.6875q1.484375 0.40625 2.3125 1.484375q0.8125 1.078125 0.8125 2.765625q0 2.125 -1.296875 3.375q-1.3125 1.234375 -3.671875 1.234375q-2.453125 0 -3.796875 -1.25q-1.34375 -1.265625 -1.34375 -3.265625q0 -1.9375 1.328125 -3.15625q1.3125 -1.234375 3.703125 -1.234375q0.15625 0 0.4375 0l0 7.21875q1.59375 -0.09375 2.453125 -0.90625q0.84375 -0.8125 0.84375 -2.015625q0 -0.90625 -0.46875 -1.546875q-0.484375 -0.640625 -1.515625 -1.015625zm-2.65625 5.390625l0 -5.40625q-1.21875 0.109375 -1.828125 0.625q-0.953125 0.78125 -0.953125 2.03125q0 1.125 0.765625 1.90625q0.75 0.765625 2.015625 0.84375zm2.65625 -15.766342l0.203125 -1.6875q1.484375 0.40625 2.3125 1.484375q0.8125 1.078125 0.8125 2.765625q0 2.125 -1.296875 3.375q-1.3125 1.234375 -3.671875 1.234375q-2.453125 0 -3.796875 -1.25q-1.34375 -1.265625 -1.34375 -3.265625q0 -1.9375 1.328125 -3.15625q1.3125 -1.234375 3.703125 -1.234375q0.15625 0 0.4375 0l0 7.21875q1.59375 -0.09375 2.453125 -0.90625q0.84375 -0.8125 0.84375 -2.015625q0 -0.90625 -0.46875 -1.546875q-0.484375 -0.640625 -1.515625 -1.015625zm-2.65625 5.390625l0 -5.40625q-1.21875 0.109375 -1.828125 0.625q-0.953125 0.78125 -0.953125 2.03125q0 1.125 0.765625 1.90625q0.75 0.765625 2.015625 0.84375z" fill-rule="nonzero"/><path fill="#000000" fill-opacity="0.0" d="m291.5958 507.78217l262.74014 0l0 42.015747l-262.74014 0z" fill-rule="evenodd"/><path fill="#000000" d="m301.98642 534.70215l0 -13.359375l2.65625 0l3.15625 9.453125q0.4375 1.328125 0.640625 1.984375q0.234375 -0.734375 0.703125 -2.140625l3.203125 -9.296875l2.375 0l0 13.359375l-1.703125 0l0 -11.171875l-3.875 11.171875l-1.59375 0l-3.859375 -11.375l0 11.375l-1.703125 0zm21.697052 -1.1875q-0.921875 0.765625 -1.765625 1.09375q-0.828125 0.3125 -1.796875 0.3125q-1.59375 0 -2.453125 -0.78125q-0.859375 -0.78125 -0.859375 -1.984375q0 -0.71875 0.328125 -1.296875q0.328125 -0.59375 0.84375 -0.9375q0.53125 -0.359375 1.1875 -0.546875q0.46875 -0.125 1.453125 -0.25q1.984375 -0.234375 2.921875 -0.5625q0.015625 -0.34375 0.015625 -0.421875q0 -1.0 -0.46875 -1.421875q-0.625 -0.546875 -1.875 -0.546875q-1.15625 0 -1.703125 0.40625q-0.546875 0.40625 -0.8125 1.421875l-1.609375 -0.21875q0.21875 -1.015625 0.71875 -1.640625q0.5 -0.640625 1.453125 -0.984375q0.953125 -0.34375 2.1875 -0.34375q1.25 0 2.015625 0.296875q0.78125 0.28125 1.140625 0.734375q0.375 0.4375 0.515625 1.109375q0.078125 0.421875 0.078125 1.515625l0 2.1875q0 2.28125 0.109375 2.890625q0.109375 0.59375 0.40625 1.15625l-1.703125 0q-0.265625 -0.515625 -0.328125 -1.1875zm-0.140625 -3.671875q-0.890625 0.375 -2.671875 0.625q-1.015625 0.140625 -1.4375 0.328125q-0.421875 0.1875 -0.65625 0.53125q-0.21875 0.34375 -0.21875 0.78125q0 0.65625 0.5 1.09375q0.5 0.4375 1.453125 0.4375q0.9375 0 1.671875 -0.40625q0.75 -0.421875 1.09375 -1.140625q0.265625 -0.5625 0.265625 -1.640625l0 -0.609375zm4.2038574 4.859375l0 -9.671875l1.46875 0l0 1.375q1.0625 -1.59375 3.078125 -1.59375q0.875 0 1.609375 0.3125q0.734375 0.3125 1.09375 0.828125q0.375 0.5 0.515625 1.203125q0.09375 0.453125 0.09375 1.59375l0 5.953125l-1.640625 0l0 -5.890625q0 -1.0 -0.203125 -1.484375q-0.1875 -0.5 -0.671875 -0.796875q-0.484375 -0.296875 -1.140625 -0.296875q-1.046875 0 -1.8125 0.671875q-0.75 0.65625 -0.75 2.515625l0 5.28125l-1.640625 0zm16.688202 -1.1875q-0.921875 0.765625 -1.765625 1.09375q-0.828125 0.3125 -1.796875 0.3125q-1.59375 0 -2.453125 -0.78125q-0.859375 -0.78125 -0.859375 -1.984375q0 -0.71875 0.328125 -1.296875q0.328125 -0.59375 0.84375 -0.9375q0.53125 -0.359375 1.1875 -0.546875q0.46875 -0.125 1.453125 -0.25q1.984375 -0.234375 2.921875 -0.5625q0.015625 -0.34375 0.015625 -0.421875q0 -1.0 -0.46875 -1.421875q-0.625 -0.546875 -1.875 -0.546875q-1.15625 0 -1.703125 0.40625q-0.546875 0.40625 -0.8125 1.421875l-1.609375 -0.21875q0.21875 -1.015625 0.71875 -1.640625q0.5 -0.640625 1.453125 -0.984375q0.953125 -0.34375 2.1875 -0.34375q1.25 0 2.015625 0.296875q0.78125 0.28125 1.140625 0.734375q0.375 0.4375 0.515625 1.109375q0.078125 0.421875 0.078125 1.515625l0 2.1875q0 2.28125 0.109375 2.890625q0.109375 0.59375 0.40625 1.15625l-1.703125 0q-0.265625 -0.515625 -0.328125 -1.1875zm-0.140625 -3.671875q-0.890625 0.375 -2.671875 0.625q-1.015625 0.140625 -1.4375 0.328125q-0.421875 0.1875 -0.65625 0.53125q-0.21875 0.34375 -0.21875 0.78125q0 0.65625 0.5 1.09375q0.5 0.4375 1.453125 0.4375q0.9375 0 1.671875 -0.40625q0.75 -0.421875 1.09375 -1.140625q0.265625 -0.5625 0.265625 -1.640625l0 -0.609375zm3.8913574 5.65625l1.59375 0.234375q0.109375 0.75 0.5625 1.078125q0.609375 0.453125 1.671875 0.453125q1.140625 0 1.75 -0.453125q0.625 -0.453125 0.84375 -1.265625q0.125 -0.5 0.109375 -2.109375q-1.0625 1.265625 -2.671875 1.265625q-2.0 0 -3.09375 -1.4375q-1.09375 -1.4375 -1.09375 -3.453125q0 -1.390625 0.5 -2.5625q0.515625 -1.171875 1.453125 -1.796875q0.953125 -0.640625 2.25 -0.640625q1.703125 0 2.8125 1.375l0 -1.15625l1.515625 0l0 8.359375q0 2.265625 -0.46875 3.203125q-0.453125 0.9375 -1.453125 1.484375q-0.984375 0.546875 -2.453125 0.546875q-1.71875 0 -2.796875 -0.78125q-1.0625 -0.765625 -1.03125 -2.34375zm1.359375 -5.8125q0 1.90625 0.75 2.78125q0.765625 0.875 1.90625 0.875q1.125 0 1.890625 -0.859375q0.765625 -0.875 0.765625 -2.734375q0 -1.78125 -0.796875 -2.671875q-0.78125 -0.90625 -1.890625 -0.90625q-1.09375 0 -1.859375 0.890625q-0.765625 0.875 -0.765625 2.625zm15.953827 1.90625l1.6875 0.203125q-0.40625 1.484375 -1.484375 2.3125q-1.078125 0.8125 -2.765625 0.8125q-2.125 0 -3.375 -1.296875q-1.234375 -1.3125 -1.234375 -3.671875q0 -2.453125 1.25 -3.796875q1.265625 -1.34375 3.265625 -1.34375q1.9375 0 3.15625 1.328125q1.234375 1.3125 1.234375 3.703125q0 0.15625 0 0.4375l-7.21875 0q0.09375 1.59375 0.90625 2.453125q0.8125 0.84375 2.015625 0.84375q0.90625 0 1.546875 -0.46875q0.640625 -0.484375 1.015625 -1.515625zm-5.390625 -2.65625l5.40625 0q-0.109375 -1.21875 -0.625 -1.828125q-0.78125 -0.953125 -2.03125 -0.953125q-1.125 0 -1.90625 0.765625q-0.765625 0.75 -0.84375 2.015625zm8.485107 2.875l1.625 -0.25q0.125 0.96875 0.75 1.5q0.625 0.515625 1.75 0.515625q1.125 0 1.671875 -0.453125q0.546875 -0.46875 0.546875 -1.09375q0 -0.546875 -0.484375 -0.875q-0.328125 -0.21875 -1.671875 -0.546875q-1.8125 -0.46875 -2.515625 -0.796875q-0.6875 -0.328125 -1.046875 -0.90625q-0.359375 -0.59375 -0.359375 -1.3125q0 -0.640625 0.296875 -1.1875q0.296875 -0.5625 0.8125 -0.921875q0.375 -0.28125 1.03125 -0.46875q0.671875 -0.203125 1.421875 -0.203125q1.140625 0 2.0 0.328125q0.859375 0.328125 1.265625 0.890625q0.421875 0.5625 0.578125 1.5l-1.609375 0.21875q-0.109375 -0.75 -0.640625 -1.171875q-0.515625 -0.421875 -1.46875 -0.421875q-1.140625 0 -1.625 0.375q-0.46875 0.375 -0.46875 0.875q0 0.3125 0.1875 0.578125q0.203125 0.265625 0.640625 0.4375q0.234375 0.09375 1.4375 0.421875q1.75 0.453125 2.4375 0.75q0.6875 0.296875 1.078125 0.859375q0.390625 0.5625 0.390625 1.40625q0 0.828125 -0.484375 1.546875q-0.46875 0.71875 -1.375 1.125q-0.90625 0.390625 -2.046875 0.390625q-1.875 0 -2.875 -0.78125q-0.984375 -0.78125 -1.25 -2.328125zm15.402039 2.890625l0 -13.359375l9.65625 0l0 1.578125l-7.875 0l0 4.09375l7.375 0l0 1.5625l-7.375 0l0 4.546875l8.1875 0l0 1.578125l-9.96875 0zm12.209198 0l0 -9.671875l1.46875 0l0 1.359375q0.453125 -0.71875 1.203125 -1.140625q0.765625 -0.4375 1.71875 -0.4375q1.078125 0 1.765625 0.453125q0.6875 0.4375 0.96875 1.234375q1.15625 -1.6875 2.984375 -1.6875q1.453125 0 2.21875 0.796875q0.78125 0.796875 0.78125 2.453125l0 6.640625l-1.640625 0l0 -6.09375q0 -0.984375 -0.15625 -1.40625q-0.15625 -0.4375 -0.578125 -0.703125q-0.421875 -0.265625 -0.984375 -0.265625q-1.015625 0 -1.6875 0.6875q-0.671875 0.671875 -0.671875 2.15625l0 5.625l-1.640625 0l0 -6.28125q0 -1.09375 -0.40625 -1.640625q-0.40625 -0.546875 -1.3125 -0.546875q-0.6875 0 -1.28125 0.359375q-0.59375 0.359375 -0.859375 1.0625q-0.25 0.703125 -0.25 2.03125l0 5.015625l-1.640625 0zm15.540802 3.703125l0 -13.375l1.484375 0l0 1.25q0.53125 -0.734375 1.1875 -1.09375q0.671875 -0.375 1.625 -0.375q1.234375 0 2.171875 0.640625q0.953125 0.625 1.4375 1.796875q0.484375 1.15625 0.484375 2.546875q0 1.484375 -0.53125 2.671875q-0.53125 1.1875 -1.546875 1.828125q-1.015625 0.625 -2.140625 0.625q-0.8125 0 -1.46875 -0.34375q-0.65625 -0.34375 -1.0625 -0.875l0 4.703125l-1.640625 0zm1.484375 -8.484375q0 1.859375 0.75 2.765625q0.765625 0.890625 1.828125 0.890625q1.09375 0 1.875 -0.921875q0.78125 -0.9375 0.78125 -2.875q0 -1.84375 -0.765625 -2.765625q-0.75 -0.921875 -1.8125 -0.921875q-1.046875 0 -1.859375 0.984375q-0.796875 0.96875 -0.796875 2.84375zm8.844482 4.78125l0 -13.359375l1.640625 0l0 13.359375l-1.640625 0zm3.582306 -4.84375q0 -2.6875 1.484375 -3.96875q1.25 -1.078125 3.046875 -1.078125q2.0 0 3.265625 1.3125q1.265625 1.296875 1.265625 3.609375q0 1.859375 -0.5625 2.9375q-0.5625 1.0625 -1.640625 1.65625q-1.0625 0.59375 -2.328125 0.59375q-2.03125 0 -3.28125 -1.296875q-1.25 -1.3125 -1.25 -3.765625zm1.6875 0q0 1.859375 0.796875 2.796875q0.8125 0.921875 2.046875 0.921875q1.21875 0 2.03125 -0.921875q0.8125 -0.9375 0.8125 -2.84375q0 -1.796875 -0.8125 -2.71875q-0.8125 -0.921875 -2.03125 -0.921875q-1.234375 0 -2.046875 0.921875q-0.796875 0.90625 -0.796875 2.765625zm9.219482 8.5625l-0.1875 -1.53125q0.546875 0.140625 0.9375 0.140625q0.546875 0 0.875 -0.1875q0.328125 -0.171875 0.546875 -0.5q0.15625 -0.25 0.5 -1.21875q0.046875 -0.140625 0.140625 -0.40625l-3.671875 -9.6875l1.765625 0l2.015625 5.59375q0.390625 1.078125 0.703125 2.25q0.28125 -1.125 0.671875 -2.203125l2.078125 -5.640625l1.640625 0l-3.6875 9.828125q-0.59375 1.609375 -0.921875 2.203125q-0.4375 0.8125 -1.0 1.1875q-0.5625 0.375 -1.34375 0.375q-0.484375 0 -1.0625 -0.203125zm16.03125 -6.828125l1.6875 0.203125q-0.40625 1.484375 -1.484375 2.3125q-1.078125 0.8125 -2.765625 0.8125q-2.125 0 -3.375 -1.296875q-1.234375 -1.3125 -1.234375 -3.671875q0 -2.453125 1.25 -3.796875q1.265625 -1.34375 3.265625 -1.34375q1.9375 0 3.15625 1.328125q1.234375 1.3125 1.234375 3.703125q0 0.15625 0 0.4375l-7.21875 0q0.09375 1.59375 0.90625 2.453125q0.8125 0.84375 2.015625 0.84375q0.90625 0 1.546875 -0.46875q0.640625 -0.484375 1.015625 -1.515625zm-5.390625 -2.65625l5.40625 0q-0.109375 -1.21875 -0.625 -1.828125q-0.78125 -0.953125 -2.03125 -0.953125q-1.125 0 -1.90625 0.765625q-0.765625 0.75 -0.84375 2.015625zm15.766327 2.65625l1.6875 0.203125q-0.40625 1.484375 -1.484375 2.3125q-1.078125 0.8125 -2.765625 0.8125q-2.125 0 -3.375 -1.296875q-1.234375 -1.3125 -1.234375 -3.671875q0 -2.453125 1.25 -3.796875q1.265625 -1.34375 3.265625 -1.34375q1.9375 0 3.15625 1.328125q1.234375 1.3125 1.234375 3.703125q0 0.15625 0 0.4375l-7.21875 0q0.09375 1.59375 0.90625 2.453125q0.8125 0.84375 2.015625 0.84375q0.90625 0 1.546875 -0.46875q0.640625 -0.484375 1.015625 -1.515625zm-5.390625 -2.65625l5.40625 0q-0.109375 -1.21875 -0.625 -1.828125q-0.78125 -0.953125 -2.03125 -0.953125q-1.125 0 -1.90625 0.765625q-0.765625 0.75 -0.84375 2.015625z" fill-rule="nonzero"/><path fill="#000000" fill-opacity="0.0" d="m718.5587 113.032974l-228.22046 245.98427" fill-rule="evenodd"/><path stroke="#000000" stroke-width="1.0" stroke-linejoin="round" stroke-linecap="butt" d="m718.5587 113.032974l-228.22046 245.98427" fill-rule="evenodd"/><path fill="#000000" fill-opacity="0.0" d="m576.3899 272.79623l64.97638 -71.937l31.181091 28.157486l-64.97638 71.93701z" fill-rule="evenodd"/><path fill="#000000" d="m606.27515 272.87784l1.5197754 -1.0065613q1.2348633 1.8730164 1.1295166 3.7147217q-0.117004395 1.8312073 -1.5204468 3.3849792q-1.4453125 1.6001587 -3.0059204 2.022522q-1.5617065 0.40026855 -3.272705 -0.17636108q-1.7120972 -0.59872437 -3.1384888 -1.8867798q-1.5422974 -1.3927612 -2.15625 -3.0208435q-0.6254883 -1.6385498 -0.23242188 -3.2626038q0.39196777 -1.6460876 1.5754395 -2.9563599q1.3405762 -1.4841919 3.0055542 -1.8122864q1.675415 -0.33972168 3.411499 0.51220703l-0.861084 1.5593567q-1.3926392 -0.6260376 -2.4766846 -0.40493774q-1.085144 0.19903564 -1.9754028 1.1846313q-1.0368042 1.1479492 -1.1830444 2.405426q-0.1461792 1.2574768 0.49871826 2.4082947q0.6333618 1.1403503 1.6190796 2.030487q1.263977 1.1414185 2.5384521 1.6186218q1.2744751 0.47717285 2.4516602 0.12963867q1.1655273 -0.3580017 1.9824829 -1.2624207q0.9949341 -1.1015625 1.0484009 -2.44281q0.05340576 -1.3412476 -0.9581299 -2.738922zm1.9815063 -2.42688q-1.9945679 -1.801178 -1.9505005 -3.761444q0.03765869 -1.650177 1.2421265 -2.9836426q1.3405762 -1.4841919 3.163025 -1.5437622q1.810852 -0.07003784 3.5270996 1.4798279q1.3800049 1.2461548 1.8031006 2.386139q0.41156006 1.1295471 0.1295166 2.3275452q-0.27148438 1.1864014 -1.119812 2.1256409q-1.3615723 1.5073853 -3.1619263 1.5658264q-1.8119507 0.047973633 -3.6326294 -1.5961304zm1.1311646 -1.2522888q1.3799438 1.2461548 2.6098633 1.2831116q1.2288208 0.014892578 2.0562134 -0.90112305q0.81689453 -0.90441895 0.67736816 -2.1252136q-0.15118408 -1.2312927 -1.565979 -2.5088806q-1.3336182 -1.2042542 -2.562378 -1.2191467q-1.2288208 -0.014892578 -2.0457153 0.88952637q-0.8273926 0.9160156 -0.6878662 2.1368408q0.13848877 1.1987305 1.5184937 2.4448853zm5.8236084 -6.44751q-1.9945679 -1.801178 -1.9505615 -3.7614136q0.037719727 -1.6502075 1.2421875 -2.9836426q1.3405762 -1.4842072 3.163025 -1.5437775q1.810852 -0.07003784 3.5270996 1.4798126q1.3800049 1.2461548 1.8031006 2.3861694q0.41149902 1.1295166 0.1295166 2.3275146q-0.27148438 1.1864319 -1.119812 2.1256409q-1.3615723 1.5073853 -3.1619263 1.5658264q-1.8119507 0.047973633 -3.6326294 -1.5961304zm1.1311035 -1.2522888q1.3800049 1.2461853 2.6099243 1.2831421q1.2288208 0.014892578 2.0562134 -0.90115356q0.81689453 -0.90441895 0.6773071 -2.1252136q-0.15118408 -1.2312927 -1.565918 -2.50885q-1.3336182 -1.2042847 -2.562439 -1.2191772q-1.2287598 -0.014892578 -2.0457153 0.88952637q-0.8273926 0.91604614 -0.6878052 2.1368408q0.13848877 1.1987305 1.5184326 2.4448853zm9.827026 -3.6534119l-9.914978 -8.953522l1.0996704 -1.217514l5.6591187 5.1103363l-0.31445312 -5.526169l1.4138794 -1.5653534l0.1954956 5.145035l7.23407 1.0588226l-1.3510742 1.4957886l-5.823059 -0.9425812l0.05987549 1.61203l2.8411865 2.565628l-1.0997314 1.2174988zm3.6673584 -8.372681l0.9036865 -1.3734589q0.8027344 0.5565033 1.6159668 0.44873047q0.80163574 -0.1182251 1.5556641 -0.9530945q0.75408936 -0.8348541 0.7843628 -1.5443726q0.018676758 -0.7200012 -0.44519043 -1.1388702q-0.4058838 -0.36653137 -0.97406006 -0.22698975q-0.38226318 0.09689331 -1.5265503 0.874176q-1.5627441 1.030899 -2.277588 1.3327789q-0.7043457 0.29026794 -1.3743286 0.16950989q-0.68151855 -0.1312561 -1.2149658 -0.6129608q-0.47546387 -0.4293518 -0.68237305 -1.0161743q-0.21844482 -0.5973053 -0.1395874 -1.2208099q0.042663574 -0.46678162 0.3433838 -1.0794373q0.29956055 -0.6347351 0.8023071 -1.1913147q0.76452637 -0.8464508 1.5841064 -1.2642822q0.8195801 -0.41783142 1.5093384 -0.34231567q0.70025635 0.06391907 1.5007935 0.57629395l-0.9164429 1.3409119q-0.62994385 -0.42149353 -1.2991333 -0.30999756q-0.6586914 0.09991455 -1.2976074 0.80722046q-0.76452637 0.8464508 -0.81085205 1.4572296q-0.035888672 0.5991974 0.33514404 0.93429565q0.2319336 0.20944214 0.55474854 0.24832153q0.333313 0.027282715 0.7541504 -0.18218994q0.22668457 -0.11109924 1.2766113 -0.7840271q1.5093384 -0.99497986 2.1904907 -1.3062134q0.68115234 -0.31121826 1.3604736 -0.22410583q0.6793213 0.08711243 1.305481 0.6525879q0.614624 0.5550232 0.8234253 1.3961792q0.21923828 0.8295746 -0.08673096 1.7743683q-0.31750488 0.9343262 -1.0820923 1.780777q-1.2567749 1.3914337 -2.506897 1.6099396q-1.239624 0.20689392 -2.5657349 -0.6327057z" fill-rule="nonzero"/><path fill="#000000" fill-opacity="0.0" d="m370.10498 387.1942l-273.10236 94.64569" fill-rule="evenodd"/><path stroke="#000000" stroke-width="1.0" stroke-linejoin="round" stroke-linecap="butt" d="m370.10498 387.1942l-273.10236 94.64569" fill-rule="evenodd"/><path fill="#000000" fill-opacity="0.0" d="m200.3605 438.264l132.75592 -47.08661l14.047241 39.590546l-132.75592 47.08661z" fill-rule="evenodd"/><path fill="#000000" d="m219.19931 460.1453l-4.467224 -12.590332l4.756546 -1.6870728q1.2517242 -0.44396973 1.956192 -0.56121826q0.97050476 -0.16183472 1.7604675 0.05532837q0.78474426 0.20245361 1.4445343 0.84710693q0.6598053 0.6446228 0.9941864 1.5870667q0.5695038 1.6051025 -0.0642395 3.0898438q-0.62423706 1.4648132 -3.3043976 2.4154358l-3.2250214 1.1438599l1.8130035 5.1097717l-1.6640472 0.59020996zm-0.67666626 -7.187256l3.2544708 -1.1542969q1.6198883 -0.57455444 2.0830688 -1.4185791q0.46318054 -0.84399414 0.076553345 -1.9336853q-0.28215027 -0.79519653 -0.8782959 -1.2137451q-0.59614563 -0.41854858 -1.321518 -0.36019897q-0.45413208 0.028442383 -1.5880432 0.43063354l-3.2250366 1.1438599l1.5988007 4.506012zm8.377945 -7.713043l-0.63220215 -1.7817993l1.5462341 -0.5484314l0.63220215 1.7817993l-1.5462341 0.5484314zm3.8350067 10.808563l-3.2341614 -9.115112l1.5462494 -0.5484314l3.2341614 9.115112l-1.5462494 0.5484314zm8.6697235 -6.8384094l1.5899353 -0.33181763q0.30348206 1.6496887 -0.40863037 2.9135742q-0.70262146 1.243927 -2.2046814 1.7767029q-1.870224 0.6633301 -3.43779 -0.15670776q-1.5675812 -0.82003784 -2.3774261 -3.102478q-0.52770996 -1.4873047 -0.433609 -2.7640686q0.09410095 -1.2767944 0.90216064 -2.1768188q0.8028412 -0.9147339 1.9809265 -1.3325806q1.4873505 -0.5275574 2.696289 -0.110809326q1.2089386 0.41671753 1.9651337 1.7068787l-1.4236908 0.7536621q-0.5448303 -0.83462524 -1.2516632 -1.0978699q-0.71206665 -0.2779541 -1.477829 -0.0063476562q-1.1633606 0.41262817 -1.6018524 1.5131226q-0.43849182 1.1005249 0.2041626 2.9117737q0.65309143 1.8406982 1.6577606 2.4293213q0.9994507 0.5739136 2.1333618 0.17175293q0.9130249 -0.32385254 1.3182526 -1.0975647q0.4199524 -0.77893066 0.16918945 -1.9997253zm4.0281677 2.3346558l-4.467209 -12.590363l1.5462341 -0.5484314l2.5497131 7.1860657l2.3501587 -5.0114136l1.9880219 -0.70510864l-2.2736511 4.6195374l5.861252 4.3702087l-1.8996735 0.6737976l-4.675125 -3.5972595l-0.71354675 1.4467468l1.2800751 3.607788l-1.5462494 0.5484314zm7.206421 -5.6230774l1.4479218 -0.7788391q0.4417572 0.8712158 1.208435 1.1629639q0.7614746 0.27700806 1.8217468 -0.09906006q1.0602722 -0.37606812 1.4241943 -0.9859314q0.3586731 -0.62457275 0.1496582 -1.2135925q-0.18286133 -0.51538086 -0.74909973 -0.6627197q-0.38238525 -0.096466064 -1.7585602 0.04348755q-1.864975 0.16412354 -2.6373749 0.0899353q-0.7576752 -0.079437256 -1.2896881 -0.5041504q-0.5372467 -0.4394226 -0.7775879 -1.1167908q-0.21421814 -0.60375977 -0.11729431 -1.2183838q0.09170532 -0.629364 0.45750427 -1.1404114q0.25938416 -0.39041138 0.8151703 -0.786499q0.5653076 -0.41601562 1.2721558 -0.66674805q1.0750122 -0.38128662 1.9946747 -0.35931396q0.9196625 0.021942139 1.4906311 0.41625977q0.58569336 0.38909912 1.0464478 1.220398l-1.4436493 0.7441406q-0.35386658 -0.67025757 -0.9956207 -0.8902588q-0.6270447 -0.22521973 -1.5253296 0.09338379q-1.0750122 0.38128662 -1.4061279 0.89663696q-0.316391 0.5101013 -0.14920044 0.98132324q0.10450745 0.29449463 0.3700409 0.48217773q0.28025818 0.18240356 0.75006104 0.19815063q0.25224304 0.010009766 1.4958801 -0.08294678q1.8008423 -0.15795898 2.5480804 -0.10797119q0.7472229 0.049957275 1.3034668 0.4494934q0.5562439 0.39953613 0.8383789 1.1947327q0.2769165 0.78045654 0.060760498 1.619751q-0.20144653 0.8340759 -0.91973877 1.519867q-0.7234802 0.67108154 -1.7984924 1.0523682q-1.7671356 0.62677 -2.9708557 0.22479248q-1.1889801 -0.40722656 -1.9565887 -1.7762451zm21.225815 -4.461426l-0.47546387 -1.3400269q-0.51168823 1.9222412 -2.3377075 2.5699158q-0.8099365 0.28726196 -1.6265259 0.22872925q-0.80184937 -0.06375122 -1.3077393 -0.41482544q-0.5058899 -0.35107422 -0.8787842 -0.9814453q-0.25982666 -0.4052124 -0.6151123 -1.4065552l-2.0010986 -5.6398926l1.5462341 -0.5484314l1.7921143 5.050873q0.42843628 1.207489 0.68304443 1.597992q0.3614807 0.5515137 0.95809937 0.73776245q0.59664917 0.1862793 1.2887878 -0.0592041q0.69210815 -0.2454834 1.1705017 -0.8130493q0.487854 -0.5874939 0.5239868 -1.2800598q0.030914307 -0.7072449 -0.38183594 -1.870575l-1.7346497 -4.8888855l1.5462341 -0.5484314l3.2341614 9.115112l-1.3842468 0.4909973zm5.0530396 2.1369019l-4.4724426 -12.605072l1.3989563 -0.4961853l0.41799927 1.1780396q0.25512695 -0.86968994 0.7534485 -1.4277649q0.507843 -0.5780029 1.4061279 -0.89660645q1.1633606 -0.41262817 2.261139 -0.122283936q1.1072998 0.27041626 1.955658 1.2129211q0.84317017 0.9277649 1.3081665 2.2383423q0.4963684 1.3989258 0.39276123 2.6956482q-0.10360718 1.2967529 -0.84658813 2.2399902q-0.74819946 0.92852783 -1.8085022 1.304596q-0.7657471 0.27160645 -1.4992065 0.1670227q-0.73342896 -0.10461426 -1.2939453 -0.4694519l1.5726624 4.432373l-1.5462341 0.5484314zm-1.4381104 -8.492157q0.62176514 1.7523193 1.6316528 2.3556824q1.0194092 0.58343506 2.0207825 0.22827148q1.0308228 -0.3656311 1.4588623 -1.4956055q0.42282104 -1.1446838 -0.22506714 -2.970642q-0.6165161 -1.7376099 -1.6463623 -2.3504944q-1.0151367 -0.618103 -2.01651 -0.26290894q-0.9866333 0.34994507 -1.4232483 1.5492554q-0.4270935 1.1793518 0.19989014 2.9464417z" fill-rule="nonzero"/><path fill="#cfe2f3" d="m330.95013 246.71391l0 0c0 -19.882248 28.94989 -36.0 64.66141 -36.0l0 0c35.711517 0 64.66144 16.117752 64.66144 36.0l0 0c0 19.882248 -28.94992 35.999985 -64.66144 35.999985l0 0c-35.711517 0 -64.66141 -16.117737 -64.66141 -35.999985z" fill-rule="evenodd"/><path stroke="#000000" stroke-width="1.0" stroke-linejoin="round" stroke-linecap="butt" d="m330.95013 246.71391l0 0c0 -19.882248 28.94989 -36.0 64.66141 -36.0l0 0c35.711517 0 64.66144 16.117752 64.66144 36.0l0 0c0 19.882248 -28.94992 35.999985 -64.66144 35.999985l0 0c-35.711517 0 -64.66141 -16.117737 -64.66141 -35.999985z" fill-rule="evenodd"/><path fill="#000000" fill-opacity="0.0" d="m345.86877 225.70604l129.32281 0l0 42.01573l-129.32281 0z" fill-rule="evenodd"/><path fill="#000000" d="m356.30627 252.62604l0 -13.359375l5.046875 0q1.328125 0 2.03125 0.125q0.96875 0.171875 1.640625 0.640625q0.671875 0.453125 1.078125 1.28125q0.40625 0.828125 0.40625 1.828125q0 1.703125 -1.09375 2.890625q-1.078125 1.171875 -3.921875 1.171875l-3.421875 0l0 5.421875l-1.765625 0zm1.765625 -7.0l3.453125 0q1.71875 0 2.4375 -0.640625q0.71875 -0.640625 0.71875 -1.796875q0 -0.84375 -0.421875 -1.4375q-0.421875 -0.59375 -1.125 -0.78125q-0.4375 -0.125 -1.640625 -0.125l-3.421875 0l0 4.78125zm16.787323 5.8125q-0.921875 0.765625 -1.765625 1.09375q-0.828125 0.3125 -1.796875 0.3125q-1.59375 0 -2.453125 -0.78125q-0.859375 -0.78125 -0.859375 -1.984375q0 -0.71875 0.328125 -1.296875q0.328125 -0.59375 0.84375 -0.9375q0.53125 -0.359375 1.1875 -0.546875q0.46875 -0.125 1.453125 -0.25q1.984375 -0.234375 2.921875 -0.5625q0.015625 -0.34375 0.015625 -0.421875q0 -1.0 -0.46875 -1.421875q-0.625 -0.546875 -1.875 -0.546875q-1.15625 0 -1.703125 0.40625q-0.546875 0.40625 -0.8125 1.421875l-1.609375 -0.21875q0.21875 -1.015625 0.71875 -1.640625q0.5 -0.640625 1.453125 -0.984375q0.953125 -0.34375 2.1875 -0.34375q1.25 0 2.015625 0.296875q0.78125 0.28125 1.140625 0.734375q0.375 0.4375 0.515625 1.109375q0.078125 0.421875 0.078125 1.515625l0 2.1875q0 2.28125 0.109375 2.890625q0.109375 0.59375 0.40625 1.15625l-1.703125 0q-0.265625 -0.515625 -0.328125 -1.1875zm-0.140625 -3.671875q-0.890625 0.375 -2.671875 0.625q-1.015625 0.140625 -1.4375 0.328125q-0.421875 0.1875 -0.65625 0.53125q-0.21875 0.34375 -0.21875 0.78125q0 0.65625 0.5 1.09375q0.5 0.4375 1.453125 0.4375q0.9375 0 1.671875 -0.40625q0.75 -0.421875 1.09375 -1.140625q0.265625 -0.5625 0.265625 -1.640625l0 -0.609375zm4.125702 8.578125l-0.1875 -1.53125q0.546875 0.140625 0.9375 0.140625q0.546875 0 0.875 -0.1875q0.328125 -0.171875 0.546875 -0.5q0.15625 -0.25 0.5 -1.21875q0.046875 -0.140625 0.140625 -0.40625l-3.671875 -9.6875l1.765625 0l2.015625 5.59375q0.390625 1.078125 0.703125 2.25q0.28125 -1.125 0.671875 -2.203125l2.078125 -5.640625l1.640625 0l-3.6875 9.828125q-0.59375 1.609375 -0.921875 2.203125q-0.4375 0.8125 -1.0 1.1875q-0.5625 0.375 -1.34375 0.375q-0.484375 0 -1.0625 -0.203125zm9.40625 -3.71875l0 -9.671875l1.46875 0l0 1.359375q0.453125 -0.71875 1.203125 -1.140625q0.765625 -0.4375 1.71875 -0.4375q1.078125 0 1.765625 0.453125q0.6875 0.4375 0.96875 1.234375q1.15625 -1.6875 2.984375 -1.6875q1.453125 0 2.21875 0.796875q0.78125 0.796875 0.78125 2.453125l0 6.640625l-1.640625 0l0 -6.09375q0 -0.984375 -0.15625 -1.40625q-0.15625 -0.4375 -0.578125 -0.703125q-0.421875 -0.265625 -0.984375 -0.265625q-1.015625 0 -1.6875 0.6875q-0.671875 0.671875 -0.671875 2.15625l0 5.625l-1.640625 0l0 -6.28125q0 -1.09375 -0.40625 -1.640625q-0.40625 -0.546875 -1.3125 -0.546875q-0.6875 0 -1.28125 0.359375q-0.59375 0.359375 -0.859375 1.0625q-0.25 0.703125 -0.25 2.03125l0 5.015625l-1.640625 0zm22.165802 -3.109375l1.6875 0.203125q-0.40625 1.484375 -1.484375 2.3125q-1.078125 0.8125 -2.765625 0.8125q-2.125 0 -3.375 -1.296875q-1.234375 -1.3125 -1.234375 -3.671875q0 -2.453125 1.25 -3.796875q1.265625 -1.34375 3.265625 -1.34375q1.9375 0 3.15625 1.328125q1.234375 1.3125 1.234375 3.703125q0 0.15625 0 0.4375l-7.21875 0q0.09375 1.59375 0.90625 2.453125q0.8125 0.84375 2.015625 0.84375q0.90625 0 1.546875 -0.46875q0.640625 -0.484375 1.015625 -1.515625zm-5.390625 -2.65625l5.40625 0q-0.109375 -1.21875 -0.625 -1.828125q-0.78125 -0.953125 -2.03125 -0.953125q-1.125 0 -1.90625 0.765625q-0.765625 0.75 -0.84375 2.015625zm9.141357 5.765625l0 -9.671875l1.46875 0l0 1.375q1.0625 -1.59375 3.078125 -1.59375q0.875 0 1.609375 0.3125q0.734375 0.3125 1.09375 0.828125q0.375 0.5 0.515625 1.203125q0.09375 0.453125 0.09375 1.59375l0 5.953125l-1.640625 0l0 -5.890625q0 -1.0 -0.203125 -1.484375q-0.1875 -0.5 -0.671875 -0.796875q-0.484375 -0.296875 -1.140625 -0.296875q-1.046875 0 -1.8125 0.671875q-0.75 0.65625 -0.75 2.515625l0 5.28125l-1.640625 0zm13.953827 -1.46875l0.234375 1.453125q-0.6875 0.140625 -1.234375 0.140625q-0.890625 0 -1.390625 -0.28125q-0.484375 -0.28125 -0.6875 -0.734375q-0.203125 -0.46875 -0.203125 -1.9375l0 -5.578125l-1.203125 0l0 -1.265625l1.203125 0l0 -2.390625l1.625 -0.984375l0 3.375l1.65625 0l0 1.265625l-1.65625 0l0 5.671875q0 0.6875 0.078125 0.890625q0.09375 0.203125 0.28125 0.328125q0.203125 0.109375 0.578125 0.109375q0.265625 0 0.71875 -0.0625z" fill-rule="nonzero"/><path fill="#000000" fill-opacity="0.0" d="m94.73753 82.10499l258.96063 137.70078" fill-rule="evenodd"/><path stroke="#000000" stroke-width="1.0" stroke-linejoin="round" stroke-linecap="butt" d="m94.73753 82.10499l258.96063 137.70078" fill-rule="evenodd"/><path fill="#000000" fill-opacity="0.0" d="m390.9672 166.1076l4.6299133 44.598434" fill-rule="evenodd"/><path stroke="#000000" stroke-width="1.0" stroke-linejoin="round" stroke-linecap="butt" d="m390.9672 166.1076l4.6299133 44.598434" fill-rule="evenodd"/><path fill="#000000" fill-opacity="0.0" d="m219.30841 105.84242l77.76376 34.4252l-17.007874 38.4252l-77.76376 -34.4252z" fill-rule="evenodd"/><path fill="#000000" d="m217.91386 134.66495l5.407181 -12.216194l2.4288788 1.0752411l-0.94003296 9.921852q-0.13749695 1.391571 -0.21737671 2.0738983q0.5115509 -0.57666016 1.5093536 -1.6728363l6.6918488 -7.2047043l2.1717072 0.96139526l-5.4071655 12.216194l-1.5573425 -0.6894226l4.5217743 -10.215881l-8.065094 8.647293l-1.4573364 -0.6451416l1.0749512 -11.963898l-4.6039886 10.401627l-1.5573578 -0.6894226zm20.320557 7.6970367q-1.1528473 0.3269348 -2.05719 0.2854309q-0.883728 -0.049453735 -1.7695465 -0.4416046q-1.4573364 -0.64515686 -1.9269562 -1.707428q-0.4696045 -1.0622711 0.017364502 -2.1624298q0.2909088 -0.6572571 0.8249359 -1.0530853q0.5403595 -0.41011047 1.1509857 -0.5157318q0.6312256 -0.11357117 1.3072052 -0.019378662q0.47921753 0.07545471 1.4299316 0.35961914q1.909378 0.58895874 2.8994446 0.668396q0.15342712 -0.30799866 0.18504333 -0.3794403q0.40475464 -0.9144287 0.14686584 -1.4899597q-0.3501587 -0.753067 -1.4931641 -1.2590637q-1.0572815 -0.4680481 -1.7217712 -0.3179474q-0.66448975 0.15011597 -1.3184509 0.9713135l-1.3830872 -0.85150146q0.61109924 -0.8401642 1.3212738 -1.2092896q0.7164917 -0.3834076 1.7271576 -0.31192017q1.0106812 0.07148743 2.1394043 0.571167q1.1430054 0.5059967 1.7229309 1.0873871q0.6005554 0.5734253 0.74575806 1.133255q0.16583252 0.5518646 0.022476196 1.223175q-0.0993042 0.41738892 -0.54200745 1.4175568l-0.885376 2.0003052q-0.92333984 2.0860443 -1.0699615 2.6875458q-0.14030457 0.58721924 -0.09651184 1.221756l-1.5573425 -0.6894226q-0.034194946 -0.57902527 0.18058777 -1.2187042zm1.3575897 -3.4145966q-0.96617126 -0.017608643 -2.6961365 -0.51005554q-0.98561096 -0.28251648 -1.4472656 -0.2818451q-0.46165466 6.866455E-4 -0.81510925 0.22013855q-0.3391571 0.2257843 -0.51623535 0.6258545q-0.26560974 0.60009766 0.014511108 1.2025604q0.2801361 0.60246277 1.1516724 0.98828125q0.857254 0.37950134 1.6932068 0.3052826q0.8565521 -0.08218384 1.461792 -0.60028076q0.4705658 -0.40682983 0.9069214 -1.3927002l0.24664307 -0.5572357zm1.8772125 6.1452637l5.4071655 -12.216202l1.5001984 0.66412354l-3.086197 6.972519l5.151306 -2.02565l1.9288177 0.85388184l-4.8264313 1.7935333l1.2546692 7.2024994l-1.8430939 -0.81591797l-0.92419434 -5.825897l-1.512619 0.5606842l-1.5494232 3.5005493l-1.5001984 -0.66412354zm15.846146 3.6144867l1.460846 0.86883545q-0.97229004 1.1929169 -2.2933044 1.5137482q-1.3146973 0.30654907 -2.8577576 -0.37654114q-1.9431152 -0.860199 -2.5612183 -2.5520935q-0.5974884 -1.6998596 0.35746765 -3.8573456q0.9928894 -2.2432098 2.679779 -2.965973q1.7011719 -0.7164459 3.5299835 0.09315491q1.7716675 0.78430176 2.3485413 2.4921265q0.59750366 1.6998596 -0.3701172 3.88591q-0.06323242 0.1428833 -0.17706299 0.40005493l-6.600876 -2.9221344q-0.55934143 1.4953308 -0.16421509 2.6100616q0.40144348 1.1004486 1.5016022 1.5874786q0.8286743 0.36683655 1.604187 0.19752502q0.78182983 -0.18360901 1.5421448 -0.97480774zm-3.8541107 -4.6110687l4.9434967 2.188446q0.39328003 -1.1587372 0.16842651 -1.9246979q-0.32861328 -1.1878052 -1.4716187 -1.6938019q-1.0286865 -0.45539856 -2.0529633 -0.0715332q-1.0036469 0.37590027 -1.5873413 1.5015869zm6.595169 6.063736l1.5870972 0.42918396q-0.2778015 0.9364624 0.07867432 1.6752472q0.3628235 0.72450256 1.39151 1.1799011q1.028717 0.45539856 1.7121887 0.26242065q0.6897888 -0.20727539 0.942749 -0.77879333q0.221344 -0.5000763 -0.08874512 -0.9961853q-0.21151733 -0.33285522 -1.3074341 -1.1768494q-1.4676514 -1.1623383 -1.9777832 -1.7470093q-0.4958496 -0.5783539 -0.5904541 -1.2524719q-0.08828735 -0.6884155 0.2026062 -1.3456726q0.25930786 -0.5858002 0.7521057 -0.96569824q0.4991455 -0.39419556 1.1160889 -0.5140991q0.45672607 -0.1053772 1.1326904 -0.011184692q0.69659424 0.08622742 1.3823853 0.38983154q1.0429993 0.4617157 1.6960144 1.1096344q0.65301514 0.6479187 0.79681396 1.3267365q0.15811157 0.6851349 -0.07846069 1.6056671l-1.5601807 -0.45144653q0.20355225 -0.7300873 -0.11148071 -1.3309174q-0.3007202 -0.5944977 -1.1722717 -0.98031616q-1.0429993 -0.4617157 -1.6376953 -0.31488037q-0.5804138 0.15315247 -0.7827759 0.6103668q-0.12649536 0.2857666 -0.06253052 0.6045532q0.07821655 0.32511902 0.4086914 0.6593933q0.1763916 0.18060303 1.1437073 0.9676666q1.4168091 1.1227417 1.9253235 1.6725159q0.5084839 0.54977417 0.6380005 1.2222595q0.1295166 0.67248535 -0.2119751 1.444046q-0.33517456 0.7572632 -1.0690308 1.2184296q-0.71951294 0.46749878 -1.7126465 0.47213745q-0.9867859 -0.0096588135 -2.0297546 -0.4713745q-1.7145386 -0.7590027 -2.3127136 -1.8781891q-0.58392334 -1.1128693 -0.20071411 -2.634903z" fill-rule="nonzero"/></g></svg>