<svg version="1.1" viewBox="0.0 0.0 524.6824146981627 531.4593175853018" fill="none" stroke="none" stroke-linecap="square" stroke-miterlimit="10" xmlns:xlink="http://www.w3.org/1999/xlink" xmlns="http://www.w3.org/2000/svg"><clipPath id="p.0"><path d="m0 0l524.68243 0l0 531.4593l-524.68243 0l0 -531.4593z" clip-rule="nonzero"/></clipPath><g clip-path="url(#p.0)"><path fill="#000000" fill-opacity="0.0" d="m0 0l524.68243 0l0 531.4593l-524.68243 0z" fill-rule="evenodd"/><path fill="#ffffff" d="m5.9816275 0l509.07086 0l0 521.54333l-509.07086 0z" fill-rule="evenodd"/><path stroke="#000000" stroke-width="1.0" stroke-linejoin="round" stroke-linecap="butt" d="m5.9816275 0l509.07086 0l0 521.54333l-509.07086 0z" fill-rule="evenodd"/><path fill="#ffffff" d="m116.34121 26.698162l291.02362 0l0 457.44882l-291.02362 0z" fill-rule="evenodd"/><path stroke="#000000" stroke-width="1.0" stroke-linejoin="round" stroke-linecap="butt" d="m116.34121 26.698162l291.02362 0l0 457.44882l-291.02362 0z" fill-rule="evenodd"/><path fill="#000000" fill-opacity="0.0" d="m192.87927 24.131233l135.27557 0l0 37.165356l-135.27557 0z" fill-rule="evenodd"/><path fill="#000000" d="m202.53552 43.836235l1.3125 -0.109375q0.09375 0.78125 0.421875 1.296875q0.34375 0.5 1.0625 0.8125q0.71875 0.3125 1.609375 0.3125q0.796875 0 1.40625 -0.234375q0.609375 -0.234375 0.90625 -0.640625q0.296875 -0.421875 0.296875 -0.90625q0 -0.5 -0.296875 -0.859375q-0.28125 -0.375 -0.9375 -0.625q-0.421875 -0.171875 -1.875 -0.515625q-1.4375 -0.34375 -2.015625 -0.65625q-0.75 -0.390625 -1.125 -0.96875q-0.359375 -0.59375 -0.359375 -1.3125q0 -0.796875 0.4375 -1.484375q0.453125 -0.6875 1.3125 -1.046875q0.875 -0.359375 1.9375 -0.359375q1.171875 0 2.0625 0.375q0.890625 0.375 1.359375 1.109375q0.484375 0.734375 0.515625 1.65625l-1.328125 0.09375q-0.109375 -1.0 -0.734375 -1.5q-0.609375 -0.515625 -1.8125 -0.515625q-1.265625 0 -1.84375 0.46875q-0.578125 0.46875 -0.578125 1.109375q0 0.5625 0.421875 0.9375q0.390625 0.359375 2.078125 0.75q1.703125 0.375 2.328125 0.65625q0.921875 0.421875 1.359375 1.078125q0.4375 0.640625 0.4375 1.484375q0 0.84375 -0.484375 1.59375q-0.484375 0.734375 -1.390625 1.140625q-0.890625 0.40625 -2.015625 0.40625q-1.421875 0 -2.390625 -0.40625q-0.953125 -0.421875 -1.5 -1.25q-0.546875 -0.828125 -0.578125 -1.890625zm10.025604 6.296875l-0.140625 -1.203125q0.421875 0.109375 0.734375 0.109375q0.4375 0 0.6875 -0.140625q0.265625 -0.140625 0.421875 -0.40625q0.125 -0.1875 0.390625 -0.953125q0.046875 -0.109375 0.125 -0.3125l-2.890625 -7.609375l1.390625 0l1.578125 4.390625q0.3125 0.84375 0.546875 1.765625q0.234375 -0.890625 0.53125 -1.734375l1.625 -4.421875l1.296875 0l-2.890625 7.71875q-0.46875 1.25 -0.734375 1.734375q-0.34375 0.625 -0.78125 0.921875q-0.4375 0.296875 -1.0625 0.296875q-0.375 0 -0.828125 -0.15625zm6.875 -5.1875l1.265625 -0.203125q0.109375 0.765625 0.59375 1.171875q0.5 0.40625 1.375 0.40625q0.890625 0 1.3125 -0.359375q0.4375 -0.359375 0.4375 -0.84375q0 -0.4375 -0.375 -0.6875q-0.265625 -0.171875 -1.3125 -0.4375q-1.421875 -0.359375 -1.96875 -0.609375q-0.546875 -0.265625 -0.828125 -0.734375q-0.28125 -0.46875 -0.28125 -1.015625q0 -0.515625 0.21875 -0.9375q0.234375 -0.4375 0.640625 -0.734375q0.296875 -0.21875 0.8125 -0.359375q0.53125 -0.15625 1.125 -0.15625q0.890625 0 1.5625 0.265625q0.671875 0.25 1.0 0.6875q0.328125 0.4375 0.4375 1.171875l-1.25 0.171875q-0.09375 -0.578125 -0.5 -0.90625q-0.40625 -0.34375 -1.15625 -0.34375q-0.890625 0 -1.28125 0.296875q-0.375 0.296875 -0.375 0.6875q0 0.25 0.15625 0.453125q0.15625 0.203125 0.5 0.34375q0.1875 0.078125 1.140625 0.328125q1.359375 0.359375 1.890625 0.59375q0.546875 0.234375 0.859375 0.6875q0.3125 0.4375 0.3125 1.09375q0 0.640625 -0.375 1.21875q-0.375 0.5625 -1.09375 0.875q-0.703125 0.3125 -1.59375 0.3125q-1.484375 0 -2.265625 -0.609375q-0.765625 -0.625 -0.984375 -1.828125zm10.65625 1.109375l0.1875 1.140625q-0.546875 0.109375 -0.984375 0.109375q-0.6875 0 -1.078125 -0.21875q-0.390625 -0.21875 -0.546875 -0.578125q-0.15625 -0.359375 -0.15625 -1.515625l0 -4.375l-0.953125 0l0 -1.0l0.953125 0l0 -1.890625l1.28125 -0.765625l0 2.65625l1.296875 0l0 1.0l-1.296875 0l0 4.4375q0 0.546875 0.0625 0.71875q0.078125 0.15625 0.21875 0.25q0.15625 0.078125 0.453125 0.078125q0.203125 0 0.5625 -0.046875zm6.4626007 -1.296875l1.328125 0.171875q-0.3125 1.171875 -1.171875 1.8125q-0.84375 0.640625 -2.171875 0.640625q-1.671875 0 -2.65625 -1.015625q-0.96875 -1.03125 -0.96875 -2.890625q0 -1.921875 0.984375 -2.96875q1.0 -1.0625 2.578125 -1.0625q1.515625 0 2.484375 1.03125q0.96875 1.03125 0.96875 2.921875q0 0.109375 -0.015625 0.34375l-5.65625 0q0.0625 1.25 0.703125 1.921875q0.640625 0.65625 1.59375 0.65625q0.703125 0 1.203125 -0.359375q0.5 -0.375 0.796875 -1.203125zm-4.234375 -2.078125l4.25 0q-0.09375 -0.953125 -0.484375 -1.4375q-0.625 -0.75 -1.609375 -0.75q-0.875 0 -1.484375 0.59375q-0.609375 0.59375 -0.671875 1.59375zm7.182358 4.53125l0 -7.59375l1.15625 0l0 1.0625q0.34375 -0.5625 0.9375 -0.890625q0.609375 -0.34375 1.359375 -0.34375q0.84375 0 1.375 0.34375q0.546875 0.34375 0.765625 0.984375q0.90625 -1.328125 2.359375 -1.328125q1.125 0 1.734375 0.625q0.609375 0.625 0.609375 1.921875l0 5.21875l-1.28125 0l0 -4.78125q0 -0.78125 -0.125 -1.109375q-0.125 -0.34375 -0.453125 -0.546875q-0.328125 -0.21875 -0.78125 -0.21875q-0.796875 0 -1.328125 0.53125q-0.53125 0.53125 -0.53125 1.703125l0 4.421875l-1.28125 0l0 -4.9375q0 -0.859375 -0.3125 -1.28125q-0.3125 -0.4375 -1.03125 -0.4375q-0.546875 0 -1.015625 0.296875q-0.453125 0.28125 -0.671875 0.828125q-0.203125 0.546875 -0.203125 1.59375l0 3.9375l-1.28125 0zm16.390121 0l0 -10.484375l3.9374847 0q1.203125 0 1.921875 0.3125q0.734375 0.3125 1.140625 0.984375q0.40625 0.65625 0.40625 1.375q0 0.671875 -0.375 1.265625q-0.359375 0.59375 -1.09375 0.96875q0.953125 0.28125 1.46875 0.953125q0.515625 0.671875 0.515625 1.578125q0 0.75 -0.3125 1.390625q-0.3125 0.625 -0.78125 0.96875q-0.453125 0.34375 -1.140625 0.515625q-0.6875 0.171875 -1.6875 0.171875l-3.9999847 0zm1.3906097 -6.078125l2.265625 0q0.921875 0 1.3125 -0.125q0.53125 -0.15625 0.796875 -0.515625q0.28125 -0.375 0.28125 -0.921875q0 -0.53125 -0.25 -0.921875q-0.25 -0.390625 -0.71875 -0.53125q-0.46875 -0.15625 -1.59375 -0.15625l-2.09375 0l0 3.171875zm0 4.84375l2.609375 0q0.671875 0 0.9375 -0.046875q0.484375 -0.09375 0.796875 -0.296875q0.328125 -0.203125 0.53125 -0.578125q0.21875 -0.390625 0.21875 -0.890625q0 -0.578125 -0.3125 -1.015625q-0.296875 -0.4375 -0.828125 -0.609375q-0.53125 -0.171875 -1.53125 -0.171875l-2.421875 0l0 3.609375zm7.7912292 -2.5625q0 -2.109375 1.171875 -3.125q0.984375 -0.84375 2.390625 -0.84375q1.578125 0 2.5625 1.03125q1.0 1.015625 1.0 2.828125q0 1.46875 -0.4375 2.3125q-0.4375 0.828125 -1.28125 1.296875q-0.84375 0.46875 -1.84375 0.46875q-1.59375 0 -2.578125 -1.015625q-0.984375 -1.03125 -0.984375 -2.953125zm1.328125 0q0 1.453125 0.625 2.1875q0.640625 0.71875 1.609375 0.71875q0.96875 0 1.59375 -0.71875q0.640625 -0.734375 0.640625 -2.234375q0 -1.40625 -0.640625 -2.125q-0.640625 -0.734375 -1.59375 -0.734375q-0.96875 0 -1.609375 0.71875q-0.625 0.71875 -0.625 2.1875zm12.291748 3.796875l0 -1.109375q-0.890625 1.28125 -2.421875 1.28125q-0.671875 0 -1.25 -0.25q-0.578125 -0.265625 -0.875 -0.65625q-0.28125 -0.390625 -0.390625 -0.953125q-0.078125 -0.375 -0.078125 -1.203125l0 -4.703125l1.28125 0l0 4.203125q0 1.015625 0.078125 1.359375q0.125 0.515625 0.515625 0.8125q0.40625 0.28125 0.984375 0.28125q0.578125 0 1.078125 -0.296875q0.515625 -0.296875 0.71875 -0.8125q0.21875 -0.515625 0.21875 -1.484375l0 -4.0625l1.28125 0l0 7.59375l-1.140625 0zm3.1667175 0l0 -7.59375l1.15625 0l0 1.078125q0.84375 -1.25 2.421875 -1.25q0.6875 0 1.265625 0.25q0.578125 0.234375 0.859375 0.640625q0.28125 0.40625 0.40625 0.953125q0.0625 0.359375 0.0625 1.25l0 4.671875l-1.28125 0l0 -4.625q0 -0.78125 -0.15625 -1.171875q-0.15625 -0.390625 -0.546875 -0.625q-0.375 -0.234375 -0.890625 -0.234375q-0.8125 0 -1.421875 0.53125q-0.59375 0.515625 -0.59375 1.96875l0 4.15625l-1.28125 0zm13.072998 0l0 -0.953125q-0.71875 1.125 -2.125 1.125q-0.90625 0 -1.671875 -0.5q-0.75 -0.5 -1.171875 -1.390625q-0.421875 -0.90625 -0.421875 -2.078125q0 -1.140625 0.375 -2.0625q0.390625 -0.921875 1.140625 -1.40625q0.765625 -0.5 1.703125 -0.5q0.6875 0 1.21875 0.296875q0.53125 0.28125 0.875 0.734375l0 -3.75l1.28125 0l0 10.484375l-1.203125 0zm-4.0625 -3.796875q0 1.46875 0.609375 2.1875q0.625 0.71875 1.453125 0.71875q0.84375 0 1.4375 -0.6875q0.59375 -0.6875 0.59375 -2.109375q0 -1.5625 -0.609375 -2.28125q-0.59375 -0.734375 -1.484375 -0.734375q-0.84375 0 -1.421875 0.703125q-0.578125 0.703125 -0.578125 2.203125zm12.244843 2.859375q-0.71875 0.609375 -1.375 0.859375q-0.65625 0.25 -1.421875 0.25q-1.25 0 -1.921875 -0.609375q-0.671875 -0.609375 -0.671875 -1.5625q0 -0.5625 0.25 -1.015625q0.25 -0.46875 0.65625 -0.75q0.421875 -0.28125 0.9375 -0.421875q0.375 -0.09375 1.140625 -0.1875q1.5625 -0.1875 2.296875 -0.453125q0.015625 -0.265625 0.015625 -0.328125q0 -0.796875 -0.375 -1.109375q-0.484375 -0.4375 -1.453125 -0.4375q-0.921875 0 -1.359375 0.328125q-0.421875 0.3125 -0.625 1.109375l-1.265625 -0.171875q0.171875 -0.796875 0.5625 -1.296875q0.390625 -0.5 1.140625 -0.765625q0.75 -0.265625 1.71875 -0.265625q0.984375 0 1.59375 0.234375q0.609375 0.21875 0.890625 0.5625q0.28125 0.34375 0.40625 0.875q0.0625 0.328125 0.0625 1.1875l0 1.71875q0 1.796875 0.078125 2.28125q0.078125 0.46875 0.328125 0.90625l-1.34375 0q-0.203125 -0.40625 -0.265625 -0.9375zm-0.109375 -2.875q-0.703125 0.28125 -2.09375 0.484375q-0.796875 0.109375 -1.125 0.265625q-0.328125 0.140625 -0.515625 0.421875q-0.171875 0.265625 -0.171875 0.59375q0 0.515625 0.390625 0.859375q0.390625 0.34375 1.140625 0.34375q0.734375 0 1.3125 -0.3125q0.59375 -0.328125 0.859375 -0.890625q0.203125 -0.4375 0.203125 -1.296875l0 -0.46875zm3.291748 3.8125l0 -7.59375l1.15625 0l0 1.140625q0.453125 -0.796875 0.828125 -1.046875q0.375 -0.265625 0.8125 -0.265625q0.65625 0 1.328125 0.40625l-0.4375 1.203125q-0.46875 -0.28125 -0.953125 -0.28125q-0.421875 0 -0.765625 0.25q-0.328125 0.25 -0.46875 0.703125q-0.21875 0.6875 -0.21875 1.5l0 3.984375l-1.28125 0zm4.8337708 2.921875l-0.140625 -1.203125q0.421875 0.109375 0.734375 0.109375q0.4375 0 0.6875 -0.140625q0.265625 -0.140625 0.421875 -0.40625q0.125 -0.1875 0.390625 -0.953125q0.046875 -0.109375 0.125 -0.3125l-2.890625 -7.609375l1.390625 0l1.578125 4.390625q0.3125 0.84375 0.546875 1.765625q0.234375 -0.890625 0.53125 -1.734375l1.625 -4.421875l1.296875 0l-2.890625 7.71875q-0.46875 1.25 -0.734375 1.734375q-0.34375 0.625 -0.78125 0.921875q-0.4375 0.296875 -1.0625 0.296875q-0.375 0 -0.828125 -0.15625z" fill-rule="nonzero"/><path fill="#000000" fill-opacity="0.0" d="m63.377953 81.85827l0 54.299217" fill-rule="evenodd"/><path stroke="#000000" stroke-width="1.0" stroke-linejoin="round" stroke-linecap="butt" d="m63.377953 81.85827l0 54.299217" fill-rule="evenodd"/><path fill="#000000" fill-opacity="0.0" d="m63.377953 136.14699l-14.236221 31.149597" fill-rule="evenodd"/><path stroke="#000000" stroke-width="1.0" stroke-linejoin="round" stroke-linecap="butt" d="m63.377953 136.14699l-14.236221 31.149597" fill-rule="evenodd"/><path fill="#000000" fill-opacity="0.0" d="m64.267715 136.14699l14.236221 32.031494" fill-rule="evenodd"/><path stroke="#000000" stroke-width="1.0" stroke-linejoin="round" stroke-linecap="butt" d="m64.267715 136.14699l14.236221 32.031494" fill-rule="evenodd"/><path fill="#000000" fill-opacity="0.0" d="m45.577427 106.7769l36.50394 0" fill-rule="evenodd"/><path stroke="#000000" stroke-width="1.0" stroke-linejoin="round" stroke-linecap="butt" d="m45.577427 106.7769l36.50394 0" fill-rule="evenodd"/><path fill="#cfe2f3" d="m43.7979 73.84252l0 0c0 -9.828064 8.566521 -17.795277 19.133858 -17.795277l0 0c10.567341 0 19.133862 7.9672127 19.133862 17.795277l0 0c0 9.828056 -8.566521 17.795273 -19.133862 17.795273l0 0c-10.567337 0 -19.133858 -7.9672165 -19.133858 -17.795273z" fill-rule="evenodd"/><path stroke="#000000" stroke-width="1.0" stroke-linejoin="round" stroke-linecap="butt" d="m43.7979 73.84252l0 0c0 -9.828064 8.566521 -17.795277 19.133858 -17.795277l0 0c10.567341 0 19.133862 7.9672127 19.133862 17.795277l0 0c0 9.828056 -8.566521 17.795273 -19.133862 17.795273l0 0c-10.567337 0 -19.133858 -7.9672165 -19.133858 -17.795273z" fill-rule="evenodd"/><path fill="#000000" fill-opacity="0.0" d="m460.7743 93.884514l0 54.299217" fill-rule="evenodd"/><path stroke="#000000" stroke-width="1.0" stroke-linejoin="round" stroke-linecap="butt" d="m460.7743 93.884514l0 54.299217" fill-rule="evenodd"/><path fill="#000000" fill-opacity="0.0" d="m459.43832 151.43832l-14.236237 31.149597" fill-rule="evenodd"/><path stroke="#000000" stroke-width="1.0" stroke-linejoin="round" stroke-linecap="butt" d="m459.43832 151.43832l-14.236237 31.149597" fill-rule="evenodd"/><path fill="#000000" fill-opacity="0.0" d="m460.7743 146.55905l14.236206 32.031494" fill-rule="evenodd"/><path stroke="#000000" stroke-width="1.0" stroke-linejoin="round" stroke-linecap="butt" d="m460.7743 146.55905l14.236206 32.031494" fill-rule="evenodd"/><path fill="#000000" fill-opacity="0.0" d="m442.5223 107.65092l36.503937 0" fill-rule="evenodd"/><path stroke="#000000" stroke-width="1.0" stroke-linejoin="round" stroke-linecap="butt" d="m442.5223 107.65092l36.503937 0" fill-rule="evenodd"/><path fill="#cfe2f3" d="m441.6404 79.091866l0 0c0 -9.828064 8.566528 -17.795277 19.13388 -17.795277l0 0c10.567322 0 19.13385 7.9672127 19.13385 17.795277l0 0c0 9.828056 -8.566528 17.795273 -19.13385 17.795273l0 0c-10.567352 0 -19.13388 -7.9672165 -19.13388 -17.795273z" fill-rule="evenodd"/><path stroke="#000000" stroke-width="1.0" stroke-linejoin="round" stroke-linecap="butt" d="m441.6404 79.091866l0 0c0 -9.828064 8.566528 -17.795277 19.13388 -17.795277l0 0c10.567322 0 19.13385 7.9672127 19.13385 17.795277l0 0c0 9.828056 -8.566528 17.795273 -19.13385 17.795273l0 0c-10.567352 0 -19.13388 -7.9672165 -19.13388 -17.795273z" fill-rule="evenodd"/><path fill="#000000" fill-opacity="0.0" d="m64.267715 397.82678l0 54.299194" fill-rule="evenodd"/><path stroke="#000000" stroke-width="1.0" stroke-linejoin="round" stroke-linecap="butt" d="m64.267715 397.82678l0 54.299194" fill-rule="evenodd"/><path fill="#000000" fill-opacity="0.0" d="m64.267715 452.11548l-14.2362175 31.149628" fill-rule="evenodd"/><path stroke="#000000" stroke-width="1.0" stroke-linejoin="round" stroke-linecap="butt" d="m64.267715 452.11548l-14.2362175 31.149628" fill-rule="evenodd"/><path fill="#000000" fill-opacity="0.0" d="m65.15748 452.11548l14.236221 32.031494" fill-rule="evenodd"/><path stroke="#000000" stroke-width="1.0" stroke-linejoin="round" stroke-linecap="butt" d="m65.15748 452.11548l14.236221 32.031494" fill-rule="evenodd"/><path fill="#000000" fill-opacity="0.0" d="m46.46719 422.7454l36.50394 0" fill-rule="evenodd"/><path stroke="#000000" stroke-width="1.0" stroke-linejoin="round" stroke-linecap="butt" d="m46.46719 422.7454l36.50394 0" fill-rule="evenodd"/><path fill="#cfe2f3" d="m44.687664 389.81104l0 0c0 -9.828064 8.566521 -17.795288 19.133858 -17.795288l0 0c10.567341 0 19.133862 7.967224 19.133862 17.795288l0 0c0 9.828033 -8.566521 17.795258 -19.133862 17.795258l0 0c-10.567337 0 -19.133858 -7.967224 -19.133858 -17.795258z" fill-rule="evenodd"/><path stroke="#000000" stroke-width="1.0" stroke-linejoin="round" stroke-linecap="butt" d="m44.687664 389.81104l0 0c0 -9.828064 8.566521 -17.795288 19.133858 -17.795288l0 0c10.567341 0 19.133862 7.967224 19.133862 17.795288l0 0c0 9.828033 -8.566521 17.795258 -19.133862 17.795258l0 0c-10.567337 0 -19.133858 -7.967224 -19.133858 -17.795258z" fill-rule="evenodd"/><path fill="#cfe2f3" d="m206.22704 87.154854l0 0c0 -14.994308 16.1389 -27.149605 36.04724 -27.149605l0 0c19.90834 0 36.047256 12.155296 36.047256 27.149605l0 0c0 14.994316 -16.138916 27.149605 -36.047256 27.149605l0 0c-19.90834 0 -36.04724 -12.155289 -36.04724 -27.149605z" fill-rule="evenodd"/><path stroke="#000000" stroke-width="1.0" stroke-linejoin="round" stroke-linecap="butt" d="m206.22704 87.154854l0 0c0 -14.994308 16.1389 -27.149605 36.04724 -27.149605l0 0c19.90834 0 36.047256 12.155296 36.047256 27.149605l0 0c0 14.994316 -16.138916 27.149605 -36.047256 27.149605l0 0c-19.90834 0 -36.04724 -12.155289 -36.04724 -27.149605z" fill-rule="evenodd"/><path fill="#000000" fill-opacity="0.0" d="m214.68504 61.29659l55.181107 0l0 51.716534l-55.181107 0z" fill-rule="evenodd"/><path fill="#000000" d="m224.32567 78.45596q0 -2.375 1.28125 -3.71875q1.28125 -1.34375 3.296875 -1.34375q1.3125 0 2.375 0.625q1.0625 0.625 1.609375 1.765625q0.5625 1.125 0.5625 2.5625q0 1.4375 -0.59375 2.59375q-0.578125 1.140625 -1.65625 1.734375q-1.0625 0.578125 -2.3125 0.578125q-1.34375 0 -2.40625 -0.640625q-1.0625 -0.65625 -1.609375 -1.78125q-0.546875 -1.125 -0.546875 -2.375zm1.3125 0.015625q0 1.71875 0.921875 2.71875q0.921875 0.984375 2.328125 0.984375q1.421875 0 2.34375 -1.0q0.921875 -1.0 0.921875 -2.84375q0 -1.15625 -0.40625 -2.03125q-0.390625 -0.875 -1.15625 -1.34375q-0.75 -0.484375 -1.6875 -0.484375q-1.34375 0 -2.3125 0.921875q-0.953125 0.921875 -0.953125 3.078125zm9.2733 4.625l0 -6.90625l1.0625 0l0 1.046875q0.40625 -0.734375 0.734375 -0.96875q0.34375 -0.234375 0.765625 -0.234375q0.59375 0 1.203125 0.375l-0.40625 1.078125q-0.4375 -0.25 -0.859375 -0.25q-0.390625 0 -0.703125 0.234375q-0.296875 0.234375 -0.421875 0.640625q-0.203125 0.625 -0.203125 1.359375l0 3.625l-1.171875 0zm8.93837 0l0 -0.875q-0.65625 1.03125 -1.9375 1.03125q-0.8125 0 -1.515625 -0.453125q-0.6875 -0.453125 -1.078125 -1.265625q-0.375 -0.828125 -0.375 -1.890625q0 -1.03125 0.34375 -1.875q0.34375 -0.84375 1.03125 -1.28125q0.703125 -0.453125 1.546875 -0.453125q0.625 0 1.109375 0.265625q0.5 0.25 0.796875 0.671875l0 -3.421875l1.171875 0l0 9.546875l-1.09375 0zm-3.703125 -3.453125q0 1.328125 0.5625 1.984375q0.5625 0.65625 1.328125 0.65625q0.765625 0 1.296875 -0.625q0.53125 -0.625 0.53125 -1.90625q0 -1.421875 -0.546875 -2.078125q-0.546875 -0.671875 -1.34375 -0.671875q-0.78125 0 -1.3125 0.640625q-0.515625 0.625 -0.515625 2.0zm11.365601 1.234375l1.203125 0.140625q-0.28125 1.0625 -1.0625 1.65625q-0.765625 0.578125 -1.96875 0.578125q-1.515625 0 -2.40625 -0.9375q-0.890625 -0.9375 -0.890625 -2.609375q0 -1.75 0.890625 -2.703125q0.90625 -0.96875 2.34375 -0.96875q1.390625 0 2.265625 0.9375q0.875 0.9375 0.875 2.65625q0 0.109375 0 0.3125l-5.15625 0q0.0625 1.140625 0.640625 1.75q0.578125 0.59375 1.4375 0.59375q0.65625 0 1.109375 -0.328125q0.453125 -0.34375 0.71875 -1.078125zm-3.84375 -1.90625l3.859375 0q-0.078125 -0.859375 -0.4375 -1.296875q-0.5625 -0.6875 -1.453125 -0.6875q-0.8125 0 -1.359375 0.546875q-0.546875 0.53125 -0.609375 1.4375zm6.5062256 4.125l0 -6.90625l1.0625 0l0 1.046875q0.40625 -0.734375 0.734375 -0.96875q0.34373474 -0.234375 0.76560974 -0.234375q0.59375 0 1.203125 0.375l-0.40625 1.078125q-0.4375 -0.25 -0.859375 -0.25q-0.390625 0 -0.70310974 0.234375q-0.296875 0.234375 -0.421875 0.640625q-0.203125 0.625 -0.203125 1.359375l0 3.625l-1.171875 0z" fill-rule="nonzero"/><path fill="#000000" d="m224.7788 99.09659l0 -9.546875l6.4375 0l0 1.125l-5.171875 0l0 2.96875l4.46875 0l0 1.125l-4.46875 0l0 4.328125l-1.265625 0zm7.4851074 -3.453125q0 -1.921875 1.078125 -2.84375q0.890625 -0.765625 2.171875 -0.765625q1.421875 0 2.328125 0.9375q0.90625 0.921875 0.90625 2.578125q0 1.328125 -0.40625 2.09375q-0.390625 0.765625 -1.15625 1.1875q-0.765625 0.421875 -1.671875 0.421875q-1.453125 0 -2.359375 -0.921875q-0.890625 -0.9375 -0.890625 -2.6875zm1.203125 0q0 1.328125 0.578125 1.984375q0.59375 0.65625 1.46875 0.65625q0.875 0 1.453125 -0.65625q0.578125 -0.671875 0.578125 -2.03125q0 -1.28125 -0.59375 -1.9375q-0.578125 -0.65625 -1.4375 -0.65625q-0.875 0 -1.46875 0.65625q-0.578125 0.65625 -0.578125 1.984375zm6.2093506 0q0 -1.921875 1.078125 -2.84375q0.890625 -0.765625 2.171875 -0.765625q1.421875 0 2.328125 0.9375q0.90625 0.921875 0.90625 2.578125q0 1.328125 -0.40625 2.09375q-0.390625 0.765625 -1.15625 1.1875q-0.765625 0.421875 -1.671875 0.421875q-1.453125 0 -2.359375 -0.921875q-0.890625 -0.9375 -0.890625 -2.6875zm1.203125 0q0 1.328125 0.578125 1.984375q0.59375 0.65625 1.46875 0.65625q0.875 0 1.453125 -0.65625q0.578125 -0.671875 0.578125 -2.03125q0 -1.28125 -0.59375 -1.9375q-0.578125 -0.65625 -1.4375 -0.65625q-0.875 0 -1.46875 0.65625q-0.578125 0.65625 -0.578125 1.984375zm11.131226 3.453125l0 -0.875q-0.65625 1.03125 -1.9375 1.03125q-0.8125 0 -1.515625 -0.453125q-0.6875 -0.453125 -1.078125 -1.265625q-0.375 -0.828125 -0.375 -1.890625q0 -1.03125 0.34375 -1.875q0.34375 -0.84375 1.03125 -1.28125q0.703125 -0.453125 1.546875 -0.453125q0.625 0 1.109375 0.265625q0.5 0.25 0.796875 0.671875l0 -3.421875l1.171875 0l0 9.546875l-1.09375 0zm-3.703125 -3.453125q0 1.328125 0.5625 1.984375q0.5625 0.65625 1.328125 0.65625q0.765625 0 1.296875 -0.625q0.53125 -0.625 0.53125 -1.90625q0 -1.421875 -0.546875 -2.078125q-0.546875 -0.671875 -1.34375 -0.671875q-0.78125 0 -1.3125 0.640625q-0.515625 0.625 -0.515625 2.0z" fill-rule="nonzero"/><path fill="#000000" fill-opacity="0.0" d="m278.2997 80.115005l172.6614 33.795273" fill-rule="evenodd"/><path stroke="#000000" stroke-width="1.0" stroke-linejoin="round" stroke-linecap="butt" d="m278.2997 80.115005l172.6614 33.795273" fill-rule="evenodd"/><path fill="#000000" fill-opacity="0.0" d="m319.70602 53.232285l72.09451 0l0 51.716537l-72.09451 0z" fill-rule="evenodd"/><path fill="#000000" d="m329.7529 75.03228l0 -9.546875l4.234375 0q1.265625 0 1.921875 0.265625q0.671875 0.25 1.0625 0.90625q0.40625 0.65625 0.40625 1.4375q0 1.015625 -0.65625 1.71875q-0.65625 0.6875 -2.03125 0.875q0.5 0.25 0.765625 0.484375q0.546875 0.5 1.046875 1.265625l1.65625 2.59375l-1.578125 0l-1.265625 -1.984375q-0.5625 -0.859375 -0.921875 -1.3125q-0.34375 -0.453125 -0.640625 -0.640625q-0.28125 -0.1875 -0.5625 -0.25q-0.21875 -0.046875 -0.703125 -0.046875l-1.46875 0l0 4.234375l-1.265625 0zm1.265625 -5.328125l2.71875 0q0.859375 0 1.34375 -0.171875q0.484375 -0.1875 0.734375 -0.578125q0.265625 -0.390625 0.265625 -0.859375q0 -0.671875 -0.5 -1.109375q-0.484375 -0.4375 -1.546875 -0.4375l-3.015625 0l0 3.15625zm12.922028 3.109375l1.203125 0.140625q-0.28125 1.0625 -1.0625 1.65625q-0.765625 0.578125 -1.96875 0.578125q-1.515625 0 -2.40625 -0.9375q-0.890625 -0.9375 -0.890625 -2.609375q0 -1.75 0.890625 -2.703125q0.90625 -0.96875 2.34375 -0.96875q1.390625 0 2.265625 0.9375q0.875 0.9375 0.875 2.65625q0 0.109375 0 0.3125l-5.15625 0q0.0625 1.140625 0.640625 1.75q0.578125 0.59375 1.4375 0.59375q0.65625 0 1.109375 -0.328125q0.453125 -0.34375 0.71875 -1.078125zm-3.84375 -1.90625l3.859375 0q-0.078125 -0.859375 -0.4375 -1.296875q-0.5625 -0.6875 -1.453125 -0.6875q-0.8125 0 -1.359375 0.546875q-0.546875 0.53125 -0.609375 1.4375zm11.037476 1.59375l1.15625 0.15625q-0.1875 1.1875 -0.96875 1.859375q-0.78125 0.671875 -1.921875 0.671875q-1.40625 0 -2.28125 -0.921875q-0.859375 -0.9375 -0.859375 -2.65625q0 -1.125 0.375 -1.96875q0.375 -0.84375 1.125 -1.25q0.765625 -0.421875 1.65625 -0.421875q1.125 0 1.84375 0.578125q0.71875 0.5625 0.921875 1.609375l-1.140625 0.171875q-0.171875 -0.703125 -0.59375 -1.046875q-0.40625 -0.359375 -0.984375 -0.359375q-0.890625 0 -1.453125 0.640625q-0.546875 0.640625 -0.546875 2.0q0 1.40625 0.53125 2.03125q0.546875 0.625 1.40625 0.625q0.6875 0 1.140625 -0.421875q0.46875 -0.421875 0.59375 -1.296875zm6.8828125 0.3125l1.203125 0.140625q-0.28125 1.0625 -1.0625 1.65625q-0.765625 0.578125 -1.96875 0.578125q-1.515625 0 -2.40625 -0.9375q-0.890625 -0.9375 -0.890625 -2.609375q0 -1.75 0.890625 -2.703125q0.90625 -0.96875 2.34375 -0.96875q1.390625 0 2.265625 0.9375q0.875 0.9375 0.875 2.65625q0 0.109375 0 0.3125l-5.15625 0q0.0625 1.140625 0.640625 1.75q0.578125 0.59375 1.4375 0.59375q0.65625 0 1.109375 -0.328125q0.453125 -0.34375 0.71875 -1.078125zm-3.84375 -1.90625l3.859375 0q-0.078125 -0.859375 -0.4375 -1.296875q-0.5625 -0.6875 -1.453125 -0.6875q-0.8125 0 -1.359375 0.546875q-0.546875 0.53125 -0.609375 1.4375zm6.5374756 -4.0625l0 -1.359375l1.171875 0l0 1.359375l-1.171875 0zm0 8.1875l0 -6.90625l1.171875 0l0 6.90625l-1.171875 0zm4.86734 0l-2.625 -6.90625l1.234375 0l1.484375 4.140625q0.234375 0.65625 0.4375 1.390625q0.15625 -0.546875 0.4375 -1.3125l1.53125 -4.21875l1.21875 0l-2.625 6.90625l-1.09375 0zm9.4765625 -2.21875l1.203125 0.140625q-0.28125 1.0625 -1.0625 1.65625q-0.765625 0.578125 -1.96875 0.578125q-1.515625 0 -2.40625 -0.9375q-0.890625 -0.9375 -0.890625 -2.609375q0 -1.75 0.890625 -2.703125q0.90625 -0.96875 2.34375 -0.96875q1.390625 0 2.265625 0.9375q0.875 0.9375 0.875 2.65625q0 0.109375 0 0.3125l-5.15625 0q0.0625 1.140625 0.640625 1.75q0.578125 0.59375 1.4375 0.59375q0.65625 0 1.109375 -0.328125q0.453125 -0.34375 0.71875 -1.078125zm-3.84375 -1.90625l3.859375 0q-0.078125 -0.859375 -0.4375 -1.296875q-0.5625 -0.6875 -1.453125 -0.6875q-0.8125 0 -1.359375 0.546875q-0.546875 0.53125 -0.609375 1.4375z" fill-rule="nonzero"/><path fill="#000000" d="m329.14352 87.579155q0 -1.921875 1.078125 -2.84375q0.890625 -0.765625 2.171875 -0.765625q1.421875 0 2.328125 0.9375q0.90625 0.921875 0.90625 2.578125q0 1.328125 -0.40625 2.09375q-0.390625 0.765625 -1.15625 1.1875q-0.765625 0.421875 -1.671875 0.421875q-1.453125 0 -2.359375 -0.921875q-0.890625 -0.9375 -0.890625 -2.6875zm1.203125 0q0 1.328125 0.578125 1.984375q0.59375 0.65625 1.46875 0.65625q0.875 0 1.453125 -0.65625q0.578125 -0.671875 0.578125 -2.03125q0 -1.28125 -0.59375 -1.9375q-0.578125 -0.65625 -1.4375 -0.65625q-0.875 0 -1.46875 0.65625q-0.578125 0.65625 -0.578125 1.984375zm6.6312256 3.453125l0 -6.90625l1.0625 0l0 1.046875q0.40625 -0.734375 0.734375 -0.96875q0.34375 -0.234375 0.765625 -0.234375q0.59375 0 1.203125 0.375l-0.40625 1.078125q-0.4375 -0.25 -0.859375 -0.25q-0.390625 0 -0.703125 0.234375q-0.296875 0.234375 -0.421875 0.640625q-0.203125 0.625 -0.203125 1.359375l0 3.625l-1.171875 0zm8.938385 0l0 -0.875q-0.65625 1.03125 -1.9375 1.03125q-0.8125 0 -1.515625 -0.453125q-0.6875 -0.453125 -1.078125 -1.265625q-0.375 -0.828125 -0.375 -1.890625q0 -1.03125 0.34375 -1.875q0.34375 -0.84375 1.03125 -1.28125q0.703125 -0.453125 1.546875 -0.453125q0.625 0 1.109375 0.265625q0.5 0.25 0.796875 0.671875l0 -3.421875l1.171875 0l0 9.546875l-1.09375 0zm-3.703125 -3.453125q0 1.328125 0.5625 1.984375q0.5625 0.65625 1.328125 0.65625q0.765625 0 1.296875 -0.625q0.53125 -0.625 0.53125 -1.90625q0 -1.421875 -0.546875 -2.078125q-0.546875 -0.671875 -1.34375 -0.671875q-0.78125 0 -1.3125 0.640625q-0.515625 0.625 -0.515625 2.0zm11.365601 1.234375l1.203125 0.140625q-0.28125 1.0625 -1.0625 1.65625q-0.765625 0.578125 -1.96875 0.578125q-1.515625 0 -2.40625 -0.9375q-0.890625 -0.9375 -0.890625 -2.609375q0 -1.75 0.890625 -2.703125q0.90625 -0.96875 2.34375 -0.96875q1.390625 0 2.265625 0.9375q0.875 0.9375 0.875 2.65625q0 0.109375 0 0.3125l-5.15625 0q0.0625 1.140625 0.640625 1.75q0.578125 0.59375 1.4375 0.59375q0.65625 0 1.109375 -0.328125q0.453125 -0.34375 0.71875 -1.078125zm-3.84375 -1.90625l3.859375 0q-0.078125 -0.859375 -0.4375 -1.296875q-0.5625 -0.6875 -1.453125 -0.6875q-0.8125 0 -1.359375 0.546875q-0.546875 0.53125 -0.609375 1.4375zm6.5062256 4.125l0 -6.90625l1.0625 0l0 1.046875q0.40625 -0.734375 0.734375 -0.96875q0.34375 -0.234375 0.765625 -0.234375q0.59375 0 1.203125 0.375l-0.40625 1.078125q-0.4375 -0.25 -0.859375 -0.25q-0.390625 0 -0.703125 0.234375q-0.296875 0.234375 -0.421875 0.640625q-0.203125 0.625 -0.203125 1.359375l0 3.625l-1.171875 0z" fill-rule="nonzero"/><path fill="#cfe2f3" d="m296.33334 167.01312l0 0c0 -14.994308 16.138885 -27.149612 36.04724 -27.149612l0 0c19.908325 0 36.04724 12.155304 36.04724 27.149612l0 0c0 14.994308 -16.138916 27.149612 -36.04724 27.149612l0 0c-19.908356 0 -36.04724 -12.155304 -36.04724 -27.149612z" fill-rule="evenodd"/><path stroke="#000000" stroke-width="1.0" stroke-linejoin="round" stroke-linecap="butt" d="m296.33334 167.01312l0 0c0 -14.994308 16.138885 -27.149612 36.04724 -27.149612l0 0c19.908325 0 36.04724 12.155304 36.04724 27.149612l0 0c0 14.994308 -16.138916 27.149612 -36.04724 27.149612l0 0c-19.908356 0 -36.04724 -12.155304 -36.04724 -27.149612z" fill-rule="evenodd"/><path fill="#000000" fill-opacity="0.0" d="m302.79004 142.7769l59.18109 0l0 48.472443l-59.18109 0z" fill-rule="evenodd"/><path fill="#000000" d="m318.85254 160.28128l1.125 0.296875q-0.359375 1.390625 -1.28125 2.125q-0.921875 0.734375 -2.265625 0.734375q-1.390625 0 -2.265625 -0.5625q-0.875 -0.5625 -1.328125 -1.625q-0.453125 -1.078125 -0.453125 -2.3125q0 -1.34375 0.515625 -2.34375q0.515625 -1.0 1.453125 -1.515625q0.953125 -0.515625 2.09375 -0.515625q1.28125 0 2.15625 0.65625q0.890625 0.65625 1.234375 1.84375l-1.125 0.265625q-0.296875 -0.9375 -0.875 -1.359375q-0.5625 -0.4375 -1.421875 -0.4375q-0.984375 0 -1.65625 0.484375q-0.65625 0.46875 -0.9375 1.265625q-0.265625 0.796875 -0.265625 1.65625q0 1.09375 0.3125 1.90625q0.328125 0.8125 1.0 1.21875q0.671875 0.40625 1.46875 0.40625q0.953125 0 1.609375 -0.546875q0.671875 -0.546875 0.90625 -1.640625zm2.0097656 -0.09375q0 -1.734375 0.953125 -2.5625q0.796875 -0.6875 1.953125 -0.6875q1.28125 0 2.09375 0.84375q0.828125 0.828125 0.828125 2.3125q0 1.203125 -0.359375 1.890625q-0.359375 0.6875 -1.0625 1.078125q-0.6875 0.375 -1.5 0.375q-1.296875 0 -2.109375 -0.828125q-0.796875 -0.84375 -0.796875 -2.421875zm1.078125 0q0 1.1875 0.515625 1.78125q0.53125 0.59375 1.3125 0.59375q0.796875 0 1.3125 -0.59375q0.515625 -0.59375 0.515625 -1.8125q0 -1.15625 -0.53125 -1.75q-0.515625 -0.59375 -1.296875 -0.59375q-0.78125 0 -1.3125 0.59375q-0.515625 0.578125 -0.515625 1.78125zm5.595703 0q0 -1.734375 0.953125 -2.5625q0.796875 -0.6875 1.953125 -0.6875q1.28125 0 2.09375 0.84375q0.828125 0.828125 0.828125 2.3125q0 1.203125 -0.359375 1.890625q-0.359375 0.6875 -1.0625 1.078125q-0.6875 0.375 -1.5 0.375q-1.296875 0 -2.109375 -0.828125q-0.796875 -0.84375 -0.796875 -2.421875zm1.078125 0q0 1.1875 0.515625 1.78125q0.53125 0.59375 1.3125 0.59375q0.796875 0 1.3125 -0.59375q0.515625 -0.59375 0.515625 -1.8125q0 -1.15625 -0.53125 -1.75q-0.515625 -0.59375 -1.296875 -0.59375q-0.78125 0 -1.3125 0.59375q-0.515625 0.578125 -0.515625 1.78125zm5.986328 3.109375l0 -8.59375l1.0625 0l0 4.90625l2.484375 -2.53125l1.375 0l-2.390625 2.296875l2.625 3.921875l-1.296875 0l-2.0625 -3.1875l-0.734375 0.71875l0 2.46875l-1.0625 0z" fill-rule="nonzero"/><path fill="#000000" d="m312.7744 177.6969l0 -8.59375l5.796875 0l0 1.015625l-4.65625 0l0 2.65625l4.03125 0l0 1.015625l-4.03125 0l0 3.90625l-1.140625 0zm6.751953 -3.109375q0 -1.734375 0.953125 -2.5625q0.796875 -0.6875 1.953125 -0.6875q1.28125 0 2.09375 0.84375q0.828125 0.828125 0.828125 2.3125q0 1.203125 -0.359375 1.890625q-0.359375 0.6875 -1.0625 1.078125q-0.6875 0.375 -1.5 0.375q-1.296875 0 -2.109375 -0.828125q-0.796875 -0.84375 -0.796875 -2.421875zm1.078125 0q0 1.1875 0.515625 1.78125q0.53125 0.59375 1.3125 0.59375q0.796875 0 1.3125 -0.59375q0.515625 -0.59375 0.515625 -1.8125q0 -1.15625 -0.53125 -1.75q-0.515625 -0.59375 -1.296875 -0.59375q-0.78125 0 -1.3125 0.59375q-0.515625 0.578125 -0.515625 1.78125zm5.595703 0q0 -1.734375 0.953125 -2.5625q0.796875 -0.6875 1.953125 -0.6875q1.28125 0 2.09375 0.84375q0.828125 0.828125 0.828125 2.3125q0 1.203125 -0.359375 1.890625q-0.359375 0.6875 -1.0625 1.078125q-0.6875 0.375 -1.5 0.375q-1.296875 0 -2.109375 -0.828125q-0.796875 -0.84375 -0.796875 -2.421875zm1.078125 0q0 1.1875 0.515625 1.78125q0.53125 0.59375 1.3125 0.59375q0.796875 0 1.3125 -0.59375q0.515625 -0.59375 0.515625 -1.8125q0 -1.15625 -0.53125 -1.75q-0.515625 -0.59375 -1.296875 -0.59375q-0.78125 0 -1.3125 0.59375q-0.515625 0.578125 -0.515625 1.78125zm10.017578 3.109375l0 -0.78125q-0.59375 0.921875 -1.734375 0.921875q-0.75 0 -1.375 -0.40625q-0.625 -0.421875 -0.96875 -1.15625q-0.34375 -0.734375 -0.34375 -1.6875q0 -0.921875 0.3125 -1.6875q0.3125 -0.765625 0.9375 -1.15625q0.625 -0.40625 1.390625 -0.40625q0.5625 0 1.0 0.234375q0.4375 0.234375 0.71875 0.609375l0 -3.078125l1.046875 0l0 8.59375l-0.984375 0zm-3.328125 -3.109375q0 1.203125 0.5 1.796875q0.5 0.578125 1.1875 0.578125q0.6875 0 1.171875 -0.5625q0.484375 -0.5625 0.484375 -1.71875q0 -1.28125 -0.5 -1.875q-0.484375 -0.59375 -1.203125 -0.59375q-0.703125 0 -1.171875 0.578125q-0.46875 0.5625 -0.46875 1.796875z" fill-rule="nonzero"/><path fill="#000000" fill-opacity="0.0" d="m453.63516 129.78084l-92.53543 27.748032" fill-rule="evenodd"/><path stroke="#000000" stroke-width="1.0" stroke-linejoin="round" stroke-linecap="butt" d="m453.63516 129.78084l-92.53543 27.748032" fill-rule="evenodd"/><path fill="#cfe2f3" d="m196.22704 178.58792l0 0c0 -14.994308 16.484375 -27.149597 36.818893 -27.149597l0 0c20.334518 0 36.81891 12.155289 36.81891 27.149597l0 0c0 14.994324 -16.48439 27.149612 -36.81891 27.149612l0 0c-20.334518 0 -36.818893 -12.155289 -36.818893 -27.149612z" fill-rule="evenodd"/><path stroke="#000000" stroke-width="1.0" stroke-linejoin="round" stroke-linecap="butt" d="m196.22704 178.58792l0 0c0 -14.994308 16.484375 -27.149597 36.818893 -27.149597l0 0c20.334518 0 36.81891 12.155289 36.81891 27.149597l0 0c0 14.994324 -16.48439 27.149612 -36.81891 27.149612l0 0c-20.334518 0 -36.818893 -12.155289 -36.818893 -27.149612z" fill-rule="evenodd"/><path fill="#cfe2f3" d="m197.0 278.12598l0 0c0 -14.994293 16.1389 -27.149597 36.04724 -27.149597l0 0c19.90834 0 36.04724 12.155304 36.04724 27.149597l0 0c0 14.994324 -16.1389 27.149628 -36.04724 27.149628l0 0c-19.90834 0 -36.04724 -12.155304 -36.04724 -27.149628z" fill-rule="evenodd"/><path stroke="#000000" stroke-width="1.0" stroke-linejoin="round" stroke-linecap="butt" d="m197.0 278.12598l0 0c0 -14.994293 16.1389 -27.149597 36.04724 -27.149597l0 0c19.90834 0 36.04724 12.155304 36.04724 27.149597l0 0c0 14.994324 -16.1389 27.149628 -36.04724 27.149628l0 0c-19.90834 0 -36.04724 -12.155304 -36.04724 -27.149628z" fill-rule="evenodd"/><path fill="#000000" fill-opacity="0.0" d="m73.62861 120.13123l132.59842 -32.97638" fill-rule="evenodd"/><path stroke="#000000" stroke-width="1.0" stroke-linejoin="round" stroke-linecap="butt" d="m73.62861 120.13123l132.59842 -32.97638" fill-rule="evenodd"/><path fill="#000000" fill-opacity="0.0" d="m99.95276 83.2021l106.267715 0l0 33.921257l-106.267715 0z" fill-rule="evenodd"/><path fill="#000000" d="m109.87463 103.7221l0 -8.59375l3.25 0q0.84375 0 1.296875 0.078125q0.640625 0.109375 1.0625 0.40625q0.4375 0.296875 0.6875 0.828125q0.265625 0.53125 0.265625 1.171875q0 1.09375 -0.703125 1.859375q-0.6875 0.75 -2.515625 0.75l-2.203125 0l0 3.5l-1.140625 0zm1.140625 -4.5l2.21875 0q1.109375 0 1.5625 -0.40625q0.46875 -0.421875 0.46875 -1.171875q0 -0.53125 -0.28125 -0.90625q-0.265625 -0.390625 -0.703125 -0.515625q-0.296875 -0.078125 -1.0625 -0.078125l-2.203125 0l0 3.078125zm6.7070312 4.5l0 -8.59375l1.0625 0l0 8.59375l-1.0625 0zm6.7597656 -0.765625q-0.59375 0.5 -1.140625 0.703125q-0.53125 0.203125 -1.15625 0.203125q-1.03125 0 -1.578125 -0.5q-0.546875 -0.5 -0.546875 -1.28125q0 -0.453125 0.203125 -0.828125q0.203125 -0.390625 0.546875 -0.609375q0.34375 -0.234375 0.765625 -0.34375q0.296875 -0.09375 0.9375 -0.171875q1.265625 -0.140625 1.875 -0.359375q0 -0.21875 0 -0.265625q0 -0.65625 -0.296875 -0.921875q-0.40625 -0.34375 -1.203125 -0.34375q-0.734375 0 -1.09375 0.265625q-0.359375 0.25 -0.53125 0.90625l-1.03125 -0.140625q0.140625 -0.65625 0.46875 -1.0625q0.328125 -0.40625 0.9375 -0.625q0.609375 -0.21875 1.40625 -0.21875q0.796875 0 1.296875 0.1875q0.5 0.1875 0.734375 0.46875q0.234375 0.28125 0.328125 0.71875q0.046875 0.265625 0.046875 0.96875l0 1.40625q0 1.46875 0.0625 1.859375q0.078125 0.390625 0.28125 0.75l-1.109375 0q-0.15625 -0.328125 -0.203125 -0.765625zm-0.09375 -2.359375q-0.578125 0.234375 -1.71875 0.40625q-0.65625 0.09375 -0.921875 0.21875q-0.265625 0.109375 -0.421875 0.328125q-0.140625 0.21875 -0.140625 0.5q0 0.421875 0.3125 0.703125q0.328125 0.28125 0.9375 0.28125q0.609375 0 1.078125 -0.265625q0.484375 -0.265625 0.703125 -0.734375q0.171875 -0.359375 0.171875 -1.046875l0 -0.390625zm6.767578 0.84375l1.03125 0.140625q-0.171875 1.0625 -0.875 1.671875q-0.703125 0.609375 -1.71875 0.609375q-1.28125 0 -2.0625 -0.828125q-0.765625 -0.84375 -0.765625 -2.40625q0 -1.0 0.328125 -1.75q0.34375 -0.765625 1.015625 -1.140625q0.6875 -0.375 1.5 -0.375q1.0 0 1.640625 0.515625q0.65625 0.5 0.84375 1.453125l-1.03125 0.15625q-0.140625 -0.625 -0.515625 -0.9375q-0.375 -0.328125 -0.90625 -0.328125q-0.796875 0 -1.296875 0.578125q-0.5 0.5625 -0.5 1.796875q0 1.265625 0.484375 1.828125q0.484375 0.5625 1.25 0.5625q0.625 0 1.03125 -0.375q0.421875 -0.375 0.546875 -1.171875zm6.1875 0.28125l1.09375 0.125q-0.25 0.953125 -0.953125 1.484375q-0.703125 0.53125 -1.78125 0.53125q-1.359375 0 -2.171875 -0.84375q-0.796875 -0.84375 -0.796875 -2.359375q0 -1.5625 0.8125 -2.421875q0.8125 -0.875 2.09375 -0.875q1.25 0 2.03125 0.84375q0.796875 0.84375 0.796875 2.390625q0 0.09375 0 0.28125l-4.640625 0q0.0625 1.03125 0.578125 1.578125q0.515625 0.53125 1.296875 0.53125q0.578125 0 0.984375 -0.296875q0.421875 -0.3125 0.65625 -0.96875zm-3.453125 -1.703125l3.46875 0q-0.0625 -0.796875 -0.390625 -1.1875q-0.515625 -0.609375 -1.3125 -0.609375q-0.734375 0 -1.234375 0.484375q-0.484375 0.484375 -0.53125 1.3125zm8.8203125 0.59375q0 -1.734375 0.953125 -2.5625q0.796875 -0.6875 1.953125 -0.6875q1.28125 0 2.09375 0.84375q0.828125 0.828125 0.828125 2.3125q0 1.203125 -0.359375 1.890625q-0.359375 0.6875 -1.0625 1.078125q-0.6875 0.375 -1.5 0.375q-1.296875 0 -2.109375 -0.828125q-0.796875 -0.84375 -0.796875 -2.421875zm1.078125 0q0 1.1875 0.515625 1.78125q0.53125 0.59375 1.3125 0.59375q0.796875 0 1.3125 -0.59375q0.515625 -0.59375 0.515625 -1.8125q0 -1.15625 -0.53125 -1.75q-0.515625 -0.59375 -1.296875 -0.59375q-0.78125 0 -1.3125 0.59375q-0.515625 0.578125 -0.515625 1.78125zm5.970703 3.109375l0 -6.21875l0.953125 0l0 0.9375q0.359375 -0.65625 0.65625 -0.859375q0.3125 -0.21875 0.6875 -0.21875q0.53125 0 1.078125 0.328125l-0.359375 0.984375q-0.390625 -0.234375 -0.765625 -0.234375q-0.359375 0 -0.640625 0.21875q-0.265625 0.203125 -0.375 0.578125q-0.1875 0.5625 -0.1875 1.21875l0 3.265625l-1.046875 0zm8.042969 0l0 -0.78125q-0.59375 0.921875 -1.734375 0.921875q-0.75 0 -1.375 -0.40625q-0.625 -0.421875 -0.96875 -1.15625q-0.34375 -0.734375 -0.34375 -1.6875q0 -0.921875 0.3125 -1.6875q0.3125 -0.765625 0.9375 -1.15625q0.625 -0.40625 1.390625 -0.40625q0.5625 0 1.0 0.234375q0.4375 0.234375 0.71875 0.609375l0 -3.078125l1.046875 0l0 8.59375l-0.984375 0zm-3.328125 -3.109375q0 1.203125 0.5 1.796875q0.5 0.578125 1.1875 0.578125q0.6875 0 1.171875 -0.5625q0.484375 -0.5625 0.484375 -1.71875q0 -1.28125 -0.5 -1.875q-0.484375 -0.59375 -1.203125 -0.59375q-0.703125 0 -1.171875 0.578125q-0.46875 0.5625 -0.46875 1.796875zm10.220703 1.109375l1.09375 0.125q-0.25 0.953125 -0.953125 1.484375q-0.703125 0.53125 -1.78125 0.53125q-1.359375 0 -2.171875 -0.84375q-0.796875 -0.84375 -0.796875 -2.359375q0 -1.5625 0.8125 -2.421875q0.8125 -0.875 2.09375 -0.875q1.25 0 2.03125 0.84375q0.796875 0.84375 0.796875 2.390625q0 0.09375 0 0.28125l-4.640625 0q0.0625 1.03125 0.578125 1.578125q0.515625 0.53125 1.296875 0.53125q0.578125 0 0.984375 -0.296875q0.421875 -0.3125 0.65625 -0.96875zm-3.453125 -1.703125l3.46875 0q-0.0625 -0.796875 -0.390625 -1.1875q-0.515625 -0.609375 -1.3125 -0.609375q-0.734375 0 -1.234375 0.484375q-0.484375 0.484375 -0.53125 1.3125zm5.861328 3.703125l0 -6.21875l0.953125 0l0 0.9375q0.359375 -0.65625 0.65625 -0.859375q0.3125 -0.21875 0.6875 -0.21875q0.53125 0 1.078125 0.328125l-0.359375 0.984375q-0.390625 -0.234375 -0.765625 -0.234375q-0.359375 0 -0.640625 0.21875q-0.265625 0.203125 -0.375 0.578125q-0.1875 0.5625 -0.1875 1.21875l0 3.265625l-1.046875 0z" fill-rule="nonzero"/><path fill="#000000" fill-opacity="0.0" d="m83.408134 144.16273l112.8189 34.425186" fill-rule="evenodd"/><path stroke="#000000" stroke-width="1.0" stroke-linejoin="round" stroke-linecap="butt" d="m83.408134 144.16273l112.8189 34.425186" fill-rule="evenodd"/><path fill="#000000" fill-opacity="0.0" d="m90.526245 413.83203l105.70079 -235.24411" fill-rule="evenodd"/><path stroke="#000000" stroke-width="1.0" stroke-linejoin="round" stroke-linecap="butt" d="m90.526245 413.83203l105.70079 -235.24411" fill-rule="evenodd"/><path fill="#000000" fill-opacity="0.0" d="m60.6063 309.66403l158.4252 0l0 33.921265l-158.4252 0z" fill-rule="evenodd"/><path fill="#000000" d="m76.6688 327.16843l1.125 0.296875q-0.359375 1.390625 -1.28125 2.125q-0.921875 0.734375 -2.265625 0.734375q-1.390625 0 -2.265625 -0.5625q-0.875 -0.5625 -1.328125 -1.625q-0.453125 -1.078125 -0.453125 -2.3125q0 -1.34375 0.515625 -2.34375q0.515625 -1.0 1.453125 -1.515625q0.953125 -0.515625 2.09375 -0.515625q1.28125 0 2.15625 0.65625q0.890625 0.65625 1.234375 1.84375l-1.125 0.265625q-0.296875 -0.9375 -0.875 -1.359375q-0.5625 -0.4375 -1.421875 -0.4375q-0.984375 0 -1.65625 0.484375q-0.65625 0.46875 -0.9375 1.265625q-0.265625 0.796875 -0.265625 1.65625q0 1.09375 0.3125 1.90625q0.328125 0.8125 1.0 1.21875q0.671875 0.40625 1.46875 0.40625q0.953125 0 1.609375 -0.546875q0.671875 -0.546875 0.90625 -1.640625zm2.0097656 -0.09375q0 -1.734375 0.953125 -2.5625q0.796875 -0.6875 1.953125 -0.6875q1.28125 0 2.09375 0.84375q0.828125 0.828125 0.828125 2.3125q0 1.203125 -0.359375 1.890625q-0.359375 0.6875 -1.0625 1.078125q-0.6875 0.375 -1.5 0.375q-1.296875 0 -2.109375 -0.828125q-0.796875 -0.84375 -0.796875 -2.421875zm1.078125 0q0 1.1875 0.515625 1.78125q0.53125 0.59375 1.3125 0.59375q0.796875 0 1.3125 -0.59375q0.515625 -0.59375 0.515625 -1.8125q0 -1.15625 -0.53125 -1.75q-0.515625 -0.59375 -1.296875 -0.59375q-0.78125 0 -1.3125 0.59375q-0.515625 0.578125 -0.515625 1.78125zm5.986328 3.109375l0 -6.21875l0.9375 0l0 0.875q0.6875 -1.015625 1.984375 -1.015625q0.5625 0 1.03125 0.203125q0.484375 0.203125 0.71875 0.53125q0.234375 0.328125 0.328125 0.765625q0.046875 0.296875 0.046875 1.03125l0 3.828125l-1.046875 0l0 -3.78125q0 -0.65625 -0.125 -0.96875q-0.125 -0.3125 -0.4375 -0.5q-0.3125 -0.203125 -0.734375 -0.203125q-0.671875 0 -1.171875 0.4375q-0.484375 0.421875 -0.484375 1.609375l0 3.40625l-1.046875 0zm6.923828 0l0 -5.40625l-0.9375 0l0 -0.8125l0.9375 0l0 -0.671875q0 -0.625 0.109375 -0.921875q0.15625 -0.421875 0.53125 -0.671875q0.390625 -0.25 1.078125 -0.25q0.453125 0 0.984375 0.109375l-0.15625 0.90625q-0.328125 -0.046875 -0.625 -0.046875q-0.484375 0 -0.6875 0.203125q-0.1875 0.203125 -0.1875 0.765625l0 0.578125l1.21875 0l0 0.8125l-1.21875 0l0 5.40625l-1.046875 0zm3.0839844 -7.375l0 -1.21875l1.0625 0l0 1.21875l-1.0625 0zm0 7.375l0 -6.21875l1.0625 0l0 6.21875l-1.0625 0zm2.6503906 0l0 -6.21875l0.953125 0l0 0.9375q0.359375 -0.65625 0.65625 -0.859375q0.3125 -0.21875 0.6875 -0.21875q0.53125 0 1.078125 0.328125l-0.359375 0.984375q-0.390625 -0.234375 -0.765625 -0.234375q-0.359375 0 -0.640625 0.21875q-0.265625 0.203125 -0.375 0.578125q-0.1875 0.5625 -0.1875 1.21875l0 3.265625l-1.046875 0zm4.0117188 0l0 -6.21875l0.9375 0l0 0.875q0.296875 -0.46875 0.78125 -0.734375q0.484375 -0.28125 1.109375 -0.28125q0.6875 0 1.125 0.28125q0.453125 0.28125 0.625 0.796875q0.75 -1.078125 1.921875 -1.078125q0.9375 0 1.421875 0.515625q0.5 0.5 0.5 1.578125l0 4.265625l-1.046875 0l0 -3.921875q0 -0.625 -0.109375 -0.90625q-0.09375 -0.28125 -0.359375 -0.453125q-0.265625 -0.171875 -0.640625 -0.171875q-0.65625 0 -1.09375 0.4375q-0.421875 0.4375 -0.421875 1.40625l0 3.609375l-1.0625 0l0 -4.046875q0 -0.703125 -0.265625 -1.046875q-0.25 -0.359375 -0.828125 -0.359375q-0.453125 0 -0.828125 0.234375q-0.375 0.234375 -0.546875 0.6875q-0.171875 0.453125 -0.171875 1.296875l0 3.234375l-1.046875 0zm17.361328 0l0 -0.78125q-0.59375 0.921875 -1.734375 0.921875q-0.75 0 -1.375 -0.40625q-0.625 -0.421875 -0.96875 -1.15625q-0.34375 -0.734375 -0.34375 -1.6875q0 -0.921875 0.3125 -1.6875q0.3125 -0.765625 0.9375 -1.15625q0.625 -0.40625 1.390625 -0.40625q0.5625 0 1.0 0.234375q0.4375 0.234375 0.71875 0.609375l0 -3.078125l1.046875 0l0 8.59375l-0.984375 0zm-3.328125 -3.109375q0 1.203125 0.5 1.796875q0.5 0.578125 1.1875 0.578125q0.6875 0 1.171875 -0.5625q0.484375 -0.5625 0.484375 -1.71875q0 -1.28125 -0.5 -1.875q-0.484375 -0.59375 -1.203125 -0.59375q-0.703125 0 -1.171875 0.578125q-0.46875 0.5625 -0.46875 1.796875zm10.220703 1.109375l1.09375 0.125q-0.25 0.953125 -0.953125 1.484375q-0.703125 0.53125 -1.78125 0.53125q-1.359375 0 -2.171875 -0.84375q-0.796875 -0.84375 -0.796875 -2.359375q0 -1.5625 0.8125 -2.421875q0.8125 -0.875 2.09375 -0.875q1.25 0 2.03125 0.84375q0.796875 0.84375 0.796875 2.390625q0 0.09375 0 0.28125l-4.640625 0q0.0625 1.03125 0.578125 1.578125q0.515625 0.53125 1.296875 0.53125q0.578125 0 0.984375 -0.296875q0.421875 -0.3125 0.65625 -0.96875zm-3.453125 -1.703125l3.46875 0q-0.0625 -0.796875 -0.390625 -1.1875q-0.515625 -0.609375 -1.3125 -0.609375q-0.734375 0 -1.234375 0.484375q-0.484375 0.484375 -0.53125 1.3125zm5.8456955 3.703125l0 -8.59375l1.0625 0l0 8.59375l-1.0625 0zm2.6972656 -7.375l0 -1.21875l1.0625 0l0 1.21875l-1.0625 0zm0 7.375l0 -6.21875l1.0625 0l0 6.21875l-1.0625 0zm4.3847656 0l-2.359375 -6.21875l1.109375 0l1.34375 3.71875q0.203125 0.609375 0.390625 1.25q0.140625 -0.484375 0.390625 -1.171875l1.390625 -3.796875l1.078125 0l-2.359375 6.21875l-0.984375 0zm8.53125 -2.0l1.09375 0.125q-0.25 0.953125 -0.953125 1.484375q-0.703125 0.53125 -1.78125 0.53125q-1.359375 0 -2.171875 -0.84375q-0.796875 -0.84375 -0.796875 -2.359375q0 -1.5625 0.8125 -2.421875q0.8125 -0.875 2.09375 -0.875q1.25 0 2.03125 0.84375q0.796875 0.84375 0.796875 2.390625q0 0.09375 0 0.28125l-4.640625 0q0.0625 1.03125 0.578125 1.578125q0.515625 0.53125 1.296875 0.53125q0.578125 0 0.984375 -0.296875q0.421875 -0.3125 0.65625 -0.96875zm-3.453125 -1.703125l3.46875 0q-0.0625 -0.796875 -0.390625 -1.1875q-0.515625 -0.609375 -1.3125 -0.609375q-0.734375 0 -1.234375 0.484375q-0.484375 0.484375 -0.53125 1.3125zm5.861328 3.703125l0 -6.21875l0.953125 0l0 0.9375q0.359375 -0.65625 0.65625 -0.859375q0.3125 -0.21875 0.6875 -0.21875q0.53125 0 1.078125 0.328125l-0.359375 0.984375q-0.390625 -0.234375 -0.765625 -0.234375q-0.359375 0 -0.640625 0.21875q-0.265625 0.203125 -0.375 0.578125q-0.1875 0.5625 -0.1875 1.21875l0 3.265625l-1.046875 0zm3.9648438 2.390625l-0.125 -0.984375q0.34375 0.09375 0.609375 0.09375q0.34375 0 0.546875 -0.125q0.21875 -0.109375 0.359375 -0.3125q0.09375 -0.171875 0.328125 -0.796875q0.015625 -0.078125 0.09375 -0.25l-2.375 -6.234375l1.140625 0l1.296875 3.59375q0.25 0.6875 0.453125 1.453125q0.1875 -0.734375 0.4375 -1.421875l1.328125 -3.625l1.046875 0l-2.359375 6.328125q-0.390625 1.015625 -0.59375 1.40625q-0.28125 0.53125 -0.65625 0.765625q-0.359375 0.25 -0.859375 0.25q-0.296875 0 -0.671875 -0.140625z" fill-rule="nonzero"/><path fill="#000000" fill-opacity="0.0" d="m80.74803 170.0l116.25197 108.12598" fill-rule="evenodd"/><path stroke="#000000" stroke-width="1.0" stroke-linejoin="round" stroke-linecap="butt" d="m80.74803 170.0l116.25197 108.12598" fill-rule="evenodd"/><path fill="#000000" fill-opacity="0.0" d="m211.69292 250.97638l42.708664 0l0 58.173218l-42.708664 0z" fill-rule="evenodd"/><path fill="#000000" d="m221.52104 270.21637l0 -7.625l2.875 0q0.75 0 1.15625 0.0625q0.5625 0.09375 0.9375 0.359375q0.390625 0.265625 0.609375 0.75q0.234375 0.46875 0.234375 1.03125q0 0.96875 -0.625 1.65625q-0.609375 0.671875 -2.234375 0.671875l-1.953125 0l0 3.09375l-1.0 0zm1.0 -4.0l1.96875 0q0.984375 0 1.390625 -0.359375q0.421875 -0.375 0.421875 -1.03125q0 -0.484375 -0.25 -0.8125q-0.234375 -0.34375 -0.640625 -0.453125q-0.25 -0.078125 -0.9375 -0.078125l-1.953125 0l0 2.734375zm9.5920105 3.3125q-0.53125 0.453125 -1.015625 0.640625q-0.46875 0.171875 -1.015625 0.171875q-0.921875 0 -1.40625 -0.4375q-0.484375 -0.453125 -0.484375 -1.140625q0 -0.40625 0.171875 -0.734375q0.1875 -0.34375 0.484375 -0.546875q0.3125 -0.203125 0.6875 -0.3125q0.265625 -0.0625 0.828125 -0.140625q1.125 -0.125 1.671875 -0.3125q0 -0.203125 0 -0.25q0 -0.578125 -0.265625 -0.8125q-0.359375 -0.3125 -1.0625 -0.3125q-0.65625 0 -0.984375 0.234375q-0.3125 0.234375 -0.453125 0.8125l-0.921875 -0.125q0.125 -0.578125 0.40625 -0.9375q0.296875 -0.375 0.828125 -0.5625q0.546875 -0.203125 1.25 -0.203125q0.71875 0 1.15625 0.171875q0.4375 0.171875 0.640625 0.421875q0.21875 0.25 0.296875 0.640625q0.046875 0.234375 0.046875 0.859375l0 1.25q0 1.296875 0.0625 1.65625q0.0625 0.34375 0.234375 0.65625l-0.96875 0q-0.15625 -0.296875 -0.1875 -0.6875zm-0.078125 -2.078125q-0.515625 0.203125 -1.53125 0.34375q-0.578125 0.078125 -0.828125 0.1875q-0.234375 0.109375 -0.359375 0.3125q-0.125 0.1875 -0.125 0.4375q0 0.375 0.28125 0.625q0.28125 0.25 0.828125 0.25q0.53125 0 0.953125 -0.234375q0.421875 -0.234375 0.625 -0.65625q0.15625 -0.3125 0.15625 -0.9375l0 -0.328125zm2.3483734 4.890625l-0.09375 -0.875q0.296875 0.078125 0.53125 0.078125q0.3125 0 0.5 -0.109375q0.1875 -0.09375 0.3125 -0.28125q0.078125 -0.140625 0.28125 -0.703125q0.03125 -0.078125 0.078125 -0.21875l-2.09375 -5.546875l1.015625 0l1.140625 3.203125q0.234375 0.609375 0.40625 1.28125q0.15625 -0.640625 0.375 -1.265625l1.1875 -3.21875l0.9375 0l-2.109375 5.625q-0.328125 0.90625 -0.515625 1.25q-0.25 0.46875 -0.578125 0.6875q-0.3125 0.21875 -0.765625 0.21875q-0.265625 0 -0.609375 -0.125z" fill-rule="nonzero"/><path fill="#000000" d="m221.61479 283.0164l0 -4.796875l-0.828125 0l0 -0.734375l0.828125 0l0 -0.578125q0 -0.5625 0.109375 -0.828125q0.125 -0.375 0.46875 -0.59375q0.34375 -0.234375 0.953125 -0.234375q0.390625 0 0.875 0.09375l-0.140625 0.828125q-0.296875 -0.0625 -0.546875 -0.0625q-0.421875 0 -0.609375 0.1875q-0.171875 0.1875 -0.171875 0.6875l0 0.5l1.078125 0l0 0.734375l-1.078125 0l0 4.796875l-0.9375 0zm2.3981476 -2.765625q0 -1.53125 0.84375 -2.265625q0.71875 -0.625 1.734375 -0.625q1.140625 0 1.859375 0.75q0.734375 0.75 0.734375 2.0625q0 1.0625 -0.328125 1.6875q-0.3125 0.609375 -0.921875 0.953125q-0.609375 0.328125 -1.34375 0.328125q-1.15625 0 -1.875 -0.734375q-0.703125 -0.75 -0.703125 -2.15625zm0.953125 0q0 1.0625 0.46875 1.59375q0.46875 0.53125 1.15625 0.53125q0.703125 0 1.15625 -0.53125q0.46875 -0.53125 0.46875 -1.625q0 -1.015625 -0.46875 -1.546875q-0.453125 -0.53125 -1.15625 -0.53125q-0.6875 0 -1.15625 0.53125q-0.46875 0.515625 -0.46875 1.578125zm5.3014984 2.765625l0 -5.53125l0.84375 0l0 0.84375q0.328125 -0.59375 0.59375 -0.78125q0.28125 -0.1875 0.609375 -0.1875q0.46875 0 0.953125 0.3125l-0.3125 0.859375q-0.34375 -0.203125 -0.6875 -0.203125q-0.3125 0 -0.5625 0.1875q-0.234375 0.1875 -0.34375 0.515625q-0.15625 0.5 -0.15625 1.09375l0 2.890625l-0.9375 0z" fill-rule="nonzero"/><path fill="#000000" d="m221.61479 295.81638l0 -4.796875l-0.828125 0l0 -0.734375l0.828125 0l0 -0.578125q0 -0.5625 0.109375 -0.828125q0.125 -0.375 0.46875 -0.59375q0.34375 -0.234375 0.953125 -0.234375q0.390625 0 0.875 0.09375l-0.140625 0.828125q-0.296875 -0.0625 -0.546875 -0.0625q-0.421875 0 -0.609375 0.1875q-0.171875 0.1875 -0.171875 0.6875l0 0.5l1.078125 0l0 0.734375l-1.078125 0l0 4.796875l-0.9375 0zm2.3981476 -2.765625q0 -1.53125 0.84375 -2.265625q0.71875 -0.625 1.734375 -0.625q1.140625 0 1.859375 0.75q0.734375 0.75 0.734375 2.0625q0 1.0625 -0.328125 1.6875q-0.3125 0.609375 -0.921875 0.953125q-0.609375 0.328125 -1.34375 0.328125q-1.15625 0 -1.875 -0.734375q-0.703125 -0.75 -0.703125 -2.15625zm0.953125 0q0 1.0625 0.46875 1.59375q0.46875 0.53125 1.15625 0.53125q0.703125 0 1.15625 -0.53125q0.46875 -0.53125 0.46875 -1.625q0 -1.015625 -0.46875 -1.546875q-0.453125 -0.53125 -1.15625 -0.53125q-0.6875 0 -1.15625 0.53125q-0.46875 0.515625 -0.46875 1.578125zm4.9733734 0q0 -1.53125 0.84375 -2.265625q0.71875 -0.625 1.734375 -0.625q1.140625 0 1.859375 0.75q0.734375 0.75 0.734375 2.0625q0 1.0625 -0.328125 1.6875q-0.3125 0.609375 -0.921875 0.953125q-0.609375 0.328125 -1.34375 0.328125q-1.15625 0 -1.875 -0.734375q-0.703125 -0.75 -0.703125 -2.15625zm0.953125 0q0 1.0625 0.46875 1.59375q0.46875 0.53125 1.15625 0.53125q0.703125 0 1.15625 -0.53125q0.46875 -0.53125 0.46875 -1.625q0 -1.015625 -0.46875 -1.546875q-0.453125 -0.53125 -1.15625 -0.53125q-0.6875 0 -1.15625 0.53125q-0.46875 0.515625 -0.46875 1.578125zm8.895248 2.765625l0 -0.703125q-0.515625 0.828125 -1.546875 0.828125q-0.65625 0 -1.21875 -0.359375q-0.546875 -0.375 -0.859375 -1.015625q-0.296875 -0.65625 -0.296875 -1.5q0 -0.828125 0.28125 -1.5q0.28125 -0.6875 0.828125 -1.046875q0.546875 -0.359375 1.234375 -0.359375q0.5 0 0.890625 0.21875q0.390625 0.203125 0.625 0.546875l0 -2.734375l0.9375 0l0 7.625l-0.875 0zm-2.953125 -2.75q0 1.046875 0.4375 1.578125q0.453125 0.53125 1.0625 0.53125q0.609375 0 1.03125 -0.5q0.4375 -0.515625 0.4375 -1.53125q0 -1.140625 -0.4375 -1.671875q-0.4375 -0.53125 -1.078125 -0.53125q-0.609375 0 -1.03125 0.515625q-0.421875 0.5 -0.421875 1.609375z" fill-rule="nonzero"/><path fill="#000000" fill-opacity="0.0" d="m201.13387 151.12335l67.96849 0l0 54.92914l-67.96849 0z" fill-rule="evenodd"/><path fill="#000000" d="m211.25887 174.20335l0 -10.484375l3.625 0q1.21875 0 1.859375 0.140625q0.90625 0.203125 1.546875 0.75q0.828125 0.703125 1.234375 1.796875q0.40625 1.09375 0.40625 2.5q0 1.1875 -0.28125 2.109375q-0.265625 0.921875 -0.703125 1.53125q-0.4375 0.609375 -0.96875 0.953125q-0.515625 0.34375 -1.25 0.53125q-0.71875 0.171875 -1.671875 0.171875l-3.796875 0zm1.390625 -1.234375l2.25 0q1.03125 0 1.625 -0.1875q0.59375 -0.203125 0.9375 -0.546875q0.5 -0.5 0.765625 -1.328125q0.28125 -0.84375 0.28125 -2.03125q0 -1.640625 -0.546875 -2.515625q-0.53125 -0.890625 -1.3125 -1.1875q-0.546875 -0.21875 -1.796875 -0.21875l-2.203125 0l0 8.015625zm14.240524 -1.21875l1.328125 0.171875q-0.3125 1.171875 -1.171875 1.8125q-0.84375 0.640625 -2.171875 0.640625q-1.671875 0 -2.65625 -1.015625q-0.96875 -1.03125 -0.96875 -2.890625q0 -1.921875 0.984375 -2.96875q1.0 -1.0625 2.578125 -1.0625q1.515625 0 2.484375 1.03125q0.96875 1.03125 0.96875 2.921875q0 0.109375 -0.015625 0.34375l-5.65625 0q0.0625 1.25 0.703125 1.921875q0.640625 0.65625 1.59375 0.65625q0.703125 0 1.203125 -0.359375q0.5 -0.375 0.796875 -1.203125zm-4.234375 -2.078125l4.25 0q-0.09375 -0.953125 -0.484375 -1.4375q-0.625 -0.75 -1.609375 -0.75q-0.875 0 -1.484375 0.59375q-0.609375 0.59375 -0.671875 1.59375zm7.151108 4.53125l0 -10.484375l1.28125 0l0 10.484375l-1.28125 0zm3.2873993 -9.015625l0 -1.46875l1.296875 0l0 1.46875l-1.296875 0zm0 9.015625l0 -7.59375l1.296875 0l0 7.59375l-1.296875 0zm5.3655243 0l-2.890625 -7.59375l1.359375 0l1.625 4.546875q0.265625 0.734375 0.5 1.53125q0.15625 -0.609375 0.46875 -1.453125l1.6875 -4.625l1.328125 0l-2.875 7.59375l-1.203125 0zm10.421875 -2.453125l1.328125 0.171875q-0.3125 1.171875 -1.171875 1.8125q-0.84375 0.640625 -2.171875 0.640625q-1.671875 0 -2.65625 -1.015625q-0.96875 -1.03125 -0.96875 -2.890625q0 -1.921875 0.984375 -2.96875q1.0 -1.0625 2.578125 -1.0625q1.515625 0 2.484375 1.03125q0.96875 1.03125 0.96875 2.921875q0 0.109375 -0.015625 0.34375l-5.65625 0q0.0625 1.25 0.703125 1.921875q0.640625 0.65625 1.59375 0.65625q0.703125 0 1.203125 -0.359375q0.5 -0.375 0.796875 -1.203125zm-4.234375 -2.078125l4.25 0q-0.09375 -0.953125 -0.484375 -1.4375q-0.625 -0.75 -1.609375 -0.75q-0.875 0 -1.484375 0.59375q-0.609375 0.59375 -0.671875 1.59375zm7.166733 4.53125l0 -7.59375l1.15625 0l0 1.140625q0.453125 -0.796875 0.828125 -1.046875q0.375 -0.265625 0.8125 -0.265625q0.65625 0 1.328125 0.40625l-0.4375 1.203125q-0.46875 -0.28125 -0.953125 -0.28125q-0.421875 0 -0.765625 0.25q-0.328125 0.25 -0.46875 0.703125q-0.21875 0.6875 -0.21875 1.5l0 3.984375l-1.28125 0z" fill-rule="nonzero"/><path fill="#000000" d="m211.33699 191.80336l0 -10.484375l7.078125 0l0 1.234375l-5.6875 0l0 3.25l4.921875 0l0 1.234375l-4.921875 0l0 4.765625l-1.390625 0zm8.233871 -3.796875q0 -2.109375 1.171875 -3.125q0.984375 -0.84375 2.390625 -0.84375q1.578125 0 2.5625 1.03125q1.0 1.015625 1.0 2.828125q0 1.46875 -0.4375 2.3125q-0.4375 0.828125 -1.28125 1.296875q-0.84375 0.46875 -1.84375 0.46875q-1.59375 0 -2.578125 -1.015625q-0.984375 -1.03125 -0.984375 -2.953125zm1.328125 0q0 1.453125 0.625 2.1875q0.640625 0.71875 1.609375 0.71875q0.96875 0 1.59375 -0.71875q0.640625 -0.734375 0.640625 -2.234375q0 -1.40625 -0.640625 -2.125q-0.640625 -0.734375 -1.59375 -0.734375q-0.96875 0 -1.609375 0.71875q-0.625 0.71875 -0.625 2.1875zm6.822983 0q0 -2.109375 1.171875 -3.125q0.984375 -0.84375 2.390625 -0.84375q1.578125 0 2.5625 1.03125q1.0 1.015625 1.0 2.828125q0 1.46875 -0.4375 2.3125q-0.4375 0.828125 -1.28125 1.296875q-0.84375 0.46875 -1.84375 0.46875q-1.59375 0 -2.578125 -1.015625q-0.984375 -1.03125 -0.984375 -2.953125zm1.328125 0q0 1.453125 0.625 2.1875q0.640625 0.71875 1.609375 0.71875q0.96875 0 1.59375 -0.71875q0.640625 -0.734375 0.640625 -2.234375q0 -1.40625 -0.640625 -2.125q-0.640625 -0.734375 -1.59375 -0.734375q-0.96875 0 -1.609375 0.71875q-0.625 0.71875 -0.625 2.1875zm12.229233 3.796875l0 -0.953125q-0.71875 1.125 -2.125 1.125q-0.90625 0 -1.671875 -0.5q-0.75 -0.5 -1.171875 -1.390625q-0.421875 -0.90625 -0.421875 -2.078125q0 -1.140625 0.375 -2.0625q0.390625 -0.921875 1.140625 -1.40625q0.765625 -0.5 1.703125 -0.5q0.6875 0 1.21875 0.296875q0.53125 0.28125 0.875 0.734375l0 -3.75l1.28125 0l0 10.484375l-1.203125 0zm-4.0625 -3.796875q0 1.46875 0.609375 2.1875q0.625 0.71875 1.453125 0.71875q0.84375 0 1.4375 -0.6875q0.59375 -0.6875 0.59375 -2.109375q0 -1.5625 -0.609375 -2.28125q-0.59375 -0.734375 -1.484375 -0.734375q-0.84375 0 -1.421875 0.703125q-0.578125 0.703125 -0.578125 2.203125z" fill-rule="nonzero"/><path fill="#000000" fill-opacity="0.0" d="m119.10236 131.06299l67.9685 0l0 63.02362l-67.9685 0z" fill-rule="evenodd"/><path fill="#000000" d="m135.16486 148.56737l1.125 0.296875q-0.359375 1.390625 -1.28125 2.125q-0.921875 0.734375 -2.265625 0.734375q-1.390625 0 -2.265625 -0.5625q-0.875 -0.5625 -1.328125 -1.625q-0.453125 -1.078125 -0.453125 -2.3125q0 -1.34375 0.515625 -2.34375q0.515625 -1.0 1.453125 -1.515625q0.953125 -0.515625 2.09375 -0.515625q1.28125 0 2.15625 0.65625q0.890625 0.65625 1.234375 1.84375l-1.125 0.265625q-0.296875 -0.9375 -0.875 -1.359375q-0.5625 -0.4375 -1.421875 -0.4375q-0.984375 0 -1.65625 0.484375q-0.65625 0.46875 -0.9375 1.265625q-0.265625 0.796875 -0.265625 1.65625q0 1.09375 0.3125 1.90625q0.328125 0.8125 1.0 1.21875q0.671875 0.40625 1.46875 0.40625q0.953125 0 1.609375 -0.546875q0.671875 -0.546875 0.90625 -1.640625zm2.0097656 -0.09375q0 -1.734375 0.953125 -2.5625q0.796875 -0.6875 1.953125 -0.6875q1.28125 0 2.09375 0.84375q0.828125 0.828125 0.828125 2.3125q0 1.203125 -0.359375 1.890625q-0.359375 0.6875 -1.0625 1.078125q-0.6875 0.375 -1.5 0.375q-1.296875 0 -2.109375 -0.828125q-0.796875 -0.84375 -0.796875 -2.421875zm1.078125 0q0 1.1875 0.515625 1.78125q0.53125 0.59375 1.3125 0.59375q0.796875 0 1.3125 -0.59375q0.515625 -0.59375 0.515625 -1.8125q0 -1.15625 -0.53125 -1.75q-0.515625 -0.59375 -1.296875 -0.59375q-0.78125 0 -1.3125 0.59375q-0.515625 0.578125 -0.515625 1.78125zm5.986328 3.109375l0 -6.21875l0.9375 0l0 0.875q0.6875 -1.015625 1.984375 -1.015625q0.5625 0 1.03125 0.203125q0.484375 0.203125 0.71875 0.53125q0.234375 0.328125 0.328125 0.765625q0.046875 0.296875 0.046875 1.03125l0 3.828125l-1.046875 0l0 -3.78125q0 -0.65625 -0.125 -0.96875q-0.125 -0.3125 -0.4375 -0.5q-0.3125 -0.203125 -0.734375 -0.203125q-0.671875 0 -1.171875 0.4375q-0.484375 0.421875 -0.484375 1.609375l0 3.40625l-1.046875 0zm6.923828 0l0 -5.40625l-0.9375 0l0 -0.8125l0.9375 0l0 -0.671875q0 -0.625 0.109375 -0.921875q0.15625 -0.421875 0.53125 -0.671875q0.390625 -0.25 1.078125 -0.25q0.453125 0 0.984375 0.109375l-0.15625 0.90625q-0.328125 -0.046875 -0.625 -0.046875q-0.484375 0 -0.6875 0.203125q-0.1875 0.203125 -0.1875 0.765625l0 0.578125l1.21875 0l0 0.8125l-1.21875 0l0 5.40625l-1.046875 0zm3.0839844 -7.375l0 -1.21875l1.0625 0l0 1.21875l-1.0625 0zm0 7.375l0 -6.21875l1.0625 0l0 6.21875l-1.0625 0zm2.6503906 0l0 -6.21875l0.953125 0l0 0.9375q0.359375 -0.65625 0.65625 -0.859375q0.3125 -0.21875 0.6875 -0.21875q0.53125 0 1.078125 0.328125l-0.359375 0.984375q-0.390625 -0.234375 -0.765625 -0.234375q-0.359375 0 -0.640625 0.21875q-0.265625 0.203125 -0.375 0.578125q-0.1875 0.5625 -0.1875 1.21875l0 3.265625l-1.046875 0zm4.0117188 0l0 -6.21875l0.9375 0l0 0.875q0.296875 -0.46875 0.78125 -0.734375q0.484375 -0.28125 1.109375 -0.28125q0.6875 0 1.125 0.28125q0.453125 0.28125 0.625 0.796875q0.75 -1.078125 1.921875 -1.078125q0.9375 0 1.421875 0.515625q0.5 0.5 0.5 1.578125l0 4.265625l-1.046875 0l0 -3.921875q0 -0.625 -0.109375 -0.90625q-0.09375 -0.28125 -0.359375 -0.453125q-0.265625 -0.171875 -0.640625 -0.171875q-0.65625 0 -1.09375 0.4375q-0.421875 0.4375 -0.421875 1.40625l0 3.609375l-1.0625 0l0 -4.046875q0 -0.703125 -0.265625 -1.046875q-0.25 -0.359375 -0.828125 -0.359375q-0.453125 0 -0.828125 0.234375q-0.375 0.234375 -0.546875 0.6875q-0.171875 0.453125 -0.171875 1.296875l0 3.234375l-1.046875 0z" fill-rule="nonzero"/><path fill="#000000" d="m128.8836 165.983l0 -6.21875l0.953125 0l0 0.9375q0.359375 -0.65625 0.65625 -0.859375q0.3125 -0.21875 0.6875 -0.21875q0.53125 0 1.078125 0.328125l-0.359375 0.984375q-0.390625 -0.234375 -0.765625 -0.234375q-0.359375 0 -0.640625 0.21875q-0.265625 0.203125 -0.375 0.578125q-0.1875 0.5625 -0.1875 1.21875l0 3.265625l-1.046875 0zm8.261719 -2.0l1.09375 0.125q-0.25 0.953125 -0.953125 1.484375q-0.703125 0.53125 -1.78125 0.53125q-1.359375 0 -2.171875 -0.84375q-0.796875 -0.84375 -0.796875 -2.359375q0 -1.5625 0.8125 -2.421875q0.8125 -0.875 2.09375 -0.875q1.25 0 2.03125 0.84375q0.796875 0.84375 0.796875 2.390625q0 0.09375 0 0.28125l-4.640625 0q0.0625 1.03125 0.578125 1.578125q0.515625 0.53125 1.296875 0.53125q0.578125 0 0.984375 -0.296875q0.421875 -0.3125 0.65625 -0.96875zm-3.453125 -1.703125l3.46875 0q-0.0625 -0.796875 -0.390625 -1.1875q-0.515625 -0.609375 -1.3125 -0.609375q-0.734375 0 -1.234375 0.484375q-0.484375 0.484375 -0.53125 1.3125zm9.939453 1.421875l1.03125 0.140625q-0.171875 1.0625 -0.875 1.671875q-0.703125 0.609375 -1.71875 0.609375q-1.28125 0 -2.0625 -0.828125q-0.765625 -0.84375 -0.765625 -2.40625q0 -1.0 0.328125 -1.75q0.34375 -0.765625 1.015625 -1.140625q0.6875 -0.375 1.5 -0.375q1.0 0 1.640625 0.515625q0.65625 0.5 0.84375 1.453125l-1.03125 0.15625q-0.140625 -0.625 -0.515625 -0.9375q-0.375 -0.328125 -0.90625 -0.328125q-0.796875 0 -1.296875 0.578125q-0.5 0.5625 -0.5 1.796875q0 1.265625 0.484375 1.828125q0.484375 0.5625 1.25 0.5625q0.625 0 1.03125 -0.375q0.421875 -0.375 0.546875 -1.171875zm6.1875 0.28125l1.09375 0.125q-0.25 0.953125 -0.953125 1.484375q-0.703125 0.53125 -1.78125 0.53125q-1.359375 0 -2.171875 -0.84375q-0.796875 -0.84375 -0.796875 -2.359375q0 -1.5625 0.8125 -2.421875q0.8125 -0.875 2.09375 -0.875q1.25 0 2.03125 0.84375q0.796875 0.84375 0.796875 2.390625q0 0.09375 0 0.28125l-4.640625 0q0.0625 1.03125 0.578125 1.578125q0.515625 0.53125 1.296875 0.53125q0.578125 0 0.984375 -0.296875q0.421875 -0.3125 0.65625 -0.96875zm-3.453125 -1.703125l3.46875 0q-0.0625 -0.796875 -0.390625 -1.1875q-0.515625 -0.609375 -1.3125 -0.609375q-0.734375 0 -1.234375 0.484375q-0.484375 0.484375 -0.53125 1.3125zm5.876953 -3.671875l0 -1.21875l1.0625 0l0 1.21875l-1.0625 0zm0 7.375l0 -6.21875l1.0625 0l0 6.21875l-1.0625 0zm4.3847656 0l-2.359375 -6.21875l1.109375 0l1.34375 3.71875q0.203125 0.609375 0.390625 1.25q0.140625 -0.484375 0.390625 -1.171875l1.390625 -3.796875l1.078125 0l-2.359375 6.21875l-0.984375 0zm4.28125 -7.375l0 -1.21875l1.0625 0l0 1.21875l-1.0625 0zm0 7.375l0 -6.21875l1.0625 0l0 6.21875l-1.0625 0zm2.6660156 0l0 -6.21875l0.9375 0l0 0.875q0.6875 -1.015625 1.984375 -1.015625q0.5625 0 1.03125 0.203125q0.484375 0.203125 0.71875 0.53125q0.234375 0.328125 0.328125 0.765625q0.046875 0.296875 0.046875 1.03125l0 3.828125l-1.046875 0l0 -3.78125q0 -0.65625 -0.125 -0.96875q-0.125 -0.3125 -0.4375 -0.5q-0.3125 -0.203125 -0.734375 -0.203125q-0.671875 0 -1.171875 0.4375q-0.484375 0.421875 -0.484375 1.609375l0 3.40625l-1.046875 0zm6.470703 0.515625l1.03125 0.15625q0.0625 0.46875 0.359375 0.6875q0.390625 0.296875 1.0625 0.296875q0.734375 0 1.125 -0.296875q0.40625 -0.296875 0.546875 -0.8125q0.09375 -0.328125 0.078125 -1.359375q-0.6875 0.8125 -1.71875 0.8125q-1.28125 0 -1.984375 -0.921875q-0.703125 -0.9375 -0.703125 -2.21875q0 -0.890625 0.3125 -1.640625q0.328125 -0.765625 0.9375 -1.171875q0.609375 -0.40625 1.4375 -0.40625q1.109375 0 1.828125 0.890625l0 -0.75l0.96875 0l0 5.375q0 1.453125 -0.296875 2.0625q-0.296875 0.609375 -0.9375 0.953125q-0.640625 0.359375 -1.578125 0.359375q-1.109375 0 -1.796875 -0.5q-0.6875 -0.5 -0.671875 -1.515625zm0.875 -3.734375q0 1.21875 0.484375 1.78125q0.484375 0.5625 1.21875 0.5625q0.734375 0 1.21875 -0.5625q0.5 -0.5625 0.5 -1.75q0 -1.140625 -0.515625 -1.71875q-0.5 -0.578125 -1.21875 -0.578125q-0.703125 0 -1.203125 0.578125q-0.484375 0.5625 -0.484375 1.6875z" fill-rule="nonzero"/><path fill="#000000" d="m129.14923 180.383l0 -5.40625l-0.9375 0l0 -0.8125l0.9375 0l0 -0.671875q0 -0.625 0.109375 -0.921875q0.15625 -0.421875 0.53125 -0.671875q0.390625 -0.25 1.078125 -0.25q0.453125 0 0.984375 0.109375l-0.15625 0.90625q-0.328125 -0.046875 -0.625 -0.046875q-0.484375 0 -0.6875 0.203125q-0.1875 0.203125 -0.1875 0.765625l0 0.578125l1.21875 0l0 0.8125l-1.21875 0l0 5.40625l-1.046875 0zm2.6933594 -3.109375q0 -1.734375 0.953125 -2.5625q0.796875 -0.6875 1.953125 -0.6875q1.28125 0 2.09375 0.84375q0.828125 0.828125 0.828125 2.3125q0 1.203125 -0.359375 1.890625q-0.359375 0.6875 -1.0625 1.078125q-0.6875 0.375 -1.5 0.375q-1.296875 0 -2.109375 -0.828125q-0.796875 -0.84375 -0.796875 -2.421875zm1.078125 0q0 1.1875 0.515625 1.78125q0.53125 0.59375 1.3125 0.59375q0.796875 0 1.3125 -0.59375q0.515625 -0.59375 0.515625 -1.8125q0 -1.15625 -0.53125 -1.75q-0.515625 -0.59375 -1.296875 -0.59375q-0.78125 0 -1.3125 0.59375q-0.515625 0.578125 -0.515625 1.78125zm5.595703 0q0 -1.734375 0.953125 -2.5625q0.796875 -0.6875 1.953125 -0.6875q1.28125 0 2.09375 0.84375q0.828125 0.828125 0.828125 2.3125q0 1.203125 -0.359375 1.890625q-0.359375 0.6875 -1.0625 1.078125q-0.6875 0.375 -1.5 0.375q-1.296875 0 -2.109375 -0.828125q-0.796875 -0.84375 -0.796875 -2.421875zm1.078125 0q0 1.1875 0.515625 1.78125q0.53125 0.59375 1.3125 0.59375q0.796875 0 1.3125 -0.59375q0.515625 -0.59375 0.515625 -1.8125q0 -1.15625 -0.53125 -1.75q-0.515625 -0.59375 -1.296875 -0.59375q-0.78125 0 -1.3125 0.59375q-0.515625 0.578125 -0.515625 1.78125zm10.017578 3.109375l0 -0.78125q-0.59375 0.921875 -1.734375 0.921875q-0.75 0 -1.375 -0.40625q-0.625 -0.421875 -0.96875 -1.15625q-0.34375 -0.734375 -0.34375 -1.6875q0 -0.921875 0.3125 -1.6875q0.3125 -0.765625 0.9375 -1.15625q0.625 -0.40625 1.390625 -0.40625q0.5625 0 1.0 0.234375q0.4375 0.234375 0.71875 0.609375l0 -3.078125l1.046875 0l0 8.59375l-0.984375 0zm-3.328125 -3.109375q0 1.203125 0.5 1.796875q0.5 0.578125 1.1875 0.578125q0.6875 0 1.171875 -0.5625q0.484375 -0.5625 0.484375 -1.71875q0 -1.28125 -0.5 -1.875q-0.484375 -0.59375 -1.203125 -0.59375q-0.703125 0 -1.171875 0.578125q-0.46875 0.5625 -0.46875 1.796875z" fill-rule="nonzero"/><path fill="#000000" fill-opacity="0.0" d="m115.7874 196.32283l55.181107 0l0 37.16536l-55.181107 0z" fill-rule="evenodd"/><path fill="#000000" d="m125.75615 222.30908l0 -10.5l1.171875 0l0 0.984375q0.421875 -0.578125 0.9375 -0.859375q0.515625 -0.296875 1.265625 -0.296875q0.96875 0 1.71875 0.5q0.75 0.5 1.125 1.421875q0.375 0.90625 0.375 1.984375q0 1.171875 -0.421875 2.109375q-0.40625 0.921875 -1.21875 1.421875q-0.796875 0.5 -1.671875 0.5q-0.640625 0 -1.15625 -0.265625q-0.515625 -0.28125 -0.84375 -0.6875l0 3.6875l-1.28125 0zm1.15625 -6.65625q0 1.453125 0.59375 2.15625q0.609375 0.703125 1.453125 0.703125q0.859375 0 1.46875 -0.71875q0.609375 -0.734375 0.609375 -2.25q0 -1.453125 -0.609375 -2.171875q-0.59375 -0.734375 -1.421875 -0.734375q-0.8125 0 -1.453125 0.78125q-0.640625 0.765625 -0.640625 2.234375zm11.947983 2.8125q-0.71875 0.609375 -1.375 0.859375q-0.65625 0.25 -1.421875 0.25q-1.25 0 -1.921875 -0.609375q-0.671875 -0.609375 -0.671875 -1.5625q0 -0.5625 0.25 -1.015625q0.25 -0.46875 0.65625 -0.75q0.421875 -0.28125 0.9375 -0.421875q0.375 -0.09375 1.140625 -0.1875q1.5625 -0.1875 2.296875 -0.453125q0.015625 -0.265625 0.015625 -0.328125q0 -0.796875 -0.375 -1.109375q-0.484375 -0.4375 -1.453125 -0.4375q-0.921875 0 -1.359375 0.328125q-0.421875 0.3125 -0.625 1.109375l-1.265625 -0.171875q0.171875 -0.796875 0.5625 -1.296875q0.390625 -0.5 1.140625 -0.765625q0.75 -0.265625 1.71875 -0.265625q0.984375 0 1.59375 0.234375q0.609375 0.21875 0.890625 0.5625q0.28125 0.34375 0.40625 0.875q0.0625 0.328125 0.0625 1.1875l0 1.71875q0 1.796875 0.078125 2.28125q0.078125 0.46875 0.328125 0.90625l-1.34375 0q-0.203125 -0.40625 -0.265625 -0.9375zm-0.109375 -2.875q-0.703125 0.28125 -2.09375 0.484375q-0.796875 0.109375 -1.125 0.265625q-0.328125 0.140625 -0.515625 0.421875q-0.171875 0.265625 -0.171875 0.59375q0 0.515625 0.390625 0.859375q0.390625 0.34375 1.140625 0.34375q0.734375 0 1.3125 -0.3125q0.59375 -0.328125 0.859375 -0.890625q0.203125 -0.4375 0.203125 -1.296875l0 -0.46875zm3.2448578 6.734375l-0.140625 -1.203125q0.421875 0.109375 0.734375 0.109375q0.4375 0 0.6875 -0.140625q0.265625 -0.140625 0.421875 -0.40625q0.125 -0.1875 0.390625 -0.953125q0.046875 -0.109375 0.125 -0.3125l-2.890625 -7.609375l1.390625 0l1.578125 4.390625q0.3125 0.84375 0.546875 1.765625q0.234375 -0.890625 0.53125 -1.734375l1.625 -4.421875l1.296875 0l-2.890625 7.71875q-0.46875 1.25 -0.734375 1.734375q-0.34375 0.625 -0.78125 0.921875q-0.4375 0.296875 -1.0625 0.296875q-0.375 0 -0.828125 -0.15625z" fill-rule="nonzero"/><path fill="#000000" fill-opacity="0.0" d="m269.09448 278.12598l183.65353 -145.51181" fill-rule="evenodd"/><path stroke="#000000" stroke-width="1.0" stroke-linejoin="round" stroke-linecap="butt" d="m269.09448 278.12598l183.65353 -145.51181" fill-rule="evenodd"/><path fill="#000000" fill-opacity="0.0" d="m299.26773 199.82677l87.212585 0l0 48.472443l-87.212585 0z" fill-rule="evenodd"/><path fill="#000000" d="m308.2521 220.34677l3.296875 -8.59375l1.21875 0l3.515625 8.59375l-1.28125 0l-1.015625 -2.609375l-3.578125 0l-0.953125 2.609375l-1.203125 0zm2.484375 -3.53125l2.90625 0l-0.890625 -2.375q-0.421875 -1.078125 -0.609375 -1.78125q-0.171875 0.828125 -0.46875 1.640625l-0.9375 2.515625zm10.394531 1.25l1.03125 0.140625q-0.171875 1.0625 -0.875 1.671875q-0.703125 0.609375 -1.71875 0.609375q-1.28125 0 -2.0625 -0.828125q-0.765625 -0.84375 -0.765625 -2.40625q0 -1.0 0.328125 -1.75q0.34375 -0.765625 1.015625 -1.140625q0.6875 -0.375 1.5 -0.375q1.0 0 1.640625 0.515625q0.65625 0.5 0.84375 1.453125l-1.03125 0.15625q-0.140625 -0.625 -0.515625 -0.9375q-0.375 -0.328125 -0.90625 -0.328125q-0.796875 0 -1.296875 0.578125q-0.5 0.5625 -0.5 1.796875q0 1.265625 0.484375 1.828125q0.484375 0.5625 1.25 0.5625q0.625 0 1.03125 -0.375q0.421875 -0.375 0.546875 -1.171875zm6.0 0l1.03125 0.140625q-0.171875 1.0625 -0.875 1.671875q-0.703125 0.609375 -1.71875 0.609375q-1.28125 0 -2.0625 -0.828125q-0.765625 -0.84375 -0.765625 -2.40625q0 -1.0 0.328125 -1.75q0.34375 -0.765625 1.015625 -1.140625q0.6875 -0.375 1.5 -0.375q1.0 0 1.640625 0.515625q0.65625 0.5 0.84375 1.453125l-1.03125 0.15625q-0.140625 -0.625 -0.515625 -0.9375q-0.375 -0.328125 -0.90625 -0.328125q-0.796875 0 -1.296875 0.578125q-0.5 0.5625 -0.5 1.796875q0 1.265625 0.484375 1.828125q0.484375 0.5625 1.25 0.5625q0.625 0 1.03125 -0.375q0.421875 -0.375 0.546875 -1.171875zm6.1875 0.28125l1.09375 0.125q-0.25 0.953125 -0.953125 1.484375q-0.703125 0.53125 -1.78125 0.53125q-1.359375 0 -2.171875 -0.84375q-0.796875 -0.84375 -0.796875 -2.359375q0 -1.5625 0.8125 -2.421875q0.8125 -0.875 2.09375 -0.875q1.25 0 2.03125 0.84375q0.796875 0.84375 0.796875 2.390625q0 0.09375 0 0.28125l-4.640625 0q0.0625 1.03125 0.578125 1.578125q0.515625 0.53125 1.296875 0.53125q0.578125 0 0.984375 -0.296875q0.421875 -0.3125 0.65625 -0.96875zm-3.453125 -1.703125l3.46875 0q-0.0625 -0.796875 -0.390625 -1.1875q-0.515625 -0.609375 -1.3125 -0.609375q-0.734375 0 -1.234375 0.484375q-0.484375 0.484375 -0.53125 1.3125zm5.876953 6.09375l0 -8.609375l0.953125 0l0 0.796875q0.34375 -0.46875 0.765625 -0.703125q0.4375 -0.234375 1.046875 -0.234375q0.796875 0 1.40625 0.40625q0.609375 0.40625 0.90625 1.15625q0.3125 0.75 0.3125 1.640625q0 0.953125 -0.34375 1.71875q-0.328125 0.765625 -0.984375 1.171875q-0.65625 0.40625 -1.375 0.40625q-0.53125 0 -0.953125 -0.21875q-0.421875 -0.234375 -0.6875 -0.5625l0 3.03125l-1.046875 0zm0.953125 -5.46875q0 1.203125 0.484375 1.78125q0.484375 0.5625 1.171875 0.5625q0.703125 0 1.203125 -0.59375q0.5 -0.59375 0.5 -1.84375q0 -1.1875 -0.484375 -1.765625q-0.484375 -0.59375 -1.171875 -0.59375q-0.671875 0 -1.1875 0.625q-0.515625 0.625 -0.515625 1.828125zm8.017578 2.140625l0.15625 0.921875q-0.453125 0.09375 -0.796875 0.09375q-0.578125 0 -0.890625 -0.171875q-0.3125 -0.1875 -0.453125 -0.484375q-0.125 -0.296875 -0.125 -1.25l0 -3.578125l-0.765625 0l0 -0.8125l0.765625 0l0 -1.546875l1.046875 -0.625l0 2.171875l1.0625 0l0 0.8125l-1.0625 0l0 3.640625q0 0.453125 0.046875 0.578125q0.0625 0.125 0.1875 0.203125q0.125 0.078125 0.359375 0.078125q0.1875 0 0.46875 -0.03125z" fill-rule="nonzero"/><path fill="#000000" d="m309.0646 237.1374l0 -8.609375l0.953125 0l0 0.796875q0.34375 -0.46875 0.765625 -0.703125q0.4375 -0.234375 1.046875 -0.234375q0.796875 0 1.40625 0.40625q0.609375 0.40625 0.90625 1.15625q0.3125 0.75 0.3125 1.640625q0 0.953125 -0.34375 1.71875q-0.328125 0.765625 -0.984375 1.171875q-0.65625 0.40625 -1.375 0.40625q-0.53125 0 -0.953125 -0.21875q-0.421875 -0.234375 -0.6875 -0.5625l0 3.03125l-1.046875 0zm0.953125 -5.46875q0 1.203125 0.484375 1.78125q0.484375 0.5625 1.171875 0.5625q0.703125 0 1.203125 -0.59375q0.5 -0.59375 0.5 -1.84375q0 -1.1875 -0.484375 -1.765625q-0.484375 -0.59375 -1.171875 -0.59375q-0.671875 0 -1.1875 0.625q-0.515625 0.625 -0.515625 1.828125zm9.783203 2.3125q-0.59375 0.5 -1.140625 0.703125q-0.53125 0.203125 -1.15625 0.203125q-1.03125 0 -1.578125 -0.5q-0.546875 -0.5 -0.546875 -1.28125q0 -0.453125 0.203125 -0.828125q0.203125 -0.390625 0.546875 -0.609375q0.34375 -0.234375 0.765625 -0.34375q0.296875 -0.09375 0.9375 -0.171875q1.265625 -0.140625 1.875 -0.359375q0 -0.21875 0 -0.265625q0 -0.65625 -0.296875 -0.921875q-0.40625 -0.34375 -1.203125 -0.34375q-0.734375 0 -1.09375 0.265625q-0.359375 0.25 -0.53125 0.90625l-1.03125 -0.140625q0.140625 -0.65625 0.46875 -1.0625q0.328125 -0.40625 0.9375 -0.625q0.609375 -0.21875 1.40625 -0.21875q0.796875 0 1.296875 0.1875q0.5 0.1875 0.734375 0.46875q0.234375 0.28125 0.328125 0.71875q0.046875 0.265625 0.046875 0.96875l0 1.40625q0 1.46875 0.0625 1.859375q0.078125 0.390625 0.28125 0.75l-1.109375 0q-0.15625 -0.328125 -0.203125 -0.765625zm-0.09375 -2.359375q-0.578125 0.234375 -1.71875 0.40625q-0.65625 0.09375 -0.921875 0.21875q-0.265625 0.109375 -0.421875 0.328125q-0.140625 0.21875 -0.140625 0.5q0 0.421875 0.3125 0.703125q0.328125 0.28125 0.9375 0.28125q0.609375 0 1.078125 -0.265625q0.484375 -0.265625 0.703125 -0.734375q0.171875 -0.359375 0.171875 -1.046875l0 -0.390625zm2.6582031 5.515625l-0.125 -0.984375q0.34375 0.09375 0.609375 0.09375q0.34375 0 0.546875 -0.125q0.21875 -0.109375 0.359375 -0.3125q0.09375 -0.171875 0.328125 -0.796875q0.015625 -0.078125 0.09375 -0.25l-2.375 -6.234375l1.140625 0l1.296875 3.59375q0.25 0.6875 0.453125 1.453125q0.1875 -0.734375 0.4375 -1.421875l1.328125 -3.625l1.046875 0l-2.359375 6.328125q-0.390625 1.015625 -0.59375 1.40625q-0.28125 0.53125 -0.65625 0.765625q-0.359375 0.25 -0.859375 0.25q-0.296875 0 -0.671875 -0.140625zm6.046875 -2.390625l0 -6.21875l0.9375 0l0 0.875q0.296875 -0.46875 0.78125 -0.734375q0.484375 -0.28125 1.109375 -0.28125q0.6875 0 1.125 0.28125q0.453125 0.28125 0.625 0.796875q0.75 -1.078125 1.921875 -1.078125q0.9375 0 1.421875 0.515625q0.5 0.5 0.5 1.578125l0 4.265625l-1.046875 0l0 -3.921875q0 -0.625 -0.109375 -0.90625q-0.09375 -0.28125 -0.359375 -0.453125q-0.265625 -0.171875 -0.640625 -0.171875q-0.65625 0 -1.09375 0.4375q-0.421875 0.4375 -0.421875 1.40625l0 3.609375l-1.0625 0l0 -4.046875q0 -0.703125 -0.265625 -1.046875q-0.25 -0.359375 -0.828125 -0.359375q-0.453125 0 -0.828125 0.234375q-0.375 0.234375 -0.546875 0.6875q-0.171875 0.453125 -0.171875 1.296875l0 3.234375l-1.046875 0zm14.246094 -2.0l1.09375 0.125q-0.25 0.953125 -0.953125 1.484375q-0.703125 0.53125 -1.78125 0.53125q-1.359375 0 -2.171875 -0.84375q-0.796875 -0.84375 -0.796875 -2.359375q0 -1.5625 0.8125 -2.421875q0.8125 -0.875 2.09375 -0.875q1.25 0 2.03125 0.84375q0.796875 0.84375 0.796875 2.390625q0 0.09375 0 0.28125l-4.640625 0q0.0625 1.03125 0.578125 1.578125q0.515625 0.53125 1.296875 0.53125q0.578125 0 0.984375 -0.296875q0.421875 -0.3125 0.65625 -0.96875zm-3.453125 -1.703125l3.46875 0q-0.0625 -0.796875 -0.390625 -1.1875q-0.515625 -0.609375 -1.3125 -0.609375q-0.734375 0 -1.234375 0.484375q-0.484375 0.484375 -0.53125 1.3125zm5.876953 3.703125l0 -6.21875l0.9375 0l0 0.875q0.6875 -1.015625 1.984375 -1.015625q0.5625 0 1.03125 0.203125q0.484375 0.203125 0.71875 0.53125q0.234375 0.328125 0.328125 0.765625q0.046875 0.296875 0.046875 1.03125l0 3.828125l-1.046875 0l0 -3.78125q0 -0.65625 -0.125 -0.96875q-0.125 -0.3125 -0.4375 -0.5q-0.3125 -0.203125 -0.734375 -0.203125q-0.671875 0 -1.171875 0.4375q-0.484375 0.421875 -0.484375 1.609375l0 3.40625l-1.046875 0zm8.970703 -0.9375l0.15625 0.921875q-0.453125 0.09375 -0.796875 0.09375q-0.578125 0 -0.890625 -0.171875q-0.3125 -0.1875 -0.453125 -0.484375q-0.125 -0.296875 -0.125 -1.25l0 -3.578125l-0.765625 0l0 -0.8125l0.765625 0l0 -1.546875l1.046875 -0.625l0 2.171875l1.0625 0l0 0.8125l-1.0625 0l0 3.640625q0 0.453125 0.046875 0.578125q0.0625 0.125 0.1875 0.203125q0.125 0.078125 0.359375 0.078125q0.1875 0 0.46875 -0.03125z" fill-rule="nonzero"/><path fill="#000000" fill-opacity="0.0" d="m28.947506 170.0l67.968506 0l0 42.015747l-67.968506 0z" fill-rule="evenodd"/><path fill="#000000" d="m45.510006 196.92l0 -1.421875q-1.125 1.640625 -3.0625 1.640625q-0.859375 0 -1.609375 -0.328125q-0.734375 -0.328125 -1.09375 -0.828125q-0.359375 -0.5 -0.5 -1.21875q-0.109375 -0.46875 -0.109375 -1.53125l0 -5.984375l1.640625 0l0 5.359375q0 1.28125 0.109375 1.734375q0.15625 0.640625 0.65625 1.015625q0.5 0.375 1.234375 0.375q0.734375 0 1.375 -0.375q0.65625 -0.390625 0.921875 -1.03125q0.265625 -0.65625 0.265625 -1.890625l0 -5.1875l1.640625 0l0 9.671875l-1.46875 0zm3.3913422 -2.890625l1.625 -0.25q0.125 0.96875 0.75 1.5q0.625 0.515625 1.75 0.515625q1.125 0 1.671875 -0.453125q0.546875 -0.46875 0.546875 -1.09375q0 -0.546875 -0.484375 -0.875q-0.328125 -0.21875 -1.671875 -0.546875q-1.8125 -0.46875 -2.515625 -0.796875q-0.6875 -0.328125 -1.046875 -0.90625q-0.359375 -0.59375 -0.359375 -1.3125q0 -0.640625 0.296875 -1.1875q0.296875 -0.5625 0.8125 -0.921875q0.375 -0.28125 1.03125 -0.46875q0.671875 -0.203125 1.421875 -0.203125q1.140625 0 2.0 0.328125q0.859375 0.328125 1.265625 0.890625q0.421875 0.5625 0.578125 1.5l-1.609375 0.21875q-0.109375 -0.75 -0.640625 -1.171875q-0.515625 -0.421875 -1.46875 -0.421875q-1.140625 0 -1.625 0.375q-0.46875 0.375 -0.46875 0.875q0 0.3125 0.1875 0.578125q0.203125 0.265625 0.640625 0.4375q0.234375 0.09375 1.4375 0.421875q1.75 0.453125 2.4375 0.75q0.6875 0.296875 1.078125 0.859375q0.390625 0.5625 0.390625 1.40625q0 0.828125 -0.484375 1.546875q-0.46875 0.71875 -1.375 1.125q-0.90625 0.390625 -2.046875 0.390625q-1.875 0 -2.875 -0.78125q-0.984375 -0.78125 -1.25 -2.328125zm16.609379 -0.21875l1.6875 0.203125q-0.40625 1.484375 -1.484375 2.3125q-1.078125 0.8125 -2.7656288 0.8125q-2.125 0 -3.375 -1.296875q-1.234375 -1.3125 -1.234375 -3.671875q0 -2.453125 1.25 -3.796875q1.265625 -1.34375 3.265625 -1.34375q1.9375038 0 3.1562538 1.328125q1.234375 1.3125 1.234375 3.703125q0 0.15625 0 0.4375l-7.218754 0q0.09375 1.59375 0.90625 2.453125q0.8125 0.84375 2.015625 0.84375q0.90625 0 1.5468788 -0.46875q0.640625 -0.484375 1.015625 -1.515625zm-5.390629 -2.65625l5.406254 0q-0.109375 -1.21875 -0.625 -1.828125q-0.78125 -0.953125 -2.0312538 -0.953125q-1.125 0 -1.90625 0.765625q-0.765625 0.75 -0.84375 2.015625zm9.125721 5.765625l0 -9.671875l1.46875 0l0 1.46875q0.5625 -1.03125 1.03125 -1.359375q0.484375 -0.328125 1.0625 -0.328125q0.828125 0 1.6875 0.53125l-0.5625 1.515625q-0.609375 -0.359375 -1.203125 -0.359375q-0.546875 0 -0.96875 0.328125q-0.421875 0.328125 -0.609375 0.890625q-0.28125 0.875 -0.28125 1.921875l0 5.0625l-1.625 0z" fill-rule="nonzero"/><path fill="#000000" fill-opacity="0.0" d="m416.64566 179.66142l83.87402 0l0 77.57478l-83.87402 0z" fill-rule="evenodd"/><path fill="#000000" d="m426.88004 204.02142l0 -11.453125l3.953125 0q1.328125 0 2.03125 0.15625q0.984375 0.234375 1.6875 0.828125q0.90625 0.765625 1.34375 1.953125q0.453125 1.1875 0.453125 2.71875q0 1.3125 -0.3125 2.328125q-0.296875 1.0 -0.78125 1.65625q-0.46875 0.65625 -1.03125 1.046875q-0.5625 0.375 -1.375 0.578125q-0.796875 0.1875 -1.828125 0.1875l-4.140625 0zm1.515625 -1.359375l2.453125 0q1.125 0 1.765625 -0.203125q0.65625 -0.21875 1.03125 -0.59375q0.546875 -0.546875 0.84375 -1.453125q0.296875 -0.90625 0.296875 -2.203125q0 -1.796875 -0.59375 -2.765625q-0.578125 -0.96875 -1.421875 -1.296875q-0.609375 -0.234375 -1.96875 -0.234375l-2.40625 0l0 8.75zm9.8671875 -8.484375l0 -1.609375l1.40625 0l0 1.609375l-1.40625 0zm0 9.84375l0 -8.296875l1.40625 0l0 8.296875l-1.40625 0zm3.5546875 0l0 -8.296875l1.265625 0l0 1.171875q0.90625 -1.359375 2.640625 -1.359375q0.75 0 1.375 0.265625q0.625 0.265625 0.9375 0.703125q0.3125 0.4375 0.4375 1.046875q0.078125 0.390625 0.078125 1.359375l0 5.109375l-1.40625 0l0 -5.046875q0 -0.859375 -0.171875 -1.28125q-0.15625 -0.4375 -0.578125 -0.6875q-0.40625 -0.25 -0.96875 -0.25q-0.90625 0 -1.5625 0.578125q-0.640625 0.5625 -0.640625 2.15625l0 4.53125l-1.40625 0zm8.8984375 -9.84375l0 -1.609375l1.40625 0l0 1.609375l-1.40625 0zm0 9.84375l0 -8.296875l1.40625 0l0 8.296875l-1.40625 0zm3.5546875 0l0 -8.296875l1.265625 0l0 1.171875q0.90625 -1.359375 2.640625 -1.359375q0.75 0 1.375 0.265625q0.625 0.265625 0.9375 0.703125q0.3125 0.4375 0.4375 1.046875q0.078125 0.390625 0.078125 1.359375l0 5.109375l-1.40625 0l0 -5.046875q0 -0.859375 -0.171875 -1.28125q-0.15625 -0.4375 -0.578125 -0.6875q-0.40625 -0.25 -0.96875 -0.25q-0.90625 0 -1.5625 0.578125q-0.640625 0.5625 -0.640625 2.15625l0 4.53125l-1.40625 0zm8.6328125 0.6875l1.375 0.203125q0.078125 0.640625 0.46875 0.921875q0.53125 0.390625 1.4375 0.390625q0.96875 0 1.5 -0.390625q0.53125 -0.390625 0.71875 -1.09375q0.109375 -0.421875 0.109375 -1.8125q-0.921875 1.09375 -2.296875 1.09375q-1.71875 0 -2.65625 -1.234375q-0.9375 -1.234375 -0.9375 -2.96875q0 -1.1875 0.421875 -2.1875q0.4375 -1.0 1.25 -1.546875q0.828125 -0.546875 1.921875 -0.546875q1.46875 0 2.421875 1.1875l0 -1.0l1.296875 0l0 7.171875q0 1.9375 -0.390625 2.75q-0.390625 0.8125 -1.25 1.28125q-0.859375 0.46875 -2.109375 0.46875q-1.484375 0 -2.40625 -0.671875q-0.90625 -0.671875 -0.875 -2.015625zm1.171875 -4.984375q0 1.625 0.640625 2.375q0.65625 0.75 1.625 0.75q0.96875 0 1.625 -0.734375q0.65625 -0.75 0.65625 -2.34375q0 -1.53125 -0.671875 -2.296875q-0.671875 -0.78125 -1.625 -0.78125q-0.9375 0 -1.59375 0.765625q-0.65625 0.765625 -0.65625 2.265625z" fill-rule="nonzero"/><path fill="#000000" d="m426.14566 220.73705l1.390625 -0.21875q0.109375 0.84375 0.640625 1.296875q0.546875 0.4375 1.5 0.4375q0.96875 0 1.4375 -0.390625q0.46875 -0.40625 0.46875 -0.9375q0 -0.46875 -0.40625 -0.75q-0.296875 -0.1875 -1.4375 -0.46875q-1.546875 -0.390625 -2.15625 -0.671875q-0.59375 -0.296875 -0.90625 -0.796875q-0.296875 -0.5 -0.296875 -1.109375q0 -0.5625 0.25 -1.03125q0.25 -0.46875 0.6875 -0.78125q0.328125 -0.25 0.890625 -0.40625q0.578125 -0.171875 1.21875 -0.171875q0.984375 0 1.71875 0.28125q0.734375 0.28125 1.078125 0.765625q0.359375 0.46875 0.5 1.28125l-1.375 0.1875q-0.09375 -0.640625 -0.546875 -1.0q-0.453125 -0.359375 -1.265625 -0.359375q-0.96875 0 -1.390625 0.328125q-0.40625 0.3125 -0.40625 0.734375q0 0.28125 0.171875 0.5q0.171875 0.21875 0.53125 0.375q0.21875 0.078125 1.25 0.359375q1.484375 0.390625 2.078125 0.65625q0.59375 0.25 0.921875 0.734375q0.34375 0.484375 0.34375 1.203125q0 0.703125 -0.421875 1.328125q-0.40625 0.609375 -1.1875 0.953125q-0.765625 0.34375 -1.734375 0.34375q-1.625 0 -2.46875 -0.671875q-0.84375 -0.671875 -1.078125 -2.0zm14.234375 -0.1875l1.453125 0.171875q-0.34375 1.28125 -1.28125 1.984375q-0.921875 0.703125 -2.359375 0.703125q-1.828125 0 -2.890625 -1.125q-1.0625 -1.125 -1.0625 -3.140625q0 -2.09375 1.078125 -3.25q1.078125 -1.15625 2.796875 -1.15625q1.65625 0 2.703125 1.140625q1.0625 1.125 1.0625 3.171875q0 0.125 0 0.375l-6.1875 0q0.078125 1.375 0.765625 2.109375q0.703125 0.71875 1.734375 0.71875q0.78125 0 1.328125 -0.40625q0.546875 -0.40625 0.859375 -1.296875zm-4.609375 -2.28125l4.625 0q-0.09375 -1.046875 -0.53125 -1.5625q-0.671875 -0.8125 -1.734375 -0.8125q-0.96875 0 -1.640625 0.65625q-0.65625 0.640625 -0.71875 1.71875zm7.8203125 4.953125l0 -8.296875l1.265625 0l0 1.25q0.484375 -0.875 0.890625 -1.15625q0.40625 -0.28125 0.90625 -0.28125q0.703125 0 1.4375 0.453125l-0.484375 1.296875q-0.515625 -0.296875 -1.03125 -0.296875q-0.453125 0 -0.828125 0.28125q-0.359375 0.265625 -0.515625 0.765625q-0.234375 0.75 -0.234375 1.640625l0 4.34375l-1.40625 0zm7.640625 0l-3.15625 -8.296875l1.484375 0l1.78125 4.96875q0.296875 0.796875 0.53125 1.671875q0.1875 -0.65625 0.53125 -1.578125l1.84375 -5.0625l1.4375 0l-3.140625 8.296875l-1.3125 0zm5.703125 -9.84375l0 -1.609375l1.40625 0l0 1.609375l-1.40625 0zm0 9.84375l0 -8.296875l1.40625 0l0 8.296875l-1.40625 0zm8.9609375 -3.046875l1.390625 0.1875q-0.234375 1.421875 -1.171875 2.234375q-0.921875 0.8125 -2.28125 0.8125q-1.703125 0 -2.75 -1.109375q-1.03125 -1.125 -1.03125 -3.203125q0 -1.34375 0.4375 -2.34375q0.453125 -1.015625 1.359375 -1.515625q0.921875 -0.5 1.984375 -0.5q1.359375 0 2.21875 0.6875q0.859375 0.671875 1.09375 1.9375l-1.359375 0.203125q-0.203125 -0.828125 -0.703125 -1.25q-0.484375 -0.421875 -1.1875 -0.421875q-1.0625 0 -1.734375 0.765625q-0.65625 0.75 -0.65625 2.40625q0 1.671875 0.640625 2.4375q0.640625 0.75 1.671875 0.75q0.828125 0 1.375 -0.5q0.5625 -0.515625 0.703125 -1.578125zm8.265625 0.375l1.453125 0.171875q-0.34375 1.28125 -1.28125 1.984375q-0.921875 0.703125 -2.359375 0.703125q-1.828125 0 -2.890625 -1.125q-1.0625 -1.125 -1.0625 -3.140625q0 -2.09375 1.078125 -3.25q1.078125 -1.15625 2.796875 -1.15625q1.65625 0 2.703125 1.140625q1.0625 1.125 1.0625 3.171875q0 0.125 0 0.375l-6.1875 0q0.078125 1.375 0.765625 2.109375q0.703125 0.71875 1.734375 0.71875q0.78125 0 1.328125 -0.40625q0.546875 -0.40625 0.859375 -1.296875zm-4.609375 -2.28125l4.625 0q-0.09375 -1.046875 -0.53125 -1.5625q-0.671875 -0.8125 -1.734375 -0.8125q-0.96875 0 -1.640625 0.65625q-0.65625 0.640625 -0.71875 1.71875z" fill-rule="nonzero"/><path fill="#000000" d="m426.14566 239.93704l1.390625 -0.21875q0.109375 0.84375 0.640625 1.296875q0.546875 0.4375 1.5 0.4375q0.96875 0 1.4375 -0.390625q0.46875 -0.40625 0.46875 -0.9375q0 -0.46875 -0.40625 -0.75q-0.296875 -0.1875 -1.4375 -0.46875q-1.546875 -0.390625 -2.15625 -0.671875q-0.59375 -0.296875 -0.90625 -0.796875q-0.296875 -0.5 -0.296875 -1.109375q0 -0.5625 0.25 -1.03125q0.25 -0.46875 0.6875 -0.78125q0.328125 -0.25 0.890625 -0.40625q0.578125 -0.171875 1.21875 -0.171875q0.984375 0 1.71875 0.28125q0.734375 0.28125 1.078125 0.765625q0.359375 0.46875 0.5 1.28125l-1.375 0.1875q-0.09375 -0.640625 -0.546875 -1.0q-0.453125 -0.359375 -1.265625 -0.359375q-0.96875 0 -1.390625 0.328125q-0.40625 0.3125 -0.40625 0.734375q0 0.28125 0.171875 0.5q0.171875 0.21875 0.53125 0.375q0.21875 0.078125 1.25 0.359375q1.484375 0.390625 2.078125 0.65625q0.59375 0.25 0.921875 0.734375q0.34375 0.484375 0.34375 1.203125q0 0.703125 -0.421875 1.328125q-0.40625 0.609375 -1.1875 0.953125q-0.765625 0.34375 -1.734375 0.34375q-1.625 0 -2.46875 -0.671875q-0.84375 -0.671875 -1.078125 -2.0zm11.625 1.21875l0.203125 1.25q-0.59375 0.125 -1.0625 0.125q-0.765625 0 -1.1875 -0.234375q-0.421875 -0.25 -0.59375 -0.640625q-0.171875 -0.40625 -0.171875 -1.671875l0 -4.765625l-1.03125 0l0 -1.09375l1.03125 0l0 -2.0625l1.40625 -0.84375l0 2.90625l1.40625 0l0 1.09375l-1.40625 0l0 4.84375q0 0.609375 0.0625 0.78125q0.078125 0.171875 0.25 0.28125q0.171875 0.09375 0.484375 0.09375q0.234375 0 0.609375 -0.0625zm6.7890625 0.234375q-0.78125 0.671875 -1.5 0.953125q-0.71875 0.265625 -1.546875 0.265625q-1.375 0 -2.109375 -0.671875q-0.734375 -0.671875 -0.734375 -1.703125q0 -0.609375 0.28125 -1.109375q0.28125 -0.515625 0.71875 -0.8125q0.453125 -0.3125 1.015625 -0.46875q0.421875 -0.109375 1.25 -0.203125q1.703125 -0.203125 2.515625 -0.484375q0 -0.296875 0 -0.375q0 -0.859375 -0.390625 -1.203125q-0.546875 -0.484375 -1.609375 -0.484375q-0.984375 0 -1.46875 0.359375q-0.46875 0.34375 -0.6875 1.21875l-1.375 -0.1875q0.1875 -0.875 0.609375 -1.421875q0.4375 -0.546875 1.25 -0.828125q0.8125 -0.296875 1.875 -0.296875q1.0625 0 1.71875 0.25q0.671875 0.25 0.984375 0.625q0.3125 0.375 0.4375 0.953125q0.078125 0.359375 0.078125 1.296875l0 1.875q0 1.96875 0.078125 2.484375q0.09375 0.515625 0.359375 1.0l-1.46875 0q-0.21875 -0.4375 -0.28125 -1.03125zm-0.109375 -3.140625q-0.765625 0.3125 -2.296875 0.53125q-0.875 0.125 -1.234375 0.28125q-0.359375 0.15625 -0.5625 0.46875q-0.1875 0.296875 -0.1875 0.65625q0 0.5625 0.421875 0.9375q0.4375 0.375 1.25 0.375q0.8125 0 1.4375 -0.34375q0.640625 -0.359375 0.9375 -0.984375q0.234375 -0.46875 0.234375 -1.40625l0 -0.515625zm3.9296875 4.171875l0 -7.203125l-1.234375 0l0 -1.09375l1.234375 0l0 -0.890625q0 -0.828125 0.15625 -1.234375q0.203125 -0.546875 0.703125 -0.890625q0.515625 -0.34375 1.4375 -0.34375q0.59375 0 1.3125 0.140625l-0.203125 1.234375q-0.4375 -0.078125 -0.828125 -0.078125q-0.640625 0 -0.90625 0.28125q-0.265625 0.265625 -0.265625 1.015625l0 0.765625l1.609375 0l0 1.09375l-1.609375 0l0 7.203125l-1.40625 0zm4.15625 0l0 -7.203125l-1.234375 0l0 -1.09375l1.234375 0l0 -0.890625q0 -0.828125 0.15625 -1.234375q0.203125 -0.546875 0.703125 -0.890625q0.515625 -0.34375 1.4375 -0.34375q0.59375 0 1.3125 0.140625l-0.203125 1.234375q-0.4375 -0.078125 -0.828125 -0.078125q-0.640625 0 -0.90625 0.28125q-0.265625 0.265625 -0.265625 1.015625l0 0.765625l1.609375 0l0 1.09375l-1.609375 0l0 7.203125l-1.40625 0z" fill-rule="nonzero"/><path fill="#000000" fill-opacity="0.0" d="m0 485.07086l151.49606 0l0 42.015747l-151.49606 0z" fill-rule="evenodd"/><path fill="#000000" d="m10.4375 511.99088l0 -13.359375l4.609375 0q1.546875 0 2.375 0.203125q1.140625 0.25 1.953125 0.953125q1.0625 0.890625 1.578125 2.28125q0.53125 1.390625 0.53125 3.171875q0 1.515625 -0.359375 2.703125q-0.359375 1.171875 -0.921875 1.9375q-0.546875 0.765625 -1.203125 1.21875q-0.65625 0.4375 -1.59375 0.671875q-0.9375 0.21875 -2.140625 0.21875l-4.828125 0zm1.765625 -1.578125l2.859375 0q1.3125 0 2.0625 -0.234375q0.75 -0.25 1.203125 -0.703125q0.625 -0.625 0.96875 -1.6875q0.359375 -1.0625 0.359375 -2.578125q0 -2.09375 -0.6875 -3.21875q-0.6875 -1.125 -1.671875 -1.5q-0.703125 -0.28125 -2.28125 -0.28125l-2.8125 0l0 10.203125zm18.129196 -1.53125l1.6875 0.203125q-0.40625 1.484375 -1.484375 2.3125q-1.078125 0.8124695 -2.765625 0.8124695q-2.125 0 -3.375 -1.2968445q-1.234375 -1.3125 -1.234375 -3.671875q0 -2.453125 1.25 -3.796875q1.265625 -1.34375 3.265625 -1.34375q1.9375 0 3.15625 1.328125q1.234375 1.3125 1.234375 3.703125q0 0.15625 0 0.4375l-7.21875 0q0.09375 1.59375 0.90625 2.453125q0.8125 0.84375 2.015625 0.84375q0.90625 0 1.546875 -0.46875q0.640625 -0.484375 1.015625 -1.515625zm-5.390625 -2.65625l5.40625 0q-0.109375 -1.21875 -0.625 -1.828125q-0.78125 -0.953125 -2.03125 -0.953125q-1.125 0 -1.90625 0.765625q-0.765625 0.75 -0.84375 2.015625zm9.094467 5.765625l0 -13.359375l1.640625 0l0 13.359375l-1.640625 0zm4.191696 -11.46875l0 -1.890625l1.640625 0l0 1.890625l-1.640625 0zm0 11.46875l0 -9.671875l1.640625 0l0 9.671875l-1.640625 0zm6.832321 0l-3.6875 -9.671875l1.734375 0l2.078125 5.796875q0.328125 0.9375 0.625 1.9375q0.203125 -0.765625 0.609375 -1.828125l2.140625 -5.90625l1.6875 0l-3.65625 9.671875l-1.53125 0zm13.265625 -3.109375l1.6875 0.203125q-0.40625 1.484375 -1.484375 2.3125q-1.078125 0.8124695 -2.765625 0.8124695q-2.125 0 -3.375 -1.2968445q-1.234375 -1.3125 -1.234375 -3.671875q0 -2.453125 1.25 -3.796875q1.265625 -1.34375 3.265625 -1.34375q1.9375 0 3.15625 1.328125q1.234375 1.3125 1.234375 3.703125q0 0.15625 0 0.4375l-7.21875 0q0.09375 1.59375 0.90625 2.453125q0.8125 0.84375 2.015625 0.84375q0.90625 0 1.546875 -0.46875q0.640625 -0.484375 1.015625 -1.515625zm-5.390625 -2.65625l5.40625 0q-0.109375 -1.21875 -0.625 -1.828125q-0.78125 -0.953125 -2.03125 -0.953125q-1.125 0 -1.90625 0.765625q-0.765625 0.75 -0.84375 2.015625zm9.125717 5.765625l0 -9.671875l1.46875 0l0 1.46875q0.5625 -1.03125 1.03125 -1.359375q0.484375 -0.328125 1.0625 -0.328125q0.828125 0 1.6875 0.53125l-0.5625 1.515625q-0.609375 -0.359375 -1.203125 -0.359375q-0.546875 0 -0.96875 0.328125q-0.421875 0.328125 -0.609375 0.890625q-0.28125 0.875 -0.28125 1.921875l0 5.0625l-1.625 0zm6.150177 3.7187195l-0.1875 -1.53125q0.546875 0.140625 0.9375 0.140625q0.546875 0 0.875 -0.1875q0.328125 -0.171875 0.546875 -0.5q0.15625 -0.25 0.5 -1.21875q0.046875 -0.140625 0.140625 -0.40625l-3.671875 -9.6874695l1.765625 0l2.015625 5.59375q0.390625 1.078125 0.703125 2.25q0.28125 -1.125 0.671875 -2.203125l2.078125 -5.640625l1.640625 0l-3.6875 9.8280945q-0.59375 1.609375 -0.921875 2.203125q-0.4375 0.8125 -1.0 1.1875q-0.5625 0.375 -1.34375 0.375q-0.484375 0 -1.0625 -0.203125zm14.589554 -0.015625l0 -13.3749695l1.484375 0l0 1.25q0.53125 -0.734375 1.1875 -1.09375q0.671875 -0.375 1.625 -0.375q1.234375 0 2.171875 0.640625q0.953125 0.625 1.4375 1.796875q0.484375 1.15625 0.484375 2.546875q0 1.484375 -0.53125 2.671875q-0.53125 1.1875 -1.546875 1.828125q-1.015625 0.6249695 -2.140625 0.6249695q-0.8125 0 -1.46875 -0.34371948q-0.65625 -0.34375 -1.0625 -0.875l0 4.7030945l-1.640625 0zm1.484375 -8.4843445q0 1.859375 0.75 2.765625q0.765625 0.890625 1.828125 0.890625q1.09375 0 1.875 -0.921875q0.78125 -0.9375 0.78125 -2.875q0 -1.84375 -0.765625 -2.765625q-0.75 -0.921875 -1.8125 -0.921875q-1.046875 0 -1.859375 0.984375q-0.796875 0.96875 -0.796875 2.84375zm15.516342 1.671875l1.6875 0.203125q-0.40625 1.484375 -1.484375 2.3125q-1.078125 0.8124695 -2.765625 0.8124695q-2.125 0 -3.375 -1.2968445q-1.234375 -1.3125 -1.234375 -3.671875q0 -2.453125 1.25 -3.796875q1.265625 -1.34375 3.265625 -1.34375q1.9375 0 3.15625 1.328125q1.234375 1.3125 1.234375 3.703125q0 0.15625 0 0.4375l-7.21875 0q0.09375 1.59375 0.90625 2.453125q0.8125 0.84375 2.015625 0.84375q0.90625 0 1.546875 -0.46875q0.640625 -0.484375 1.015625 -1.515625zm-5.390625 -2.65625l5.40625 0q-0.109375 -1.21875 -0.625 -1.828125q-0.78125 -0.953125 -2.03125 -0.953125q-1.125 0 -1.90625 0.765625q-0.765625 0.75 -0.84375 2.015625zm9.125717 5.765625l0 -9.671875l1.46875 0l0 1.46875q0.5625 -1.03125 1.03125 -1.359375q0.484375 -0.328125 1.0625 -0.328125q0.828125 0 1.6875 0.53125l-0.5625 1.515625q-0.609375 -0.359375 -1.203125 -0.359375q-0.546875 0 -0.96875 0.328125q-0.421875 0.328125 -0.609375 0.890625q-0.28125 0.875 -0.28125 1.921875l0 5.0625l-1.625 0zm5.572052 -2.890625l1.625 -0.25q0.125 0.96875 0.75 1.5q0.625 0.515625 1.75 0.515625q1.125 0 1.671875 -0.453125q0.546875 -0.46875 0.546875 -1.09375q0 -0.546875 -0.484375 -0.875q-0.328125 -0.21875 -1.671875 -0.546875q-1.8125 -0.46875 -2.515625 -0.796875q-0.6875 -0.328125 -1.046875 -0.90625q-0.359375 -0.59375 -0.359375 -1.3125q0 -0.640625 0.296875 -1.1875q0.296875 -0.5625 0.8125 -0.921875q0.375 -0.28125 1.03125 -0.46875q0.671875 -0.203125 1.421875 -0.203125q1.140625 0 2.0 0.328125q0.859375 0.328125 1.265625 0.890625q0.421875 0.5625 0.578125 1.5l-1.609375 0.21875q-0.109375 -0.75 -0.640625 -1.171875q-0.515625 -0.421875 -1.46875 -0.421875q-1.140625 0 -1.625 0.375q-0.46875 0.375 -0.46875 0.875q0 0.3125 0.1875 0.578125q0.203125 0.265625 0.640625 0.4375q0.234375 0.09375 1.4375 0.421875q1.75 0.453125 2.4375 0.75q0.6875 0.296875 1.078125 0.859375q0.390625 0.5625 0.390625 1.40625q0 0.828125 -0.484375 1.546875q-0.46875 0.71875 -1.375 1.125q-0.90625 0.39059448 -2.046875 0.39059448q-1.875 0 -2.875 -0.7812195q-0.984375 -0.78125 -1.25 -2.328125zm9.375 -1.953125q0 -2.6875 1.484375 -3.96875q1.25 -1.078125 3.046875 -1.078125q2.0 0 3.265625 1.3125q1.265625 1.296875 1.265625 3.609375q0 1.859375 -0.5625 2.9375q-0.5625 1.0625 -1.640625 1.65625q-1.0625 0.5937195 -2.328125 0.5937195q-2.03125 0 -3.28125 -1.2968445q-1.25 -1.3125 -1.25 -3.765625zm1.6875 0q0 1.859375 0.796875 2.796875q0.8125 0.921875 2.046875 0.921875q1.21875 0 2.03125 -0.921875q0.8125 -0.9375 0.8125 -2.84375q0 -1.796875 -0.8125 -2.71875q-0.8125 -0.921875 -2.03125 -0.921875q-1.234375 0 -2.046875 0.921875q-0.796875 0.90625 -0.796875 2.765625zm9.297592 4.84375l0 -9.671875l1.46875 0l0 1.375q1.0625 -1.59375 3.078125 -1.59375q0.875 0 1.609375 0.3125q0.734375 0.3125 1.09375 0.828125q0.375 0.5 0.515625 1.203125q0.09375 0.453125 0.09375 1.59375l0 5.953125l-1.640625 0l0 -5.890625q0 -1.0 -0.203125 -1.484375q-0.1875 -0.5 -0.671875 -0.796875q-0.484375 -0.296875 -1.140625 -0.296875q-1.046875 0 -1.8125 0.671875q-0.75 0.65625 -0.75 2.515625l0 5.28125l-1.640625 0z" fill-rule="nonzero"/></g></svg>